  0
SECTION
  2
BLOCKS
  0
ENDSEC
  0
SECTION
  2
ENTITIES
  0
LINE
  8
0
 10
32.4167
 20
284
 11
51.25
 21
284
  0
LINE
  8
0
 10
51.25
 20
284
 11
51.25
 21
281
  0
LINE
  8
0
 10
51.25
 20
281
 11
71.25
 21
281
  0
LINE
  8
0
 10
71.25
 20
281
 11
71.25
 21
284
  0
LINE
  8
0
 10
71.25
 20
284
 11
90.0833
 21
284
  0
LINE
  8
0
 10
90.0833
 20
284
 11
90.0833
 21
281
  0
LINE
  8
0
 10
90.0833
 20
281
 11
110.083
 21
281
  0
LINE
  8
0
 10
110.083
 20
281
 11
110.083
 21
284
  0
LINE
  8
0
 10
110.083
 20
284
 11
128.917
 21
284
  0
LINE
  8
0
 10
128.917
 20
284
 11
128.917
 21
281
  0
LINE
  8
0
 10
128.917
 20
281
 11
148.917
 21
281
  0
LINE
  8
0
 10
148.917
 20
281
 11
148.917
 21
284
  0
LINE
  8
0
 10
148.917
 20
284
 11
167.75
 21
284
  0
LINE
  8
0
 10
167.75
 20
284
 11
167.75
 21
281
  0
LINE
  8
0
 10
167.75
 20
281
 11
187.75
 21
281
  0
LINE
  8
0
 10
187.75
 20
281
 11
187.75
 21
284
  0
LINE
  8
0
 10
187.75
 20
284
 11
206.583
 21
284
  0
LINE
  8
0
 10
206.583
 20
284
 11
206.583
 21
281
  0
LINE
  8
0
 10
206.583
 20
281
 11
226.583
 21
281
  0
LINE
  8
0
 10
226.583
 20
281
 11
226.583
 21
284
  0
LINE
  8
0
 10
226.583
 20
284
 11
236
 21
284
  0
LINE
  8
0
 10
236
 20
284
 11
236
 21
289
  0
LINE
  8
0
 10
236
 20
289
 11
233
 21
289
  0
LINE
  8
0
 10
233
 20
289
 11
233
 21
294
  0
LINE
  8
0
 10
233
 20
294
 11
236
 21
294
  0
LINE
  8
0
 10
236
 20
294
 11
236
 21
304
  0
LINE
  8
0
 10
236
 20
304
 11
233
 21
304
  0
LINE
  8
0
 10
233
 20
304
 11
233
 21
309
  0
LINE
  8
0
 10
233
 20
309
 11
236
 21
309
  0
LINE
  8
0
 10
236
 20
309
 11
236
 21
314
  0
LINE
  8
0
 10
236
 20
314
 11
226.583
 21
314
  0
LINE
  8
0
 10
226.583
 20
314
 11
226.583
 21
317
  0
LINE
  8
0
 10
226.583
 20
317
 11
206.583
 21
317
  0
LINE
  8
0
 10
206.583
 20
317
 11
206.583
 21
314
  0
LINE
  8
0
 10
206.583
 20
314
 11
187.75
 21
314
  0
LINE
  8
0
 10
187.75
 20
314
 11
187.75
 21
317
  0
LINE
  8
0
 10
187.75
 20
317
 11
167.75
 21
317
  0
LINE
  8
0
 10
167.75
 20
317
 11
167.75
 21
314
  0
LINE
  8
0
 10
167.75
 20
314
 11
148.917
 21
314
  0
LINE
  8
0
 10
148.917
 20
314
 11
148.917
 21
317
  0
LINE
  8
0
 10
148.917
 20
317
 11
128.917
 21
317
  0
LINE
  8
0
 10
128.917
 20
317
 11
128.917
 21
314
  0
LINE
  8
0
 10
128.917
 20
314
 11
110.083
 21
314
  0
LINE
  8
0
 10
110.083
 20
314
 11
110.083
 21
317
  0
LINE
  8
0
 10
110.083
 20
317
 11
90.0833
 21
317
  0
LINE
  8
0
 10
90.0833
 20
317
 11
90.0833
 21
314
  0
LINE
  8
0
 10
90.0833
 20
314
 11
71.25
 21
314
  0
LINE
  8
0
 10
71.25
 20
314
 11
71.25
 21
317
  0
LINE
  8
0
 10
71.25
 20
317
 11
51.25
 21
317
  0
LINE
  8
0
 10
51.25
 20
317
 11
51.25
 21
314
  0
LINE
  8
0
 10
51.25
 20
314
 11
32.4167
 21
314
  0
LINE
  8
0
 10
32.4167
 20
314
 11
32.4167
 21
317
  0
LINE
  8
0
 10
32.4167
 20
317
 11
12.4167
 21
317
  0
LINE
  8
0
 10
12.4167
 20
317
 11
12.4167
 21
314
  0
LINE
  8
0
 10
12.4167
 20
314
 11
3
 21
314
  0
LINE
  8
0
 10
3
 20
314
 11
3
 21
309
  0
LINE
  8
0
 10
3
 20
309
 11
6
 21
309
  0
LINE
  8
0
 10
6
 20
309
 11
6
 21
304
  0
LINE
  8
0
 10
6
 20
304
 11
3
 21
304
  0
LINE
  8
0
 10
3
 20
304
 11
3
 21
294
  0
LINE
  8
0
 10
3
 20
294
 11
6
 21
294
  0
LINE
  8
0
 10
6
 20
294
 11
6
 21
289
  0
LINE
  8
0
 10
6
 20
289
 11
3
 21
289
  0
LINE
  8
0
 10
3
 20
289
 11
3
 21
284
  0
LINE
  8
0
 10
3
 20
284
 11
12.4167
 21
284
  0
LINE
  8
0
 10
12.4167
 20
284
 11
12.4167
 21
281
  0
LINE
  8
0
 10
12.4167
 20
281
 11
32.4167
 21
281
  0
LINE
  8
0
 10
32.4167
 20
281
 11
32.4167
 21
284
  0
LINE
  8
0
 10
55
 20
292
 11
55
 21
304
  0
LINE
  8
0
 10
55
 20
304
 11
69
 21
304
  0
LINE
  8
0
 10
69
 20
304
 11
69
 21
292
  0
LINE
  8
0
 10
69
 20
292
 11
55
 21
292
  0
LINE
  8
0
 10
176.343
 20
291.505
 11
176.032
 21
291.544
  0
LINE
  8
0
 10
176.032
 20
291.544
 11
175.727
 21
291.622
  0
LINE
  8
0
 10
175.727
 20
291.622
 11
175.436
 21
291.738
  0
LINE
  8
0
 10
175.436
 20
291.738
 11
175.16
 21
291.889
  0
LINE
  8
0
 10
175.16
 20
291.889
 11
174.906
 21
292.074
  0
LINE
  8
0
 10
174.906
 20
292.074
 11
174.678
 21
292.289
  0
LINE
  8
0
 10
174.678
 20
292.289
 11
174.477
 21
292.531
  0
LINE
  8
0
 10
174.477
 20
292.531
 11
174.309
 21
292.796
  0
LINE
  8
0
 10
174.309
 20
292.796
 11
174.176
 21
293.08
  0
LINE
  8
0
 10
174.176
 20
293.08
 11
174.079
 21
293.378
  0
LINE
  8
0
 10
174.079
 20
293.378
 11
174.02
 21
293.687
  0
LINE
  8
0
 10
174.02
 20
293.687
 11
174
 21
294
  0
LINE
  8
0
 10
174
 20
294
 11
174.02
 21
294.313
  0
LINE
  8
0
 10
174.02
 20
294.313
 11
174.079
 21
294.622
  0
LINE
  8
0
 10
174.079
 20
294.622
 11
174.176
 21
294.92
  0
LINE
  8
0
 10
174.176
 20
294.92
 11
174.309
 21
295.204
  0
LINE
  8
0
 10
174.309
 20
295.204
 11
174.477
 21
295.469
  0
LINE
  8
0
 10
174.477
 20
295.469
 11
174.678
 21
295.711
  0
LINE
  8
0
 10
174.678
 20
295.711
 11
174.906
 21
295.926
  0
LINE
  8
0
 10
174.906
 20
295.926
 11
175.16
 21
296.111
  0
LINE
  8
0
 10
175.16
 20
296.111
 11
175.436
 21
296.262
  0
LINE
  8
0
 10
175.436
 20
296.262
 11
175.727
 21
296.378
  0
LINE
  8
0
 10
175.727
 20
296.378
 11
176.032
 21
296.456
  0
LINE
  8
0
 10
176.032
 20
296.456
 11
176.343
 21
296.495
  0
LINE
  8
0
 10
176.343
 20
296.495
 11
176.657
 21
296.495
  0
LINE
  8
0
 10
176.657
 20
296.495
 11
176.968
 21
296.456
  0
LINE
  8
0
 10
176.968
 20
296.456
 11
177.273
 21
296.378
  0
LINE
  8
0
 10
177.273
 20
296.378
 11
177.564
 21
296.262
  0
LINE
  8
0
 10
177.564
 20
296.262
 11
177.84
 21
296.111
  0
LINE
  8
0
 10
177.84
 20
296.111
 11
178.094
 21
295.926
  0
LINE
  8
0
 10
178.094
 20
295.926
 11
178.322
 21
295.711
  0
LINE
  8
0
 10
178.322
 20
295.711
 11
178.523
 21
295.469
  0
LINE
  8
0
 10
178.523
 20
295.469
 11
178.691
 21
295.204
  0
LINE
  8
0
 10
178.691
 20
295.204
 11
178.824
 21
294.92
  0
LINE
  8
0
 10
178.824
 20
294.92
 11
178.921
 21
294.622
  0
LINE
  8
0
 10
178.921
 20
294.622
 11
178.98
 21
294.313
  0
LINE
  8
0
 10
178.98
 20
294.313
 11
179
 21
294
  0
LINE
  8
0
 10
179
 20
294
 11
178.98
 21
293.687
  0
LINE
  8
0
 10
178.98
 20
293.687
 11
178.921
 21
293.378
  0
LINE
  8
0
 10
178.921
 20
293.378
 11
178.824
 21
293.08
  0
LINE
  8
0
 10
178.824
 20
293.08
 11
178.691
 21
292.796
  0
LINE
  8
0
 10
178.691
 20
292.796
 11
178.523
 21
292.531
  0
LINE
  8
0
 10
178.523
 20
292.531
 11
178.322
 21
292.289
  0
LINE
  8
0
 10
178.322
 20
292.289
 11
178.094
 21
292.074
  0
LINE
  8
0
 10
178.094
 20
292.074
 11
177.84
 21
291.889
  0
LINE
  8
0
 10
177.84
 20
291.889
 11
177.564
 21
291.738
  0
LINE
  8
0
 10
177.564
 20
291.738
 11
177.273
 21
291.622
  0
LINE
  8
0
 10
177.273
 20
291.622
 11
176.968
 21
291.544
  0
LINE
  8
0
 10
176.968
 20
291.544
 11
176.657
 21
291.505
  0
LINE
  8
0
 10
176.657
 20
291.505
 11
176.343
 21
291.505
  0
LINE
  8
0
 10
188.843
 20
291.505
 11
188.532
 21
291.544
  0
LINE
  8
0
 10
188.532
 20
291.544
 11
188.227
 21
291.622
  0
LINE
  8
0
 10
188.227
 20
291.622
 11
187.936
 21
291.738
  0
LINE
  8
0
 10
187.936
 20
291.738
 11
187.66
 21
291.889
  0
LINE
  8
0
 10
187.66
 20
291.889
 11
187.406
 21
292.074
  0
LINE
  8
0
 10
187.406
 20
292.074
 11
187.178
 21
292.289
  0
LINE
  8
0
 10
187.178
 20
292.289
 11
186.977
 21
292.531
  0
LINE
  8
0
 10
186.977
 20
292.531
 11
186.809
 21
292.796
  0
LINE
  8
0
 10
186.809
 20
292.796
 11
186.676
 21
293.08
  0
LINE
  8
0
 10
186.676
 20
293.08
 11
186.579
 21
293.378
  0
LINE
  8
0
 10
186.579
 20
293.378
 11
186.52
 21
293.687
  0
LINE
  8
0
 10
186.52
 20
293.687
 11
186.5
 21
294
  0
LINE
  8
0
 10
186.5
 20
294
 11
186.52
 21
294.313
  0
LINE
  8
0
 10
186.52
 20
294.313
 11
186.579
 21
294.622
  0
LINE
  8
0
 10
186.579
 20
294.622
 11
186.676
 21
294.92
  0
LINE
  8
0
 10
186.676
 20
294.92
 11
186.809
 21
295.204
  0
LINE
  8
0
 10
186.809
 20
295.204
 11
186.977
 21
295.469
  0
LINE
  8
0
 10
186.977
 20
295.469
 11
187.178
 21
295.711
  0
LINE
  8
0
 10
187.178
 20
295.711
 11
187.406
 21
295.926
  0
LINE
  8
0
 10
187.406
 20
295.926
 11
187.66
 21
296.111
  0
LINE
  8
0
 10
187.66
 20
296.111
 11
187.936
 21
296.262
  0
LINE
  8
0
 10
187.936
 20
296.262
 11
188.227
 21
296.378
  0
LINE
  8
0
 10
188.227
 20
296.378
 11
188.532
 21
296.456
  0
LINE
  8
0
 10
188.532
 20
296.456
 11
188.843
 21
296.495
  0
LINE
  8
0
 10
188.843
 20
296.495
 11
189.157
 21
296.495
  0
LINE
  8
0
 10
189.157
 20
296.495
 11
189.468
 21
296.456
  0
LINE
  8
0
 10
189.468
 20
296.456
 11
189.773
 21
296.378
  0
LINE
  8
0
 10
189.773
 20
296.378
 11
190.064
 21
296.262
  0
LINE
  8
0
 10
190.064
 20
296.262
 11
190.34
 21
296.111
  0
LINE
  8
0
 10
190.34
 20
296.111
 11
190.594
 21
295.926
  0
LINE
  8
0
 10
190.594
 20
295.926
 11
190.822
 21
295.711
  0
LINE
  8
0
 10
190.822
 20
295.711
 11
191.023
 21
295.469
  0
LINE
  8
0
 10
191.023
 20
295.469
 11
191.191
 21
295.204
  0
LINE
  8
0
 10
191.191
 20
295.204
 11
191.324
 21
294.92
  0
LINE
  8
0
 10
191.324
 20
294.92
 11
191.421
 21
294.622
  0
LINE
  8
0
 10
191.421
 20
294.622
 11
191.48
 21
294.313
  0
LINE
  8
0
 10
191.48
 20
294.313
 11
191.5
 21
294
  0
LINE
  8
0
 10
191.5
 20
294
 11
191.48
 21
293.687
  0
LINE
  8
0
 10
191.48
 20
293.687
 11
191.421
 21
293.378
  0
LINE
  8
0
 10
191.421
 20
293.378
 11
191.324
 21
293.08
  0
LINE
  8
0
 10
191.324
 20
293.08
 11
191.191
 21
292.796
  0
LINE
  8
0
 10
191.191
 20
292.796
 11
191.023
 21
292.531
  0
LINE
  8
0
 10
191.023
 20
292.531
 11
190.822
 21
292.289
  0
LINE
  8
0
 10
190.822
 20
292.289
 11
190.594
 21
292.074
  0
LINE
  8
0
 10
190.594
 20
292.074
 11
190.34
 21
291.889
  0
LINE
  8
0
 10
190.34
 20
291.889
 11
190.064
 21
291.738
  0
LINE
  8
0
 10
190.064
 20
291.738
 11
189.773
 21
291.622
  0
LINE
  8
0
 10
189.773
 20
291.622
 11
189.468
 21
291.544
  0
LINE
  8
0
 10
189.468
 20
291.544
 11
189.157
 21
291.505
  0
LINE
  8
0
 10
189.157
 20
291.505
 11
188.843
 21
291.505
  0
LINE
  8
0
 10
201.343
 20
291.505
 11
201.032
 21
291.544
  0
LINE
  8
0
 10
201.032
 20
291.544
 11
200.727
 21
291.622
  0
LINE
  8
0
 10
200.727
 20
291.622
 11
200.436
 21
291.738
  0
LINE
  8
0
 10
200.436
 20
291.738
 11
200.16
 21
291.889
  0
LINE
  8
0
 10
200.16
 20
291.889
 11
199.906
 21
292.074
  0
LINE
  8
0
 10
199.906
 20
292.074
 11
199.678
 21
292.289
  0
LINE
  8
0
 10
199.678
 20
292.289
 11
199.477
 21
292.531
  0
LINE
  8
0
 10
199.477
 20
292.531
 11
199.309
 21
292.796
  0
LINE
  8
0
 10
199.309
 20
292.796
 11
199.176
 21
293.08
  0
LINE
  8
0
 10
199.176
 20
293.08
 11
199.079
 21
293.378
  0
LINE
  8
0
 10
199.079
 20
293.378
 11
199.02
 21
293.687
  0
LINE
  8
0
 10
199.02
 20
293.687
 11
199
 21
294
  0
LINE
  8
0
 10
199
 20
294
 11
199.02
 21
294.313
  0
LINE
  8
0
 10
199.02
 20
294.313
 11
199.079
 21
294.622
  0
LINE
  8
0
 10
199.079
 20
294.622
 11
199.176
 21
294.92
  0
LINE
  8
0
 10
199.176
 20
294.92
 11
199.309
 21
295.204
  0
LINE
  8
0
 10
199.309
 20
295.204
 11
199.477
 21
295.469
  0
LINE
  8
0
 10
199.477
 20
295.469
 11
199.678
 21
295.711
  0
LINE
  8
0
 10
199.678
 20
295.711
 11
199.906
 21
295.926
  0
LINE
  8
0
 10
199.906
 20
295.926
 11
200.16
 21
296.111
  0
LINE
  8
0
 10
200.16
 20
296.111
 11
200.436
 21
296.262
  0
LINE
  8
0
 10
200.436
 20
296.262
 11
200.727
 21
296.378
  0
LINE
  8
0
 10
200.727
 20
296.378
 11
201.032
 21
296.456
  0
LINE
  8
0
 10
201.032
 20
296.456
 11
201.343
 21
296.495
  0
LINE
  8
0
 10
201.343
 20
296.495
 11
201.657
 21
296.495
  0
LINE
  8
0
 10
201.657
 20
296.495
 11
201.968
 21
296.456
  0
LINE
  8
0
 10
201.968
 20
296.456
 11
202.273
 21
296.378
  0
LINE
  8
0
 10
202.273
 20
296.378
 11
202.564
 21
296.262
  0
LINE
  8
0
 10
202.564
 20
296.262
 11
202.84
 21
296.111
  0
LINE
  8
0
 10
202.84
 20
296.111
 11
203.094
 21
295.926
  0
LINE
  8
0
 10
203.094
 20
295.926
 11
203.322
 21
295.711
  0
LINE
  8
0
 10
203.322
 20
295.711
 11
203.523
 21
295.469
  0
LINE
  8
0
 10
203.523
 20
295.469
 11
203.691
 21
295.204
  0
LINE
  8
0
 10
203.691
 20
295.204
 11
203.824
 21
294.92
  0
LINE
  8
0
 10
203.824
 20
294.92
 11
203.921
 21
294.622
  0
LINE
  8
0
 10
203.921
 20
294.622
 11
203.98
 21
294.313
  0
LINE
  8
0
 10
203.98
 20
294.313
 11
204
 21
294
  0
LINE
  8
0
 10
204
 20
294
 11
203.98
 21
293.687
  0
LINE
  8
0
 10
203.98
 20
293.687
 11
203.921
 21
293.378
  0
LINE
  8
0
 10
203.921
 20
293.378
 11
203.824
 21
293.08
  0
LINE
  8
0
 10
203.824
 20
293.08
 11
203.691
 21
292.796
  0
LINE
  8
0
 10
203.691
 20
292.796
 11
203.523
 21
292.531
  0
LINE
  8
0
 10
203.523
 20
292.531
 11
203.322
 21
292.289
  0
LINE
  8
0
 10
203.322
 20
292.289
 11
203.094
 21
292.074
  0
LINE
  8
0
 10
203.094
 20
292.074
 11
202.84
 21
291.889
  0
LINE
  8
0
 10
202.84
 20
291.889
 11
202.564
 21
291.738
  0
LINE
  8
0
 10
202.564
 20
291.738
 11
202.273
 21
291.622
  0
LINE
  8
0
 10
202.273
 20
291.622
 11
201.968
 21
291.544
  0
LINE
  8
0
 10
201.968
 20
291.544
 11
201.657
 21
291.505
  0
LINE
  8
0
 10
201.657
 20
291.505
 11
201.343
 21
291.505
  0
LINE
  8
0
 10
213.843
 20
291.505
 11
213.532
 21
291.544
  0
LINE
  8
0
 10
213.532
 20
291.544
 11
213.227
 21
291.622
  0
LINE
  8
0
 10
213.227
 20
291.622
 11
212.936
 21
291.738
  0
LINE
  8
0
 10
212.936
 20
291.738
 11
212.66
 21
291.889
  0
LINE
  8
0
 10
212.66
 20
291.889
 11
212.406
 21
292.074
  0
LINE
  8
0
 10
212.406
 20
292.074
 11
212.178
 21
292.289
  0
LINE
  8
0
 10
212.178
 20
292.289
 11
211.977
 21
292.531
  0
LINE
  8
0
 10
211.977
 20
292.531
 11
211.809
 21
292.796
  0
LINE
  8
0
 10
211.809
 20
292.796
 11
211.676
 21
293.08
  0
LINE
  8
0
 10
211.676
 20
293.08
 11
211.579
 21
293.378
  0
LINE
  8
0
 10
211.579
 20
293.378
 11
211.52
 21
293.687
  0
LINE
  8
0
 10
211.52
 20
293.687
 11
211.5
 21
294
  0
LINE
  8
0
 10
211.5
 20
294
 11
211.52
 21
294.313
  0
LINE
  8
0
 10
211.52
 20
294.313
 11
211.579
 21
294.622
  0
LINE
  8
0
 10
211.579
 20
294.622
 11
211.676
 21
294.92
  0
LINE
  8
0
 10
211.676
 20
294.92
 11
211.809
 21
295.204
  0
LINE
  8
0
 10
211.809
 20
295.204
 11
211.977
 21
295.469
  0
LINE
  8
0
 10
211.977
 20
295.469
 11
212.178
 21
295.711
  0
LINE
  8
0
 10
212.178
 20
295.711
 11
212.406
 21
295.926
  0
LINE
  8
0
 10
212.406
 20
295.926
 11
212.66
 21
296.111
  0
LINE
  8
0
 10
212.66
 20
296.111
 11
212.936
 21
296.262
  0
LINE
  8
0
 10
212.936
 20
296.262
 11
213.227
 21
296.378
  0
LINE
  8
0
 10
213.227
 20
296.378
 11
213.532
 21
296.456
  0
LINE
  8
0
 10
213.532
 20
296.456
 11
213.843
 21
296.495
  0
LINE
  8
0
 10
213.843
 20
296.495
 11
214.157
 21
296.495
  0
LINE
  8
0
 10
214.157
 20
296.495
 11
214.468
 21
296.456
  0
LINE
  8
0
 10
214.468
 20
296.456
 11
214.773
 21
296.378
  0
LINE
  8
0
 10
214.773
 20
296.378
 11
215.064
 21
296.262
  0
LINE
  8
0
 10
215.064
 20
296.262
 11
215.34
 21
296.111
  0
LINE
  8
0
 10
215.34
 20
296.111
 11
215.594
 21
295.926
  0
LINE
  8
0
 10
215.594
 20
295.926
 11
215.822
 21
295.711
  0
LINE
  8
0
 10
215.822
 20
295.711
 11
216.023
 21
295.469
  0
LINE
  8
0
 10
216.023
 20
295.469
 11
216.191
 21
295.204
  0
LINE
  8
0
 10
216.191
 20
295.204
 11
216.324
 21
294.92
  0
LINE
  8
0
 10
216.324
 20
294.92
 11
216.421
 21
294.622
  0
LINE
  8
0
 10
216.421
 20
294.622
 11
216.48
 21
294.313
  0
LINE
  8
0
 10
216.48
 20
294.313
 11
216.5
 21
294
  0
LINE
  8
0
 10
216.5
 20
294
 11
216.48
 21
293.687
  0
LINE
  8
0
 10
216.48
 20
293.687
 11
216.421
 21
293.378
  0
LINE
  8
0
 10
216.421
 20
293.378
 11
216.324
 21
293.08
  0
LINE
  8
0
 10
216.324
 20
293.08
 11
216.191
 21
292.796
  0
LINE
  8
0
 10
216.191
 20
292.796
 11
216.023
 21
292.531
  0
LINE
  8
0
 10
216.023
 20
292.531
 11
215.822
 21
292.289
  0
LINE
  8
0
 10
215.822
 20
292.289
 11
215.594
 21
292.074
  0
LINE
  8
0
 10
215.594
 20
292.074
 11
215.34
 21
291.889
  0
LINE
  8
0
 10
215.34
 20
291.889
 11
215.064
 21
291.738
  0
LINE
  8
0
 10
215.064
 20
291.738
 11
214.773
 21
291.622
  0
LINE
  8
0
 10
214.773
 20
291.622
 11
214.468
 21
291.544
  0
LINE
  8
0
 10
214.468
 20
291.544
 11
214.157
 21
291.505
  0
LINE
  8
0
 10
214.157
 20
291.505
 11
213.843
 21
291.505
  0
LINE
  8
0
 10
32.4167
 20
243
 11
51.25
 21
243
  0
LINE
  8
0
 10
51.25
 20
243
 11
51.25
 21
240
  0
LINE
  8
0
 10
51.25
 20
240
 11
71.25
 21
240
  0
LINE
  8
0
 10
71.25
 20
240
 11
71.25
 21
243
  0
LINE
  8
0
 10
71.25
 20
243
 11
90.0833
 21
243
  0
LINE
  8
0
 10
90.0833
 20
243
 11
90.0833
 21
240
  0
LINE
  8
0
 10
90.0833
 20
240
 11
110.083
 21
240
  0
LINE
  8
0
 10
110.083
 20
240
 11
110.083
 21
243
  0
LINE
  8
0
 10
110.083
 20
243
 11
128.917
 21
243
  0
LINE
  8
0
 10
128.917
 20
243
 11
128.917
 21
240
  0
LINE
  8
0
 10
128.917
 20
240
 11
148.917
 21
240
  0
LINE
  8
0
 10
148.917
 20
240
 11
148.917
 21
243
  0
LINE
  8
0
 10
148.917
 20
243
 11
167.75
 21
243
  0
LINE
  8
0
 10
167.75
 20
243
 11
167.75
 21
240
  0
LINE
  8
0
 10
167.75
 20
240
 11
187.75
 21
240
  0
LINE
  8
0
 10
187.75
 20
240
 11
187.75
 21
243
  0
LINE
  8
0
 10
187.75
 20
243
 11
206.583
 21
243
  0
LINE
  8
0
 10
206.583
 20
243
 11
206.583
 21
240
  0
LINE
  8
0
 10
206.583
 20
240
 11
226.583
 21
240
  0
LINE
  8
0
 10
226.583
 20
240
 11
226.583
 21
243
  0
LINE
  8
0
 10
226.583
 20
243
 11
236
 21
243
  0
LINE
  8
0
 10
236
 20
243
 11
236
 21
248
  0
LINE
  8
0
 10
236
 20
248
 11
233
 21
248
  0
LINE
  8
0
 10
233
 20
248
 11
233
 21
253
  0
LINE
  8
0
 10
233
 20
253
 11
236
 21
253
  0
LINE
  8
0
 10
236
 20
253
 11
236
 21
263
  0
LINE
  8
0
 10
236
 20
263
 11
233
 21
263
  0
LINE
  8
0
 10
233
 20
263
 11
233
 21
268
  0
LINE
  8
0
 10
233
 20
268
 11
236
 21
268
  0
LINE
  8
0
 10
236
 20
268
 11
236
 21
273
  0
LINE
  8
0
 10
236
 20
273
 11
226.583
 21
273
  0
LINE
  8
0
 10
226.583
 20
273
 11
226.583
 21
276
  0
LINE
  8
0
 10
226.583
 20
276
 11
206.583
 21
276
  0
LINE
  8
0
 10
206.583
 20
276
 11
206.583
 21
273
  0
LINE
  8
0
 10
206.583
 20
273
 11
187.75
 21
273
  0
LINE
  8
0
 10
187.75
 20
273
 11
187.75
 21
276
  0
LINE
  8
0
 10
187.75
 20
276
 11
167.75
 21
276
  0
LINE
  8
0
 10
167.75
 20
276
 11
167.75
 21
273
  0
LINE
  8
0
 10
167.75
 20
273
 11
148.917
 21
273
  0
LINE
  8
0
 10
148.917
 20
273
 11
148.917
 21
276
  0
LINE
  8
0
 10
148.917
 20
276
 11
128.917
 21
276
  0
LINE
  8
0
 10
128.917
 20
276
 11
128.917
 21
273
  0
LINE
  8
0
 10
128.917
 20
273
 11
125.5
 21
273
  0
LINE
  8
0
 10
125.5
 20
273
 11
125.476
 21
272.624
  0
LINE
  8
0
 10
125.476
 20
272.624
 11
125.406
 21
272.254
  0
LINE
  8
0
 10
125.406
 20
272.254
 11
125.289
 21
271.896
  0
LINE
  8
0
 10
125.289
 20
271.896
 11
125.129
 21
271.555
  0
LINE
  8
0
 10
125.129
 20
271.555
 11
124.927
 21
271.237
  0
LINE
  8
0
 10
124.927
 20
271.237
 11
124.687
 21
270.946
  0
LINE
  8
0
 10
124.687
 20
270.946
 11
124.412
 21
270.688
  0
LINE
  8
0
 10
124.412
 20
270.688
 11
124.107
 21
270.467
  0
LINE
  8
0
 10
124.107
 20
270.467
 11
123.777
 21
270.286
  0
LINE
  8
0
 10
123.777
 20
270.286
 11
123.427
 21
270.147
  0
LINE
  8
0
 10
123.427
 20
270.147
 11
123.062
 21
270.053
  0
LINE
  8
0
 10
123.062
 20
270.053
 11
122.688
 21
270.006
  0
LINE
  8
0
 10
122.688
 20
270.006
 11
122.312
 21
270.006
  0
LINE
  8
0
 10
122.312
 20
270.006
 11
121.938
 21
270.053
  0
LINE
  8
0
 10
121.938
 20
270.053
 11
121.573
 21
270.147
  0
LINE
  8
0
 10
121.573
 20
270.147
 11
121.223
 21
270.286
  0
LINE
  8
0
 10
121.223
 20
270.286
 11
120.893
 21
270.467
  0
LINE
  8
0
 10
120.893
 20
270.467
 11
120.588
 21
270.688
  0
LINE
  8
0
 10
120.588
 20
270.688
 11
120.313
 21
270.946
  0
LINE
  8
0
 10
120.313
 20
270.946
 11
120.073
 21
271.237
  0
LINE
  8
0
 10
120.073
 20
271.237
 11
119.871
 21
271.555
  0
LINE
  8
0
 10
119.871
 20
271.555
 11
119.711
 21
271.896
  0
LINE
  8
0
 10
119.711
 20
271.896
 11
119.594
 21
272.254
  0
LINE
  8
0
 10
119.594
 20
272.254
 11
119.524
 21
272.624
  0
LINE
  8
0
 10
119.524
 20
272.624
 11
119.5
 21
273
  0
LINE
  8
0
 10
119.5
 20
273
 11
110.083
 21
273
  0
LINE
  8
0
 10
110.083
 20
273
 11
110.083
 21
276
  0
LINE
  8
0
 10
110.083
 20
276
 11
90.0833
 21
276
  0
LINE
  8
0
 10
90.0833
 20
276
 11
90.0833
 21
273
  0
LINE
  8
0
 10
90.0833
 20
273
 11
71.25
 21
273
  0
LINE
  8
0
 10
71.25
 20
273
 11
71.25
 21
276
  0
LINE
  8
0
 10
71.25
 20
276
 11
51.25
 21
276
  0
LINE
  8
0
 10
51.25
 20
276
 11
51.25
 21
273
  0
LINE
  8
0
 10
51.25
 20
273
 11
32.4167
 21
273
  0
LINE
  8
0
 10
32.4167
 20
273
 11
32.4167
 21
276
  0
LINE
  8
0
 10
32.4167
 20
276
 11
12.4167
 21
276
  0
LINE
  8
0
 10
12.4167
 20
276
 11
12.4167
 21
273
  0
LINE
  8
0
 10
12.4167
 20
273
 11
3
 21
273
  0
LINE
  8
0
 10
3
 20
273
 11
3
 21
268
  0
LINE
  8
0
 10
3
 20
268
 11
6
 21
268
  0
LINE
  8
0
 10
6
 20
268
 11
6
 21
263
  0
LINE
  8
0
 10
6
 20
263
 11
3
 21
263
  0
LINE
  8
0
 10
3
 20
263
 11
3
 21
253
  0
LINE
  8
0
 10
3
 20
253
 11
6
 21
253
  0
LINE
  8
0
 10
6
 20
253
 11
6
 21
248
  0
LINE
  8
0
 10
6
 20
248
 11
3
 21
248
  0
LINE
  8
0
 10
3
 20
248
 11
3
 21
243
  0
LINE
  8
0
 10
3
 20
243
 11
12.4167
 21
243
  0
LINE
  8
0
 10
12.4167
 20
243
 11
12.4167
 21
240
  0
LINE
  8
0
 10
12.4167
 20
240
 11
32.4167
 21
240
  0
LINE
  8
0
 10
32.4167
 20
240
 11
32.4167
 21
243
  0
LINE
  8
0
 10
36
 20
202
 11
52
 21
202
  0
LINE
  8
0
 10
52
 20
202
 11
52
 21
199
  0
LINE
  8
0
 10
52
 20
199
 11
77
 21
199
  0
LINE
  8
0
 10
77
 20
199
 11
77
 21
202
  0
LINE
  8
0
 10
77
 20
202
 11
85
 21
202
  0
LINE
  8
0
 10
85
 20
202
 11
85
 21
207
  0
LINE
  8
0
 10
85
 20
207
 11
88
 21
207
  0
LINE
  8
0
 10
88
 20
207
 11
88
 21
212
  0
LINE
  8
0
 10
88
 20
212
 11
85
 21
212
  0
LINE
  8
0
 10
85
 20
212
 11
85
 21
222
  0
LINE
  8
0
 10
85
 20
222
 11
88
 21
222
  0
LINE
  8
0
 10
88
 20
222
 11
88
 21
227
  0
LINE
  8
0
 10
88
 20
227
 11
85
 21
227
  0
LINE
  8
0
 10
85
 20
227
 11
85
 21
232
  0
LINE
  8
0
 10
85
 20
232
 11
77
 21
232
  0
LINE
  8
0
 10
77
 20
232
 11
77
 21
235
  0
LINE
  8
0
 10
77
 20
235
 11
52
 21
235
  0
LINE
  8
0
 10
52
 20
235
 11
52
 21
232
  0
LINE
  8
0
 10
52
 20
232
 11
36
 21
232
  0
LINE
  8
0
 10
36
 20
232
 11
36
 21
235
  0
LINE
  8
0
 10
36
 20
235
 11
11
 21
235
  0
LINE
  8
0
 10
11
 20
235
 11
11
 21
232
  0
LINE
  8
0
 10
11
 20
232
 11
3
 21
232
  0
LINE
  8
0
 10
3
 20
232
 11
3
 21
227
  0
LINE
  8
0
 10
3
 20
227
 11
0
 21
227
  0
LINE
  8
0
 10
0
 20
227
 11
0
 21
222
  0
LINE
  8
0
 10
0
 20
222
 11
3
 21
222
  0
LINE
  8
0
 10
3
 20
222
 11
3
 21
212
  0
LINE
  8
0
 10
3
 20
212
 11
0
 21
212
  0
LINE
  8
0
 10
0
 20
212
 11
0
 21
207
  0
LINE
  8
0
 10
0
 20
207
 11
3
 21
207
  0
LINE
  8
0
 10
3
 20
207
 11
3
 21
202
  0
LINE
  8
0
 10
3
 20
202
 11
11
 21
202
  0
LINE
  8
0
 10
11
 20
202
 11
11
 21
199
  0
LINE
  8
0
 10
11
 20
199
 11
36
 21
199
  0
LINE
  8
0
 10
36
 20
199
 11
36
 21
202
  0
LINE
  8
0
 10
130
 20
202
 11
146
 21
202
  0
LINE
  8
0
 10
146
 20
202
 11
146
 21
199
  0
LINE
  8
0
 10
146
 20
199
 11
171
 21
199
  0
LINE
  8
0
 10
171
 20
199
 11
171
 21
202
  0
LINE
  8
0
 10
171
 20
202
 11
179
 21
202
  0
LINE
  8
0
 10
179
 20
202
 11
179
 21
207
  0
LINE
  8
0
 10
179
 20
207
 11
182
 21
207
  0
LINE
  8
0
 10
182
 20
207
 11
182
 21
212
  0
LINE
  8
0
 10
182
 20
212
 11
179
 21
212
  0
LINE
  8
0
 10
179
 20
212
 11
179
 21
222
  0
LINE
  8
0
 10
179
 20
222
 11
182
 21
222
  0
LINE
  8
0
 10
182
 20
222
 11
182
 21
227
  0
LINE
  8
0
 10
182
 20
227
 11
179
 21
227
  0
LINE
  8
0
 10
179
 20
227
 11
179
 21
232
  0
LINE
  8
0
 10
179
 20
232
 11
171
 21
232
  0
LINE
  8
0
 10
171
 20
232
 11
171
 21
235
  0
LINE
  8
0
 10
171
 20
235
 11
146
 21
235
  0
LINE
  8
0
 10
146
 20
235
 11
146
 21
232
  0
LINE
  8
0
 10
146
 20
232
 11
130
 21
232
  0
LINE
  8
0
 10
130
 20
232
 11
130
 21
235
  0
LINE
  8
0
 10
130
 20
235
 11
105
 21
235
  0
LINE
  8
0
 10
105
 20
235
 11
105
 21
232
  0
LINE
  8
0
 10
105
 20
232
 11
97
 21
232
  0
LINE
  8
0
 10
97
 20
232
 11
97
 21
227
  0
LINE
  8
0
 10
97
 20
227
 11
94
 21
227
  0
LINE
  8
0
 10
94
 20
227
 11
94
 21
222
  0
LINE
  8
0
 10
94
 20
222
 11
97
 21
222
  0
LINE
  8
0
 10
97
 20
222
 11
97
 21
212
  0
LINE
  8
0
 10
97
 20
212
 11
94
 21
212
  0
LINE
  8
0
 10
94
 20
212
 11
94
 21
207
  0
LINE
  8
0
 10
94
 20
207
 11
97
 21
207
  0
LINE
  8
0
 10
97
 20
207
 11
97
 21
202
  0
LINE
  8
0
 10
97
 20
202
 11
105
 21
202
  0
LINE
  8
0
 10
105
 20
202
 11
105
 21
199
  0
LINE
  8
0
 10
105
 20
199
 11
130
 21
199
  0
LINE
  8
0
 10
130
 20
199
 11
130
 21
202
  0
LINE
  8
0
 10
238.062
 20
97.5531
 11
238.427
 21
97.6468
  0
LINE
  8
0
 10
238.427
 20
97.6468
 11
238.777
 21
97.7855
  0
LINE
  8
0
 10
238.777
 20
97.7855
 11
239.107
 21
97.967
  0
LINE
  8
0
 10
239.107
 20
97.967
 11
239.412
 21
98.1885
  0
LINE
  8
0
 10
239.412
 20
98.1885
 11
239.687
 21
98.4464
  0
LINE
  8
0
 10
239.687
 20
98.4464
 11
239.927
 21
98.7366
  0
LINE
  8
0
 10
239.927
 20
98.7366
 11
240.129
 21
99.0547
  0
LINE
  8
0
 10
240.129
 20
99.0547
 11
240.289
 21
99.3956
  0
LINE
  8
0
 10
240.289
 20
99.3956
 11
240.406
 21
99.7539
  0
LINE
  8
0
 10
240.406
 20
99.7539
 11
240.476
 21
100.124
  0
LINE
  8
0
 10
240.476
 20
100.124
 11
240.5
 21
100.5
  0
LINE
  8
0
 10
240.5
 20
100.5
 11
240.5
 21
191.5
  0
LINE
  8
0
 10
240.5
 20
191.5
 11
240.476
 21
191.876
  0
LINE
  8
0
 10
240.476
 20
191.876
 11
240.406
 21
192.246
  0
LINE
  8
0
 10
240.406
 20
192.246
 11
240.289
 21
192.604
  0
LINE
  8
0
 10
240.289
 20
192.604
 11
240.129
 21
192.945
  0
LINE
  8
0
 10
240.129
 20
192.945
 11
239.927
 21
193.263
  0
LINE
  8
0
 10
239.927
 20
193.263
 11
239.687
 21
193.554
  0
LINE
  8
0
 10
239.687
 20
193.554
 11
239.412
 21
193.812
  0
LINE
  8
0
 10
239.412
 20
193.812
 11
239.107
 21
194.033
  0
LINE
  8
0
 10
239.107
 20
194.033
 11
238.777
 21
194.214
  0
LINE
  8
0
 10
238.777
 20
194.214
 11
238.427
 21
194.353
  0
LINE
  8
0
 10
238.427
 20
194.353
 11
238.062
 21
194.447
  0
LINE
  8
0
 10
238.062
 20
194.447
 11
237.688
 21
194.494
  0
LINE
  8
0
 10
237.688
 20
194.494
 11
1.31161
 21
194.494
  0
LINE
  8
0
 10
1.31161
 20
194.494
 11
0.937851
 21
194.447
  0
LINE
  8
0
 10
0.937851
 20
194.447
 11
0.572937
 21
194.353
  0
LINE
  8
0
 10
0.572937
 20
194.353
 11
0.222656
 21
194.214
  0
LINE
  8
0
 10
0.222656
 20
194.214
 11
-0.107468
 21
194.033
  0
LINE
  8
0
 10
-0.107468
 20
194.033
 11
-0.412262
 21
193.812
  0
LINE
  8
0
 10
-0.412262
 20
193.812
 11
-0.686905
 21
193.554
  0
LINE
  8
0
 10
-0.686905
 20
193.554
 11
-0.927048
 21
193.263
  0
LINE
  8
0
 10
-0.927048
 20
193.263
 11
-1.12891
 21
192.945
  0
LINE
  8
0
 10
-1.12891
 20
192.945
 11
-1.28932
 21
192.604
  0
LINE
  8
0
 10
-1.28932
 20
192.604
 11
-1.40575
 21
192.246
  0
LINE
  8
0
 10
-1.40575
 20
192.246
 11
-1.47633
 21
191.876
  0
LINE
  8
0
 10
-1.47633
 20
191.876
 11
-1.5
 21
191.5
  0
LINE
  8
0
 10
-1.5
 20
191.5
 11
-1.5
 21
100.5
  0
LINE
  8
0
 10
-1.5
 20
100.5
 11
-1.47633
 21
100.124
  0
LINE
  8
0
 10
-1.47633
 20
100.124
 11
-1.40575
 21
99.7539
  0
LINE
  8
0
 10
-1.40575
 20
99.7539
 11
-1.28932
 21
99.3956
  0
LINE
  8
0
 10
-1.28932
 20
99.3956
 11
-1.12891
 21
99.0547
  0
LINE
  8
0
 10
-1.12891
 20
99.0547
 11
-0.927048
 21
98.7366
  0
LINE
  8
0
 10
-0.927048
 20
98.7366
 11
-0.686905
 21
98.4464
  0
LINE
  8
0
 10
-0.686905
 20
98.4464
 11
-0.412262
 21
98.1885
  0
LINE
  8
0
 10
-0.412262
 20
98.1885
 11
-0.107468
 21
97.967
  0
LINE
  8
0
 10
-0.107468
 20
97.967
 11
0.222656
 21
97.7855
  0
LINE
  8
0
 10
0.222656
 20
97.7855
 11
0.572937
 21
97.6468
  0
LINE
  8
0
 10
0.572937
 20
97.6468
 11
0.937851
 21
97.5531
  0
LINE
  8
0
 10
0.937851
 20
97.5531
 11
1.31161
 21
97.5059
  0
LINE
  8
0
 10
1.31161
 20
97.5059
 11
237.688
 21
97.5059
  0
LINE
  8
0
 10
237.688
 20
97.5059
 11
238.062
 21
97.5531
  0
LINE
  8
0
 10
206.583
 20
187
 11
206.583
 21
190
  0
LINE
  8
0
 10
206.583
 20
190
 11
226.583
 21
190
  0
LINE
  8
0
 10
226.583
 20
190
 11
226.583
 21
187
  0
LINE
  8
0
 10
226.583
 20
187
 11
206.583
 21
187
  0
LINE
  8
0
 10
167.75
 20
187
 11
167.75
 21
190
  0
LINE
  8
0
 10
167.75
 20
190
 11
187.75
 21
190
  0
LINE
  8
0
 10
187.75
 20
190
 11
187.75
 21
187
  0
LINE
  8
0
 10
187.75
 20
187
 11
167.75
 21
187
  0
LINE
  8
0
 10
128.917
 20
187
 11
128.917
 21
190
  0
LINE
  8
0
 10
128.917
 20
190
 11
148.917
 21
190
  0
LINE
  8
0
 10
148.917
 20
190
 11
148.917
 21
187
  0
LINE
  8
0
 10
148.917
 20
187
 11
128.917
 21
187
  0
LINE
  8
0
 10
90.0833
 20
187
 11
90.0833
 21
190
  0
LINE
  8
0
 10
90.0833
 20
190
 11
110.083
 21
190
  0
LINE
  8
0
 10
110.083
 20
190
 11
110.083
 21
187
  0
LINE
  8
0
 10
110.083
 20
187
 11
90.0833
 21
187
  0
LINE
  8
0
 10
51.25
 20
187
 11
51.25
 21
190
  0
LINE
  8
0
 10
51.25
 20
190
 11
71.25
 21
190
  0
LINE
  8
0
 10
71.25
 20
190
 11
71.25
 21
187
  0
LINE
  8
0
 10
71.25
 20
187
 11
51.25
 21
187
  0
LINE
  8
0
 10
12.4167
 20
187
 11
12.4167
 21
190
  0
LINE
  8
0
 10
12.4167
 20
190
 11
32.4167
 21
190
  0
LINE
  8
0
 10
32.4167
 20
190
 11
32.4167
 21
187
  0
LINE
  8
0
 10
32.4167
 20
187
 11
12.4167
 21
187
  0
LINE
  8
0
 10
11.8744
 20
179.004
 11
11.6252
 21
179.035
  0
LINE
  8
0
 10
11.6252
 20
179.035
 11
11.382
 21
179.098
  0
LINE
  8
0
 10
11.382
 20
179.098
 11
11.1484
 21
179.19
  0
LINE
  8
0
 10
11.1484
 20
179.19
 11
10.9283
 21
179.311
  0
LINE
  8
0
 10
10.9283
 20
179.311
 11
10.7251
 21
179.459
  0
LINE
  8
0
 10
10.7251
 20
179.459
 11
10.5421
 21
179.631
  0
LINE
  8
0
 10
10.5421
 20
179.631
 11
10.382
 21
179.824
  0
LINE
  8
0
 10
10.382
 20
179.824
 11
10.2474
 21
180.036
  0
LINE
  8
0
 10
10.2474
 20
180.036
 11
10.1404
 21
180.264
  0
LINE
  8
0
 10
10.1404
 20
180.264
 11
10.0628
 21
180.503
  0
LINE
  8
0
 10
10.0628
 20
180.503
 11
10.0158
 21
180.749
  0
LINE
  8
0
 10
10.0158
 20
180.749
 11
10
 21
181
  0
LINE
  8
0
 10
10
 20
181
 11
10.0158
 21
181.251
  0
LINE
  8
0
 10
10.0158
 20
181.251
 11
10.0628
 21
181.497
  0
LINE
  8
0
 10
10.0628
 20
181.497
 11
10.1404
 21
181.736
  0
LINE
  8
0
 10
10.1404
 20
181.736
 11
10.2474
 21
181.964
  0
LINE
  8
0
 10
10.2474
 20
181.964
 11
10.382
 21
182.176
  0
LINE
  8
0
 10
10.382
 20
182.176
 11
10.5421
 21
182.369
  0
LINE
  8
0
 10
10.5421
 20
182.369
 11
10.7251
 21
182.541
  0
LINE
  8
0
 10
10.7251
 20
182.541
 11
10.9283
 21
182.689
  0
LINE
  8
0
 10
10.9283
 20
182.689
 11
11.1484
 21
182.81
  0
LINE
  8
0
 10
11.1484
 20
182.81
 11
11.382
 21
182.902
  0
LINE
  8
0
 10
11.382
 20
182.902
 11
11.6252
 21
182.965
  0
LINE
  8
0
 10
11.6252
 20
182.965
 11
11.8744
 21
182.996
  0
LINE
  8
0
 10
11.8744
 20
182.996
 11
12.1256
 21
182.996
  0
LINE
  8
0
 10
12.1256
 20
182.996
 11
12.3748
 21
182.965
  0
LINE
  8
0
 10
12.3748
 20
182.965
 11
12.618
 21
182.902
  0
LINE
  8
0
 10
12.618
 20
182.902
 11
12.8515
 21
182.81
  0
LINE
  8
0
 10
12.8515
 20
182.81
 11
13.0716
 21
182.689
  0
LINE
  8
0
 10
13.0716
 20
182.689
 11
13.2748
 21
182.541
  0
LINE
  8
0
 10
13.2748
 20
182.541
 11
13.4579
 21
182.369
  0
LINE
  8
0
 10
13.4579
 20
182.369
 11
13.618
 21
182.176
  0
LINE
  8
0
 10
13.618
 20
182.176
 11
13.7526
 21
181.964
  0
LINE
  8
0
 10
13.7526
 20
181.964
 11
13.8595
 21
181.736
  0
LINE
  8
0
 10
13.8595
 20
181.736
 11
13.9372
 21
181.497
  0
LINE
  8
0
 10
13.9372
 20
181.497
 11
13.9842
 21
181.251
  0
LINE
  8
0
 10
13.9842
 20
181.251
 11
14
 21
181
  0
LINE
  8
0
 10
14
 20
181
 11
13.9842
 21
180.749
  0
LINE
  8
0
 10
13.9842
 20
180.749
 11
13.9372
 21
180.503
  0
LINE
  8
0
 10
13.9372
 20
180.503
 11
13.8595
 21
180.264
  0
LINE
  8
0
 10
13.8595
 20
180.264
 11
13.7526
 21
180.036
  0
LINE
  8
0
 10
13.7526
 20
180.036
 11
13.618
 21
179.824
  0
LINE
  8
0
 10
13.618
 20
179.824
 11
13.4579
 21
179.631
  0
LINE
  8
0
 10
13.4579
 20
179.631
 11
13.2748
 21
179.459
  0
LINE
  8
0
 10
13.2748
 20
179.459
 11
13.0716
 21
179.311
  0
LINE
  8
0
 10
13.0716
 20
179.311
 11
12.8515
 21
179.19
  0
LINE
  8
0
 10
12.8515
 20
179.19
 11
12.618
 21
179.098
  0
LINE
  8
0
 10
12.618
 20
179.098
 11
12.3748
 21
179.035
  0
LINE
  8
0
 10
12.3748
 20
179.035
 11
12.1256
 21
179.004
  0
LINE
  8
0
 10
12.1256
 20
179.004
 11
11.8744
 21
179.004
  0
LINE
  8
0
 10
226.874
 20
179.004
 11
226.625
 21
179.035
  0
LINE
  8
0
 10
226.625
 20
179.035
 11
226.382
 21
179.098
  0
LINE
  8
0
 10
226.382
 20
179.098
 11
226.148
 21
179.19
  0
LINE
  8
0
 10
226.148
 20
179.19
 11
225.928
 21
179.311
  0
LINE
  8
0
 10
225.928
 20
179.311
 11
225.725
 21
179.459
  0
LINE
  8
0
 10
225.725
 20
179.459
 11
225.542
 21
179.631
  0
LINE
  8
0
 10
225.542
 20
179.631
 11
225.382
 21
179.824
  0
LINE
  8
0
 10
225.382
 20
179.824
 11
225.247
 21
180.036
  0
LINE
  8
0
 10
225.247
 20
180.036
 11
225.14
 21
180.264
  0
LINE
  8
0
 10
225.14
 20
180.264
 11
225.063
 21
180.503
  0
LINE
  8
0
 10
225.063
 20
180.503
 11
225.016
 21
180.749
  0
LINE
  8
0
 10
225.016
 20
180.749
 11
225
 21
181
  0
LINE
  8
0
 10
225
 20
181
 11
225.016
 21
181.251
  0
LINE
  8
0
 10
225.016
 20
181.251
 11
225.063
 21
181.497
  0
LINE
  8
0
 10
225.063
 20
181.497
 11
225.14
 21
181.736
  0
LINE
  8
0
 10
225.14
 20
181.736
 11
225.247
 21
181.964
  0
LINE
  8
0
 10
225.247
 20
181.964
 11
225.382
 21
182.176
  0
LINE
  8
0
 10
225.382
 20
182.176
 11
225.542
 21
182.369
  0
LINE
  8
0
 10
225.542
 20
182.369
 11
225.725
 21
182.541
  0
LINE
  8
0
 10
225.725
 20
182.541
 11
225.928
 21
182.689
  0
LINE
  8
0
 10
225.928
 20
182.689
 11
226.148
 21
182.81
  0
LINE
  8
0
 10
226.148
 20
182.81
 11
226.382
 21
182.902
  0
LINE
  8
0
 10
226.382
 20
182.902
 11
226.625
 21
182.965
  0
LINE
  8
0
 10
226.625
 20
182.965
 11
226.874
 21
182.996
  0
LINE
  8
0
 10
226.874
 20
182.996
 11
227.126
 21
182.996
  0
LINE
  8
0
 10
227.126
 20
182.996
 11
227.375
 21
182.965
  0
LINE
  8
0
 10
227.375
 20
182.965
 11
227.618
 21
182.902
  0
LINE
  8
0
 10
227.618
 20
182.902
 11
227.852
 21
182.81
  0
LINE
  8
0
 10
227.852
 20
182.81
 11
228.072
 21
182.689
  0
LINE
  8
0
 10
228.072
 20
182.689
 11
228.275
 21
182.541
  0
LINE
  8
0
 10
228.275
 20
182.541
 11
228.458
 21
182.369
  0
LINE
  8
0
 10
228.458
 20
182.369
 11
228.618
 21
182.176
  0
LINE
  8
0
 10
228.618
 20
182.176
 11
228.753
 21
181.964
  0
LINE
  8
0
 10
228.753
 20
181.964
 11
228.86
 21
181.736
  0
LINE
  8
0
 10
228.86
 20
181.736
 11
228.937
 21
181.497
  0
LINE
  8
0
 10
228.937
 20
181.497
 11
228.984
 21
181.251
  0
LINE
  8
0
 10
228.984
 20
181.251
 11
229
 21
181
  0
LINE
  8
0
 10
229
 20
181
 11
228.984
 21
180.749
  0
LINE
  8
0
 10
228.984
 20
180.749
 11
228.937
 21
180.503
  0
LINE
  8
0
 10
228.937
 20
180.503
 11
228.86
 21
180.264
  0
LINE
  8
0
 10
228.86
 20
180.264
 11
228.753
 21
180.036
  0
LINE
  8
0
 10
228.753
 20
180.036
 11
228.618
 21
179.824
  0
LINE
  8
0
 10
228.618
 20
179.824
 11
228.458
 21
179.631
  0
LINE
  8
0
 10
228.458
 20
179.631
 11
228.275
 21
179.459
  0
LINE
  8
0
 10
228.275
 20
179.459
 11
228.072
 21
179.311
  0
LINE
  8
0
 10
228.072
 20
179.311
 11
227.852
 21
179.19
  0
LINE
  8
0
 10
227.852
 20
179.19
 11
227.618
 21
179.098
  0
LINE
  8
0
 10
227.618
 20
179.098
 11
227.375
 21
179.035
  0
LINE
  8
0
 10
227.375
 20
179.035
 11
227.126
 21
179.004
  0
LINE
  8
0
 10
227.126
 20
179.004
 11
226.874
 21
179.004
  0
LINE
  8
0
 10
119.374
 20
179.004
 11
119.125
 21
179.035
  0
LINE
  8
0
 10
119.125
 20
179.035
 11
118.882
 21
179.098
  0
LINE
  8
0
 10
118.882
 20
179.098
 11
118.648
 21
179.19
  0
LINE
  8
0
 10
118.648
 20
179.19
 11
118.428
 21
179.311
  0
LINE
  8
0
 10
118.428
 20
179.311
 11
118.225
 21
179.459
  0
LINE
  8
0
 10
118.225
 20
179.459
 11
118.042
 21
179.631
  0
LINE
  8
0
 10
118.042
 20
179.631
 11
117.882
 21
179.824
  0
LINE
  8
0
 10
117.882
 20
179.824
 11
117.747
 21
180.036
  0
LINE
  8
0
 10
117.747
 20
180.036
 11
117.64
 21
180.264
  0
LINE
  8
0
 10
117.64
 20
180.264
 11
117.563
 21
180.503
  0
LINE
  8
0
 10
117.563
 20
180.503
 11
117.516
 21
180.749
  0
LINE
  8
0
 10
117.516
 20
180.749
 11
117.5
 21
181
  0
LINE
  8
0
 10
117.5
 20
181
 11
117.516
 21
181.251
  0
LINE
  8
0
 10
117.516
 20
181.251
 11
117.563
 21
181.497
  0
LINE
  8
0
 10
117.563
 20
181.497
 11
117.64
 21
181.736
  0
LINE
  8
0
 10
117.64
 20
181.736
 11
117.747
 21
181.964
  0
LINE
  8
0
 10
117.747
 20
181.964
 11
117.882
 21
182.176
  0
LINE
  8
0
 10
117.882
 20
182.176
 11
118.042
 21
182.369
  0
LINE
  8
0
 10
118.042
 20
182.369
 11
118.225
 21
182.541
  0
LINE
  8
0
 10
118.225
 20
182.541
 11
118.428
 21
182.689
  0
LINE
  8
0
 10
118.428
 20
182.689
 11
118.648
 21
182.81
  0
LINE
  8
0
 10
118.648
 20
182.81
 11
118.882
 21
182.902
  0
LINE
  8
0
 10
118.882
 20
182.902
 11
119.125
 21
182.965
  0
LINE
  8
0
 10
119.125
 20
182.965
 11
119.374
 21
182.996
  0
LINE
  8
0
 10
119.374
 20
182.996
 11
119.626
 21
182.996
  0
LINE
  8
0
 10
119.626
 20
182.996
 11
119.875
 21
182.965
  0
LINE
  8
0
 10
119.875
 20
182.965
 11
120.118
 21
182.902
  0
LINE
  8
0
 10
120.118
 20
182.902
 11
120.352
 21
182.81
  0
LINE
  8
0
 10
120.352
 20
182.81
 11
120.572
 21
182.689
  0
LINE
  8
0
 10
120.572
 20
182.689
 11
120.775
 21
182.541
  0
LINE
  8
0
 10
120.775
 20
182.541
 11
120.958
 21
182.369
  0
LINE
  8
0
 10
120.958
 20
182.369
 11
121.118
 21
182.176
  0
LINE
  8
0
 10
121.118
 20
182.176
 11
121.253
 21
181.964
  0
LINE
  8
0
 10
121.253
 20
181.964
 11
121.36
 21
181.736
  0
LINE
  8
0
 10
121.36
 20
181.736
 11
121.437
 21
181.497
  0
LINE
  8
0
 10
121.437
 20
181.497
 11
121.484
 21
181.251
  0
LINE
  8
0
 10
121.484
 20
181.251
 11
121.5
 21
181
  0
LINE
  8
0
 10
121.5
 20
181
 11
121.484
 21
180.749
  0
LINE
  8
0
 10
121.484
 20
180.749
 11
121.437
 21
180.503
  0
LINE
  8
0
 10
121.437
 20
180.503
 11
121.36
 21
180.264
  0
LINE
  8
0
 10
121.36
 20
180.264
 11
121.253
 21
180.036
  0
LINE
  8
0
 10
121.253
 20
180.036
 11
121.118
 21
179.824
  0
LINE
  8
0
 10
121.118
 20
179.824
 11
120.958
 21
179.631
  0
LINE
  8
0
 10
120.958
 20
179.631
 11
120.775
 21
179.459
  0
LINE
  8
0
 10
120.775
 20
179.459
 11
120.572
 21
179.311
  0
LINE
  8
0
 10
120.572
 20
179.311
 11
120.352
 21
179.19
  0
LINE
  8
0
 10
120.352
 20
179.19
 11
120.118
 21
179.098
  0
LINE
  8
0
 10
120.118
 20
179.098
 11
119.875
 21
179.035
  0
LINE
  8
0
 10
119.875
 20
179.035
 11
119.626
 21
179.004
  0
LINE
  8
0
 10
119.626
 20
179.004
 11
119.374
 21
179.004
  0
LINE
  8
0
 10
233
 20
154
 11
233
 21
179
  0
LINE
  8
0
 10
233
 20
179
 11
236
 21
179
  0
LINE
  8
0
 10
236
 20
179
 11
236
 21
154
  0
LINE
  8
0
 10
236
 20
154
 11
233
 21
154
  0
LINE
  8
0
 10
3
 20
154
 11
3
 21
179
  0
LINE
  8
0
 10
3
 20
179
 11
6
 21
179
  0
LINE
  8
0
 10
6
 20
179
 11
6
 21
154
  0
LINE
  8
0
 10
6
 20
154
 11
3
 21
154
  0
LINE
  8
0
 10
3
 20
113
 11
3
 21
138
  0
LINE
  8
0
 10
3
 20
138
 11
6
 21
138
  0
LINE
  8
0
 10
6
 20
138
 11
6
 21
113
  0
LINE
  8
0
 10
6
 20
113
 11
3
 21
113
  0
LINE
  8
0
 10
233
 20
113
 11
233
 21
138
  0
LINE
  8
0
 10
233
 20
138
 11
236
 21
138
  0
LINE
  8
0
 10
236
 20
138
 11
236
 21
113
  0
LINE
  8
0
 10
236
 20
113
 11
233
 21
113
  0
LINE
  8
0
 10
119.374
 20
109.004
 11
119.125
 21
109.035
  0
LINE
  8
0
 10
119.125
 20
109.035
 11
118.882
 21
109.098
  0
LINE
  8
0
 10
118.882
 20
109.098
 11
118.648
 21
109.19
  0
LINE
  8
0
 10
118.648
 20
109.19
 11
118.428
 21
109.311
  0
LINE
  8
0
 10
118.428
 20
109.311
 11
118.225
 21
109.459
  0
LINE
  8
0
 10
118.225
 20
109.459
 11
118.042
 21
109.631
  0
LINE
  8
0
 10
118.042
 20
109.631
 11
117.882
 21
109.824
  0
LINE
  8
0
 10
117.882
 20
109.824
 11
117.747
 21
110.036
  0
LINE
  8
0
 10
117.747
 20
110.036
 11
117.64
 21
110.264
  0
LINE
  8
0
 10
117.64
 20
110.264
 11
117.563
 21
110.503
  0
LINE
  8
0
 10
117.563
 20
110.503
 11
117.516
 21
110.749
  0
LINE
  8
0
 10
117.516
 20
110.749
 11
117.5
 21
111
  0
LINE
  8
0
 10
117.5
 20
111
 11
117.516
 21
111.251
  0
LINE
  8
0
 10
117.516
 20
111.251
 11
117.563
 21
111.497
  0
LINE
  8
0
 10
117.563
 20
111.497
 11
117.64
 21
111.736
  0
LINE
  8
0
 10
117.64
 20
111.736
 11
117.747
 21
111.964
  0
LINE
  8
0
 10
117.747
 20
111.964
 11
117.882
 21
112.176
  0
LINE
  8
0
 10
117.882
 20
112.176
 11
118.042
 21
112.369
  0
LINE
  8
0
 10
118.042
 20
112.369
 11
118.225
 21
112.541
  0
LINE
  8
0
 10
118.225
 20
112.541
 11
118.428
 21
112.689
  0
LINE
  8
0
 10
118.428
 20
112.689
 11
118.648
 21
112.81
  0
LINE
  8
0
 10
118.648
 20
112.81
 11
118.882
 21
112.902
  0
LINE
  8
0
 10
118.882
 20
112.902
 11
119.125
 21
112.965
  0
LINE
  8
0
 10
119.125
 20
112.965
 11
119.374
 21
112.996
  0
LINE
  8
0
 10
119.374
 20
112.996
 11
119.626
 21
112.996
  0
LINE
  8
0
 10
119.626
 20
112.996
 11
119.875
 21
112.965
  0
LINE
  8
0
 10
119.875
 20
112.965
 11
120.118
 21
112.902
  0
LINE
  8
0
 10
120.118
 20
112.902
 11
120.352
 21
112.81
  0
LINE
  8
0
 10
120.352
 20
112.81
 11
120.572
 21
112.689
  0
LINE
  8
0
 10
120.572
 20
112.689
 11
120.775
 21
112.541
  0
LINE
  8
0
 10
120.775
 20
112.541
 11
120.958
 21
112.369
  0
LINE
  8
0
 10
120.958
 20
112.369
 11
121.118
 21
112.176
  0
LINE
  8
0
 10
121.118
 20
112.176
 11
121.253
 21
111.964
  0
LINE
  8
0
 10
121.253
 20
111.964
 11
121.36
 21
111.736
  0
LINE
  8
0
 10
121.36
 20
111.736
 11
121.437
 21
111.497
  0
LINE
  8
0
 10
121.437
 20
111.497
 11
121.484
 21
111.251
  0
LINE
  8
0
 10
121.484
 20
111.251
 11
121.5
 21
111
  0
LINE
  8
0
 10
121.5
 20
111
 11
121.484
 21
110.749
  0
LINE
  8
0
 10
121.484
 20
110.749
 11
121.437
 21
110.503
  0
LINE
  8
0
 10
121.437
 20
110.503
 11
121.36
 21
110.264
  0
LINE
  8
0
 10
121.36
 20
110.264
 11
121.253
 21
110.036
  0
LINE
  8
0
 10
121.253
 20
110.036
 11
121.118
 21
109.824
  0
LINE
  8
0
 10
121.118
 20
109.824
 11
120.958
 21
109.631
  0
LINE
  8
0
 10
120.958
 20
109.631
 11
120.775
 21
109.459
  0
LINE
  8
0
 10
120.775
 20
109.459
 11
120.572
 21
109.311
  0
LINE
  8
0
 10
120.572
 20
109.311
 11
120.352
 21
109.19
  0
LINE
  8
0
 10
120.352
 20
109.19
 11
120.118
 21
109.098
  0
LINE
  8
0
 10
120.118
 20
109.098
 11
119.875
 21
109.035
  0
LINE
  8
0
 10
119.875
 20
109.035
 11
119.626
 21
109.004
  0
LINE
  8
0
 10
119.626
 20
109.004
 11
119.374
 21
109.004
  0
LINE
  8
0
 10
11.8744
 20
109.004
 11
11.6252
 21
109.035
  0
LINE
  8
0
 10
11.6252
 20
109.035
 11
11.382
 21
109.098
  0
LINE
  8
0
 10
11.382
 20
109.098
 11
11.1484
 21
109.19
  0
LINE
  8
0
 10
11.1484
 20
109.19
 11
10.9283
 21
109.311
  0
LINE
  8
0
 10
10.9283
 20
109.311
 11
10.7251
 21
109.459
  0
LINE
  8
0
 10
10.7251
 20
109.459
 11
10.5421
 21
109.631
  0
LINE
  8
0
 10
10.5421
 20
109.631
 11
10.382
 21
109.824
  0
LINE
  8
0
 10
10.382
 20
109.824
 11
10.2474
 21
110.036
  0
LINE
  8
0
 10
10.2474
 20
110.036
 11
10.1404
 21
110.264
  0
LINE
  8
0
 10
10.1404
 20
110.264
 11
10.0628
 21
110.503
  0
LINE
  8
0
 10
10.0628
 20
110.503
 11
10.0158
 21
110.749
  0
LINE
  8
0
 10
10.0158
 20
110.749
 11
10
 21
111
  0
LINE
  8
0
 10
10
 20
111
 11
10.0158
 21
111.251
  0
LINE
  8
0
 10
10.0158
 20
111.251
 11
10.0628
 21
111.497
  0
LINE
  8
0
 10
10.0628
 20
111.497
 11
10.1404
 21
111.736
  0
LINE
  8
0
 10
10.1404
 20
111.736
 11
10.2474
 21
111.964
  0
LINE
  8
0
 10
10.2474
 20
111.964
 11
10.382
 21
112.176
  0
LINE
  8
0
 10
10.382
 20
112.176
 11
10.5421
 21
112.369
  0
LINE
  8
0
 10
10.5421
 20
112.369
 11
10.7251
 21
112.541
  0
LINE
  8
0
 10
10.7251
 20
112.541
 11
10.9283
 21
112.689
  0
LINE
  8
0
 10
10.9283
 20
112.689
 11
11.1484
 21
112.81
  0
LINE
  8
0
 10
11.1484
 20
112.81
 11
11.382
 21
112.902
  0
LINE
  8
0
 10
11.382
 20
112.902
 11
11.6252
 21
112.965
  0
LINE
  8
0
 10
11.6252
 20
112.965
 11
11.8744
 21
112.996
  0
LINE
  8
0
 10
11.8744
 20
112.996
 11
12.1256
 21
112.996
  0
LINE
  8
0
 10
12.1256
 20
112.996
 11
12.3748
 21
112.965
  0
LINE
  8
0
 10
12.3748
 20
112.965
 11
12.618
 21
112.902
  0
LINE
  8
0
 10
12.618
 20
112.902
 11
12.8515
 21
112.81
  0
LINE
  8
0
 10
12.8515
 20
112.81
 11
13.0716
 21
112.689
  0
LINE
  8
0
 10
13.0716
 20
112.689
 11
13.2748
 21
112.541
  0
LINE
  8
0
 10
13.2748
 20
112.541
 11
13.4579
 21
112.369
  0
LINE
  8
0
 10
13.4579
 20
112.369
 11
13.618
 21
112.176
  0
LINE
  8
0
 10
13.618
 20
112.176
 11
13.7526
 21
111.964
  0
LINE
  8
0
 10
13.7526
 20
111.964
 11
13.8595
 21
111.736
  0
LINE
  8
0
 10
13.8595
 20
111.736
 11
13.9372
 21
111.497
  0
LINE
  8
0
 10
13.9372
 20
111.497
 11
13.9842
 21
111.251
  0
LINE
  8
0
 10
13.9842
 20
111.251
 11
14
 21
111
  0
LINE
  8
0
 10
14
 20
111
 11
13.9842
 21
110.749
  0
LINE
  8
0
 10
13.9842
 20
110.749
 11
13.9372
 21
110.503
  0
LINE
  8
0
 10
13.9372
 20
110.503
 11
13.8595
 21
110.264
  0
LINE
  8
0
 10
13.8595
 20
110.264
 11
13.7526
 21
110.036
  0
LINE
  8
0
 10
13.7526
 20
110.036
 11
13.618
 21
109.824
  0
LINE
  8
0
 10
13.618
 20
109.824
 11
13.4579
 21
109.631
  0
LINE
  8
0
 10
13.4579
 20
109.631
 11
13.2748
 21
109.459
  0
LINE
  8
0
 10
13.2748
 20
109.459
 11
13.0716
 21
109.311
  0
LINE
  8
0
 10
13.0716
 20
109.311
 11
12.8515
 21
109.19
  0
LINE
  8
0
 10
12.8515
 20
109.19
 11
12.618
 21
109.098
  0
LINE
  8
0
 10
12.618
 20
109.098
 11
12.3748
 21
109.035
  0
LINE
  8
0
 10
12.3748
 20
109.035
 11
12.1256
 21
109.004
  0
LINE
  8
0
 10
12.1256
 20
109.004
 11
11.8744
 21
109.004
  0
LINE
  8
0
 10
226.874
 20
109.004
 11
226.625
 21
109.035
  0
LINE
  8
0
 10
226.625
 20
109.035
 11
226.382
 21
109.098
  0
LINE
  8
0
 10
226.382
 20
109.098
 11
226.148
 21
109.19
  0
LINE
  8
0
 10
226.148
 20
109.19
 11
225.928
 21
109.311
  0
LINE
  8
0
 10
225.928
 20
109.311
 11
225.725
 21
109.459
  0
LINE
  8
0
 10
225.725
 20
109.459
 11
225.542
 21
109.631
  0
LINE
  8
0
 10
225.542
 20
109.631
 11
225.382
 21
109.824
  0
LINE
  8
0
 10
225.382
 20
109.824
 11
225.247
 21
110.036
  0
LINE
  8
0
 10
225.247
 20
110.036
 11
225.14
 21
110.264
  0
LINE
  8
0
 10
225.14
 20
110.264
 11
225.063
 21
110.503
  0
LINE
  8
0
 10
225.063
 20
110.503
 11
225.016
 21
110.749
  0
LINE
  8
0
 10
225.016
 20
110.749
 11
225
 21
111
  0
LINE
  8
0
 10
225
 20
111
 11
225.016
 21
111.251
  0
LINE
  8
0
 10
225.016
 20
111.251
 11
225.063
 21
111.497
  0
LINE
  8
0
 10
225.063
 20
111.497
 11
225.14
 21
111.736
  0
LINE
  8
0
 10
225.14
 20
111.736
 11
225.247
 21
111.964
  0
LINE
  8
0
 10
225.247
 20
111.964
 11
225.382
 21
112.176
  0
LINE
  8
0
 10
225.382
 20
112.176
 11
225.542
 21
112.369
  0
LINE
  8
0
 10
225.542
 20
112.369
 11
225.725
 21
112.541
  0
LINE
  8
0
 10
225.725
 20
112.541
 11
225.928
 21
112.689
  0
LINE
  8
0
 10
225.928
 20
112.689
 11
226.148
 21
112.81
  0
LINE
  8
0
 10
226.148
 20
112.81
 11
226.382
 21
112.902
  0
LINE
  8
0
 10
226.382
 20
112.902
 11
226.625
 21
112.965
  0
LINE
  8
0
 10
226.625
 20
112.965
 11
226.874
 21
112.996
  0
LINE
  8
0
 10
226.874
 20
112.996
 11
227.126
 21
112.996
  0
LINE
  8
0
 10
227.126
 20
112.996
 11
227.375
 21
112.965
  0
LINE
  8
0
 10
227.375
 20
112.965
 11
227.618
 21
112.902
  0
LINE
  8
0
 10
227.618
 20
112.902
 11
227.852
 21
112.81
  0
LINE
  8
0
 10
227.852
 20
112.81
 11
228.072
 21
112.689
  0
LINE
  8
0
 10
228.072
 20
112.689
 11
228.275
 21
112.541
  0
LINE
  8
0
 10
228.275
 20
112.541
 11
228.458
 21
112.369
  0
LINE
  8
0
 10
228.458
 20
112.369
 11
228.618
 21
112.176
  0
LINE
  8
0
 10
228.618
 20
112.176
 11
228.753
 21
111.964
  0
LINE
  8
0
 10
228.753
 20
111.964
 11
228.86
 21
111.736
  0
LINE
  8
0
 10
228.86
 20
111.736
 11
228.937
 21
111.497
  0
LINE
  8
0
 10
228.937
 20
111.497
 11
228.984
 21
111.251
  0
LINE
  8
0
 10
228.984
 20
111.251
 11
229
 21
111
  0
LINE
  8
0
 10
229
 20
111
 11
228.984
 21
110.749
  0
LINE
  8
0
 10
228.984
 20
110.749
 11
228.937
 21
110.503
  0
LINE
  8
0
 10
228.937
 20
110.503
 11
228.86
 21
110.264
  0
LINE
  8
0
 10
228.86
 20
110.264
 11
228.753
 21
110.036
  0
LINE
  8
0
 10
228.753
 20
110.036
 11
228.618
 21
109.824
  0
LINE
  8
0
 10
228.618
 20
109.824
 11
228.458
 21
109.631
  0
LINE
  8
0
 10
228.458
 20
109.631
 11
228.275
 21
109.459
  0
LINE
  8
0
 10
228.275
 20
109.459
 11
228.072
 21
109.311
  0
LINE
  8
0
 10
228.072
 20
109.311
 11
227.852
 21
109.19
  0
LINE
  8
0
 10
227.852
 20
109.19
 11
227.618
 21
109.098
  0
LINE
  8
0
 10
227.618
 20
109.098
 11
227.375
 21
109.035
  0
LINE
  8
0
 10
227.375
 20
109.035
 11
227.126
 21
109.004
  0
LINE
  8
0
 10
227.126
 20
109.004
 11
226.874
 21
109.004
  0
LINE
  8
0
 10
90.0833
 20
102
 11
90.0833
 21
105
  0
LINE
  8
0
 10
90.0833
 20
105
 11
110.083
 21
105
  0
LINE
  8
0
 10
110.083
 20
105
 11
110.083
 21
102
  0
LINE
  8
0
 10
110.083
 20
102
 11
90.0833
 21
102
  0
LINE
  8
0
 10
206.583
 20
102
 11
206.583
 21
105
  0
LINE
  8
0
 10
206.583
 20
105
 11
226.583
 21
105
  0
LINE
  8
0
 10
226.583
 20
105
 11
226.583
 21
102
  0
LINE
  8
0
 10
226.583
 20
102
 11
206.583
 21
102
  0
LINE
  8
0
 10
167.75
 20
102
 11
167.75
 21
105
  0
LINE
  8
0
 10
167.75
 20
105
 11
187.75
 21
105
  0
LINE
  8
0
 10
187.75
 20
105
 11
187.75
 21
102
  0
LINE
  8
0
 10
187.75
 20
102
 11
167.75
 21
102
  0
LINE
  8
0
 10
128.917
 20
102
 11
128.917
 21
105
  0
LINE
  8
0
 10
128.917
 20
105
 11
148.917
 21
105
  0
LINE
  8
0
 10
148.917
 20
105
 11
148.917
 21
102
  0
LINE
  8
0
 10
148.917
 20
102
 11
128.917
 21
102
  0
LINE
  8
0
 10
51.25
 20
102
 11
51.25
 21
105
  0
LINE
  8
0
 10
51.25
 20
105
 11
71.25
 21
105
  0
LINE
  8
0
 10
71.25
 20
105
 11
71.25
 21
102
  0
LINE
  8
0
 10
71.25
 20
102
 11
51.25
 21
102
  0
LINE
  8
0
 10
12.4167
 20
102
 11
12.4167
 21
105
  0
LINE
  8
0
 10
12.4167
 20
105
 11
32.4167
 21
105
  0
LINE
  8
0
 10
32.4167
 20
105
 11
32.4167
 21
102
  0
LINE
  8
0
 10
32.4167
 20
102
 11
12.4167
 21
102
  0
LINE
  8
0
 10
238.062
 20
-1.44685
 11
238.427
 21
-1.35316
  0
LINE
  8
0
 10
238.427
 20
-1.35316
 11
238.777
 21
-1.21448
  0
LINE
  8
0
 10
238.777
 20
-1.21448
 11
239.107
 21
-1.03297
  0
LINE
  8
0
 10
239.107
 20
-1.03297
 11
239.412
 21
-0.811539
  0
LINE
  8
0
 10
239.412
 20
-0.811539
 11
239.687
 21
-0.553635
  0
LINE
  8
0
 10
239.687
 20
-0.553635
 11
239.927
 21
-0.263351
  0
LINE
  8
0
 10
239.927
 20
-0.263351
 11
240.129
 21
0.0547333
  0
LINE
  8
0
 10
240.129
 20
0.0547333
 11
240.289
 21
0.395615
  0
LINE
  8
0
 10
240.289
 20
0.395615
 11
240.406
 21
0.753922
  0
LINE
  8
0
 10
240.406
 20
0.753922
 11
240.476
 21
1.12399
  0
LINE
  8
0
 10
240.476
 20
1.12399
 11
240.5
 21
1.5
  0
LINE
  8
0
 10
240.5
 20
1.5
 11
240.5
 21
92.5
  0
LINE
  8
0
 10
240.5
 20
92.5
 11
240.476
 21
92.876
  0
LINE
  8
0
 10
240.476
 20
92.876
 11
240.406
 21
93.2461
  0
LINE
  8
0
 10
240.406
 20
93.2461
 11
240.289
 21
93.6044
  0
LINE
  8
0
 10
240.289
 20
93.6044
 11
240.129
 21
93.9453
  0
LINE
  8
0
 10
240.129
 20
93.9453
 11
239.927
 21
94.2634
  0
LINE
  8
0
 10
239.927
 20
94.2634
 11
239.687
 21
94.5536
  0
LINE
  8
0
 10
239.687
 20
94.5536
 11
239.412
 21
94.8115
  0
LINE
  8
0
 10
239.412
 20
94.8115
 11
239.107
 21
95.033
  0
LINE
  8
0
 10
239.107
 20
95.033
 11
238.777
 21
95.2145
  0
LINE
  8
0
 10
238.777
 20
95.2145
 11
238.427
 21
95.3532
  0
LINE
  8
0
 10
238.427
 20
95.3532
 11
238.062
 21
95.4469
  0
LINE
  8
0
 10
238.062
 20
95.4469
 11
237.688
 21
95.4941
  0
LINE
  8
0
 10
237.688
 20
95.4941
 11
1.31161
 21
95.4941
  0
LINE
  8
0
 10
1.31161
 20
95.4941
 11
0.937851
 21
95.4469
  0
LINE
  8
0
 10
0.937851
 20
95.4469
 11
0.572937
 21
95.3532
  0
LINE
  8
0
 10
0.572937
 20
95.3532
 11
0.222656
 21
95.2145
  0
LINE
  8
0
 10
0.222656
 20
95.2145
 11
-0.107468
 21
95.033
  0
LINE
  8
0
 10
-0.107468
 20
95.033
 11
-0.412262
 21
94.8115
  0
LINE
  8
0
 10
-0.412262
 20
94.8115
 11
-0.686905
 21
94.5536
  0
LINE
  8
0
 10
-0.686905
 20
94.5536
 11
-0.927048
 21
94.2634
  0
LINE
  8
0
 10
-0.927048
 20
94.2634
 11
-1.12891
 21
93.9453
  0
LINE
  8
0
 10
-1.12891
 20
93.9453
 11
-1.28932
 21
93.6044
  0
LINE
  8
0
 10
-1.28932
 20
93.6044
 11
-1.40575
 21
93.2461
  0
LINE
  8
0
 10
-1.40575
 20
93.2461
 11
-1.47633
 21
92.876
  0
LINE
  8
0
 10
-1.47633
 20
92.876
 11
-1.5
 21
92.5
  0
LINE
  8
0
 10
-1.5
 20
92.5
 11
-1.5
 21
1.5
  0
LINE
  8
0
 10
-1.5
 20
1.5
 11
-1.47633
 21
1.12399
  0
LINE
  8
0
 10
-1.47633
 20
1.12399
 11
-1.40575
 21
0.753922
  0
LINE
  8
0
 10
-1.40575
 20
0.753922
 11
-1.28932
 21
0.395615
  0
LINE
  8
0
 10
-1.28932
 20
0.395615
 11
-1.12891
 21
0.0547333
  0
LINE
  8
0
 10
-1.12891
 20
0.0547333
 11
-0.927048
 21
-0.263351
  0
LINE
  8
0
 10
-0.927048
 20
-0.263351
 11
-0.686905
 21
-0.553635
  0
LINE
  8
0
 10
-0.686905
 20
-0.553635
 11
-0.412262
 21
-0.811539
  0
LINE
  8
0
 10
-0.412262
 20
-0.811539
 11
-0.107468
 21
-1.03297
  0
LINE
  8
0
 10
-0.107468
 20
-1.03297
 11
0.222656
 21
-1.21448
  0
LINE
  8
0
 10
0.222656
 20
-1.21448
 11
0.572937
 21
-1.35316
  0
LINE
  8
0
 10
0.572937
 20
-1.35316
 11
0.937851
 21
-1.44685
  0
LINE
  8
0
 10
0.937851
 20
-1.44685
 11
1.31161
 21
-1.49408
  0
LINE
  8
0
 10
1.31161
 20
-1.49408
 11
237.688
 21
-1.49408
  0
LINE
  8
0
 10
237.688
 20
-1.49408
 11
238.062
 21
-1.44685
  0
LINE
  8
0
 10
206.583
 20
88
 11
206.583
 21
91
  0
LINE
  8
0
 10
206.583
 20
91
 11
226.583
 21
91
  0
LINE
  8
0
 10
226.583
 20
91
 11
226.583
 21
88
  0
LINE
  8
0
 10
226.583
 20
88
 11
206.583
 21
88
  0
LINE
  8
0
 10
167.75
 20
88
 11
167.75
 21
91
  0
LINE
  8
0
 10
167.75
 20
91
 11
187.75
 21
91
  0
LINE
  8
0
 10
187.75
 20
91
 11
187.75
 21
88
  0
LINE
  8
0
 10
187.75
 20
88
 11
167.75
 21
88
  0
LINE
  8
0
 10
128.917
 20
88
 11
128.917
 21
91
  0
LINE
  8
0
 10
128.917
 20
91
 11
148.917
 21
91
  0
LINE
  8
0
 10
148.917
 20
91
 11
148.917
 21
88
  0
LINE
  8
0
 10
148.917
 20
88
 11
128.917
 21
88
  0
LINE
  8
0
 10
90.0833
 20
88
 11
90.0833
 21
91
  0
LINE
  8
0
 10
90.0833
 20
91
 11
110.083
 21
91
  0
LINE
  8
0
 10
110.083
 20
91
 11
110.083
 21
88
  0
LINE
  8
0
 10
110.083
 20
88
 11
90.0833
 21
88
  0
LINE
  8
0
 10
51.25
 20
88
 11
51.25
 21
91
  0
LINE
  8
0
 10
51.25
 20
91
 11
71.25
 21
91
  0
LINE
  8
0
 10
71.25
 20
91
 11
71.25
 21
88
  0
LINE
  8
0
 10
71.25
 20
88
 11
51.25
 21
88
  0
LINE
  8
0
 10
12.4167
 20
88
 11
12.4167
 21
91
  0
LINE
  8
0
 10
12.4167
 20
91
 11
32.4167
 21
91
  0
LINE
  8
0
 10
32.4167
 20
91
 11
32.4167
 21
88
  0
LINE
  8
0
 10
32.4167
 20
88
 11
12.4167
 21
88
  0
LINE
  8
0
 10
10.8744
 20
79.0039
 11
10.6252
 21
79.0354
  0
LINE
  8
0
 10
10.6252
 20
79.0354
 11
10.382
 21
79.0979
  0
LINE
  8
0
 10
10.382
 20
79.0979
 11
10.1484
 21
79.1903
  0
LINE
  8
0
 10
10.1484
 20
79.1903
 11
9.92834
 21
79.3113
  0
LINE
  8
0
 10
9.92834
 20
79.3113
 11
9.72514
 21
79.459
  0
LINE
  8
0
 10
9.72514
 20
79.459
 11
9.54205
 21
79.6309
  0
LINE
  8
0
 10
9.54205
 20
79.6309
 11
9.38196
 21
79.8244
  0
LINE
  8
0
 10
9.38196
 20
79.8244
 11
9.24738
 21
80.0365
  0
LINE
  8
0
 10
9.24738
 20
80.0365
 11
9.14044
 21
80.2637
  0
LINE
  8
0
 10
9.14044
 20
80.2637
 11
9.06282
 21
80.5026
  0
LINE
  8
0
 10
9.06282
 20
80.5026
 11
9.01576
 21
80.7493
  0
LINE
  8
0
 10
9.01576
 20
80.7493
 11
9
 21
81
  0
LINE
  8
0
 10
9
 20
81
 11
9.01576
 21
81.2507
  0
LINE
  8
0
 10
9.01576
 20
81.2507
 11
9.06282
 21
81.4974
  0
LINE
  8
0
 10
9.06282
 20
81.4974
 11
9.14044
 21
81.7362
  0
LINE
  8
0
 10
9.14044
 20
81.7362
 11
9.24738
 21
81.9635
  0
LINE
  8
0
 10
9.24738
 20
81.9635
 11
9.38196
 21
82.1756
  0
LINE
  8
0
 10
9.38196
 20
82.1756
 11
9.54205
 21
82.3691
  0
LINE
  8
0
 10
9.54205
 20
82.3691
 11
9.72514
 21
82.541
  0
LINE
  8
0
 10
9.72514
 20
82.541
 11
9.92834
 21
82.6886
  0
LINE
  8
0
 10
9.92834
 20
82.6886
 11
10.1484
 21
82.8096
  0
LINE
  8
0
 10
10.1484
 20
82.8096
 11
10.382
 21
82.9021
  0
LINE
  8
0
 10
10.382
 20
82.9021
 11
10.6252
 21
82.9646
  0
LINE
  8
0
 10
10.6252
 20
82.9646
 11
10.8744
 21
82.996
  0
LINE
  8
0
 10
10.8744
 20
82.996
 11
11.1256
 21
82.996
  0
LINE
  8
0
 10
11.1256
 20
82.996
 11
11.3748
 21
82.9646
  0
LINE
  8
0
 10
11.3748
 20
82.9646
 11
11.618
 21
82.9021
  0
LINE
  8
0
 10
11.618
 20
82.9021
 11
11.8515
 21
82.8096
  0
LINE
  8
0
 10
11.8515
 20
82.8096
 11
12.0716
 21
82.6886
  0
LINE
  8
0
 10
12.0716
 20
82.6886
 11
12.2748
 21
82.541
  0
LINE
  8
0
 10
12.2748
 20
82.541
 11
12.4579
 21
82.3691
  0
LINE
  8
0
 10
12.4579
 20
82.3691
 11
12.618
 21
82.1756
  0
LINE
  8
0
 10
12.618
 20
82.1756
 11
12.7526
 21
81.9635
  0
LINE
  8
0
 10
12.7526
 20
81.9635
 11
12.8595
 21
81.7362
  0
LINE
  8
0
 10
12.8595
 20
81.7362
 11
12.9372
 21
81.4974
  0
LINE
  8
0
 10
12.9372
 20
81.4974
 11
12.9842
 21
81.2507
  0
LINE
  8
0
 10
12.9842
 20
81.2507
 11
13
 21
81
  0
LINE
  8
0
 10
13
 20
81
 11
12.9842
 21
80.7493
  0
LINE
  8
0
 10
12.9842
 20
80.7493
 11
12.9372
 21
80.5026
  0
LINE
  8
0
 10
12.9372
 20
80.5026
 11
12.8595
 21
80.2637
  0
LINE
  8
0
 10
12.8595
 20
80.2637
 11
12.7526
 21
80.0365
  0
LINE
  8
0
 10
12.7526
 20
80.0365
 11
12.618
 21
79.8244
  0
LINE
  8
0
 10
12.618
 20
79.8244
 11
12.4579
 21
79.6309
  0
LINE
  8
0
 10
12.4579
 20
79.6309
 11
12.2748
 21
79.459
  0
LINE
  8
0
 10
12.2748
 20
79.459
 11
12.0716
 21
79.3113
  0
LINE
  8
0
 10
12.0716
 20
79.3113
 11
11.8515
 21
79.1903
  0
LINE
  8
0
 10
11.8515
 20
79.1903
 11
11.618
 21
79.0979
  0
LINE
  8
0
 10
11.618
 20
79.0979
 11
11.3748
 21
79.0354
  0
LINE
  8
0
 10
11.3748
 20
79.0354
 11
11.1256
 21
79.0039
  0
LINE
  8
0
 10
11.1256
 20
79.0039
 11
10.8744
 21
79.0039
  0
LINE
  8
0
 10
225.874
 20
79.0039
 11
225.625
 21
79.0354
  0
LINE
  8
0
 10
225.625
 20
79.0354
 11
225.382
 21
79.0979
  0
LINE
  8
0
 10
225.382
 20
79.0979
 11
225.148
 21
79.1903
  0
LINE
  8
0
 10
225.148
 20
79.1903
 11
224.928
 21
79.3113
  0
LINE
  8
0
 10
224.928
 20
79.3113
 11
224.725
 21
79.459
  0
LINE
  8
0
 10
224.725
 20
79.459
 11
224.542
 21
79.6309
  0
LINE
  8
0
 10
224.542
 20
79.6309
 11
224.382
 21
79.8244
  0
LINE
  8
0
 10
224.382
 20
79.8244
 11
224.247
 21
80.0365
  0
LINE
  8
0
 10
224.247
 20
80.0365
 11
224.14
 21
80.2637
  0
LINE
  8
0
 10
224.14
 20
80.2637
 11
224.063
 21
80.5026
  0
LINE
  8
0
 10
224.063
 20
80.5026
 11
224.016
 21
80.7493
  0
LINE
  8
0
 10
224.016
 20
80.7493
 11
224
 21
81
  0
LINE
  8
0
 10
224
 20
81
 11
224.016
 21
81.2507
  0
LINE
  8
0
 10
224.016
 20
81.2507
 11
224.063
 21
81.4974
  0
LINE
  8
0
 10
224.063
 20
81.4974
 11
224.14
 21
81.7362
  0
LINE
  8
0
 10
224.14
 20
81.7362
 11
224.247
 21
81.9635
  0
LINE
  8
0
 10
224.247
 20
81.9635
 11
224.382
 21
82.1756
  0
LINE
  8
0
 10
224.382
 20
82.1756
 11
224.542
 21
82.3691
  0
LINE
  8
0
 10
224.542
 20
82.3691
 11
224.725
 21
82.541
  0
LINE
  8
0
 10
224.725
 20
82.541
 11
224.928
 21
82.6886
  0
LINE
  8
0
 10
224.928
 20
82.6886
 11
225.148
 21
82.8096
  0
LINE
  8
0
 10
225.148
 20
82.8096
 11
225.382
 21
82.9021
  0
LINE
  8
0
 10
225.382
 20
82.9021
 11
225.625
 21
82.9646
  0
LINE
  8
0
 10
225.625
 20
82.9646
 11
225.874
 21
82.996
  0
LINE
  8
0
 10
225.874
 20
82.996
 11
226.126
 21
82.996
  0
LINE
  8
0
 10
226.126
 20
82.996
 11
226.375
 21
82.9646
  0
LINE
  8
0
 10
226.375
 20
82.9646
 11
226.618
 21
82.9021
  0
LINE
  8
0
 10
226.618
 20
82.9021
 11
226.852
 21
82.8096
  0
LINE
  8
0
 10
226.852
 20
82.8096
 11
227.072
 21
82.6886
  0
LINE
  8
0
 10
227.072
 20
82.6886
 11
227.275
 21
82.541
  0
LINE
  8
0
 10
227.275
 20
82.541
 11
227.458
 21
82.3691
  0
LINE
  8
0
 10
227.458
 20
82.3691
 11
227.618
 21
82.1756
  0
LINE
  8
0
 10
227.618
 20
82.1756
 11
227.753
 21
81.9635
  0
LINE
  8
0
 10
227.753
 20
81.9635
 11
227.86
 21
81.7362
  0
LINE
  8
0
 10
227.86
 20
81.7362
 11
227.937
 21
81.4974
  0
LINE
  8
0
 10
227.937
 20
81.4974
 11
227.984
 21
81.2507
  0
LINE
  8
0
 10
227.984
 20
81.2507
 11
228
 21
81
  0
LINE
  8
0
 10
228
 20
81
 11
227.984
 21
80.7493
  0
LINE
  8
0
 10
227.984
 20
80.7493
 11
227.937
 21
80.5026
  0
LINE
  8
0
 10
227.937
 20
80.5026
 11
227.86
 21
80.2637
  0
LINE
  8
0
 10
227.86
 20
80.2637
 11
227.753
 21
80.0365
  0
LINE
  8
0
 10
227.753
 20
80.0365
 11
227.618
 21
79.8244
  0
LINE
  8
0
 10
227.618
 20
79.8244
 11
227.458
 21
79.6309
  0
LINE
  8
0
 10
227.458
 20
79.6309
 11
227.275
 21
79.459
  0
LINE
  8
0
 10
227.275
 20
79.459
 11
227.072
 21
79.3113
  0
LINE
  8
0
 10
227.072
 20
79.3113
 11
226.852
 21
79.1903
  0
LINE
  8
0
 10
226.852
 20
79.1903
 11
226.618
 21
79.0979
  0
LINE
  8
0
 10
226.618
 20
79.0979
 11
226.375
 21
79.0354
  0
LINE
  8
0
 10
226.375
 20
79.0354
 11
226.126
 21
79.0039
  0
LINE
  8
0
 10
226.126
 20
79.0039
 11
225.874
 21
79.0039
  0
LINE
  8
0
 10
118.374
 20
79.0039
 11
118.125
 21
79.0354
  0
LINE
  8
0
 10
118.125
 20
79.0354
 11
117.882
 21
79.0979
  0
LINE
  8
0
 10
117.882
 20
79.0979
 11
117.648
 21
79.1903
  0
LINE
  8
0
 10
117.648
 20
79.1903
 11
117.428
 21
79.3113
  0
LINE
  8
0
 10
117.428
 20
79.3113
 11
117.225
 21
79.459
  0
LINE
  8
0
 10
117.225
 20
79.459
 11
117.042
 21
79.6309
  0
LINE
  8
0
 10
117.042
 20
79.6309
 11
116.882
 21
79.8244
  0
LINE
  8
0
 10
116.882
 20
79.8244
 11
116.747
 21
80.0365
  0
LINE
  8
0
 10
116.747
 20
80.0365
 11
116.64
 21
80.2637
  0
LINE
  8
0
 10
116.64
 20
80.2637
 11
116.563
 21
80.5026
  0
LINE
  8
0
 10
116.563
 20
80.5026
 11
116.516
 21
80.7493
  0
LINE
  8
0
 10
116.516
 20
80.7493
 11
116.5
 21
81
  0
LINE
  8
0
 10
116.5
 20
81
 11
116.516
 21
81.2507
  0
LINE
  8
0
 10
116.516
 20
81.2507
 11
116.563
 21
81.4974
  0
LINE
  8
0
 10
116.563
 20
81.4974
 11
116.64
 21
81.7362
  0
LINE
  8
0
 10
116.64
 20
81.7362
 11
116.747
 21
81.9635
  0
LINE
  8
0
 10
116.747
 20
81.9635
 11
116.882
 21
82.1756
  0
LINE
  8
0
 10
116.882
 20
82.1756
 11
117.042
 21
82.3691
  0
LINE
  8
0
 10
117.042
 20
82.3691
 11
117.225
 21
82.541
  0
LINE
  8
0
 10
117.225
 20
82.541
 11
117.428
 21
82.6886
  0
LINE
  8
0
 10
117.428
 20
82.6886
 11
117.648
 21
82.8096
  0
LINE
  8
0
 10
117.648
 20
82.8096
 11
117.882
 21
82.9021
  0
LINE
  8
0
 10
117.882
 20
82.9021
 11
118.125
 21
82.9646
  0
LINE
  8
0
 10
118.125
 20
82.9646
 11
118.374
 21
82.996
  0
LINE
  8
0
 10
118.374
 20
82.996
 11
118.626
 21
82.996
  0
LINE
  8
0
 10
118.626
 20
82.996
 11
118.875
 21
82.9646
  0
LINE
  8
0
 10
118.875
 20
82.9646
 11
119.118
 21
82.9021
  0
LINE
  8
0
 10
119.118
 20
82.9021
 11
119.352
 21
82.8096
  0
LINE
  8
0
 10
119.352
 20
82.8096
 11
119.572
 21
82.6886
  0
LINE
  8
0
 10
119.572
 20
82.6886
 11
119.775
 21
82.541
  0
LINE
  8
0
 10
119.775
 20
82.541
 11
119.958
 21
82.3691
  0
LINE
  8
0
 10
119.958
 20
82.3691
 11
120.118
 21
82.1756
  0
LINE
  8
0
 10
120.118
 20
82.1756
 11
120.253
 21
81.9635
  0
LINE
  8
0
 10
120.253
 20
81.9635
 11
120.36
 21
81.7362
  0
LINE
  8
0
 10
120.36
 20
81.7362
 11
120.437
 21
81.4974
  0
LINE
  8
0
 10
120.437
 20
81.4974
 11
120.484
 21
81.2507
  0
LINE
  8
0
 10
120.484
 20
81.2507
 11
120.5
 21
81
  0
LINE
  8
0
 10
120.5
 20
81
 11
120.484
 21
80.7493
  0
LINE
  8
0
 10
120.484
 20
80.7493
 11
120.437
 21
80.5026
  0
LINE
  8
0
 10
120.437
 20
80.5026
 11
120.36
 21
80.2637
  0
LINE
  8
0
 10
120.36
 20
80.2637
 11
120.253
 21
80.0365
  0
LINE
  8
0
 10
120.253
 20
80.0365
 11
120.118
 21
79.8244
  0
LINE
  8
0
 10
120.118
 20
79.8244
 11
119.958
 21
79.6309
  0
LINE
  8
0
 10
119.958
 20
79.6309
 11
119.775
 21
79.459
  0
LINE
  8
0
 10
119.775
 20
79.459
 11
119.572
 21
79.3113
  0
LINE
  8
0
 10
119.572
 20
79.3113
 11
119.352
 21
79.1903
  0
LINE
  8
0
 10
119.352
 20
79.1903
 11
119.118
 21
79.0979
  0
LINE
  8
0
 10
119.118
 20
79.0979
 11
118.875
 21
79.0354
  0
LINE
  8
0
 10
118.875
 20
79.0354
 11
118.626
 21
79.0039
  0
LINE
  8
0
 10
118.626
 20
79.0039
 11
118.374
 21
79.0039
  0
LINE
  8
0
 10
3
 20
55
 11
3
 21
80
  0
LINE
  8
0
 10
3
 20
80
 11
6
 21
80
  0
LINE
  8
0
 10
6
 20
80
 11
6
 21
55
  0
LINE
  8
0
 10
6
 20
55
 11
3
 21
55
  0
LINE
  8
0
 10
233
 20
55
 11
233
 21
80
  0
LINE
  8
0
 10
233
 20
80
 11
236
 21
80
  0
LINE
  8
0
 10
236
 20
80
 11
236
 21
55
  0
LINE
  8
0
 10
236
 20
55
 11
233
 21
55
  0
LINE
  8
0
 10
217.121
 20
33.0257
 11
215.502
 21
33.2303
  0
LINE
  8
0
 10
215.502
 20
33.2303
 11
213.92
 21
33.6363
  0
LINE
  8
0
 10
213.92
 20
33.6363
 11
212.402
 21
34.2372
  0
LINE
  8
0
 10
212.402
 20
34.2372
 11
210.972
 21
35.0237
  0
LINE
  8
0
 10
210.972
 20
35.0237
 11
209.651
 21
35.9833
  0
LINE
  8
0
 10
209.651
 20
35.9833
 11
208.461
 21
37.1009
  0
LINE
  8
0
 10
208.461
 20
37.1009
 11
207.42
 21
38.3588
  0
LINE
  8
0
 10
207.42
 20
38.3588
 11
206.546
 21
39.7372
  0
LINE
  8
0
 10
206.546
 20
39.7372
 11
205.85
 21
41.2144
  0
LINE
  8
0
 10
205.85
 20
41.2144
 11
205.346
 21
42.767
  0
LINE
  8
0
 10
205.346
 20
42.767
 11
205.04
 21
44.3707
  0
LINE
  8
0
 10
205.04
 20
44.3707
 11
204.938
 21
46
  0
LINE
  8
0
 10
204.938
 20
46
 11
205.04
 21
47.6293
  0
LINE
  8
0
 10
205.04
 20
47.6293
 11
205.346
 21
49.233
  0
LINE
  8
0
 10
205.346
 20
49.233
 11
205.85
 21
50.7856
  0
LINE
  8
0
 10
205.85
 20
50.7856
 11
206.546
 21
52.2628
  0
LINE
  8
0
 10
206.546
 20
52.2628
 11
207.42
 21
53.6412
  0
LINE
  8
0
 10
207.42
 20
53.6412
 11
208.461
 21
54.8991
  0
LINE
  8
0
 10
208.461
 20
54.8991
 11
209.651
 21
56.0167
  0
LINE
  8
0
 10
209.651
 20
56.0167
 11
210.972
 21
56.9763
  0
LINE
  8
0
 10
210.972
 20
56.9763
 11
212.402
 21
57.7627
  0
LINE
  8
0
 10
212.402
 20
57.7627
 11
213.92
 21
58.3637
  0
LINE
  8
0
 10
213.92
 20
58.3637
 11
215.502
 21
58.7697
  0
LINE
  8
0
 10
215.502
 20
58.7697
 11
217.121
 21
58.9743
  0
LINE
  8
0
 10
217.121
 20
58.9743
 11
218.754
 21
58.9743
  0
LINE
  8
0
 10
218.754
 20
58.9743
 11
220.373
 21
58.7697
  0
LINE
  8
0
 10
220.373
 20
58.7697
 11
221.955
 21
58.3637
  0
LINE
  8
0
 10
221.955
 20
58.3637
 11
223.473
 21
57.7627
  0
LINE
  8
0
 10
223.473
 20
57.7627
 11
224.903
 21
56.9763
  0
LINE
  8
0
 10
224.903
 20
56.9763
 11
226.224
 21
56.0167
  0
LINE
  8
0
 10
226.224
 20
56.0167
 11
227.414
 21
54.8991
  0
LINE
  8
0
 10
227.414
 20
54.8991
 11
228.455
 21
53.6412
  0
LINE
  8
0
 10
228.455
 20
53.6412
 11
229.329
 21
52.2628
  0
LINE
  8
0
 10
229.329
 20
52.2628
 11
230.025
 21
50.7856
  0
LINE
  8
0
 10
230.025
 20
50.7856
 11
230.529
 21
49.233
  0
LINE
  8
0
 10
230.529
 20
49.233
 11
230.835
 21
47.6293
  0
LINE
  8
0
 10
230.835
 20
47.6293
 11
230.938
 21
46
  0
LINE
  8
0
 10
230.938
 20
46
 11
230.835
 21
44.3707
  0
LINE
  8
0
 10
230.835
 20
44.3707
 11
230.529
 21
42.767
  0
LINE
  8
0
 10
230.529
 20
42.767
 11
230.025
 21
41.2144
  0
LINE
  8
0
 10
230.025
 20
41.2144
 11
229.329
 21
39.7372
  0
LINE
  8
0
 10
229.329
 20
39.7372
 11
228.455
 21
38.3588
  0
LINE
  8
0
 10
228.455
 20
38.3588
 11
227.414
 21
37.1009
  0
LINE
  8
0
 10
227.414
 20
37.1009
 11
226.224
 21
35.9833
  0
LINE
  8
0
 10
226.224
 20
35.9833
 11
224.903
 21
35.0237
  0
LINE
  8
0
 10
224.903
 20
35.0237
 11
223.473
 21
34.2372
  0
LINE
  8
0
 10
223.473
 20
34.2372
 11
221.955
 21
33.6363
  0
LINE
  8
0
 10
221.955
 20
33.6363
 11
220.373
 21
33.2303
  0
LINE
  8
0
 10
220.373
 20
33.2303
 11
218.754
 21
33.0257
  0
LINE
  8
0
 10
218.754
 20
33.0257
 11
217.121
 21
33.0257
  0
LINE
  8
0
 10
188.996
 20
33.0257
 11
187.377
 21
33.2303
  0
LINE
  8
0
 10
187.377
 20
33.2303
 11
185.795
 21
33.6363
  0
LINE
  8
0
 10
185.795
 20
33.6363
 11
184.277
 21
34.2372
  0
LINE
  8
0
 10
184.277
 20
34.2372
 11
182.847
 21
35.0237
  0
LINE
  8
0
 10
182.847
 20
35.0237
 11
181.526
 21
35.9833
  0
LINE
  8
0
 10
181.526
 20
35.9833
 11
180.336
 21
37.1009
  0
LINE
  8
0
 10
180.336
 20
37.1009
 11
179.295
 21
38.3588
  0
LINE
  8
0
 10
179.295
 20
38.3588
 11
178.421
 21
39.7372
  0
LINE
  8
0
 10
178.421
 20
39.7372
 11
177.725
 21
41.2144
  0
LINE
  8
0
 10
177.725
 20
41.2144
 11
177.221
 21
42.767
  0
LINE
  8
0
 10
177.221
 20
42.767
 11
176.915
 21
44.3707
  0
LINE
  8
0
 10
176.915
 20
44.3707
 11
176.812
 21
46
  0
LINE
  8
0
 10
176.812
 20
46
 11
176.915
 21
47.6293
  0
LINE
  8
0
 10
176.915
 20
47.6293
 11
177.221
 21
49.233
  0
LINE
  8
0
 10
177.221
 20
49.233
 11
177.725
 21
50.7856
  0
LINE
  8
0
 10
177.725
 20
50.7856
 11
178.421
 21
52.2628
  0
LINE
  8
0
 10
178.421
 20
52.2628
 11
179.295
 21
53.6412
  0
LINE
  8
0
 10
179.295
 20
53.6412
 11
180.336
 21
54.8991
  0
LINE
  8
0
 10
180.336
 20
54.8991
 11
181.526
 21
56.0167
  0
LINE
  8
0
 10
181.526
 20
56.0167
 11
182.847
 21
56.9763
  0
LINE
  8
0
 10
182.847
 20
56.9763
 11
184.277
 21
57.7627
  0
LINE
  8
0
 10
184.277
 20
57.7627
 11
185.795
 21
58.3637
  0
LINE
  8
0
 10
185.795
 20
58.3637
 11
187.377
 21
58.7697
  0
LINE
  8
0
 10
187.377
 20
58.7697
 11
188.996
 21
58.9743
  0
LINE
  8
0
 10
188.996
 20
58.9743
 11
190.629
 21
58.9743
  0
LINE
  8
0
 10
190.629
 20
58.9743
 11
192.248
 21
58.7697
  0
LINE
  8
0
 10
192.248
 20
58.7697
 11
193.83
 21
58.3637
  0
LINE
  8
0
 10
193.83
 20
58.3637
 11
195.348
 21
57.7627
  0
LINE
  8
0
 10
195.348
 20
57.7627
 11
196.778
 21
56.9763
  0
LINE
  8
0
 10
196.778
 20
56.9763
 11
198.099
 21
56.0167
  0
LINE
  8
0
 10
198.099
 20
56.0167
 11
199.289
 21
54.8991
  0
LINE
  8
0
 10
199.289
 20
54.8991
 11
200.33
 21
53.6412
  0
LINE
  8
0
 10
200.33
 20
53.6412
 11
201.204
 21
52.2628
  0
LINE
  8
0
 10
201.204
 20
52.2628
 11
201.9
 21
50.7856
  0
LINE
  8
0
 10
201.9
 20
50.7856
 11
202.404
 21
49.233
  0
LINE
  8
0
 10
202.404
 20
49.233
 11
202.71
 21
47.6293
  0
LINE
  8
0
 10
202.71
 20
47.6293
 11
202.812
 21
46
  0
LINE
  8
0
 10
202.812
 20
46
 11
202.71
 21
44.3707
  0
LINE
  8
0
 10
202.71
 20
44.3707
 11
202.404
 21
42.767
  0
LINE
  8
0
 10
202.404
 20
42.767
 11
201.9
 21
41.2144
  0
LINE
  8
0
 10
201.9
 20
41.2144
 11
201.204
 21
39.7372
  0
LINE
  8
0
 10
201.204
 20
39.7372
 11
200.33
 21
38.3588
  0
LINE
  8
0
 10
200.33
 20
38.3588
 11
199.289
 21
37.1009
  0
LINE
  8
0
 10
199.289
 20
37.1009
 11
198.099
 21
35.9833
  0
LINE
  8
0
 10
198.099
 20
35.9833
 11
196.778
 21
35.0237
  0
LINE
  8
0
 10
196.778
 20
35.0237
 11
195.348
 21
34.2372
  0
LINE
  8
0
 10
195.348
 20
34.2372
 11
193.83
 21
33.6363
  0
LINE
  8
0
 10
193.83
 20
33.6363
 11
192.248
 21
33.2303
  0
LINE
  8
0
 10
192.248
 20
33.2303
 11
190.629
 21
33.0257
  0
LINE
  8
0
 10
190.629
 20
33.0257
 11
188.996
 21
33.0257
  0
LINE
  8
0
 10
160.871
 20
33.0257
 11
159.252
 21
33.2303
  0
LINE
  8
0
 10
159.252
 20
33.2303
 11
157.67
 21
33.6363
  0
LINE
  8
0
 10
157.67
 20
33.6363
 11
156.152
 21
34.2372
  0
LINE
  8
0
 10
156.152
 20
34.2372
 11
154.722
 21
35.0237
  0
LINE
  8
0
 10
154.722
 20
35.0237
 11
153.401
 21
35.9833
  0
LINE
  8
0
 10
153.401
 20
35.9833
 11
152.211
 21
37.1009
  0
LINE
  8
0
 10
152.211
 20
37.1009
 11
151.17
 21
38.3588
  0
LINE
  8
0
 10
151.17
 20
38.3588
 11
150.296
 21
39.7372
  0
LINE
  8
0
 10
150.296
 20
39.7372
 11
149.6
 21
41.2144
  0
LINE
  8
0
 10
149.6
 20
41.2144
 11
149.096
 21
42.767
  0
LINE
  8
0
 10
149.096
 20
42.767
 11
148.79
 21
44.3707
  0
LINE
  8
0
 10
148.79
 20
44.3707
 11
148.688
 21
46
  0
LINE
  8
0
 10
148.688
 20
46
 11
148.79
 21
47.6293
  0
LINE
  8
0
 10
148.79
 20
47.6293
 11
149.096
 21
49.233
  0
LINE
  8
0
 10
149.096
 20
49.233
 11
149.6
 21
50.7856
  0
LINE
  8
0
 10
149.6
 20
50.7856
 11
150.296
 21
52.2628
  0
LINE
  8
0
 10
150.296
 20
52.2628
 11
151.17
 21
53.6412
  0
LINE
  8
0
 10
151.17
 20
53.6412
 11
152.211
 21
54.8991
  0
LINE
  8
0
 10
152.211
 20
54.8991
 11
153.401
 21
56.0167
  0
LINE
  8
0
 10
153.401
 20
56.0167
 11
154.722
 21
56.9763
  0
LINE
  8
0
 10
154.722
 20
56.9763
 11
156.152
 21
57.7627
  0
LINE
  8
0
 10
156.152
 20
57.7627
 11
157.67
 21
58.3637
  0
LINE
  8
0
 10
157.67
 20
58.3637
 11
159.252
 21
58.7697
  0
LINE
  8
0
 10
159.252
 20
58.7697
 11
160.871
 21
58.9743
  0
LINE
  8
0
 10
160.871
 20
58.9743
 11
162.504
 21
58.9743
  0
LINE
  8
0
 10
162.504
 20
58.9743
 11
164.123
 21
58.7697
  0
LINE
  8
0
 10
164.123
 20
58.7697
 11
165.705
 21
58.3637
  0
LINE
  8
0
 10
165.705
 20
58.3637
 11
167.223
 21
57.7627
  0
LINE
  8
0
 10
167.223
 20
57.7627
 11
168.653
 21
56.9763
  0
LINE
  8
0
 10
168.653
 20
56.9763
 11
169.974
 21
56.0167
  0
LINE
  8
0
 10
169.974
 20
56.0167
 11
171.164
 21
54.8991
  0
LINE
  8
0
 10
171.164
 20
54.8991
 11
172.205
 21
53.6412
  0
LINE
  8
0
 10
172.205
 20
53.6412
 11
173.079
 21
52.2628
  0
LINE
  8
0
 10
173.079
 20
52.2628
 11
173.775
 21
50.7856
  0
LINE
  8
0
 10
173.775
 20
50.7856
 11
174.279
 21
49.233
  0
LINE
  8
0
 10
174.279
 20
49.233
 11
174.585
 21
47.6293
  0
LINE
  8
0
 10
174.585
 20
47.6293
 11
174.688
 21
46
  0
LINE
  8
0
 10
174.688
 20
46
 11
174.585
 21
44.3707
  0
LINE
  8
0
 10
174.585
 20
44.3707
 11
174.279
 21
42.767
  0
LINE
  8
0
 10
174.279
 20
42.767
 11
173.775
 21
41.2144
  0
LINE
  8
0
 10
173.775
 20
41.2144
 11
173.079
 21
39.7372
  0
LINE
  8
0
 10
173.079
 20
39.7372
 11
172.205
 21
38.3588
  0
LINE
  8
0
 10
172.205
 20
38.3588
 11
171.164
 21
37.1009
  0
LINE
  8
0
 10
171.164
 20
37.1009
 11
169.974
 21
35.9833
  0
LINE
  8
0
 10
169.974
 20
35.9833
 11
168.653
 21
35.0237
  0
LINE
  8
0
 10
168.653
 20
35.0237
 11
167.223
 21
34.2372
  0
LINE
  8
0
 10
167.223
 20
34.2372
 11
165.705
 21
33.6363
  0
LINE
  8
0
 10
165.705
 20
33.6363
 11
164.123
 21
33.2303
  0
LINE
  8
0
 10
164.123
 20
33.2303
 11
162.504
 21
33.0257
  0
LINE
  8
0
 10
162.504
 20
33.0257
 11
160.871
 21
33.0257
  0
LINE
  8
0
 10
132.746
 20
33.0257
 11
131.127
 21
33.2303
  0
LINE
  8
0
 10
131.127
 20
33.2303
 11
129.545
 21
33.6363
  0
LINE
  8
0
 10
129.545
 20
33.6363
 11
128.027
 21
34.2372
  0
LINE
  8
0
 10
128.027
 20
34.2372
 11
126.597
 21
35.0237
  0
LINE
  8
0
 10
126.597
 20
35.0237
 11
125.276
 21
35.9833
  0
LINE
  8
0
 10
125.276
 20
35.9833
 11
124.086
 21
37.1009
  0
LINE
  8
0
 10
124.086
 20
37.1009
 11
123.045
 21
38.3588
  0
LINE
  8
0
 10
123.045
 20
38.3588
 11
122.171
 21
39.7372
  0
LINE
  8
0
 10
122.171
 20
39.7372
 11
121.475
 21
41.2144
  0
LINE
  8
0
 10
121.475
 20
41.2144
 11
120.971
 21
42.767
  0
LINE
  8
0
 10
120.971
 20
42.767
 11
120.665
 21
44.3707
  0
LINE
  8
0
 10
120.665
 20
44.3707
 11
120.562
 21
46
  0
LINE
  8
0
 10
120.562
 20
46
 11
120.665
 21
47.6293
  0
LINE
  8
0
 10
120.665
 20
47.6293
 11
120.971
 21
49.233
  0
LINE
  8
0
 10
120.971
 20
49.233
 11
121.475
 21
50.7856
  0
LINE
  8
0
 10
121.475
 20
50.7856
 11
122.171
 21
52.2628
  0
LINE
  8
0
 10
122.171
 20
52.2628
 11
123.045
 21
53.6412
  0
LINE
  8
0
 10
123.045
 20
53.6412
 11
124.086
 21
54.8991
  0
LINE
  8
0
 10
124.086
 20
54.8991
 11
125.276
 21
56.0167
  0
LINE
  8
0
 10
125.276
 20
56.0167
 11
126.597
 21
56.9763
  0
LINE
  8
0
 10
126.597
 20
56.9763
 11
128.027
 21
57.7627
  0
LINE
  8
0
 10
128.027
 20
57.7627
 11
129.545
 21
58.3637
  0
LINE
  8
0
 10
129.545
 20
58.3637
 11
131.127
 21
58.7697
  0
LINE
  8
0
 10
131.127
 20
58.7697
 11
132.746
 21
58.9743
  0
LINE
  8
0
 10
132.746
 20
58.9743
 11
134.379
 21
58.9743
  0
LINE
  8
0
 10
134.379
 20
58.9743
 11
135.998
 21
58.7697
  0
LINE
  8
0
 10
135.998
 20
58.7697
 11
137.58
 21
58.3637
  0
LINE
  8
0
 10
137.58
 20
58.3637
 11
139.098
 21
57.7627
  0
LINE
  8
0
 10
139.098
 20
57.7627
 11
140.528
 21
56.9763
  0
LINE
  8
0
 10
140.528
 20
56.9763
 11
141.849
 21
56.0167
  0
LINE
  8
0
 10
141.849
 20
56.0167
 11
143.039
 21
54.8991
  0
LINE
  8
0
 10
143.039
 20
54.8991
 11
144.08
 21
53.6412
  0
LINE
  8
0
 10
144.08
 20
53.6412
 11
144.954
 21
52.2628
  0
LINE
  8
0
 10
144.954
 20
52.2628
 11
145.65
 21
50.7856
  0
LINE
  8
0
 10
145.65
 20
50.7856
 11
146.154
 21
49.233
  0
LINE
  8
0
 10
146.154
 20
49.233
 11
146.46
 21
47.6293
  0
LINE
  8
0
 10
146.46
 20
47.6293
 11
146.562
 21
46
  0
LINE
  8
0
 10
146.562
 20
46
 11
146.46
 21
44.3707
  0
LINE
  8
0
 10
146.46
 20
44.3707
 11
146.154
 21
42.767
  0
LINE
  8
0
 10
146.154
 20
42.767
 11
145.65
 21
41.2144
  0
LINE
  8
0
 10
145.65
 20
41.2144
 11
144.954
 21
39.7372
  0
LINE
  8
0
 10
144.954
 20
39.7372
 11
144.08
 21
38.3588
  0
LINE
  8
0
 10
144.08
 20
38.3588
 11
143.039
 21
37.1009
  0
LINE
  8
0
 10
143.039
 20
37.1009
 11
141.849
 21
35.9833
  0
LINE
  8
0
 10
141.849
 20
35.9833
 11
140.528
 21
35.0237
  0
LINE
  8
0
 10
140.528
 20
35.0237
 11
139.098
 21
34.2372
  0
LINE
  8
0
 10
139.098
 20
34.2372
 11
137.58
 21
33.6363
  0
LINE
  8
0
 10
137.58
 20
33.6363
 11
135.998
 21
33.2303
  0
LINE
  8
0
 10
135.998
 20
33.2303
 11
134.379
 21
33.0257
  0
LINE
  8
0
 10
134.379
 20
33.0257
 11
132.746
 21
33.0257
  0
LINE
  8
0
 10
20.2462
 20
33.0257
 11
18.6265
 21
33.2303
  0
LINE
  8
0
 10
18.6265
 20
33.2303
 11
17.0453
 21
33.6363
  0
LINE
  8
0
 10
17.0453
 20
33.6363
 11
15.5274
 21
34.2372
  0
LINE
  8
0
 10
15.5274
 20
34.2372
 11
14.0967
 21
35.0237
  0
LINE
  8
0
 10
14.0967
 20
35.0237
 11
12.776
 21
35.9833
  0
LINE
  8
0
 10
12.776
 20
35.9833
 11
11.5859
 21
37.1009
  0
LINE
  8
0
 10
11.5859
 20
37.1009
 11
10.5453
 21
38.3588
  0
LINE
  8
0
 10
10.5453
 20
38.3588
 11
9.6705
 21
39.7372
  0
LINE
  8
0
 10
9.6705
 20
39.7372
 11
8.9754
 21
41.2144
  0
LINE
  8
0
 10
8.9754
 20
41.2144
 11
8.47092
 21
42.767
  0
LINE
  8
0
 10
8.47092
 20
42.767
 11
8.16501
 21
44.3707
  0
LINE
  8
0
 10
8.16501
 20
44.3707
 11
8.0625
 21
46
  0
LINE
  8
0
 10
8.0625
 20
46
 11
8.16501
 21
47.6293
  0
LINE
  8
0
 10
8.16501
 20
47.6293
 11
8.47092
 21
49.233
  0
LINE
  8
0
 10
8.47092
 20
49.233
 11
8.9754
 21
50.7856
  0
LINE
  8
0
 10
8.9754
 20
50.7856
 11
9.6705
 21
52.2628
  0
LINE
  8
0
 10
9.6705
 20
52.2628
 11
10.5453
 21
53.6412
  0
LINE
  8
0
 10
10.5453
 20
53.6412
 11
11.5859
 21
54.8991
  0
LINE
  8
0
 10
11.5859
 20
54.8991
 11
12.776
 21
56.0167
  0
LINE
  8
0
 10
12.776
 20
56.0167
 11
14.0967
 21
56.9763
  0
LINE
  8
0
 10
14.0967
 20
56.9763
 11
15.5274
 21
57.7627
  0
LINE
  8
0
 10
15.5274
 20
57.7627
 11
17.0453
 21
58.3637
  0
LINE
  8
0
 10
17.0453
 20
58.3637
 11
18.6265
 21
58.7697
  0
LINE
  8
0
 10
18.6265
 20
58.7697
 11
20.2462
 21
58.9743
  0
LINE
  8
0
 10
20.2462
 20
58.9743
 11
21.8788
 21
58.9743
  0
LINE
  8
0
 10
21.8788
 20
58.9743
 11
23.4984
 21
58.7697
  0
LINE
  8
0
 10
23.4984
 20
58.7697
 11
25.0797
 21
58.3637
  0
LINE
  8
0
 10
25.0797
 20
58.3637
 11
26.5976
 21
57.7627
  0
LINE
  8
0
 10
26.5976
 20
57.7627
 11
28.0282
 21
56.9763
  0
LINE
  8
0
 10
28.0282
 20
56.9763
 11
29.349
 21
56.0167
  0
LINE
  8
0
 10
29.349
 20
56.0167
 11
30.5391
 21
54.8991
  0
LINE
  8
0
 10
30.5391
 20
54.8991
 11
31.5797
 21
53.6412
  0
LINE
  8
0
 10
31.5797
 20
53.6412
 11
32.4545
 21
52.2628
  0
LINE
  8
0
 10
32.4545
 20
52.2628
 11
33.1496
 21
50.7856
  0
LINE
  8
0
 10
33.1496
 20
50.7856
 11
33.6541
 21
49.233
  0
LINE
  8
0
 10
33.6541
 20
49.233
 11
33.96
 21
47.6293
  0
LINE
  8
0
 10
33.96
 20
47.6293
 11
34.0625
 21
46
  0
LINE
  8
0
 10
34.0625
 20
46
 11
33.96
 21
44.3707
  0
LINE
  8
0
 10
33.96
 20
44.3707
 11
33.6541
 21
42.767
  0
LINE
  8
0
 10
33.6541
 20
42.767
 11
33.1496
 21
41.2144
  0
LINE
  8
0
 10
33.1496
 20
41.2144
 11
32.4545
 21
39.7372
  0
LINE
  8
0
 10
32.4545
 20
39.7372
 11
31.5797
 21
38.3588
  0
LINE
  8
0
 10
31.5797
 20
38.3588
 11
30.5391
 21
37.1009
  0
LINE
  8
0
 10
30.5391
 20
37.1009
 11
29.349
 21
35.9833
  0
LINE
  8
0
 10
29.349
 20
35.9833
 11
28.0282
 21
35.0237
  0
LINE
  8
0
 10
28.0282
 20
35.0237
 11
26.5976
 21
34.2372
  0
LINE
  8
0
 10
26.5976
 20
34.2372
 11
25.0797
 21
33.6363
  0
LINE
  8
0
 10
25.0797
 20
33.6363
 11
23.4984
 21
33.2303
  0
LINE
  8
0
 10
23.4984
 20
33.2303
 11
21.8788
 21
33.0257
  0
LINE
  8
0
 10
21.8788
 20
33.0257
 11
20.2462
 21
33.0257
  0
LINE
  8
0
 10
48.3712
 20
33.0257
 11
46.7515
 21
33.2303
  0
LINE
  8
0
 10
46.7515
 20
33.2303
 11
45.1703
 21
33.6363
  0
LINE
  8
0
 10
45.1703
 20
33.6363
 11
43.6524
 21
34.2372
  0
LINE
  8
0
 10
43.6524
 20
34.2372
 11
42.2217
 21
35.0237
  0
LINE
  8
0
 10
42.2217
 20
35.0237
 11
40.901
 21
35.9833
  0
LINE
  8
0
 10
40.901
 20
35.9833
 11
39.7109
 21
37.1009
  0
LINE
  8
0
 10
39.7109
 20
37.1009
 11
38.6703
 21
38.3588
  0
LINE
  8
0
 10
38.6703
 20
38.3588
 11
37.7955
 21
39.7372
  0
LINE
  8
0
 10
37.7955
 20
39.7372
 11
37.1004
 21
41.2144
  0
LINE
  8
0
 10
37.1004
 20
41.2144
 11
36.5959
 21
42.767
  0
LINE
  8
0
 10
36.5959
 20
42.767
 11
36.29
 21
44.3707
  0
LINE
  8
0
 10
36.29
 20
44.3707
 11
36.1875
 21
46
  0
LINE
  8
0
 10
36.1875
 20
46
 11
36.29
 21
47.6293
  0
LINE
  8
0
 10
36.29
 20
47.6293
 11
36.5959
 21
49.233
  0
LINE
  8
0
 10
36.5959
 20
49.233
 11
37.1004
 21
50.7856
  0
LINE
  8
0
 10
37.1004
 20
50.7856
 11
37.7955
 21
52.2628
  0
LINE
  8
0
 10
37.7955
 20
52.2628
 11
38.6703
 21
53.6412
  0
LINE
  8
0
 10
38.6703
 20
53.6412
 11
39.7109
 21
54.8991
  0
LINE
  8
0
 10
39.7109
 20
54.8991
 11
40.901
 21
56.0167
  0
LINE
  8
0
 10
40.901
 20
56.0167
 11
42.2217
 21
56.9763
  0
LINE
  8
0
 10
42.2217
 20
56.9763
 11
43.6524
 21
57.7627
  0
LINE
  8
0
 10
43.6524
 20
57.7627
 11
45.1703
 21
58.3637
  0
LINE
  8
0
 10
45.1703
 20
58.3637
 11
46.7515
 21
58.7697
  0
LINE
  8
0
 10
46.7515
 20
58.7697
 11
48.3712
 21
58.9743
  0
LINE
  8
0
 10
48.3712
 20
58.9743
 11
50.0038
 21
58.9743
  0
LINE
  8
0
 10
50.0038
 20
58.9743
 11
51.6234
 21
58.7697
  0
LINE
  8
0
 10
51.6234
 20
58.7697
 11
53.2047
 21
58.3637
  0
LINE
  8
0
 10
53.2047
 20
58.3637
 11
54.7226
 21
57.7627
  0
LINE
  8
0
 10
54.7226
 20
57.7627
 11
56.1532
 21
56.9763
  0
LINE
  8
0
 10
56.1532
 20
56.9763
 11
57.474
 21
56.0167
  0
LINE
  8
0
 10
57.474
 20
56.0167
 11
58.6641
 21
54.8991
  0
LINE
  8
0
 10
58.6641
 20
54.8991
 11
59.7047
 21
53.6412
  0
LINE
  8
0
 10
59.7047
 20
53.6412
 11
60.5795
 21
52.2628
  0
LINE
  8
0
 10
60.5795
 20
52.2628
 11
61.2746
 21
50.7856
  0
LINE
  8
0
 10
61.2746
 20
50.7856
 11
61.7791
 21
49.233
  0
LINE
  8
0
 10
61.7791
 20
49.233
 11
62.085
 21
47.6293
  0
LINE
  8
0
 10
62.085
 20
47.6293
 11
62.1875
 21
46
  0
LINE
  8
0
 10
62.1875
 20
46
 11
62.085
 21
44.3707
  0
LINE
  8
0
 10
62.085
 20
44.3707
 11
61.7791
 21
42.767
  0
LINE
  8
0
 10
61.7791
 20
42.767
 11
61.2746
 21
41.2144
  0
LINE
  8
0
 10
61.2746
 20
41.2144
 11
60.5795
 21
39.7372
  0
LINE
  8
0
 10
60.5795
 20
39.7372
 11
59.7047
 21
38.3588
  0
LINE
  8
0
 10
59.7047
 20
38.3588
 11
58.6641
 21
37.1009
  0
LINE
  8
0
 10
58.6641
 20
37.1009
 11
57.474
 21
35.9833
  0
LINE
  8
0
 10
57.474
 20
35.9833
 11
56.1532
 21
35.0237
  0
LINE
  8
0
 10
56.1532
 20
35.0237
 11
54.7226
 21
34.2372
  0
LINE
  8
0
 10
54.7226
 20
34.2372
 11
53.2047
 21
33.6363
  0
LINE
  8
0
 10
53.2047
 20
33.6363
 11
51.6234
 21
33.2303
  0
LINE
  8
0
 10
51.6234
 20
33.2303
 11
50.0038
 21
33.0257
  0
LINE
  8
0
 10
50.0038
 20
33.0257
 11
48.3712
 21
33.0257
  0
LINE
  8
0
 10
104.621
 20
33.0257
 11
103.002
 21
33.2303
  0
LINE
  8
0
 10
103.002
 20
33.2303
 11
101.42
 21
33.6363
  0
LINE
  8
0
 10
101.42
 20
33.6363
 11
99.9024
 21
34.2372
  0
LINE
  8
0
 10
99.9024
 20
34.2372
 11
98.4717
 21
35.0237
  0
LINE
  8
0
 10
98.4717
 20
35.0237
 11
97.151
 21
35.9833
  0
LINE
  8
0
 10
97.151
 20
35.9833
 11
95.9609
 21
37.1009
  0
LINE
  8
0
 10
95.9609
 20
37.1009
 11
94.9203
 21
38.3588
  0
LINE
  8
0
 10
94.9203
 20
38.3588
 11
94.0455
 21
39.7372
  0
LINE
  8
0
 10
94.0455
 20
39.7372
 11
93.3504
 21
41.2144
  0
LINE
  8
0
 10
93.3504
 20
41.2144
 11
92.8459
 21
42.767
  0
LINE
  8
0
 10
92.8459
 20
42.767
 11
92.54
 21
44.3707
  0
LINE
  8
0
 10
92.54
 20
44.3707
 11
92.4375
 21
46
  0
LINE
  8
0
 10
92.4375
 20
46
 11
92.54
 21
47.6293
  0
LINE
  8
0
 10
92.54
 20
47.6293
 11
92.8459
 21
49.233
  0
LINE
  8
0
 10
92.8459
 20
49.233
 11
93.3504
 21
50.7856
  0
LINE
  8
0
 10
93.3504
 20
50.7856
 11
94.0455
 21
52.2628
  0
LINE
  8
0
 10
94.0455
 20
52.2628
 11
94.9203
 21
53.6412
  0
LINE
  8
0
 10
94.9203
 20
53.6412
 11
95.9609
 21
54.8991
  0
LINE
  8
0
 10
95.9609
 20
54.8991
 11
97.151
 21
56.0167
  0
LINE
  8
0
 10
97.151
 20
56.0167
 11
98.4717
 21
56.9763
  0
LINE
  8
0
 10
98.4717
 20
56.9763
 11
99.9024
 21
57.7627
  0
LINE
  8
0
 10
99.9024
 20
57.7627
 11
101.42
 21
58.3637
  0
LINE
  8
0
 10
101.42
 20
58.3637
 11
103.002
 21
58.7697
  0
LINE
  8
0
 10
103.002
 20
58.7697
 11
104.621
 21
58.9743
  0
LINE
  8
0
 10
104.621
 20
58.9743
 11
106.254
 21
58.9743
  0
LINE
  8
0
 10
106.254
 20
58.9743
 11
107.873
 21
58.7697
  0
LINE
  8
0
 10
107.873
 20
58.7697
 11
109.455
 21
58.3637
  0
LINE
  8
0
 10
109.455
 20
58.3637
 11
110.973
 21
57.7627
  0
LINE
  8
0
 10
110.973
 20
57.7627
 11
112.403
 21
56.9763
  0
LINE
  8
0
 10
112.403
 20
56.9763
 11
113.724
 21
56.0167
  0
LINE
  8
0
 10
113.724
 20
56.0167
 11
114.914
 21
54.8991
  0
LINE
  8
0
 10
114.914
 20
54.8991
 11
115.955
 21
53.6412
  0
LINE
  8
0
 10
115.955
 20
53.6412
 11
116.829
 21
52.2628
  0
LINE
  8
0
 10
116.829
 20
52.2628
 11
117.525
 21
50.7856
  0
LINE
  8
0
 10
117.525
 20
50.7856
 11
118.029
 21
49.233
  0
LINE
  8
0
 10
118.029
 20
49.233
 11
118.335
 21
47.6293
  0
LINE
  8
0
 10
118.335
 20
47.6293
 11
118.438
 21
46
  0
LINE
  8
0
 10
118.438
 20
46
 11
118.335
 21
44.3707
  0
LINE
  8
0
 10
118.335
 20
44.3707
 11
118.029
 21
42.767
  0
LINE
  8
0
 10
118.029
 20
42.767
 11
117.525
 21
41.2144
  0
LINE
  8
0
 10
117.525
 20
41.2144
 11
116.829
 21
39.7372
  0
LINE
  8
0
 10
116.829
 20
39.7372
 11
115.955
 21
38.3588
  0
LINE
  8
0
 10
115.955
 20
38.3588
 11
114.914
 21
37.1009
  0
LINE
  8
0
 10
114.914
 20
37.1009
 11
113.724
 21
35.9833
  0
LINE
  8
0
 10
113.724
 20
35.9833
 11
112.403
 21
35.0237
  0
LINE
  8
0
 10
112.403
 20
35.0237
 11
110.973
 21
34.2372
  0
LINE
  8
0
 10
110.973
 20
34.2372
 11
109.455
 21
33.6363
  0
LINE
  8
0
 10
109.455
 20
33.6363
 11
107.873
 21
33.2303
  0
LINE
  8
0
 10
107.873
 20
33.2303
 11
106.254
 21
33.0257
  0
LINE
  8
0
 10
106.254
 20
33.0257
 11
104.621
 21
33.0257
  0
LINE
  8
0
 10
76.4962
 20
33.0257
 11
74.8765
 21
33.2303
  0
LINE
  8
0
 10
74.8765
 20
33.2303
 11
73.2953
 21
33.6363
  0
LINE
  8
0
 10
73.2953
 20
33.6363
 11
71.7774
 21
34.2372
  0
LINE
  8
0
 10
71.7774
 20
34.2372
 11
70.3467
 21
35.0237
  0
LINE
  8
0
 10
70.3467
 20
35.0237
 11
69.026
 21
35.9833
  0
LINE
  8
0
 10
69.026
 20
35.9833
 11
67.8359
 21
37.1009
  0
LINE
  8
0
 10
67.8359
 20
37.1009
 11
66.7953
 21
38.3588
  0
LINE
  8
0
 10
66.7953
 20
38.3588
 11
65.9205
 21
39.7372
  0
LINE
  8
0
 10
65.9205
 20
39.7372
 11
65.2254
 21
41.2144
  0
LINE
  8
0
 10
65.2254
 20
41.2144
 11
64.7209
 21
42.767
  0
LINE
  8
0
 10
64.7209
 20
42.767
 11
64.415
 21
44.3707
  0
LINE
  8
0
 10
64.415
 20
44.3707
 11
64.3125
 21
46
  0
LINE
  8
0
 10
64.3125
 20
46
 11
64.415
 21
47.6293
  0
LINE
  8
0
 10
64.415
 20
47.6293
 11
64.7209
 21
49.233
  0
LINE
  8
0
 10
64.7209
 20
49.233
 11
65.2254
 21
50.7856
  0
LINE
  8
0
 10
65.2254
 20
50.7856
 11
65.9205
 21
52.2628
  0
LINE
  8
0
 10
65.9205
 20
52.2628
 11
66.7953
 21
53.6412
  0
LINE
  8
0
 10
66.7953
 20
53.6412
 11
67.8359
 21
54.8991
  0
LINE
  8
0
 10
67.8359
 20
54.8991
 11
69.026
 21
56.0167
  0
LINE
  8
0
 10
69.026
 20
56.0167
 11
70.3467
 21
56.9763
  0
LINE
  8
0
 10
70.3467
 20
56.9763
 11
71.7774
 21
57.7627
  0
LINE
  8
0
 10
71.7774
 20
57.7627
 11
73.2953
 21
58.3637
  0
LINE
  8
0
 10
73.2953
 20
58.3637
 11
74.8765
 21
58.7697
  0
LINE
  8
0
 10
74.8765
 20
58.7697
 11
76.4962
 21
58.9743
  0
LINE
  8
0
 10
76.4962
 20
58.9743
 11
78.1288
 21
58.9743
  0
LINE
  8
0
 10
78.1288
 20
58.9743
 11
79.7484
 21
58.7697
  0
LINE
  8
0
 10
79.7484
 20
58.7697
 11
81.3297
 21
58.3637
  0
LINE
  8
0
 10
81.3297
 20
58.3637
 11
82.8476
 21
57.7627
  0
LINE
  8
0
 10
82.8476
 20
57.7627
 11
84.2782
 21
56.9763
  0
LINE
  8
0
 10
84.2782
 20
56.9763
 11
85.599
 21
56.0167
  0
LINE
  8
0
 10
85.599
 20
56.0167
 11
86.7891
 21
54.8991
  0
LINE
  8
0
 10
86.7891
 20
54.8991
 11
87.8297
 21
53.6412
  0
LINE
  8
0
 10
87.8297
 20
53.6412
 11
88.7045
 21
52.2628
  0
LINE
  8
0
 10
88.7045
 20
52.2628
 11
89.3996
 21
50.7856
  0
LINE
  8
0
 10
89.3996
 20
50.7856
 11
89.9041
 21
49.233
  0
LINE
  8
0
 10
89.9041
 20
49.233
 11
90.21
 21
47.6293
  0
LINE
  8
0
 10
90.21
 20
47.6293
 11
90.3125
 21
46
  0
LINE
  8
0
 10
90.3125
 20
46
 11
90.21
 21
44.3707
  0
LINE
  8
0
 10
90.21
 20
44.3707
 11
89.9041
 21
42.767
  0
LINE
  8
0
 10
89.9041
 20
42.767
 11
89.3996
 21
41.2144
  0
LINE
  8
0
 10
89.3996
 20
41.2144
 11
88.7045
 21
39.7372
  0
LINE
  8
0
 10
88.7045
 20
39.7372
 11
87.8297
 21
38.3588
  0
LINE
  8
0
 10
87.8297
 20
38.3588
 11
86.7891
 21
37.1009
  0
LINE
  8
0
 10
86.7891
 20
37.1009
 11
85.599
 21
35.9833
  0
LINE
  8
0
 10
85.599
 20
35.9833
 11
84.2782
 21
35.0237
  0
LINE
  8
0
 10
84.2782
 20
35.0237
 11
82.8476
 21
34.2372
  0
LINE
  8
0
 10
82.8476
 20
34.2372
 11
81.3297
 21
33.6363
  0
LINE
  8
0
 10
81.3297
 20
33.6363
 11
79.7484
 21
33.2303
  0
LINE
  8
0
 10
79.7484
 20
33.2303
 11
78.1288
 21
33.0257
  0
LINE
  8
0
 10
78.1288
 20
33.0257
 11
76.4962
 21
33.0257
  0
LINE
  8
0
 10
233
 20
14
 11
233
 21
39
  0
LINE
  8
0
 10
233
 20
39
 11
236
 21
39
  0
LINE
  8
0
 10
236
 20
39
 11
236
 21
14
  0
LINE
  8
0
 10
236
 20
14
 11
233
 21
14
  0
LINE
  8
0
 10
3
 20
14
 11
3
 21
39
  0
LINE
  8
0
 10
3
 20
39
 11
6
 21
39
  0
LINE
  8
0
 10
6
 20
39
 11
6
 21
14
  0
LINE
  8
0
 10
6
 20
14
 11
3
 21
14
  0
LINE
  8
0
 10
225.874
 20
9.00394
 11
225.625
 21
9.03542
  0
LINE
  8
0
 10
225.625
 20
9.03542
 11
225.382
 21
9.09789
  0
LINE
  8
0
 10
225.382
 20
9.09789
 11
225.148
 21
9.19034
  0
LINE
  8
0
 10
225.148
 20
9.19034
 11
224.928
 21
9.31134
  0
LINE
  8
0
 10
224.928
 20
9.31134
 11
224.725
 21
9.45897
  0
LINE
  8
0
 10
224.725
 20
9.45897
 11
224.542
 21
9.63091
  0
LINE
  8
0
 10
224.542
 20
9.63091
 11
224.382
 21
9.82442
  0
LINE
  8
0
 10
224.382
 20
9.82442
 11
224.247
 21
10.0365
  0
LINE
  8
0
 10
224.247
 20
10.0365
 11
224.14
 21
10.2637
  0
LINE
  8
0
 10
224.14
 20
10.2637
 11
224.063
 21
10.5026
  0
LINE
  8
0
 10
224.063
 20
10.5026
 11
224.016
 21
10.7493
  0
LINE
  8
0
 10
224.016
 20
10.7493
 11
224
 21
11
  0
LINE
  8
0
 10
224
 20
11
 11
224.016
 21
11.2507
  0
LINE
  8
0
 10
224.016
 20
11.2507
 11
224.063
 21
11.4974
  0
LINE
  8
0
 10
224.063
 20
11.4974
 11
224.14
 21
11.7362
  0
LINE
  8
0
 10
224.14
 20
11.7362
 11
224.247
 21
11.9635
  0
LINE
  8
0
 10
224.247
 20
11.9635
 11
224.382
 21
12.1756
  0
LINE
  8
0
 10
224.382
 20
12.1756
 11
224.542
 21
12.3691
  0
LINE
  8
0
 10
224.542
 20
12.3691
 11
224.725
 21
12.541
  0
LINE
  8
0
 10
224.725
 20
12.541
 11
224.928
 21
12.6886
  0
LINE
  8
0
 10
224.928
 20
12.6886
 11
225.148
 21
12.8096
  0
LINE
  8
0
 10
225.148
 20
12.8096
 11
225.382
 21
12.9021
  0
LINE
  8
0
 10
225.382
 20
12.9021
 11
225.625
 21
12.9646
  0
LINE
  8
0
 10
225.625
 20
12.9646
 11
225.874
 21
12.996
  0
LINE
  8
0
 10
225.874
 20
12.996
 11
226.126
 21
12.996
  0
LINE
  8
0
 10
226.126
 20
12.996
 11
226.375
 21
12.9646
  0
LINE
  8
0
 10
226.375
 20
12.9646
 11
226.618
 21
12.9021
  0
LINE
  8
0
 10
226.618
 20
12.9021
 11
226.852
 21
12.8096
  0
LINE
  8
0
 10
226.852
 20
12.8096
 11
227.072
 21
12.6886
  0
LINE
  8
0
 10
227.072
 20
12.6886
 11
227.275
 21
12.541
  0
LINE
  8
0
 10
227.275
 20
12.541
 11
227.458
 21
12.3691
  0
LINE
  8
0
 10
227.458
 20
12.3691
 11
227.618
 21
12.1756
  0
LINE
  8
0
 10
227.618
 20
12.1756
 11
227.753
 21
11.9635
  0
LINE
  8
0
 10
227.753
 20
11.9635
 11
227.86
 21
11.7362
  0
LINE
  8
0
 10
227.86
 20
11.7362
 11
227.937
 21
11.4974
  0
LINE
  8
0
 10
227.937
 20
11.4974
 11
227.984
 21
11.2507
  0
LINE
  8
0
 10
227.984
 20
11.2507
 11
228
 21
11
  0
LINE
  8
0
 10
228
 20
11
 11
227.984
 21
10.7493
  0
LINE
  8
0
 10
227.984
 20
10.7493
 11
227.937
 21
10.5026
  0
LINE
  8
0
 10
227.937
 20
10.5026
 11
227.86
 21
10.2637
  0
LINE
  8
0
 10
227.86
 20
10.2637
 11
227.753
 21
10.0365
  0
LINE
  8
0
 10
227.753
 20
10.0365
 11
227.618
 21
9.82442
  0
LINE
  8
0
 10
227.618
 20
9.82442
 11
227.458
 21
9.63091
  0
LINE
  8
0
 10
227.458
 20
9.63091
 11
227.275
 21
9.45897
  0
LINE
  8
0
 10
227.275
 20
9.45897
 11
227.072
 21
9.31134
  0
LINE
  8
0
 10
227.072
 20
9.31134
 11
226.852
 21
9.19034
  0
LINE
  8
0
 10
226.852
 20
9.19034
 11
226.618
 21
9.09789
  0
LINE
  8
0
 10
226.618
 20
9.09789
 11
226.375
 21
9.03542
  0
LINE
  8
0
 10
226.375
 20
9.03542
 11
226.126
 21
9.00394
  0
LINE
  8
0
 10
226.126
 20
9.00394
 11
225.874
 21
9.00394
  0
LINE
  8
0
 10
10.8744
 20
9.00394
 11
10.6252
 21
9.03542
  0
LINE
  8
0
 10
10.6252
 20
9.03542
 11
10.382
 21
9.09789
  0
LINE
  8
0
 10
10.382
 20
9.09789
 11
10.1484
 21
9.19034
  0
LINE
  8
0
 10
10.1484
 20
9.19034
 11
9.92834
 21
9.31134
  0
LINE
  8
0
 10
9.92834
 20
9.31134
 11
9.72514
 21
9.45897
  0
LINE
  8
0
 10
9.72514
 20
9.45897
 11
9.54205
 21
9.63091
  0
LINE
  8
0
 10
9.54205
 20
9.63091
 11
9.38196
 21
9.82442
  0
LINE
  8
0
 10
9.38196
 20
9.82442
 11
9.24738
 21
10.0365
  0
LINE
  8
0
 10
9.24738
 20
10.0365
 11
9.14044
 21
10.2637
  0
LINE
  8
0
 10
9.14044
 20
10.2637
 11
9.06282
 21
10.5026
  0
LINE
  8
0
 10
9.06282
 20
10.5026
 11
9.01576
 21
10.7493
  0
LINE
  8
0
 10
9.01576
 20
10.7493
 11
9
 21
11
  0
LINE
  8
0
 10
9
 20
11
 11
9.01576
 21
11.2507
  0
LINE
  8
0
 10
9.01576
 20
11.2507
 11
9.06282
 21
11.4974
  0
LINE
  8
0
 10
9.06282
 20
11.4974
 11
9.14044
 21
11.7362
  0
LINE
  8
0
 10
9.14044
 20
11.7362
 11
9.24738
 21
11.9635
  0
LINE
  8
0
 10
9.24738
 20
11.9635
 11
9.38196
 21
12.1756
  0
LINE
  8
0
 10
9.38196
 20
12.1756
 11
9.54205
 21
12.3691
  0
LINE
  8
0
 10
9.54205
 20
12.3691
 11
9.72514
 21
12.541
  0
LINE
  8
0
 10
9.72514
 20
12.541
 11
9.92834
 21
12.6886
  0
LINE
  8
0
 10
9.92834
 20
12.6886
 11
10.1484
 21
12.8096
  0
LINE
  8
0
 10
10.1484
 20
12.8096
 11
10.382
 21
12.9021
  0
LINE
  8
0
 10
10.382
 20
12.9021
 11
10.6252
 21
12.9646
  0
LINE
  8
0
 10
10.6252
 20
12.9646
 11
10.8744
 21
12.996
  0
LINE
  8
0
 10
10.8744
 20
12.996
 11
11.1256
 21
12.996
  0
LINE
  8
0
 10
11.1256
 20
12.996
 11
11.3748
 21
12.9646
  0
LINE
  8
0
 10
11.3748
 20
12.9646
 11
11.618
 21
12.9021
  0
LINE
  8
0
 10
11.618
 20
12.9021
 11
11.8515
 21
12.8096
  0
LINE
  8
0
 10
11.8515
 20
12.8096
 11
12.0716
 21
12.6886
  0
LINE
  8
0
 10
12.0716
 20
12.6886
 11
12.2748
 21
12.541
  0
LINE
  8
0
 10
12.2748
 20
12.541
 11
12.4579
 21
12.3691
  0
LINE
  8
0
 10
12.4579
 20
12.3691
 11
12.618
 21
12.1756
  0
LINE
  8
0
 10
12.618
 20
12.1756
 11
12.7526
 21
11.9635
  0
LINE
  8
0
 10
12.7526
 20
11.9635
 11
12.8595
 21
11.7362
  0
LINE
  8
0
 10
12.8595
 20
11.7362
 11
12.9372
 21
11.4974
  0
LINE
  8
0
 10
12.9372
 20
11.4974
 11
12.9842
 21
11.2507
  0
LINE
  8
0
 10
12.9842
 20
11.2507
 11
13
 21
11
  0
LINE
  8
0
 10
13
 20
11
 11
12.9842
 21
10.7493
  0
LINE
  8
0
 10
12.9842
 20
10.7493
 11
12.9372
 21
10.5026
  0
LINE
  8
0
 10
12.9372
 20
10.5026
 11
12.8595
 21
10.2637
  0
LINE
  8
0
 10
12.8595
 20
10.2637
 11
12.7526
 21
10.0365
  0
LINE
  8
0
 10
12.7526
 20
10.0365
 11
12.618
 21
9.82442
  0
LINE
  8
0
 10
12.618
 20
9.82442
 11
12.4579
 21
9.63091
  0
LINE
  8
0
 10
12.4579
 20
9.63091
 11
12.2748
 21
9.45897
  0
LINE
  8
0
 10
12.2748
 20
9.45897
 11
12.0716
 21
9.31134
  0
LINE
  8
0
 10
12.0716
 20
9.31134
 11
11.8515
 21
9.19034
  0
LINE
  8
0
 10
11.8515
 20
9.19034
 11
11.618
 21
9.09789
  0
LINE
  8
0
 10
11.618
 20
9.09789
 11
11.3748
 21
9.03542
  0
LINE
  8
0
 10
11.3748
 20
9.03542
 11
11.1256
 21
9.00394
  0
LINE
  8
0
 10
11.1256
 20
9.00394
 11
10.8744
 21
9.00394
  0
LINE
  8
0
 10
118.374
 20
9.00394
 11
118.125
 21
9.03542
  0
LINE
  8
0
 10
118.125
 20
9.03542
 11
117.882
 21
9.09789
  0
LINE
  8
0
 10
117.882
 20
9.09789
 11
117.648
 21
9.19034
  0
LINE
  8
0
 10
117.648
 20
9.19034
 11
117.428
 21
9.31134
  0
LINE
  8
0
 10
117.428
 20
9.31134
 11
117.225
 21
9.45897
  0
LINE
  8
0
 10
117.225
 20
9.45897
 11
117.042
 21
9.63091
  0
LINE
  8
0
 10
117.042
 20
9.63091
 11
116.882
 21
9.82442
  0
LINE
  8
0
 10
116.882
 20
9.82442
 11
116.747
 21
10.0365
  0
LINE
  8
0
 10
116.747
 20
10.0365
 11
116.64
 21
10.2637
  0
LINE
  8
0
 10
116.64
 20
10.2637
 11
116.563
 21
10.5026
  0
LINE
  8
0
 10
116.563
 20
10.5026
 11
116.516
 21
10.7493
  0
LINE
  8
0
 10
116.516
 20
10.7493
 11
116.5
 21
11
  0
LINE
  8
0
 10
116.5
 20
11
 11
116.516
 21
11.2507
  0
LINE
  8
0
 10
116.516
 20
11.2507
 11
116.563
 21
11.4974
  0
LINE
  8
0
 10
116.563
 20
11.4974
 11
116.64
 21
11.7362
  0
LINE
  8
0
 10
116.64
 20
11.7362
 11
116.747
 21
11.9635
  0
LINE
  8
0
 10
116.747
 20
11.9635
 11
116.882
 21
12.1756
  0
LINE
  8
0
 10
116.882
 20
12.1756
 11
117.042
 21
12.3691
  0
LINE
  8
0
 10
117.042
 20
12.3691
 11
117.225
 21
12.541
  0
LINE
  8
0
 10
117.225
 20
12.541
 11
117.428
 21
12.6886
  0
LINE
  8
0
 10
117.428
 20
12.6886
 11
117.648
 21
12.8096
  0
LINE
  8
0
 10
117.648
 20
12.8096
 11
117.882
 21
12.9021
  0
LINE
  8
0
 10
117.882
 20
12.9021
 11
118.125
 21
12.9646
  0
LINE
  8
0
 10
118.125
 20
12.9646
 11
118.374
 21
12.996
  0
LINE
  8
0
 10
118.374
 20
12.996
 11
118.626
 21
12.996
  0
LINE
  8
0
 10
118.626
 20
12.996
 11
118.875
 21
12.9646
  0
LINE
  8
0
 10
118.875
 20
12.9646
 11
119.118
 21
12.9021
  0
LINE
  8
0
 10
119.118
 20
12.9021
 11
119.352
 21
12.8096
  0
LINE
  8
0
 10
119.352
 20
12.8096
 11
119.572
 21
12.6886
  0
LINE
  8
0
 10
119.572
 20
12.6886
 11
119.775
 21
12.541
  0
LINE
  8
0
 10
119.775
 20
12.541
 11
119.958
 21
12.3691
  0
LINE
  8
0
 10
119.958
 20
12.3691
 11
120.118
 21
12.1756
  0
LINE
  8
0
 10
120.118
 20
12.1756
 11
120.253
 21
11.9635
  0
LINE
  8
0
 10
120.253
 20
11.9635
 11
120.36
 21
11.7362
  0
LINE
  8
0
 10
120.36
 20
11.7362
 11
120.437
 21
11.4974
  0
LINE
  8
0
 10
120.437
 20
11.4974
 11
120.484
 21
11.2507
  0
LINE
  8
0
 10
120.484
 20
11.2507
 11
120.5
 21
11
  0
LINE
  8
0
 10
120.5
 20
11
 11
120.484
 21
10.7493
  0
LINE
  8
0
 10
120.484
 20
10.7493
 11
120.437
 21
10.5026
  0
LINE
  8
0
 10
120.437
 20
10.5026
 11
120.36
 21
10.2637
  0
LINE
  8
0
 10
120.36
 20
10.2637
 11
120.253
 21
10.0365
  0
LINE
  8
0
 10
120.253
 20
10.0365
 11
120.118
 21
9.82442
  0
LINE
  8
0
 10
120.118
 20
9.82442
 11
119.958
 21
9.63091
  0
LINE
  8
0
 10
119.958
 20
9.63091
 11
119.775
 21
9.45897
  0
LINE
  8
0
 10
119.775
 20
9.45897
 11
119.572
 21
9.31134
  0
LINE
  8
0
 10
119.572
 20
9.31134
 11
119.352
 21
9.19034
  0
LINE
  8
0
 10
119.352
 20
9.19034
 11
119.118
 21
9.09789
  0
LINE
  8
0
 10
119.118
 20
9.09789
 11
118.875
 21
9.03542
  0
LINE
  8
0
 10
118.875
 20
9.03542
 11
118.626
 21
9.00394
  0
LINE
  8
0
 10
118.626
 20
9.00394
 11
118.374
 21
9.00394
  0
LINE
  8
0
 10
12.4167
 20
3
 11
12.4167
 21
6
  0
LINE
  8
0
 10
12.4167
 20
6
 11
32.4167
 21
6
  0
LINE
  8
0
 10
32.4167
 20
6
 11
32.4167
 21
3
  0
LINE
  8
0
 10
32.4167
 20
3
 11
12.4167
 21
3
  0
LINE
  8
0
 10
51.25
 20
3
 11
51.25
 21
6
  0
LINE
  8
0
 10
51.25
 20
6
 11
71.25
 21
6
  0
LINE
  8
0
 10
71.25
 20
6
 11
71.25
 21
3
  0
LINE
  8
0
 10
71.25
 20
3
 11
51.25
 21
3
  0
LINE
  8
0
 10
90.0833
 20
3
 11
90.0833
 21
6
  0
LINE
  8
0
 10
90.0833
 20
6
 11
110.083
 21
6
  0
LINE
  8
0
 10
110.083
 20
6
 11
110.083
 21
3
  0
LINE
  8
0
 10
110.083
 20
3
 11
90.0833
 21
3
  0
LINE
  8
0
 10
206.583
 20
3
 11
206.583
 21
6
  0
LINE
  8
0
 10
206.583
 20
6
 11
226.583
 21
6
  0
LINE
  8
0
 10
226.583
 20
6
 11
226.583
 21
3
  0
LINE
  8
0
 10
226.583
 20
3
 11
206.583
 21
3
  0
LINE
  8
0
 10
167.75
 20
3
 11
167.75
 21
6
  0
LINE
  8
0
 10
167.75
 20
6
 11
187.75
 21
6
  0
LINE
  8
0
 10
187.75
 20
6
 11
187.75
 21
3
  0
LINE
  8
0
 10
187.75
 20
3
 11
167.75
 21
3
  0
LINE
  8
0
 10
128.917
 20
3
 11
128.917
 21
6
  0
LINE
  8
0
 10
128.917
 20
6
 11
148.917
 21
6
  0
LINE
  8
0
 10
148.917
 20
6
 11
148.917
 21
3
  0
LINE
  8
0
 10
148.917
 20
3
 11
128.917
 21
3
  0
ENDSEC
  0
SECTION
  2
OBJECTS
  0
DICTIONARY
  0
ENDSEC
  0
EOF
