  0
SECTION
  2
BLOCKS
  0
ENDSEC
  0
SECTION
  2
ENTITIES
  0
LINE
  8
0
 10
32.4167
 20
284
 11
51.25
 21
284
  0
LINE
  8
0
 10
51.25
 20
284
 11
51.25
 21
281
  0
LINE
  8
0
 10
51.25
 20
281
 11
71.25
 21
281
  0
LINE
  8
0
 10
71.25
 20
281
 11
71.25
 21
284
  0
LINE
  8
0
 10
71.25
 20
284
 11
90.0833
 21
284
  0
LINE
  8
0
 10
90.0833
 20
284
 11
90.0833
 21
281
  0
LINE
  8
0
 10
90.0833
 20
281
 11
110.083
 21
281
  0
LINE
  8
0
 10
110.083
 20
281
 11
110.083
 21
284
  0
LINE
  8
0
 10
110.083
 20
284
 11
128.917
 21
284
  0
LINE
  8
0
 10
128.917
 20
284
 11
128.917
 21
281
  0
LINE
  8
0
 10
128.917
 20
281
 11
148.917
 21
281
  0
LINE
  8
0
 10
148.917
 20
281
 11
148.917
 21
284
  0
LINE
  8
0
 10
148.917
 20
284
 11
167.75
 21
284
  0
LINE
  8
0
 10
167.75
 20
284
 11
167.75
 21
281
  0
LINE
  8
0
 10
167.75
 20
281
 11
187.75
 21
281
  0
LINE
  8
0
 10
187.75
 20
281
 11
187.75
 21
284
  0
LINE
  8
0
 10
187.75
 20
284
 11
206.583
 21
284
  0
LINE
  8
0
 10
206.583
 20
284
 11
206.583
 21
281
  0
LINE
  8
0
 10
206.583
 20
281
 11
226.583
 21
281
  0
LINE
  8
0
 10
226.583
 20
281
 11
226.583
 21
284
  0
LINE
  8
0
 10
226.583
 20
284
 11
236
 21
284
  0
LINE
  8
0
 10
236
 20
284
 11
236
 21
289
  0
LINE
  8
0
 10
236
 20
289
 11
233
 21
289
  0
LINE
  8
0
 10
233
 20
289
 11
233
 21
294
  0
LINE
  8
0
 10
233
 20
294
 11
236
 21
294
  0
LINE
  8
0
 10
236
 20
294
 11
236
 21
304
  0
LINE
  8
0
 10
236
 20
304
 11
233
 21
304
  0
LINE
  8
0
 10
233
 20
304
 11
233
 21
309
  0
LINE
  8
0
 10
233
 20
309
 11
236
 21
309
  0
LINE
  8
0
 10
236
 20
309
 11
236
 21
314
  0
LINE
  8
0
 10
236
 20
314
 11
226.583
 21
314
  0
LINE
  8
0
 10
226.583
 20
314
 11
226.583
 21
317
  0
LINE
  8
0
 10
226.583
 20
317
 11
206.583
 21
317
  0
LINE
  8
0
 10
206.583
 20
317
 11
206.583
 21
314
  0
LINE
  8
0
 10
206.583
 20
314
 11
187.75
 21
314
  0
LINE
  8
0
 10
187.75
 20
314
 11
187.75
 21
317
  0
LINE
  8
0
 10
187.75
 20
317
 11
167.75
 21
317
  0
LINE
  8
0
 10
167.75
 20
317
 11
167.75
 21
314
  0
LINE
  8
0
 10
167.75
 20
314
 11
148.917
 21
314
  0
LINE
  8
0
 10
148.917
 20
314
 11
148.917
 21
317
  0
LINE
  8
0
 10
148.917
 20
317
 11
128.917
 21
317
  0
LINE
  8
0
 10
128.917
 20
317
 11
128.917
 21
314
  0
LINE
  8
0
 10
128.917
 20
314
 11
110.083
 21
314
  0
LINE
  8
0
 10
110.083
 20
314
 11
110.083
 21
317
  0
LINE
  8
0
 10
110.083
 20
317
 11
90.0833
 21
317
  0
LINE
  8
0
 10
90.0833
 20
317
 11
90.0833
 21
314
  0
LINE
  8
0
 10
90.0833
 20
314
 11
71.25
 21
314
  0
LINE
  8
0
 10
71.25
 20
314
 11
71.25
 21
317
  0
LINE
  8
0
 10
71.25
 20
317
 11
51.25
 21
317
  0
LINE
  8
0
 10
51.25
 20
317
 11
51.25
 21
314
  0
LINE
  8
0
 10
51.25
 20
314
 11
32.4167
 21
314
  0
LINE
  8
0
 10
32.4167
 20
314
 11
32.4167
 21
317
  0
LINE
  8
0
 10
32.4167
 20
317
 11
12.4167
 21
317
  0
LINE
  8
0
 10
12.4167
 20
317
 11
12.4167
 21
314
  0
LINE
  8
0
 10
12.4167
 20
314
 11
3
 21
314
  0
LINE
  8
0
 10
3
 20
314
 11
3
 21
309
  0
LINE
  8
0
 10
3
 20
309
 11
6
 21
309
  0
LINE
  8
0
 10
6
 20
309
 11
6
 21
304
  0
LINE
  8
0
 10
6
 20
304
 11
3
 21
304
  0
LINE
  8
0
 10
3
 20
304
 11
3
 21
294
  0
LINE
  8
0
 10
3
 20
294
 11
6
 21
294
  0
LINE
  8
0
 10
6
 20
294
 11
6
 21
289
  0
LINE
  8
0
 10
6
 20
289
 11
3
 21
289
  0
LINE
  8
0
 10
3
 20
289
 11
3
 21
284
  0
LINE
  8
0
 10
3
 20
284
 11
12.4167
 21
284
  0
LINE
  8
0
 10
12.4167
 20
284
 11
12.4167
 21
281
  0
LINE
  8
0
 10
12.4167
 20
281
 11
32.4167
 21
281
  0
LINE
  8
0
 10
32.4167
 20
281
 11
32.4167
 21
284
  0
LINE
  8
0
 10
188.931
 20
298.101
 11
188.769
 21
298.115
  0
LINE
  8
0
 10
188.769
 20
298.115
 11
188.615
 21
298.139
  0
LINE
  8
0
 10
188.615
 20
298.139
 11
188.469
 21
298.172
  0
LINE
  8
0
 10
188.469
 20
298.172
 11
188.331
 21
298.215
  0
LINE
  8
0
 10
188.331
 20
298.215
 11
188.201
 21
298.268
  0
LINE
  8
0
 10
188.201
 20
298.268
 11
188.08
 21
298.33
  0
LINE
  8
0
 10
188.08
 20
298.33
 11
187.967
 21
298.401
  0
LINE
  8
0
 10
187.967
 20
298.401
 11
187.863
 21
298.482
  0
LINE
  8
0
 10
187.863
 20
298.482
 11
187.768
 21
298.572
  0
LINE
  8
0
 10
187.768
 20
298.572
 11
187.681
 21
298.671
  0
LINE
  8
0
 10
187.681
 20
298.671
 11
187.604
 21
298.78
  0
LINE
  8
0
 10
187.604
 20
298.78
 11
187.536
 21
298.897
  0
LINE
  8
0
 10
187.536
 20
298.897
 11
187.476
 21
299.024
  0
LINE
  8
0
 10
187.476
 20
299.024
 11
187.968
 21
299.184
  0
LINE
  8
0
 10
187.968
 20
299.184
 11
188.002
 21
299.113
  0
LINE
  8
0
 10
188.002
 20
299.113
 11
188.043
 21
299.044
  0
LINE
  8
0
 10
188.043
 20
299.044
 11
188.089
 21
298.976
  0
LINE
  8
0
 10
188.089
 20
298.976
 11
188.142
 21
298.91
  0
LINE
  8
0
 10
188.142
 20
298.91
 11
188.171
 21
298.879
  0
LINE
  8
0
 10
188.171
 20
298.879
 11
188.202
 21
298.849
  0
LINE
  8
0
 10
188.202
 20
298.849
 11
188.236
 21
298.82
  0
LINE
  8
0
 10
188.236
 20
298.82
 11
188.27
 21
298.792
  0
LINE
  8
0
 10
188.27
 20
298.792
 11
188.307
 21
298.765
  0
LINE
  8
0
 10
188.307
 20
298.765
 11
188.387
 21
298.714
  0
LINE
  8
0
 10
188.387
 20
298.714
 11
188.429
 21
298.691
  0
LINE
  8
0
 10
188.429
 20
298.691
 11
188.474
 21
298.669
  0
LINE
  8
0
 10
188.474
 20
298.669
 11
188.52
 21
298.649
  0
LINE
  8
0
 10
188.52
 20
298.649
 11
188.569
 21
298.63
  0
LINE
  8
0
 10
188.569
 20
298.63
 11
188.671
 21
298.597
  0
LINE
  8
0
 10
188.671
 20
298.597
 11
188.725
 21
298.583
  0
LINE
  8
0
 10
188.725
 20
298.583
 11
188.782
 21
298.571
  0
LINE
  8
0
 10
188.782
 20
298.571
 11
188.84
 21
298.561
  0
LINE
  8
0
 10
188.84
 20
298.561
 11
188.901
 21
298.554
  0
LINE
  8
0
 10
188.901
 20
298.554
 11
188.964
 21
298.548
  0
LINE
  8
0
 10
188.964
 20
298.548
 11
189.03
 21
298.545
  0
LINE
  8
0
 10
189.03
 20
298.545
 11
189.097
 21
298.544
  0
LINE
  8
0
 10
189.097
 20
298.544
 11
189.189
 21
298.546
  0
LINE
  8
0
 10
189.189
 20
298.546
 11
189.277
 21
298.553
  0
LINE
  8
0
 10
189.277
 20
298.553
 11
189.363
 21
298.564
  0
LINE
  8
0
 10
189.363
 20
298.564
 11
189.445
 21
298.579
  0
LINE
  8
0
 10
189.445
 20
298.579
 11
189.525
 21
298.599
  0
LINE
  8
0
 10
189.525
 20
298.599
 11
189.602
 21
298.623
  0
LINE
  8
0
 10
189.602
 20
298.623
 11
189.675
 21
298.652
  0
LINE
  8
0
 10
189.675
 20
298.652
 11
189.745
 21
298.685
  0
LINE
  8
0
 10
189.745
 20
298.685
 11
189.812
 21
298.721
  0
LINE
  8
0
 10
189.812
 20
298.721
 11
189.875
 21
298.761
  0
LINE
  8
0
 10
189.875
 20
298.761
 11
189.935
 21
298.805
  0
LINE
  8
0
 10
189.935
 20
298.805
 11
189.992
 21
298.853
  0
LINE
  8
0
 10
189.992
 20
298.853
 11
190.046
 21
298.905
  0
LINE
  8
0
 10
190.046
 20
298.905
 11
190.096
 21
298.96
  0
LINE
  8
0
 10
190.096
 20
298.96
 11
190.143
 21
299.019
  0
LINE
  8
0
 10
190.143
 20
299.019
 11
190.186
 21
299.081
  0
LINE
  8
0
 10
190.186
 20
299.081
 11
190.226
 21
299.146
  0
LINE
  8
0
 10
190.226
 20
299.146
 11
190.263
 21
299.215
  0
LINE
  8
0
 10
190.263
 20
299.215
 11
190.297
 21
299.287
  0
LINE
  8
0
 10
190.297
 20
299.287
 11
190.326
 21
299.362
  0
LINE
  8
0
 10
190.326
 20
299.362
 11
190.353
 21
299.441
  0
LINE
  8
0
 10
190.353
 20
299.441
 11
190.376
 21
299.523
  0
LINE
  8
0
 10
190.376
 20
299.523
 11
190.396
 21
299.607
  0
LINE
  8
0
 10
190.396
 20
299.607
 11
190.412
 21
299.693
  0
LINE
  8
0
 10
190.412
 20
299.693
 11
190.424
 21
299.782
  0
LINE
  8
0
 10
190.424
 20
299.782
 11
190.433
 21
299.874
  0
LINE
  8
0
 10
190.433
 20
299.874
 11
190.438
 21
299.968
  0
LINE
  8
0
 10
190.438
 20
299.968
 11
190.44
 21
300.065
  0
LINE
  8
0
 10
190.44
 20
300.065
 11
190.438
 21
300.162
  0
LINE
  8
0
 10
190.438
 20
300.162
 11
190.432
 21
300.256
  0
LINE
  8
0
 10
190.432
 20
300.256
 11
190.423
 21
300.348
  0
LINE
  8
0
 10
190.423
 20
300.348
 11
190.409
 21
300.438
  0
LINE
  8
0
 10
190.409
 20
300.438
 11
190.392
 21
300.525
  0
LINE
  8
0
 10
190.392
 20
300.525
 11
190.371
 21
300.61
  0
LINE
  8
0
 10
190.371
 20
300.61
 11
190.346
 21
300.693
  0
LINE
  8
0
 10
190.346
 20
300.693
 11
190.318
 21
300.773
  0
LINE
  8
0
 10
190.318
 20
300.773
 11
190.286
 21
300.849
  0
LINE
  8
0
 10
190.286
 20
300.849
 11
190.251
 21
300.923
  0
LINE
  8
0
 10
190.251
 20
300.923
 11
190.212
 21
300.993
  0
LINE
  8
0
 10
190.212
 20
300.993
 11
190.17
 21
301.06
  0
LINE
  8
0
 10
190.17
 20
301.06
 11
190.125
 21
301.124
  0
LINE
  8
0
 10
190.125
 20
301.124
 11
190.077
 21
301.184
  0
LINE
  8
0
 10
190.077
 20
301.184
 11
190.025
 21
301.241
  0
LINE
  8
0
 10
190.025
 20
301.241
 11
189.971
 21
301.294
  0
LINE
  8
0
 10
189.971
 20
301.294
 11
189.912
 21
301.343
  0
LINE
  8
0
 10
189.912
 20
301.343
 11
189.851
 21
301.389
  0
LINE
  8
0
 10
189.851
 20
301.389
 11
189.787
 21
301.43
  0
LINE
  8
0
 10
189.787
 20
301.43
 11
189.719
 21
301.469
  0
LINE
  8
0
 10
189.719
 20
301.469
 11
189.648
 21
301.503
  0
LINE
  8
0
 10
189.648
 20
301.503
 11
189.574
 21
301.533
  0
LINE
  8
0
 10
189.574
 20
301.533
 11
189.497
 21
301.558
  0
LINE
  8
0
 10
189.497
 20
301.558
 11
189.418
 21
301.579
  0
LINE
  8
0
 10
189.418
 20
301.579
 11
189.336
 21
301.595
  0
LINE
  8
0
 10
189.336
 20
301.595
 11
189.252
 21
301.607
  0
LINE
  8
0
 10
189.252
 20
301.607
 11
189.165
 21
301.614
  0
LINE
  8
0
 10
189.165
 20
301.614
 11
189.075
 21
301.616
  0
LINE
  8
0
 10
189.075
 20
301.616
 11
189.012
 21
301.615
  0
LINE
  8
0
 10
189.012
 20
301.615
 11
188.951
 21
301.611
  0
LINE
  8
0
 10
188.951
 20
301.611
 11
188.891
 21
301.606
  0
LINE
  8
0
 10
188.891
 20
301.606
 11
188.833
 21
301.598
  0
LINE
  8
0
 10
188.833
 20
301.598
 11
188.777
 21
301.587
  0
LINE
  8
0
 10
188.777
 20
301.587
 11
188.722
 21
301.575
  0
LINE
  8
0
 10
188.722
 20
301.575
 11
188.669
 21
301.56
  0
LINE
  8
0
 10
188.669
 20
301.56
 11
188.617
 21
301.543
  0
LINE
  8
0
 10
188.617
 20
301.543
 11
188.567
 21
301.524
  0
LINE
  8
0
 10
188.567
 20
301.524
 11
188.518
 21
301.503
  0
LINE
  8
0
 10
188.518
 20
301.503
 11
188.47
 21
301.48
  0
LINE
  8
0
 10
188.47
 20
301.48
 11
188.425
 21
301.456
  0
LINE
  8
0
 10
188.425
 20
301.456
 11
188.38
 21
301.429
  0
LINE
  8
0
 10
188.38
 20
301.429
 11
188.337
 21
301.401
  0
LINE
  8
0
 10
188.337
 20
301.401
 11
188.295
 21
301.371
  0
LINE
  8
0
 10
188.295
 20
301.371
 11
188.255
 21
301.34
  0
LINE
  8
0
 10
188.255
 20
301.34
 11
188.178
 21
301.272
  0
LINE
  8
0
 10
188.178
 20
301.272
 11
188.106
 21
301.198
  0
LINE
  8
0
 10
188.106
 20
301.198
 11
188.039
 21
301.118
  0
LINE
  8
0
 10
188.039
 20
301.118
 11
187.977
 21
301.033
  0
LINE
  8
0
 10
187.977
 20
301.033
 11
187.919
 21
300.943
  0
LINE
  8
0
 10
187.919
 20
300.943
 11
187.865
 21
300.848
  0
LINE
  8
0
 10
187.865
 20
300.848
 11
187.441
 21
301.059
  0
LINE
  8
0
 10
187.441
 20
301.059
 11
187.471
 21
301.119
  0
LINE
  8
0
 10
187.471
 20
301.119
 11
187.504
 21
301.178
  0
LINE
  8
0
 10
187.504
 20
301.178
 11
187.538
 21
301.236
  0
LINE
  8
0
 10
187.538
 20
301.236
 11
187.575
 21
301.293
  0
LINE
  8
0
 10
187.575
 20
301.293
 11
187.614
 21
301.348
  0
LINE
  8
0
 10
187.614
 20
301.348
 11
187.654
 21
301.403
  0
LINE
  8
0
 10
187.654
 20
301.403
 11
187.697
 21
301.456
  0
LINE
  8
0
 10
187.697
 20
301.456
 11
187.742
 21
301.508
  0
LINE
  8
0
 10
187.742
 20
301.508
 11
187.788
 21
301.557
  0
LINE
  8
0
 10
187.788
 20
301.557
 11
187.837
 21
301.605
  0
LINE
  8
0
 10
187.837
 20
301.605
 11
187.888
 21
301.65
  0
LINE
  8
0
 10
187.888
 20
301.65
 11
187.941
 21
301.694
  0
LINE
  8
0
 10
187.941
 20
301.694
 11
187.997
 21
301.735
  0
LINE
  8
0
 10
187.997
 20
301.735
 11
188.054
 21
301.775
  0
LINE
  8
0
 10
188.054
 20
301.775
 11
188.114
 21
301.812
  0
LINE
  8
0
 10
188.114
 20
301.812
 11
188.176
 21
301.847
  0
LINE
  8
0
 10
188.176
 20
301.847
 11
188.24
 21
301.88
  0
LINE
  8
0
 10
188.24
 20
301.88
 11
188.306
 21
301.91
  0
LINE
  8
0
 10
188.306
 20
301.91
 11
188.375
 21
301.938
  0
LINE
  8
0
 10
188.375
 20
301.938
 11
188.446
 21
301.964
  0
LINE
  8
0
 10
188.446
 20
301.964
 11
188.519
 21
301.987
  0
LINE
  8
0
 10
188.519
 20
301.987
 11
188.595
 21
302.007
  0
LINE
  8
0
 10
188.595
 20
302.007
 11
188.672
 21
302.025
  0
LINE
  8
0
 10
188.672
 20
302.025
 11
188.753
 21
302.039
  0
LINE
  8
0
 10
188.753
 20
302.039
 11
188.836
 21
302.05
  0
LINE
  8
0
 10
188.836
 20
302.05
 11
188.921
 21
302.058
  0
LINE
  8
0
 10
188.921
 20
302.058
 11
189.009
 21
302.062
  0
LINE
  8
0
 10
189.009
 20
302.062
 11
189.099
 21
302.064
  0
LINE
  8
0
 10
189.099
 20
302.064
 11
189.23
 21
302.061
  0
LINE
  8
0
 10
189.23
 20
302.061
 11
189.355
 21
302.052
  0
LINE
  8
0
 10
189.355
 20
302.052
 11
189.476
 21
302.037
  0
LINE
  8
0
 10
189.476
 20
302.037
 11
189.593
 21
302.015
  0
LINE
  8
0
 10
189.593
 20
302.015
 11
189.705
 21
301.988
  0
LINE
  8
0
 10
189.705
 20
301.988
 11
189.812
 21
301.955
  0
LINE
  8
0
 10
189.812
 20
301.955
 11
189.914
 21
301.915
  0
LINE
  8
0
 10
189.914
 20
301.915
 11
190.011
 21
301.87
  0
LINE
  8
0
 10
190.011
 20
301.87
 11
190.104
 21
301.82
  0
LINE
  8
0
 10
190.104
 20
301.82
 11
190.192
 21
301.766
  0
LINE
  8
0
 10
190.192
 20
301.766
 11
190.276
 21
301.706
  0
LINE
  8
0
 10
190.276
 20
301.706
 11
190.354
 21
301.642
  0
LINE
  8
0
 10
190.354
 20
301.642
 11
190.429
 21
301.573
  0
LINE
  8
0
 10
190.429
 20
301.573
 11
190.498
 21
301.499
  0
LINE
  8
0
 10
190.498
 20
301.499
 11
190.563
 21
301.421
  0
LINE
  8
0
 10
190.563
 20
301.421
 11
190.623
 21
301.338
  0
LINE
  8
0
 10
190.623
 20
301.338
 11
190.678
 21
301.252
  0
LINE
  8
0
 10
190.678
 20
301.252
 11
190.728
 21
301.162
  0
LINE
  8
0
 10
190.728
 20
301.162
 11
190.774
 21
301.067
  0
LINE
  8
0
 10
190.774
 20
301.067
 11
190.814
 21
300.969
  0
LINE
  8
0
 10
190.814
 20
300.969
 11
190.85
 21
300.866
  0
LINE
  8
0
 10
190.85
 20
300.866
 11
190.881
 21
300.76
  0
LINE
  8
0
 10
190.881
 20
300.76
 11
190.907
 21
300.651
  0
LINE
  8
0
 10
190.907
 20
300.651
 11
190.929
 21
300.539
  0
LINE
  8
0
 10
190.929
 20
300.539
 11
190.946
 21
300.424
  0
LINE
  8
0
 10
190.946
 20
300.424
 11
190.957
 21
300.307
  0
LINE
  8
0
 10
190.957
 20
300.307
 11
190.965
 21
300.187
  0
LINE
  8
0
 10
190.965
 20
300.187
 11
190.967
 21
300.064
  0
LINE
  8
0
 10
190.967
 20
300.064
 11
190.964
 21
299.937
  0
LINE
  8
0
 10
190.964
 20
299.937
 11
190.957
 21
299.813
  0
LINE
  8
0
 10
190.957
 20
299.813
 11
190.944
 21
299.693
  0
LINE
  8
0
 10
190.944
 20
299.693
 11
190.927
 21
299.576
  0
LINE
  8
0
 10
190.927
 20
299.576
 11
190.904
 21
299.463
  0
LINE
  8
0
 10
190.904
 20
299.463
 11
190.877
 21
299.354
  0
LINE
  8
0
 10
190.877
 20
299.354
 11
190.844
 21
299.248
  0
LINE
  8
0
 10
190.844
 20
299.248
 11
190.806
 21
299.146
  0
LINE
  8
0
 10
190.806
 20
299.146
 11
190.764
 21
299.049
  0
LINE
  8
0
 10
190.764
 20
299.049
 11
190.717
 21
298.956
  0
LINE
  8
0
 10
190.717
 20
298.956
 11
190.665
 21
298.867
  0
LINE
  8
0
 10
190.665
 20
298.867
 11
190.609
 21
298.783
  0
LINE
  8
0
 10
190.609
 20
298.783
 11
190.548
 21
298.703
  0
LINE
  8
0
 10
190.548
 20
298.703
 11
190.482
 21
298.628
  0
LINE
  8
0
 10
190.482
 20
298.628
 11
190.412
 21
298.557
  0
LINE
  8
0
 10
190.412
 20
298.557
 11
190.337
 21
298.491
  0
LINE
  8
0
 10
190.337
 20
298.491
 11
190.258
 21
298.43
  0
LINE
  8
0
 10
190.258
 20
298.43
 11
190.174
 21
298.374
  0
LINE
  8
0
 10
190.174
 20
298.374
 11
190.086
 21
298.322
  0
LINE
  8
0
 10
190.086
 20
298.322
 11
189.993
 21
298.276
  0
LINE
  8
0
 10
189.993
 20
298.276
 11
189.896
 21
298.234
  0
LINE
  8
0
 10
189.896
 20
298.234
 11
189.795
 21
298.197
  0
LINE
  8
0
 10
189.795
 20
298.197
 11
189.689
 21
298.166
  0
LINE
  8
0
 10
189.689
 20
298.166
 11
189.58
 21
298.141
  0
LINE
  8
0
 10
189.58
 20
298.141
 11
189.466
 21
298.121
  0
LINE
  8
0
 10
189.466
 20
298.121
 11
189.349
 21
298.107
  0
LINE
  8
0
 10
189.349
 20
298.107
 11
189.227
 21
298.099
  0
LINE
  8
0
 10
189.227
 20
298.099
 11
189.102
 21
298.096
  0
LINE
  8
0
 10
189.102
 20
298.096
 11
188.931
 21
298.101
  0
LINE
  8
0
 10
214.086
 20
298.16
 11
212.547
 21
302
  0
LINE
  8
0
 10
212.547
 20
302
 11
213.077
 21
302
  0
LINE
  8
0
 10
213.077
 20
302
 11
213.515
 21
300.912
  0
LINE
  8
0
 10
213.515
 20
300.912
 11
215.26
 21
300.912
  0
LINE
  8
0
 10
215.26
 20
300.912
 11
215.701
 21
302
  0
LINE
  8
0
 10
215.701
 20
302
 11
216.239
 21
302
  0
LINE
  8
0
 10
216.239
 20
302
 11
214.676
 21
298.16
  0
LINE
  8
0
 10
214.676
 20
298.16
 11
214.086
 21
298.16
  0
LINE
  8
0
 10
214.481
 20
298.837
 11
215.103
 21
300.464
  0
LINE
  8
0
 10
215.103
 20
300.464
 11
213.67
 21
300.464
  0
LINE
  8
0
 10
213.67
 20
300.464
 11
214.234
 21
299.013
  0
LINE
  8
0
 10
214.234
 20
299.013
 11
214.388
 21
298.552
  0
LINE
  8
0
 10
214.388
 20
298.552
 11
214.481
 21
298.837
  0
LINE
  8
0
 10
201.901
 20
298.16
 11
201.812
 21
298.161
  0
LINE
  8
0
 10
201.812
 20
298.161
 11
201.725
 21
298.164
  0
LINE
  8
0
 10
201.725
 20
298.164
 11
201.641
 21
298.17
  0
LINE
  8
0
 10
201.641
 20
298.17
 11
201.56
 21
298.177
  0
LINE
  8
0
 10
201.56
 20
298.177
 11
201.481
 21
298.187
  0
LINE
  8
0
 10
201.481
 20
298.187
 11
201.406
 21
298.199
  0
LINE
  8
0
 10
201.406
 20
298.199
 11
201.333
 21
298.213
  0
LINE
  8
0
 10
201.333
 20
298.213
 11
201.263
 21
298.229
  0
LINE
  8
0
 10
201.263
 20
298.229
 11
201.196
 21
298.248
  0
LINE
  8
0
 10
201.196
 20
298.248
 11
201.133
 21
298.269
  0
LINE
  8
0
 10
201.133
 20
298.269
 11
201.072
 21
298.293
  0
LINE
  8
0
 10
201.072
 20
298.293
 11
201.015
 21
298.319
  0
LINE
  8
0
 10
201.015
 20
298.319
 11
200.96
 21
298.348
  0
LINE
  8
0
 10
200.96
 20
298.348
 11
200.909
 21
298.379
  0
LINE
  8
0
 10
200.909
 20
298.379
 11
200.861
 21
298.413
  0
LINE
  8
0
 10
200.861
 20
298.413
 11
200.816
 21
298.449
  0
LINE
  8
0
 10
200.816
 20
298.449
 11
200.775
 21
298.488
  0
LINE
  8
0
 10
200.775
 20
298.488
 11
200.737
 21
298.529
  0
LINE
  8
0
 10
200.737
 20
298.529
 11
200.703
 21
298.572
  0
LINE
  8
0
 10
200.703
 20
298.572
 11
200.672
 21
298.619
  0
LINE
  8
0
 10
200.672
 20
298.619
 11
200.644
 21
298.667
  0
LINE
  8
0
 10
200.644
 20
298.667
 11
200.62
 21
298.718
  0
LINE
  8
0
 10
200.62
 20
298.718
 11
200.599
 21
298.772
  0
LINE
  8
0
 10
200.599
 20
298.772
 11
200.583
 21
298.829
  0
LINE
  8
0
 10
200.583
 20
298.829
 11
200.57
 21
298.889
  0
LINE
  8
0
 10
200.57
 20
298.889
 11
200.56
 21
298.951
  0
LINE
  8
0
 10
200.56
 20
298.951
 11
200.555
 21
299.017
  0
LINE
  8
0
 10
200.555
 20
299.017
 11
200.553
 21
299.085
  0
LINE
  8
0
 10
200.553
 20
299.085
 11
200.554
 21
299.13
  0
LINE
  8
0
 10
200.554
 20
299.13
 11
200.561
 21
299.218
  0
LINE
  8
0
 10
200.561
 20
299.218
 11
200.576
 21
299.303
  0
LINE
  8
0
 10
200.576
 20
299.303
 11
200.598
 21
299.385
  0
LINE
  8
0
 10
200.598
 20
299.385
 11
200.612
 21
299.425
  0
LINE
  8
0
 10
200.612
 20
299.425
 11
200.627
 21
299.463
  0
LINE
  8
0
 10
200.627
 20
299.463
 11
200.645
 21
299.501
  0
LINE
  8
0
 10
200.645
 20
299.501
 11
200.664
 21
299.538
  0
LINE
  8
0
 10
200.664
 20
299.538
 11
200.686
 21
299.573
  0
LINE
  8
0
 10
200.686
 20
299.573
 11
200.709
 21
299.608
  0
LINE
  8
0
 10
200.709
 20
299.608
 11
200.734
 21
299.641
  0
LINE
  8
0
 10
200.734
 20
299.641
 11
200.761
 21
299.673
  0
LINE
  8
0
 10
200.761
 20
299.673
 11
200.79
 21
299.704
  0
LINE
  8
0
 10
200.79
 20
299.704
 11
200.82
 21
299.733
  0
LINE
  8
0
 10
200.82
 20
299.733
 11
200.853
 21
299.761
  0
LINE
  8
0
 10
200.853
 20
299.761
 11
200.887
 21
299.788
  0
LINE
  8
0
 10
200.887
 20
299.788
 11
200.924
 21
299.814
  0
LINE
  8
0
 10
200.924
 20
299.814
 11
200.962
 21
299.838
  0
LINE
  8
0
 10
200.962
 20
299.838
 11
201.002
 21
299.861
  0
LINE
  8
0
 10
201.002
 20
299.861
 11
201.044
 21
299.882
  0
LINE
  8
0
 10
201.044
 20
299.882
 11
201.088
 21
299.901
  0
LINE
  8
0
 10
201.088
 20
299.901
 11
201.133
 21
299.918
  0
LINE
  8
0
 10
201.133
 20
299.918
 11
201.181
 21
299.934
  0
LINE
  8
0
 10
201.181
 20
299.934
 11
201.23
 21
299.948
  0
LINE
  8
0
 10
201.23
 20
299.948
 11
201.281
 21
299.961
  0
LINE
  8
0
 10
201.281
 20
299.961
 11
201.216
 21
299.97
  0
LINE
  8
0
 10
201.216
 20
299.97
 11
201.153
 21
299.981
  0
LINE
  8
0
 10
201.153
 20
299.981
 11
201.093
 21
299.994
  0
LINE
  8
0
 10
201.093
 20
299.994
 11
201.034
 21
300.009
  0
LINE
  8
0
 10
201.034
 20
300.009
 11
200.978
 21
300.027
  0
LINE
  8
0
 10
200.978
 20
300.027
 11
200.924
 21
300.046
  0
LINE
  8
0
 10
200.924
 20
300.046
 11
200.872
 21
300.068
  0
LINE
  8
0
 10
200.872
 20
300.068
 11
200.822
 21
300.092
  0
LINE
  8
0
 10
200.822
 20
300.092
 11
200.775
 21
300.117
  0
LINE
  8
0
 10
200.775
 20
300.117
 11
200.73
 21
300.145
  0
LINE
  8
0
 10
200.73
 20
300.145
 11
200.688
 21
300.174
  0
LINE
  8
0
 10
200.688
 20
300.174
 11
200.648
 21
300.205
  0
LINE
  8
0
 10
200.648
 20
300.205
 11
200.61
 21
300.237
  0
LINE
  8
0
 10
200.61
 20
300.237
 11
200.575
 21
300.272
  0
LINE
  8
0
 10
200.575
 20
300.272
 11
200.542
 21
300.308
  0
LINE
  8
0
 10
200.542
 20
300.308
 11
200.511
 21
300.346
  0
LINE
  8
0
 10
200.511
 20
300.346
 11
200.483
 21
300.385
  0
LINE
  8
0
 10
200.483
 20
300.385
 11
200.457
 21
300.426
  0
LINE
  8
0
 10
200.457
 20
300.426
 11
200.433
 21
300.468
  0
LINE
  8
0
 10
200.433
 20
300.468
 11
200.412
 21
300.512
  0
LINE
  8
0
 10
200.412
 20
300.512
 11
200.393
 21
300.558
  0
LINE
  8
0
 10
200.393
 20
300.558
 11
200.376
 21
300.605
  0
LINE
  8
0
 10
200.376
 20
300.605
 11
200.362
 21
300.653
  0
LINE
  8
0
 10
200.362
 20
300.653
 11
200.351
 21
300.703
  0
LINE
  8
0
 10
200.351
 20
300.703
 11
200.342
 21
300.753
  0
LINE
  8
0
 10
200.342
 20
300.753
 11
200.335
 21
300.805
  0
LINE
  8
0
 10
200.335
 20
300.805
 11
200.331
 21
300.857
  0
LINE
  8
0
 10
200.331
 20
300.857
 11
200.33
 21
300.911
  0
LINE
  8
0
 10
200.33
 20
300.911
 11
200.332
 21
300.993
  0
LINE
  8
0
 10
200.332
 20
300.993
 11
200.339
 21
301.072
  0
LINE
  8
0
 10
200.339
 20
301.072
 11
200.351
 21
301.147
  0
LINE
  8
0
 10
200.351
 20
301.147
 11
200.367
 21
301.218
  0
LINE
  8
0
 10
200.367
 20
301.218
 11
200.388
 21
301.286
  0
LINE
  8
0
 10
200.388
 20
301.286
 11
200.414
 21
301.351
  0
LINE
  8
0
 10
200.414
 20
301.351
 11
200.444
 21
301.412
  0
LINE
  8
0
 10
200.444
 20
301.412
 11
200.478
 21
301.47
  0
LINE
  8
0
 10
200.478
 20
301.47
 11
200.516
 21
301.524
  0
LINE
  8
0
 10
200.516
 20
301.524
 11
200.556
 21
301.575
  0
LINE
  8
0
 10
200.556
 20
301.575
 11
200.6
 21
301.623
  0
LINE
  8
0
 10
200.6
 20
301.623
 11
200.647
 21
301.668
  0
LINE
  8
0
 10
200.647
 20
301.668
 11
200.697
 21
301.71
  0
LINE
  8
0
 10
200.697
 20
301.71
 11
200.751
 21
301.749
  0
LINE
  8
0
 10
200.751
 20
301.749
 11
200.807
 21
301.785
  0
LINE
  8
0
 10
200.807
 20
301.785
 11
200.866
 21
301.818
  0
LINE
  8
0
 10
200.866
 20
301.818
 11
200.928
 21
301.848
  0
LINE
  8
0
 10
200.928
 20
301.848
 11
200.992
 21
301.875
  0
LINE
  8
0
 10
200.992
 20
301.875
 11
201.059
 21
301.9
  0
LINE
  8
0
 10
201.059
 20
301.9
 11
201.128
 21
301.921
  0
LINE
  8
0
 10
201.128
 20
301.921
 11
201.2
 21
301.94
  0
LINE
  8
0
 10
201.2
 20
301.94
 11
201.273
 21
301.956
  0
LINE
  8
0
 10
201.273
 20
301.956
 11
201.348
 21
301.969
  0
LINE
  8
0
 10
201.348
 20
301.969
 11
201.424
 21
301.98
  0
LINE
  8
0
 10
201.424
 20
301.98
 11
201.501
 21
301.989
  0
LINE
  8
0
 10
201.501
 20
301.989
 11
201.579
 21
301.995
  0
LINE
  8
0
 10
201.579
 20
301.995
 11
201.658
 21
301.999
  0
LINE
  8
0
 10
201.658
 20
301.999
 11
201.738
 21
302
  0
LINE
  8
0
 10
201.738
 20
302
 11
203.293
 21
302
  0
LINE
  8
0
 10
203.293
 20
302
 11
203.293
 21
298.16
  0
LINE
  8
0
 10
203.293
 20
298.16
 11
201.901
 21
298.16
  0
LINE
  8
0
 10
202.774
 20
301.552
 11
201.71
 21
301.551
  0
LINE
  8
0
 10
201.71
 20
301.551
 11
201.601
 21
301.546
  0
LINE
  8
0
 10
201.601
 20
301.546
 11
201.498
 21
301.536
  0
LINE
  8
0
 10
201.498
 20
301.536
 11
201.4
 21
301.521
  0
LINE
  8
0
 10
201.4
 20
301.521
 11
201.353
 21
301.511
  0
LINE
  8
0
 10
201.353
 20
301.511
 11
201.308
 21
301.499
  0
LINE
  8
0
 10
201.308
 20
301.499
 11
201.265
 21
301.485
  0
LINE
  8
0
 10
201.265
 20
301.485
 11
201.224
 21
301.469
  0
LINE
  8
0
 10
201.224
 20
301.469
 11
201.185
 21
301.451
  0
LINE
  8
0
 10
201.185
 20
301.451
 11
201.148
 21
301.432
  0
LINE
  8
0
 10
201.148
 20
301.432
 11
201.112
 21
301.41
  0
LINE
  8
0
 10
201.112
 20
301.41
 11
201.079
 21
301.386
  0
LINE
  8
0
 10
201.079
 20
301.386
 11
201.047
 21
301.36
  0
LINE
  8
0
 10
201.047
 20
301.36
 11
201.018
 21
301.332
  0
LINE
  8
0
 10
201.018
 20
301.332
 11
200.991
 21
301.302
  0
LINE
  8
0
 10
200.991
 20
301.302
 11
200.966
 21
301.269
  0
LINE
  8
0
 10
200.966
 20
301.269
 11
200.944
 21
301.235
  0
LINE
  8
0
 10
200.944
 20
301.235
 11
200.923
 21
301.198
  0
LINE
  8
0
 10
200.923
 20
301.198
 11
200.905
 21
301.159
  0
LINE
  8
0
 10
200.905
 20
301.159
 11
200.89
 21
301.117
  0
LINE
  8
0
 10
200.89
 20
301.117
 11
200.877
 21
301.072
  0
LINE
  8
0
 10
200.877
 20
301.072
 11
200.867
 21
301.025
  0
LINE
  8
0
 10
200.867
 20
301.025
 11
200.861
 21
300.975
  0
LINE
  8
0
 10
200.861
 20
300.975
 11
200.856
 21
300.922
  0
LINE
  8
0
 10
200.856
 20
300.922
 11
200.855
 21
300.867
  0
LINE
  8
0
 10
200.855
 20
300.867
 11
200.856
 21
300.818
  0
LINE
  8
0
 10
200.856
 20
300.818
 11
200.86
 21
300.77
  0
LINE
  8
0
 10
200.86
 20
300.77
 11
200.867
 21
300.725
  0
LINE
  8
0
 10
200.867
 20
300.725
 11
200.877
 21
300.682
  0
LINE
  8
0
 10
200.877
 20
300.682
 11
200.889
 21
300.641
  0
LINE
  8
0
 10
200.889
 20
300.641
 11
200.904
 21
300.603
  0
LINE
  8
0
 10
200.904
 20
300.603
 11
200.922
 21
300.566
  0
LINE
  8
0
 10
200.922
 20
300.566
 11
200.942
 21
300.531
  0
LINE
  8
0
 10
200.942
 20
300.531
 11
200.965
 21
300.498
  0
LINE
  8
0
 10
200.965
 20
300.498
 11
200.989
 21
300.467
  0
LINE
  8
0
 10
200.989
 20
300.467
 11
201.017
 21
300.438
  0
LINE
  8
0
 10
201.017
 20
300.438
 11
201.046
 21
300.411
  0
LINE
  8
0
 10
201.046
 20
300.411
 11
201.078
 21
300.386
  0
LINE
  8
0
 10
201.078
 20
300.386
 11
201.113
 21
300.362
  0
LINE
  8
0
 10
201.113
 20
300.362
 11
201.15
 21
300.34
  0
LINE
  8
0
 10
201.15
 20
300.34
 11
201.189
 21
300.32
  0
LINE
  8
0
 10
201.189
 20
300.32
 11
201.23
 21
300.301
  0
LINE
  8
0
 10
201.23
 20
300.301
 11
201.273
 21
300.285
  0
LINE
  8
0
 10
201.273
 20
300.285
 11
201.318
 21
300.27
  0
LINE
  8
0
 10
201.318
 20
300.27
 11
201.365
 21
300.256
  0
LINE
  8
0
 10
201.365
 20
300.256
 11
201.414
 21
300.245
  0
LINE
  8
0
 10
201.414
 20
300.245
 11
201.517
 21
300.227
  0
LINE
  8
0
 10
201.517
 20
300.227
 11
201.628
 21
300.215
  0
LINE
  8
0
 10
201.628
 20
300.215
 11
201.745
 21
300.209
  0
LINE
  8
0
 10
201.745
 20
300.209
 11
202.774
 21
300.208
  0
LINE
  8
0
 10
202.774
 20
300.208
 11
202.774
 21
301.552
  0
LINE
  8
0
 10
202.774
 20
299.76
 11
201.901
 21
299.76
  0
LINE
  8
0
 10
201.901
 20
299.76
 11
201.777
 21
299.757
  0
LINE
  8
0
 10
201.777
 20
299.757
 11
201.664
 21
299.746
  0
LINE
  8
0
 10
201.664
 20
299.746
 11
201.612
 21
299.739
  0
LINE
  8
0
 10
201.612
 20
299.739
 11
201.562
 21
299.729
  0
LINE
  8
0
 10
201.562
 20
299.729
 11
201.516
 21
299.718
  0
LINE
  8
0
 10
201.516
 20
299.718
 11
201.472
 21
299.705
  0
LINE
  8
0
 10
201.472
 20
299.705
 11
201.431
 21
299.69
  0
LINE
  8
0
 10
201.431
 20
299.69
 11
201.392
 21
299.675
  0
LINE
  8
0
 10
201.392
 20
299.675
 11
201.355
 21
299.657
  0
LINE
  8
0
 10
201.355
 20
299.657
 11
201.321
 21
299.638
  0
LINE
  8
0
 10
201.321
 20
299.638
 11
201.289
 21
299.618
  0
LINE
  8
0
 10
201.289
 20
299.618
 11
201.26
 21
299.596
  0
LINE
  8
0
 10
201.26
 20
299.596
 11
201.233
 21
299.573
  0
LINE
  8
0
 10
201.233
 20
299.573
 11
201.208
 21
299.548
  0
LINE
  8
0
 10
201.208
 20
299.548
 11
201.186
 21
299.522
  0
LINE
  8
0
 10
201.186
 20
299.522
 11
201.166
 21
299.495
  0
LINE
  8
0
 10
201.166
 20
299.495
 11
201.148
 21
299.467
  0
LINE
  8
0
 10
201.148
 20
299.467
 11
201.132
 21
299.437
  0
LINE
  8
0
 10
201.132
 20
299.437
 11
201.119
 21
299.406
  0
LINE
  8
0
 10
201.119
 20
299.406
 11
201.107
 21
299.374
  0
LINE
  8
0
 10
201.107
 20
299.374
 11
201.097
 21
299.34
  0
LINE
  8
0
 10
201.097
 20
299.34
 11
201.089
 21
299.306
  0
LINE
  8
0
 10
201.089
 20
299.306
 11
201.079
 21
299.233
  0
LINE
  8
0
 10
201.079
 20
299.233
 11
201.075
 21
299.156
  0
LINE
  8
0
 10
201.075
 20
299.156
 11
201.079
 21
299.075
  0
LINE
  8
0
 10
201.079
 20
299.075
 11
201.092
 21
299.001
  0
LINE
  8
0
 10
201.092
 20
299.001
 11
201.114
 21
298.934
  0
LINE
  8
0
 10
201.114
 20
298.934
 11
201.144
 21
298.874
  0
LINE
  8
0
 10
201.144
 20
298.874
 11
201.183
 21
298.821
  0
LINE
  8
0
 10
201.183
 20
298.821
 11
201.231
 21
298.774
  0
LINE
  8
0
 10
201.231
 20
298.774
 11
201.287
 21
298.735
  0
LINE
  8
0
 10
201.287
 20
298.735
 11
201.351
 21
298.701
  0
LINE
  8
0
 10
201.351
 20
298.701
 11
201.424
 21
298.673
  0
LINE
  8
0
 10
201.424
 20
298.673
 11
201.504
 21
298.649
  0
LINE
  8
0
 10
201.504
 20
298.649
 11
201.591
 21
298.631
  0
LINE
  8
0
 10
201.591
 20
298.631
 11
201.687
 21
298.618
  0
LINE
  8
0
 10
201.687
 20
298.618
 11
201.79
 21
298.611
  0
LINE
  8
0
 10
201.79
 20
298.611
 11
201.901
 21
298.608
  0
LINE
  8
0
 10
201.901
 20
298.608
 11
202.774
 21
298.608
  0
LINE
  8
0
 10
202.774
 20
298.608
 11
202.774
 21
299.76
  0
LINE
  8
0
 10
177.026
 20
298.16
 11
176.901
 21
298.162
  0
LINE
  8
0
 10
176.901
 20
298.162
 11
176.779
 21
298.169
  0
LINE
  8
0
 10
176.779
 20
298.169
 11
176.659
 21
298.18
  0
LINE
  8
0
 10
176.659
 20
298.18
 11
176.542
 21
298.196
  0
LINE
  8
0
 10
176.542
 20
298.196
 11
176.428
 21
298.217
  0
LINE
  8
0
 10
176.428
 20
298.217
 11
176.317
 21
298.242
  0
LINE
  8
0
 10
176.317
 20
298.242
 11
176.209
 21
298.271
  0
LINE
  8
0
 10
176.209
 20
298.271
 11
176.104
 21
298.305
  0
LINE
  8
0
 10
176.104
 20
298.305
 11
176.004
 21
298.344
  0
LINE
  8
0
 10
176.004
 20
298.344
 11
175.908
 21
298.387
  0
LINE
  8
0
 10
175.908
 20
298.387
 11
175.816
 21
298.436
  0
LINE
  8
0
 10
175.816
 20
298.436
 11
175.728
 21
298.489
  0
LINE
  8
0
 10
175.728
 20
298.489
 11
175.645
 21
298.548
  0
LINE
  8
0
 10
175.645
 20
298.548
 11
175.566
 21
298.611
  0
LINE
  8
0
 10
175.566
 20
298.611
 11
175.492
 21
298.679
  0
LINE
  8
0
 10
175.492
 20
298.679
 11
175.422
 21
298.753
  0
LINE
  8
0
 10
175.422
 20
298.753
 11
175.357
 21
298.831
  0
LINE
  8
0
 10
175.357
 20
298.831
 11
175.297
 21
298.915
  0
LINE
  8
0
 10
175.297
 20
298.915
 11
175.242
 21
299.003
  0
LINE
  8
0
 10
175.242
 20
299.003
 11
175.192
 21
299.097
  0
LINE
  8
0
 10
175.192
 20
299.097
 11
175.146
 21
299.196
  0
LINE
  8
0
 10
175.146
 20
299.196
 11
175.106
 21
299.3
  0
LINE
  8
0
 10
175.106
 20
299.3
 11
175.072
 21
299.409
  0
LINE
  8
0
 10
175.072
 20
299.409
 11
175.044
 21
299.524
  0
LINE
  8
0
 10
175.044
 20
299.524
 11
175.023
 21
299.645
  0
LINE
  8
0
 10
175.023
 20
299.645
 11
175.007
 21
299.771
  0
LINE
  8
0
 10
175.007
 20
299.771
 11
174.998
 21
299.903
  0
LINE
  8
0
 10
174.998
 20
299.903
 11
174.995
 21
300.04
  0
LINE
  8
0
 10
174.995
 20
300.04
 11
174.998
 21
300.175
  0
LINE
  8
0
 10
174.998
 20
300.175
 11
175.007
 21
300.305
  0
LINE
  8
0
 10
175.007
 20
300.305
 11
175.021
 21
300.431
  0
LINE
  8
0
 10
175.021
 20
300.431
 11
175.042
 21
300.552
  0
LINE
  8
0
 10
175.042
 20
300.552
 11
175.068
 21
300.668
  0
LINE
  8
0
 10
175.068
 20
300.668
 11
175.101
 21
300.78
  0
LINE
  8
0
 10
175.101
 20
300.78
 11
175.139
 21
300.887
  0
LINE
  8
0
 10
175.139
 20
300.887
 11
175.182
 21
300.989
  0
LINE
  8
0
 10
175.182
 20
300.989
 11
175.23
 21
301.086
  0
LINE
  8
0
 10
175.23
 20
301.086
 11
175.282
 21
301.179
  0
LINE
  8
0
 10
175.282
 20
301.179
 11
175.338
 21
301.266
  0
LINE
  8
0
 10
175.338
 20
301.266
 11
175.399
 21
301.349
  0
LINE
  8
0
 10
175.399
 20
301.349
 11
175.464
 21
301.427
  0
LINE
  8
0
 10
175.464
 20
301.427
 11
175.533
 21
301.5
  0
LINE
  8
0
 10
175.533
 20
301.5
 11
175.606
 21
301.568
  0
LINE
  8
0
 10
175.606
 20
301.568
 11
175.683
 21
301.631
  0
LINE
  8
0
 10
175.683
 20
301.631
 11
175.764
 21
301.69
  0
LINE
  8
0
 10
175.764
 20
301.69
 11
175.849
 21
301.743
  0
LINE
  8
0
 10
175.849
 20
301.743
 11
175.937
 21
301.792
  0
LINE
  8
0
 10
175.937
 20
301.792
 11
176.029
 21
301.835
  0
LINE
  8
0
 10
176.029
 20
301.835
 11
176.125
 21
301.874
  0
LINE
  8
0
 10
176.125
 20
301.874
 11
176.224
 21
301.907
  0
LINE
  8
0
 10
176.224
 20
301.907
 11
176.324
 21
301.936
  0
LINE
  8
0
 10
176.324
 20
301.936
 11
176.427
 21
301.959
  0
LINE
  8
0
 10
176.427
 20
301.959
 11
176.532
 21
301.977
  0
LINE
  8
0
 10
176.532
 20
301.977
 11
176.639
 21
301.99
  0
LINE
  8
0
 10
176.639
 20
301.99
 11
176.749
 21
301.997
  0
LINE
  8
0
 10
176.749
 20
301.997
 11
176.86
 21
302
  0
LINE
  8
0
 10
176.86
 20
302
 11
178.293
 21
302
  0
LINE
  8
0
 10
178.293
 20
302
 11
178.293
 21
298.16
  0
LINE
  8
0
 10
178.293
 20
298.16
 11
177.026
 21
298.16
  0
LINE
  8
0
 10
177.774
 20
301.552
 11
176.92
 21
301.552
  0
LINE
  8
0
 10
176.92
 20
301.552
 11
176.835
 21
301.55
  0
LINE
  8
0
 10
176.835
 20
301.55
 11
176.751
 21
301.544
  0
LINE
  8
0
 10
176.751
 20
301.544
 11
176.669
 21
301.534
  0
LINE
  8
0
 10
176.669
 20
301.534
 11
176.59
 21
301.521
  0
LINE
  8
0
 10
176.59
 20
301.521
 11
176.512
 21
301.503
  0
LINE
  8
0
 10
176.512
 20
301.503
 11
176.435
 21
301.481
  0
LINE
  8
0
 10
176.435
 20
301.481
 11
176.361
 21
301.456
  0
LINE
  8
0
 10
176.361
 20
301.456
 11
176.289
 21
301.427
  0
LINE
  8
0
 10
176.289
 20
301.427
 11
176.22
 21
301.394
  0
LINE
  8
0
 10
176.22
 20
301.394
 11
176.154
 21
301.357
  0
LINE
  8
0
 10
176.154
 20
301.357
 11
176.09
 21
301.316
  0
LINE
  8
0
 10
176.09
 20
301.316
 11
176.03
 21
301.271
  0
LINE
  8
0
 10
176.03
 20
301.271
 11
175.972
 21
301.223
  0
LINE
  8
0
 10
175.972
 20
301.223
 11
175.917
 21
301.171
  0
LINE
  8
0
 10
175.917
 20
301.171
 11
175.865
 21
301.115
  0
LINE
  8
0
 10
175.865
 20
301.115
 11
175.816
 21
301.055
  0
LINE
  8
0
 10
175.816
 20
301.055
 11
175.771
 21
300.991
  0
LINE
  8
0
 10
175.771
 20
300.991
 11
175.729
 21
300.923
  0
LINE
  8
0
 10
175.729
 20
300.923
 11
175.69
 21
300.852
  0
LINE
  8
0
 10
175.69
 20
300.852
 11
175.655
 21
300.777
  0
LINE
  8
0
 10
175.655
 20
300.777
 11
175.623
 21
300.698
  0
LINE
  8
0
 10
175.623
 20
300.698
 11
175.595
 21
300.615
  0
LINE
  8
0
 10
175.595
 20
300.615
 11
175.571
 21
300.529
  0
LINE
  8
0
 10
175.571
 20
300.529
 11
175.552
 21
300.439
  0
LINE
  8
0
 10
175.552
 20
300.439
 11
175.536
 21
300.345
  0
LINE
  8
0
 10
175.536
 20
300.345
 11
175.526
 21
300.247
  0
LINE
  8
0
 10
175.526
 20
300.247
 11
175.519
 21
300.146
  0
LINE
  8
0
 10
175.519
 20
300.146
 11
175.517
 21
300.041
  0
LINE
  8
0
 10
175.517
 20
300.041
 11
175.519
 21
299.934
  0
LINE
  8
0
 10
175.519
 20
299.934
 11
175.526
 21
299.832
  0
LINE
  8
0
 10
175.526
 20
299.832
 11
175.538
 21
299.735
  0
LINE
  8
0
 10
175.538
 20
299.735
 11
175.554
 21
299.641
  0
LINE
  8
0
 10
175.554
 20
299.641
 11
175.574
 21
299.553
  0
LINE
  8
0
 10
175.574
 20
299.553
 11
175.599
 21
299.469
  0
LINE
  8
0
 10
175.599
 20
299.469
 11
175.629
 21
299.389
  0
LINE
  8
0
 10
175.629
 20
299.389
 11
175.663
 21
299.314
  0
LINE
  8
0
 10
175.663
 20
299.314
 11
175.7
 21
299.242
  0
LINE
  8
0
 10
175.7
 20
299.242
 11
175.741
 21
299.175
  0
LINE
  8
0
 10
175.741
 20
299.175
 11
175.785
 21
299.111
  0
LINE
  8
0
 10
175.785
 20
299.111
 11
175.833
 21
299.052
  0
LINE
  8
0
 10
175.833
 20
299.052
 11
175.885
 21
298.996
  0
LINE
  8
0
 10
175.885
 20
298.996
 11
175.941
 21
298.945
  0
LINE
  8
0
 10
175.941
 20
298.945
 11
176
 21
298.897
  0
LINE
  8
0
 10
176
 20
298.897
 11
176.062
 21
298.853
  0
LINE
  8
0
 10
176.062
 20
298.853
 11
176.128
 21
298.813
  0
LINE
  8
0
 10
176.128
 20
298.813
 11
176.197
 21
298.777
  0
LINE
  8
0
 10
176.197
 20
298.777
 11
176.269
 21
298.744
  0
LINE
  8
0
 10
176.269
 20
298.744
 11
176.344
 21
298.715
  0
LINE
  8
0
 10
176.344
 20
298.715
 11
176.423
 21
298.69
  0
LINE
  8
0
 10
176.423
 20
298.69
 11
176.504
 21
298.668
  0
LINE
  8
0
 10
176.504
 20
298.668
 11
176.587
 21
298.65
  0
LINE
  8
0
 10
176.587
 20
298.65
 11
176.673
 21
298.635
  0
LINE
  8
0
 10
176.673
 20
298.635
 11
176.761
 21
298.623
  0
LINE
  8
0
 10
176.761
 20
298.623
 11
176.851
 21
298.615
  0
LINE
  8
0
 10
176.851
 20
298.615
 11
176.943
 21
298.61
  0
LINE
  8
0
 10
176.943
 20
298.61
 11
177.037
 21
298.608
  0
LINE
  8
0
 10
177.037
 20
298.608
 11
177.774
 21
298.608
  0
LINE
  8
0
 10
177.774
 20
298.608
 11
177.774
 21
301.552
  0
LINE
  8
0
 10
55
 20
289
 11
55
 21
301
  0
LINE
  8
0
 10
55
 20
301
 11
69
 21
301
  0
LINE
  8
0
 10
69
 20
301
 11
69
 21
289
  0
LINE
  8
0
 10
69
 20
289
 11
55
 21
289
  0
LINE
  8
0
 10
176.343
 20
290.505
 11
176.032
 21
290.544
  0
LINE
  8
0
 10
176.032
 20
290.544
 11
175.727
 21
290.622
  0
LINE
  8
0
 10
175.727
 20
290.622
 11
175.436
 21
290.738
  0
LINE
  8
0
 10
175.436
 20
290.738
 11
175.16
 21
290.889
  0
LINE
  8
0
 10
175.16
 20
290.889
 11
174.906
 21
291.074
  0
LINE
  8
0
 10
174.906
 20
291.074
 11
174.678
 21
291.289
  0
LINE
  8
0
 10
174.678
 20
291.289
 11
174.477
 21
291.531
  0
LINE
  8
0
 10
174.477
 20
291.531
 11
174.309
 21
291.796
  0
LINE
  8
0
 10
174.309
 20
291.796
 11
174.176
 21
292.08
  0
LINE
  8
0
 10
174.176
 20
292.08
 11
174.079
 21
292.378
  0
LINE
  8
0
 10
174.079
 20
292.378
 11
174.02
 21
292.687
  0
LINE
  8
0
 10
174.02
 20
292.687
 11
174
 21
293
  0
LINE
  8
0
 10
174
 20
293
 11
174.02
 21
293.313
  0
LINE
  8
0
 10
174.02
 20
293.313
 11
174.079
 21
293.622
  0
LINE
  8
0
 10
174.079
 20
293.622
 11
174.176
 21
293.92
  0
LINE
  8
0
 10
174.176
 20
293.92
 11
174.309
 21
294.204
  0
LINE
  8
0
 10
174.309
 20
294.204
 11
174.477
 21
294.469
  0
LINE
  8
0
 10
174.477
 20
294.469
 11
174.678
 21
294.711
  0
LINE
  8
0
 10
174.678
 20
294.711
 11
174.906
 21
294.926
  0
LINE
  8
0
 10
174.906
 20
294.926
 11
175.16
 21
295.111
  0
LINE
  8
0
 10
175.16
 20
295.111
 11
175.436
 21
295.262
  0
LINE
  8
0
 10
175.436
 20
295.262
 11
175.727
 21
295.378
  0
LINE
  8
0
 10
175.727
 20
295.378
 11
176.032
 21
295.456
  0
LINE
  8
0
 10
176.032
 20
295.456
 11
176.343
 21
295.495
  0
LINE
  8
0
 10
176.343
 20
295.495
 11
176.657
 21
295.495
  0
LINE
  8
0
 10
176.657
 20
295.495
 11
176.968
 21
295.456
  0
LINE
  8
0
 10
176.968
 20
295.456
 11
177.273
 21
295.378
  0
LINE
  8
0
 10
177.273
 20
295.378
 11
177.564
 21
295.262
  0
LINE
  8
0
 10
177.564
 20
295.262
 11
177.84
 21
295.111
  0
LINE
  8
0
 10
177.84
 20
295.111
 11
178.094
 21
294.926
  0
LINE
  8
0
 10
178.094
 20
294.926
 11
178.322
 21
294.711
  0
LINE
  8
0
 10
178.322
 20
294.711
 11
178.523
 21
294.469
  0
LINE
  8
0
 10
178.523
 20
294.469
 11
178.691
 21
294.204
  0
LINE
  8
0
 10
178.691
 20
294.204
 11
178.824
 21
293.92
  0
LINE
  8
0
 10
178.824
 20
293.92
 11
178.921
 21
293.622
  0
LINE
  8
0
 10
178.921
 20
293.622
 11
178.98
 21
293.313
  0
LINE
  8
0
 10
178.98
 20
293.313
 11
179
 21
293
  0
LINE
  8
0
 10
179
 20
293
 11
178.98
 21
292.687
  0
LINE
  8
0
 10
178.98
 20
292.687
 11
178.921
 21
292.378
  0
LINE
  8
0
 10
178.921
 20
292.378
 11
178.824
 21
292.08
  0
LINE
  8
0
 10
178.824
 20
292.08
 11
178.691
 21
291.796
  0
LINE
  8
0
 10
178.691
 20
291.796
 11
178.523
 21
291.531
  0
LINE
  8
0
 10
178.523
 20
291.531
 11
178.322
 21
291.289
  0
LINE
  8
0
 10
178.322
 20
291.289
 11
178.094
 21
291.074
  0
LINE
  8
0
 10
178.094
 20
291.074
 11
177.84
 21
290.889
  0
LINE
  8
0
 10
177.84
 20
290.889
 11
177.564
 21
290.738
  0
LINE
  8
0
 10
177.564
 20
290.738
 11
177.273
 21
290.622
  0
LINE
  8
0
 10
177.273
 20
290.622
 11
176.968
 21
290.544
  0
LINE
  8
0
 10
176.968
 20
290.544
 11
176.657
 21
290.505
  0
LINE
  8
0
 10
176.657
 20
290.505
 11
176.343
 21
290.505
  0
LINE
  8
0
 10
201.343
 20
290.505
 11
201.032
 21
290.544
  0
LINE
  8
0
 10
201.032
 20
290.544
 11
200.727
 21
290.622
  0
LINE
  8
0
 10
200.727
 20
290.622
 11
200.436
 21
290.738
  0
LINE
  8
0
 10
200.436
 20
290.738
 11
200.16
 21
290.889
  0
LINE
  8
0
 10
200.16
 20
290.889
 11
199.906
 21
291.074
  0
LINE
  8
0
 10
199.906
 20
291.074
 11
199.678
 21
291.289
  0
LINE
  8
0
 10
199.678
 20
291.289
 11
199.477
 21
291.531
  0
LINE
  8
0
 10
199.477
 20
291.531
 11
199.309
 21
291.796
  0
LINE
  8
0
 10
199.309
 20
291.796
 11
199.176
 21
292.08
  0
LINE
  8
0
 10
199.176
 20
292.08
 11
199.079
 21
292.378
  0
LINE
  8
0
 10
199.079
 20
292.378
 11
199.02
 21
292.687
  0
LINE
  8
0
 10
199.02
 20
292.687
 11
199
 21
293
  0
LINE
  8
0
 10
199
 20
293
 11
199.02
 21
293.313
  0
LINE
  8
0
 10
199.02
 20
293.313
 11
199.079
 21
293.622
  0
LINE
  8
0
 10
199.079
 20
293.622
 11
199.176
 21
293.92
  0
LINE
  8
0
 10
199.176
 20
293.92
 11
199.309
 21
294.204
  0
LINE
  8
0
 10
199.309
 20
294.204
 11
199.477
 21
294.469
  0
LINE
  8
0
 10
199.477
 20
294.469
 11
199.678
 21
294.711
  0
LINE
  8
0
 10
199.678
 20
294.711
 11
199.906
 21
294.926
  0
LINE
  8
0
 10
199.906
 20
294.926
 11
200.16
 21
295.111
  0
LINE
  8
0
 10
200.16
 20
295.111
 11
200.436
 21
295.262
  0
LINE
  8
0
 10
200.436
 20
295.262
 11
200.727
 21
295.378
  0
LINE
  8
0
 10
200.727
 20
295.378
 11
201.032
 21
295.456
  0
LINE
  8
0
 10
201.032
 20
295.456
 11
201.343
 21
295.495
  0
LINE
  8
0
 10
201.343
 20
295.495
 11
201.657
 21
295.495
  0
LINE
  8
0
 10
201.657
 20
295.495
 11
201.968
 21
295.456
  0
LINE
  8
0
 10
201.968
 20
295.456
 11
202.273
 21
295.378
  0
LINE
  8
0
 10
202.273
 20
295.378
 11
202.564
 21
295.262
  0
LINE
  8
0
 10
202.564
 20
295.262
 11
202.84
 21
295.111
  0
LINE
  8
0
 10
202.84
 20
295.111
 11
203.094
 21
294.926
  0
LINE
  8
0
 10
203.094
 20
294.926
 11
203.322
 21
294.711
  0
LINE
  8
0
 10
203.322
 20
294.711
 11
203.523
 21
294.469
  0
LINE
  8
0
 10
203.523
 20
294.469
 11
203.691
 21
294.204
  0
LINE
  8
0
 10
203.691
 20
294.204
 11
203.824
 21
293.92
  0
LINE
  8
0
 10
203.824
 20
293.92
 11
203.921
 21
293.622
  0
LINE
  8
0
 10
203.921
 20
293.622
 11
203.98
 21
293.313
  0
LINE
  8
0
 10
203.98
 20
293.313
 11
204
 21
293
  0
LINE
  8
0
 10
204
 20
293
 11
203.98
 21
292.687
  0
LINE
  8
0
 10
203.98
 20
292.687
 11
203.921
 21
292.378
  0
LINE
  8
0
 10
203.921
 20
292.378
 11
203.824
 21
292.08
  0
LINE
  8
0
 10
203.824
 20
292.08
 11
203.691
 21
291.796
  0
LINE
  8
0
 10
203.691
 20
291.796
 11
203.523
 21
291.531
  0
LINE
  8
0
 10
203.523
 20
291.531
 11
203.322
 21
291.289
  0
LINE
  8
0
 10
203.322
 20
291.289
 11
203.094
 21
291.074
  0
LINE
  8
0
 10
203.094
 20
291.074
 11
202.84
 21
290.889
  0
LINE
  8
0
 10
202.84
 20
290.889
 11
202.564
 21
290.738
  0
LINE
  8
0
 10
202.564
 20
290.738
 11
202.273
 21
290.622
  0
LINE
  8
0
 10
202.273
 20
290.622
 11
201.968
 21
290.544
  0
LINE
  8
0
 10
201.968
 20
290.544
 11
201.657
 21
290.505
  0
LINE
  8
0
 10
201.657
 20
290.505
 11
201.343
 21
290.505
  0
LINE
  8
0
 10
188.843
 20
290.505
 11
188.532
 21
290.544
  0
LINE
  8
0
 10
188.532
 20
290.544
 11
188.227
 21
290.622
  0
LINE
  8
0
 10
188.227
 20
290.622
 11
187.936
 21
290.738
  0
LINE
  8
0
 10
187.936
 20
290.738
 11
187.66
 21
290.889
  0
LINE
  8
0
 10
187.66
 20
290.889
 11
187.406
 21
291.074
  0
LINE
  8
0
 10
187.406
 20
291.074
 11
187.178
 21
291.289
  0
LINE
  8
0
 10
187.178
 20
291.289
 11
186.977
 21
291.531
  0
LINE
  8
0
 10
186.977
 20
291.531
 11
186.809
 21
291.796
  0
LINE
  8
0
 10
186.809
 20
291.796
 11
186.676
 21
292.08
  0
LINE
  8
0
 10
186.676
 20
292.08
 11
186.579
 21
292.378
  0
LINE
  8
0
 10
186.579
 20
292.378
 11
186.52
 21
292.687
  0
LINE
  8
0
 10
186.52
 20
292.687
 11
186.5
 21
293
  0
LINE
  8
0
 10
186.5
 20
293
 11
186.52
 21
293.313
  0
LINE
  8
0
 10
186.52
 20
293.313
 11
186.579
 21
293.622
  0
LINE
  8
0
 10
186.579
 20
293.622
 11
186.676
 21
293.92
  0
LINE
  8
0
 10
186.676
 20
293.92
 11
186.809
 21
294.204
  0
LINE
  8
0
 10
186.809
 20
294.204
 11
186.977
 21
294.469
  0
LINE
  8
0
 10
186.977
 20
294.469
 11
187.178
 21
294.711
  0
LINE
  8
0
 10
187.178
 20
294.711
 11
187.406
 21
294.926
  0
LINE
  8
0
 10
187.406
 20
294.926
 11
187.66
 21
295.111
  0
LINE
  8
0
 10
187.66
 20
295.111
 11
187.936
 21
295.262
  0
LINE
  8
0
 10
187.936
 20
295.262
 11
188.227
 21
295.378
  0
LINE
  8
0
 10
188.227
 20
295.378
 11
188.532
 21
295.456
  0
LINE
  8
0
 10
188.532
 20
295.456
 11
188.843
 21
295.495
  0
LINE
  8
0
 10
188.843
 20
295.495
 11
189.157
 21
295.495
  0
LINE
  8
0
 10
189.157
 20
295.495
 11
189.468
 21
295.456
  0
LINE
  8
0
 10
189.468
 20
295.456
 11
189.773
 21
295.378
  0
LINE
  8
0
 10
189.773
 20
295.378
 11
190.064
 21
295.262
  0
LINE
  8
0
 10
190.064
 20
295.262
 11
190.34
 21
295.111
  0
LINE
  8
0
 10
190.34
 20
295.111
 11
190.594
 21
294.926
  0
LINE
  8
0
 10
190.594
 20
294.926
 11
190.822
 21
294.711
  0
LINE
  8
0
 10
190.822
 20
294.711
 11
191.023
 21
294.469
  0
LINE
  8
0
 10
191.023
 20
294.469
 11
191.191
 21
294.204
  0
LINE
  8
0
 10
191.191
 20
294.204
 11
191.324
 21
293.92
  0
LINE
  8
0
 10
191.324
 20
293.92
 11
191.421
 21
293.622
  0
LINE
  8
0
 10
191.421
 20
293.622
 11
191.48
 21
293.313
  0
LINE
  8
0
 10
191.48
 20
293.313
 11
191.5
 21
293
  0
LINE
  8
0
 10
191.5
 20
293
 11
191.48
 21
292.687
  0
LINE
  8
0
 10
191.48
 20
292.687
 11
191.421
 21
292.378
  0
LINE
  8
0
 10
191.421
 20
292.378
 11
191.324
 21
292.08
  0
LINE
  8
0
 10
191.324
 20
292.08
 11
191.191
 21
291.796
  0
LINE
  8
0
 10
191.191
 20
291.796
 11
191.023
 21
291.531
  0
LINE
  8
0
 10
191.023
 20
291.531
 11
190.822
 21
291.289
  0
LINE
  8
0
 10
190.822
 20
291.289
 11
190.594
 21
291.074
  0
LINE
  8
0
 10
190.594
 20
291.074
 11
190.34
 21
290.889
  0
LINE
  8
0
 10
190.34
 20
290.889
 11
190.064
 21
290.738
  0
LINE
  8
0
 10
190.064
 20
290.738
 11
189.773
 21
290.622
  0
LINE
  8
0
 10
189.773
 20
290.622
 11
189.468
 21
290.544
  0
LINE
  8
0
 10
189.468
 20
290.544
 11
189.157
 21
290.505
  0
LINE
  8
0
 10
189.157
 20
290.505
 11
188.843
 21
290.505
  0
LINE
  8
0
 10
213.843
 20
290.505
 11
213.532
 21
290.544
  0
LINE
  8
0
 10
213.532
 20
290.544
 11
213.227
 21
290.622
  0
LINE
  8
0
 10
213.227
 20
290.622
 11
212.936
 21
290.738
  0
LINE
  8
0
 10
212.936
 20
290.738
 11
212.66
 21
290.889
  0
LINE
  8
0
 10
212.66
 20
290.889
 11
212.406
 21
291.074
  0
LINE
  8
0
 10
212.406
 20
291.074
 11
212.178
 21
291.289
  0
LINE
  8
0
 10
212.178
 20
291.289
 11
211.977
 21
291.531
  0
LINE
  8
0
 10
211.977
 20
291.531
 11
211.809
 21
291.796
  0
LINE
  8
0
 10
211.809
 20
291.796
 11
211.676
 21
292.08
  0
LINE
  8
0
 10
211.676
 20
292.08
 11
211.579
 21
292.378
  0
LINE
  8
0
 10
211.579
 20
292.378
 11
211.52
 21
292.687
  0
LINE
  8
0
 10
211.52
 20
292.687
 11
211.5
 21
293
  0
LINE
  8
0
 10
211.5
 20
293
 11
211.52
 21
293.313
  0
LINE
  8
0
 10
211.52
 20
293.313
 11
211.579
 21
293.622
  0
LINE
  8
0
 10
211.579
 20
293.622
 11
211.676
 21
293.92
  0
LINE
  8
0
 10
211.676
 20
293.92
 11
211.809
 21
294.204
  0
LINE
  8
0
 10
211.809
 20
294.204
 11
211.977
 21
294.469
  0
LINE
  8
0
 10
211.977
 20
294.469
 11
212.178
 21
294.711
  0
LINE
  8
0
 10
212.178
 20
294.711
 11
212.406
 21
294.926
  0
LINE
  8
0
 10
212.406
 20
294.926
 11
212.66
 21
295.111
  0
LINE
  8
0
 10
212.66
 20
295.111
 11
212.936
 21
295.262
  0
LINE
  8
0
 10
212.936
 20
295.262
 11
213.227
 21
295.378
  0
LINE
  8
0
 10
213.227
 20
295.378
 11
213.532
 21
295.456
  0
LINE
  8
0
 10
213.532
 20
295.456
 11
213.843
 21
295.495
  0
LINE
  8
0
 10
213.843
 20
295.495
 11
214.157
 21
295.495
  0
LINE
  8
0
 10
214.157
 20
295.495
 11
214.468
 21
295.456
  0
LINE
  8
0
 10
214.468
 20
295.456
 11
214.773
 21
295.378
  0
LINE
  8
0
 10
214.773
 20
295.378
 11
215.064
 21
295.262
  0
LINE
  8
0
 10
215.064
 20
295.262
 11
215.34
 21
295.111
  0
LINE
  8
0
 10
215.34
 20
295.111
 11
215.594
 21
294.926
  0
LINE
  8
0
 10
215.594
 20
294.926
 11
215.822
 21
294.711
  0
LINE
  8
0
 10
215.822
 20
294.711
 11
216.023
 21
294.469
  0
LINE
  8
0
 10
216.023
 20
294.469
 11
216.191
 21
294.204
  0
LINE
  8
0
 10
216.191
 20
294.204
 11
216.324
 21
293.92
  0
LINE
  8
0
 10
216.324
 20
293.92
 11
216.421
 21
293.622
  0
LINE
  8
0
 10
216.421
 20
293.622
 11
216.48
 21
293.313
  0
LINE
  8
0
 10
216.48
 20
293.313
 11
216.5
 21
293
  0
LINE
  8
0
 10
216.5
 20
293
 11
216.48
 21
292.687
  0
LINE
  8
0
 10
216.48
 20
292.687
 11
216.421
 21
292.378
  0
LINE
  8
0
 10
216.421
 20
292.378
 11
216.324
 21
292.08
  0
LINE
  8
0
 10
216.324
 20
292.08
 11
216.191
 21
291.796
  0
LINE
  8
0
 10
216.191
 20
291.796
 11
216.023
 21
291.531
  0
LINE
  8
0
 10
216.023
 20
291.531
 11
215.822
 21
291.289
  0
LINE
  8
0
 10
215.822
 20
291.289
 11
215.594
 21
291.074
  0
LINE
  8
0
 10
215.594
 20
291.074
 11
215.34
 21
290.889
  0
LINE
  8
0
 10
215.34
 20
290.889
 11
215.064
 21
290.738
  0
LINE
  8
0
 10
215.064
 20
290.738
 11
214.773
 21
290.622
  0
LINE
  8
0
 10
214.773
 20
290.622
 11
214.468
 21
290.544
  0
LINE
  8
0
 10
214.468
 20
290.544
 11
214.157
 21
290.505
  0
LINE
  8
0
 10
214.157
 20
290.505
 11
213.843
 21
290.505
  0
LINE
  8
0
 10
32.4167
 20
243
 11
51.25
 21
243
  0
LINE
  8
0
 10
51.25
 20
243
 11
51.25
 21
240
  0
LINE
  8
0
 10
51.25
 20
240
 11
71.25
 21
240
  0
LINE
  8
0
 10
71.25
 20
240
 11
71.25
 21
243
  0
LINE
  8
0
 10
71.25
 20
243
 11
90.0833
 21
243
  0
LINE
  8
0
 10
90.0833
 20
243
 11
90.0833
 21
240
  0
LINE
  8
0
 10
90.0833
 20
240
 11
110.083
 21
240
  0
LINE
  8
0
 10
110.083
 20
240
 11
110.083
 21
243
  0
LINE
  8
0
 10
110.083
 20
243
 11
128.917
 21
243
  0
LINE
  8
0
 10
128.917
 20
243
 11
128.917
 21
240
  0
LINE
  8
0
 10
128.917
 20
240
 11
148.917
 21
240
  0
LINE
  8
0
 10
148.917
 20
240
 11
148.917
 21
243
  0
LINE
  8
0
 10
148.917
 20
243
 11
167.75
 21
243
  0
LINE
  8
0
 10
167.75
 20
243
 11
167.75
 21
240
  0
LINE
  8
0
 10
167.75
 20
240
 11
187.75
 21
240
  0
LINE
  8
0
 10
187.75
 20
240
 11
187.75
 21
243
  0
LINE
  8
0
 10
187.75
 20
243
 11
206.583
 21
243
  0
LINE
  8
0
 10
206.583
 20
243
 11
206.583
 21
240
  0
LINE
  8
0
 10
206.583
 20
240
 11
226.583
 21
240
  0
LINE
  8
0
 10
226.583
 20
240
 11
226.583
 21
243
  0
LINE
  8
0
 10
226.583
 20
243
 11
236
 21
243
  0
LINE
  8
0
 10
236
 20
243
 11
236
 21
248
  0
LINE
  8
0
 10
236
 20
248
 11
233
 21
248
  0
LINE
  8
0
 10
233
 20
248
 11
233
 21
253
  0
LINE
  8
0
 10
233
 20
253
 11
236
 21
253
  0
LINE
  8
0
 10
236
 20
253
 11
236
 21
263
  0
LINE
  8
0
 10
236
 20
263
 11
233
 21
263
  0
LINE
  8
0
 10
233
 20
263
 11
233
 21
268
  0
LINE
  8
0
 10
233
 20
268
 11
236
 21
268
  0
LINE
  8
0
 10
236
 20
268
 11
236
 21
273
  0
LINE
  8
0
 10
236
 20
273
 11
226.583
 21
273
  0
LINE
  8
0
 10
226.583
 20
273
 11
226.583
 21
276
  0
LINE
  8
0
 10
226.583
 20
276
 11
206.583
 21
276
  0
LINE
  8
0
 10
206.583
 20
276
 11
206.583
 21
273
  0
LINE
  8
0
 10
206.583
 20
273
 11
187.75
 21
273
  0
LINE
  8
0
 10
187.75
 20
273
 11
187.75
 21
276
  0
LINE
  8
0
 10
187.75
 20
276
 11
167.75
 21
276
  0
LINE
  8
0
 10
167.75
 20
276
 11
167.75
 21
273
  0
LINE
  8
0
 10
167.75
 20
273
 11
148.917
 21
273
  0
LINE
  8
0
 10
148.917
 20
273
 11
148.917
 21
276
  0
LINE
  8
0
 10
148.917
 20
276
 11
128.917
 21
276
  0
LINE
  8
0
 10
128.917
 20
276
 11
128.917
 21
273
  0
LINE
  8
0
 10
128.917
 20
273
 11
121.5
 21
273
  0
LINE
  8
0
 10
121.5
 20
273
 11
121.484
 21
272.749
  0
LINE
  8
0
 10
121.484
 20
272.749
 11
121.437
 21
272.503
  0
LINE
  8
0
 10
121.437
 20
272.503
 11
121.36
 21
272.264
  0
LINE
  8
0
 10
121.36
 20
272.264
 11
121.253
 21
272.036
  0
LINE
  8
0
 10
121.253
 20
272.036
 11
121.118
 21
271.824
  0
LINE
  8
0
 10
121.118
 20
271.824
 11
120.958
 21
271.631
  0
LINE
  8
0
 10
120.958
 20
271.631
 11
120.775
 21
271.459
  0
LINE
  8
0
 10
120.775
 20
271.459
 11
120.572
 21
271.311
  0
LINE
  8
0
 10
120.572
 20
271.311
 11
120.352
 21
271.19
  0
LINE
  8
0
 10
120.352
 20
271.19
 11
120.118
 21
271.098
  0
LINE
  8
0
 10
120.118
 20
271.098
 11
119.875
 21
271.035
  0
LINE
  8
0
 10
119.875
 20
271.035
 11
119.626
 21
271.004
  0
LINE
  8
0
 10
119.626
 20
271.004
 11
119.374
 21
271.004
  0
LINE
  8
0
 10
119.374
 20
271.004
 11
119.125
 21
271.035
  0
LINE
  8
0
 10
119.125
 20
271.035
 11
118.882
 21
271.098
  0
LINE
  8
0
 10
118.882
 20
271.098
 11
118.648
 21
271.19
  0
LINE
  8
0
 10
118.648
 20
271.19
 11
118.428
 21
271.311
  0
LINE
  8
0
 10
118.428
 20
271.311
 11
118.225
 21
271.459
  0
LINE
  8
0
 10
118.225
 20
271.459
 11
118.042
 21
271.631
  0
LINE
  8
0
 10
118.042
 20
271.631
 11
117.882
 21
271.824
  0
LINE
  8
0
 10
117.882
 20
271.824
 11
117.747
 21
272.036
  0
LINE
  8
0
 10
117.747
 20
272.036
 11
117.64
 21
272.264
  0
LINE
  8
0
 10
117.64
 20
272.264
 11
117.563
 21
272.503
  0
LINE
  8
0
 10
117.563
 20
272.503
 11
117.516
 21
272.749
  0
LINE
  8
0
 10
117.516
 20
272.749
 11
117.5
 21
273
  0
LINE
  8
0
 10
117.5
 20
273
 11
110.083
 21
273
  0
LINE
  8
0
 10
110.083
 20
273
 11
110.083
 21
276
  0
LINE
  8
0
 10
110.083
 20
276
 11
90.0833
 21
276
  0
LINE
  8
0
 10
90.0833
 20
276
 11
90.0833
 21
273
  0
LINE
  8
0
 10
90.0833
 20
273
 11
71.25
 21
273
  0
LINE
  8
0
 10
71.25
 20
273
 11
71.25
 21
276
  0
LINE
  8
0
 10
71.25
 20
276
 11
51.25
 21
276
  0
LINE
  8
0
 10
51.25
 20
276
 11
51.25
 21
273
  0
LINE
  8
0
 10
51.25
 20
273
 11
32.4167
 21
273
  0
LINE
  8
0
 10
32.4167
 20
273
 11
32.4167
 21
276
  0
LINE
  8
0
 10
32.4167
 20
276
 11
12.4167
 21
276
  0
LINE
  8
0
 10
12.4167
 20
276
 11
12.4167
 21
273
  0
LINE
  8
0
 10
12.4167
 20
273
 11
3
 21
273
  0
LINE
  8
0
 10
3
 20
273
 11
3
 21
268
  0
LINE
  8
0
 10
3
 20
268
 11
6
 21
268
  0
LINE
  8
0
 10
6
 20
268
 11
6
 21
263
  0
LINE
  8
0
 10
6
 20
263
 11
3
 21
263
  0
LINE
  8
0
 10
3
 20
263
 11
3
 21
253
  0
LINE
  8
0
 10
3
 20
253
 11
6
 21
253
  0
LINE
  8
0
 10
6
 20
253
 11
6
 21
248
  0
LINE
  8
0
 10
6
 20
248
 11
3
 21
248
  0
LINE
  8
0
 10
3
 20
248
 11
3
 21
243
  0
LINE
  8
0
 10
3
 20
243
 11
12.4167
 21
243
  0
LINE
  8
0
 10
12.4167
 20
243
 11
12.4167
 21
240
  0
LINE
  8
0
 10
12.4167
 20
240
 11
32.4167
 21
240
  0
LINE
  8
0
 10
32.4167
 20
240
 11
32.4167
 21
243
  0
LINE
  8
0
 10
130
 20
202
 11
146
 21
202
  0
LINE
  8
0
 10
146
 20
202
 11
146
 21
199
  0
LINE
  8
0
 10
146
 20
199
 11
171
 21
199
  0
LINE
  8
0
 10
171
 20
199
 11
171
 21
202
  0
LINE
  8
0
 10
171
 20
202
 11
179
 21
202
  0
LINE
  8
0
 10
179
 20
202
 11
179
 21
207
  0
LINE
  8
0
 10
179
 20
207
 11
182
 21
207
  0
LINE
  8
0
 10
182
 20
207
 11
182
 21
212
  0
LINE
  8
0
 10
182
 20
212
 11
179
 21
212
  0
LINE
  8
0
 10
179
 20
212
 11
179
 21
222
  0
LINE
  8
0
 10
179
 20
222
 11
182
 21
222
  0
LINE
  8
0
 10
182
 20
222
 11
182
 21
227
  0
LINE
  8
0
 10
182
 20
227
 11
179
 21
227
  0
LINE
  8
0
 10
179
 20
227
 11
179
 21
232
  0
LINE
  8
0
 10
179
 20
232
 11
171
 21
232
  0
LINE
  8
0
 10
171
 20
232
 11
171
 21
235
  0
LINE
  8
0
 10
171
 20
235
 11
146
 21
235
  0
LINE
  8
0
 10
146
 20
235
 11
146
 21
232
  0
LINE
  8
0
 10
146
 20
232
 11
130
 21
232
  0
LINE
  8
0
 10
130
 20
232
 11
130
 21
235
  0
LINE
  8
0
 10
130
 20
235
 11
105
 21
235
  0
LINE
  8
0
 10
105
 20
235
 11
105
 21
232
  0
LINE
  8
0
 10
105
 20
232
 11
97
 21
232
  0
LINE
  8
0
 10
97
 20
232
 11
97
 21
227
  0
LINE
  8
0
 10
97
 20
227
 11
94
 21
227
  0
LINE
  8
0
 10
94
 20
227
 11
94
 21
222
  0
LINE
  8
0
 10
94
 20
222
 11
97
 21
222
  0
LINE
  8
0
 10
97
 20
222
 11
97
 21
212
  0
LINE
  8
0
 10
97
 20
212
 11
94
 21
212
  0
LINE
  8
0
 10
94
 20
212
 11
94
 21
207
  0
LINE
  8
0
 10
94
 20
207
 11
97
 21
207
  0
LINE
  8
0
 10
97
 20
207
 11
97
 21
202
  0
LINE
  8
0
 10
97
 20
202
 11
105
 21
202
  0
LINE
  8
0
 10
105
 20
202
 11
105
 21
199
  0
LINE
  8
0
 10
105
 20
199
 11
130
 21
199
  0
LINE
  8
0
 10
130
 20
199
 11
130
 21
202
  0
LINE
  8
0
 10
36
 20
202
 11
52
 21
202
  0
LINE
  8
0
 10
52
 20
202
 11
52
 21
199
  0
LINE
  8
0
 10
52
 20
199
 11
77
 21
199
  0
LINE
  8
0
 10
77
 20
199
 11
77
 21
202
  0
LINE
  8
0
 10
77
 20
202
 11
85
 21
202
  0
LINE
  8
0
 10
85
 20
202
 11
85
 21
207
  0
LINE
  8
0
 10
85
 20
207
 11
88
 21
207
  0
LINE
  8
0
 10
88
 20
207
 11
88
 21
212
  0
LINE
  8
0
 10
88
 20
212
 11
85
 21
212
  0
LINE
  8
0
 10
85
 20
212
 11
85
 21
222
  0
LINE
  8
0
 10
85
 20
222
 11
88
 21
222
  0
LINE
  8
0
 10
88
 20
222
 11
88
 21
227
  0
LINE
  8
0
 10
88
 20
227
 11
85
 21
227
  0
LINE
  8
0
 10
85
 20
227
 11
85
 21
232
  0
LINE
  8
0
 10
85
 20
232
 11
77
 21
232
  0
LINE
  8
0
 10
77
 20
232
 11
77
 21
235
  0
LINE
  8
0
 10
77
 20
235
 11
52
 21
235
  0
LINE
  8
0
 10
52
 20
235
 11
52
 21
232
  0
LINE
  8
0
 10
52
 20
232
 11
36
 21
232
  0
LINE
  8
0
 10
36
 20
232
 11
36
 21
235
  0
LINE
  8
0
 10
36
 20
235
 11
11
 21
235
  0
LINE
  8
0
 10
11
 20
235
 11
11
 21
232
  0
LINE
  8
0
 10
11
 20
232
 11
3
 21
232
  0
LINE
  8
0
 10
3
 20
232
 11
3
 21
227
  0
LINE
  8
0
 10
3
 20
227
 11
0
 21
227
  0
LINE
  8
0
 10
0
 20
227
 11
0
 21
222
  0
LINE
  8
0
 10
0
 20
222
 11
3
 21
222
  0
LINE
  8
0
 10
3
 20
222
 11
3
 21
212
  0
LINE
  8
0
 10
3
 20
212
 11
0
 21
212
  0
LINE
  8
0
 10
0
 20
212
 11
0
 21
207
  0
LINE
  8
0
 10
0
 20
207
 11
3
 21
207
  0
LINE
  8
0
 10
3
 20
207
 11
3
 21
202
  0
LINE
  8
0
 10
3
 20
202
 11
11
 21
202
  0
LINE
  8
0
 10
11
 20
202
 11
11
 21
199
  0
LINE
  8
0
 10
11
 20
199
 11
36
 21
199
  0
LINE
  8
0
 10
36
 20
199
 11
36
 21
202
  0
LINE
  8
0
 10
238.062
 20
97.5531
 11
238.427
 21
97.6468
  0
LINE
  8
0
 10
238.427
 20
97.6468
 11
238.777
 21
97.7855
  0
LINE
  8
0
 10
238.777
 20
97.7855
 11
239.107
 21
97.967
  0
LINE
  8
0
 10
239.107
 20
97.967
 11
239.412
 21
98.1885
  0
LINE
  8
0
 10
239.412
 20
98.1885
 11
239.687
 21
98.4464
  0
LINE
  8
0
 10
239.687
 20
98.4464
 11
239.927
 21
98.7366
  0
LINE
  8
0
 10
239.927
 20
98.7366
 11
240.129
 21
99.0547
  0
LINE
  8
0
 10
240.129
 20
99.0547
 11
240.289
 21
99.3956
  0
LINE
  8
0
 10
240.289
 20
99.3956
 11
240.406
 21
99.7539
  0
LINE
  8
0
 10
240.406
 20
99.7539
 11
240.476
 21
100.124
  0
LINE
  8
0
 10
240.476
 20
100.124
 11
240.5
 21
100.5
  0
LINE
  8
0
 10
240.5
 20
100.5
 11
240.5
 21
191.5
  0
LINE
  8
0
 10
240.5
 20
191.5
 11
240.476
 21
191.876
  0
LINE
  8
0
 10
240.476
 20
191.876
 11
240.406
 21
192.246
  0
LINE
  8
0
 10
240.406
 20
192.246
 11
240.289
 21
192.604
  0
LINE
  8
0
 10
240.289
 20
192.604
 11
240.129
 21
192.945
  0
LINE
  8
0
 10
240.129
 20
192.945
 11
239.927
 21
193.263
  0
LINE
  8
0
 10
239.927
 20
193.263
 11
239.687
 21
193.554
  0
LINE
  8
0
 10
239.687
 20
193.554
 11
239.412
 21
193.812
  0
LINE
  8
0
 10
239.412
 20
193.812
 11
239.107
 21
194.033
  0
LINE
  8
0
 10
239.107
 20
194.033
 11
238.777
 21
194.214
  0
LINE
  8
0
 10
238.777
 20
194.214
 11
238.427
 21
194.353
  0
LINE
  8
0
 10
238.427
 20
194.353
 11
238.062
 21
194.447
  0
LINE
  8
0
 10
238.062
 20
194.447
 11
237.688
 21
194.494
  0
LINE
  8
0
 10
237.688
 20
194.494
 11
1.31161
 21
194.494
  0
LINE
  8
0
 10
1.31161
 20
194.494
 11
0.937851
 21
194.447
  0
LINE
  8
0
 10
0.937851
 20
194.447
 11
0.572937
 21
194.353
  0
LINE
  8
0
 10
0.572937
 20
194.353
 11
0.222656
 21
194.214
  0
LINE
  8
0
 10
0.222656
 20
194.214
 11
-0.107468
 21
194.033
  0
LINE
  8
0
 10
-0.107468
 20
194.033
 11
-0.412262
 21
193.812
  0
LINE
  8
0
 10
-0.412262
 20
193.812
 11
-0.686905
 21
193.554
  0
LINE
  8
0
 10
-0.686905
 20
193.554
 11
-0.927048
 21
193.263
  0
LINE
  8
0
 10
-0.927048
 20
193.263
 11
-1.12891
 21
192.945
  0
LINE
  8
0
 10
-1.12891
 20
192.945
 11
-1.28932
 21
192.604
  0
LINE
  8
0
 10
-1.28932
 20
192.604
 11
-1.40575
 21
192.246
  0
LINE
  8
0
 10
-1.40575
 20
192.246
 11
-1.47633
 21
191.876
  0
LINE
  8
0
 10
-1.47633
 20
191.876
 11
-1.5
 21
191.5
  0
LINE
  8
0
 10
-1.5
 20
191.5
 11
-1.5
 21
100.5
  0
LINE
  8
0
 10
-1.5
 20
100.5
 11
-1.47633
 21
100.124
  0
LINE
  8
0
 10
-1.47633
 20
100.124
 11
-1.40575
 21
99.7539
  0
LINE
  8
0
 10
-1.40575
 20
99.7539
 11
-1.28932
 21
99.3956
  0
LINE
  8
0
 10
-1.28932
 20
99.3956
 11
-1.12891
 21
99.0547
  0
LINE
  8
0
 10
-1.12891
 20
99.0547
 11
-0.927048
 21
98.7366
  0
LINE
  8
0
 10
-0.927048
 20
98.7366
 11
-0.686905
 21
98.4464
  0
LINE
  8
0
 10
-0.686905
 20
98.4464
 11
-0.412262
 21
98.1885
  0
LINE
  8
0
 10
-0.412262
 20
98.1885
 11
-0.107468
 21
97.967
  0
LINE
  8
0
 10
-0.107468
 20
97.967
 11
0.222656
 21
97.7855
  0
LINE
  8
0
 10
0.222656
 20
97.7855
 11
0.572937
 21
97.6468
  0
LINE
  8
0
 10
0.572937
 20
97.6468
 11
0.937851
 21
97.5531
  0
LINE
  8
0
 10
0.937851
 20
97.5531
 11
1.31161
 21
97.5059
  0
LINE
  8
0
 10
1.31161
 20
97.5059
 11
237.688
 21
97.5059
  0
LINE
  8
0
 10
237.688
 20
97.5059
 11
238.062
 21
97.5531
  0
LINE
  8
0
 10
206.583
 20
187
 11
206.583
 21
190
  0
LINE
  8
0
 10
206.583
 20
190
 11
226.583
 21
190
  0
LINE
  8
0
 10
226.583
 20
190
 11
226.583
 21
187
  0
LINE
  8
0
 10
226.583
 20
187
 11
206.583
 21
187
  0
LINE
  8
0
 10
167.75
 20
187
 11
167.75
 21
190
  0
LINE
  8
0
 10
167.75
 20
190
 11
187.75
 21
190
  0
LINE
  8
0
 10
187.75
 20
190
 11
187.75
 21
187
  0
LINE
  8
0
 10
187.75
 20
187
 11
167.75
 21
187
  0
LINE
  8
0
 10
12.4167
 20
187
 11
12.4167
 21
190
  0
LINE
  8
0
 10
12.4167
 20
190
 11
32.4167
 21
190
  0
LINE
  8
0
 10
32.4167
 20
190
 11
32.4167
 21
187
  0
LINE
  8
0
 10
32.4167
 20
187
 11
12.4167
 21
187
  0
LINE
  8
0
 10
51.25
 20
187
 11
51.25
 21
190
  0
LINE
  8
0
 10
51.25
 20
190
 11
71.25
 21
190
  0
LINE
  8
0
 10
71.25
 20
190
 11
71.25
 21
187
  0
LINE
  8
0
 10
71.25
 20
187
 11
51.25
 21
187
  0
LINE
  8
0
 10
90.0833
 20
187
 11
90.0833
 21
190
  0
LINE
  8
0
 10
90.0833
 20
190
 11
110.083
 21
190
  0
LINE
  8
0
 10
110.083
 20
190
 11
110.083
 21
187
  0
LINE
  8
0
 10
110.083
 20
187
 11
90.0833
 21
187
  0
LINE
  8
0
 10
128.917
 20
187
 11
128.917
 21
190
  0
LINE
  8
0
 10
128.917
 20
190
 11
148.917
 21
190
  0
LINE
  8
0
 10
148.917
 20
190
 11
148.917
 21
187
  0
LINE
  8
0
 10
148.917
 20
187
 11
128.917
 21
187
  0
LINE
  8
0
 10
226.874
 20
179.004
 11
226.625
 21
179.035
  0
LINE
  8
0
 10
226.625
 20
179.035
 11
226.382
 21
179.098
  0
LINE
  8
0
 10
226.382
 20
179.098
 11
226.148
 21
179.19
  0
LINE
  8
0
 10
226.148
 20
179.19
 11
225.928
 21
179.311
  0
LINE
  8
0
 10
225.928
 20
179.311
 11
225.725
 21
179.459
  0
LINE
  8
0
 10
225.725
 20
179.459
 11
225.542
 21
179.631
  0
LINE
  8
0
 10
225.542
 20
179.631
 11
225.382
 21
179.824
  0
LINE
  8
0
 10
225.382
 20
179.824
 11
225.247
 21
180.036
  0
LINE
  8
0
 10
225.247
 20
180.036
 11
225.14
 21
180.264
  0
LINE
  8
0
 10
225.14
 20
180.264
 11
225.063
 21
180.503
  0
LINE
  8
0
 10
225.063
 20
180.503
 11
225.016
 21
180.749
  0
LINE
  8
0
 10
225.016
 20
180.749
 11
225
 21
181
  0
LINE
  8
0
 10
225
 20
181
 11
225.016
 21
181.251
  0
LINE
  8
0
 10
225.016
 20
181.251
 11
225.063
 21
181.497
  0
LINE
  8
0
 10
225.063
 20
181.497
 11
225.14
 21
181.736
  0
LINE
  8
0
 10
225.14
 20
181.736
 11
225.247
 21
181.964
  0
LINE
  8
0
 10
225.247
 20
181.964
 11
225.382
 21
182.176
  0
LINE
  8
0
 10
225.382
 20
182.176
 11
225.542
 21
182.369
  0
LINE
  8
0
 10
225.542
 20
182.369
 11
225.725
 21
182.541
  0
LINE
  8
0
 10
225.725
 20
182.541
 11
225.928
 21
182.689
  0
LINE
  8
0
 10
225.928
 20
182.689
 11
226.148
 21
182.81
  0
LINE
  8
0
 10
226.148
 20
182.81
 11
226.382
 21
182.902
  0
LINE
  8
0
 10
226.382
 20
182.902
 11
226.625
 21
182.965
  0
LINE
  8
0
 10
226.625
 20
182.965
 11
226.874
 21
182.996
  0
LINE
  8
0
 10
226.874
 20
182.996
 11
227.126
 21
182.996
  0
LINE
  8
0
 10
227.126
 20
182.996
 11
227.375
 21
182.965
  0
LINE
  8
0
 10
227.375
 20
182.965
 11
227.618
 21
182.902
  0
LINE
  8
0
 10
227.618
 20
182.902
 11
227.852
 21
182.81
  0
LINE
  8
0
 10
227.852
 20
182.81
 11
228.072
 21
182.689
  0
LINE
  8
0
 10
228.072
 20
182.689
 11
228.275
 21
182.541
  0
LINE
  8
0
 10
228.275
 20
182.541
 11
228.458
 21
182.369
  0
LINE
  8
0
 10
228.458
 20
182.369
 11
228.618
 21
182.176
  0
LINE
  8
0
 10
228.618
 20
182.176
 11
228.753
 21
181.964
  0
LINE
  8
0
 10
228.753
 20
181.964
 11
228.86
 21
181.736
  0
LINE
  8
0
 10
228.86
 20
181.736
 11
228.937
 21
181.497
  0
LINE
  8
0
 10
228.937
 20
181.497
 11
228.984
 21
181.251
  0
LINE
  8
0
 10
228.984
 20
181.251
 11
229
 21
181
  0
LINE
  8
0
 10
229
 20
181
 11
228.984
 21
180.749
  0
LINE
  8
0
 10
228.984
 20
180.749
 11
228.937
 21
180.503
  0
LINE
  8
0
 10
228.937
 20
180.503
 11
228.86
 21
180.264
  0
LINE
  8
0
 10
228.86
 20
180.264
 11
228.753
 21
180.036
  0
LINE
  8
0
 10
228.753
 20
180.036
 11
228.618
 21
179.824
  0
LINE
  8
0
 10
228.618
 20
179.824
 11
228.458
 21
179.631
  0
LINE
  8
0
 10
228.458
 20
179.631
 11
228.275
 21
179.459
  0
LINE
  8
0
 10
228.275
 20
179.459
 11
228.072
 21
179.311
  0
LINE
  8
0
 10
228.072
 20
179.311
 11
227.852
 21
179.19
  0
LINE
  8
0
 10
227.852
 20
179.19
 11
227.618
 21
179.098
  0
LINE
  8
0
 10
227.618
 20
179.098
 11
227.375
 21
179.035
  0
LINE
  8
0
 10
227.375
 20
179.035
 11
227.126
 21
179.004
  0
LINE
  8
0
 10
227.126
 20
179.004
 11
226.874
 21
179.004
  0
LINE
  8
0
 10
119.374
 20
179.004
 11
119.125
 21
179.035
  0
LINE
  8
0
 10
119.125
 20
179.035
 11
118.882
 21
179.098
  0
LINE
  8
0
 10
118.882
 20
179.098
 11
118.648
 21
179.19
  0
LINE
  8
0
 10
118.648
 20
179.19
 11
118.428
 21
179.311
  0
LINE
  8
0
 10
118.428
 20
179.311
 11
118.225
 21
179.459
  0
LINE
  8
0
 10
118.225
 20
179.459
 11
118.042
 21
179.631
  0
LINE
  8
0
 10
118.042
 20
179.631
 11
117.882
 21
179.824
  0
LINE
  8
0
 10
117.882
 20
179.824
 11
117.747
 21
180.036
  0
LINE
  8
0
 10
117.747
 20
180.036
 11
117.64
 21
180.264
  0
LINE
  8
0
 10
117.64
 20
180.264
 11
117.563
 21
180.503
  0
LINE
  8
0
 10
117.563
 20
180.503
 11
117.516
 21
180.749
  0
LINE
  8
0
 10
117.516
 20
180.749
 11
117.5
 21
181
  0
LINE
  8
0
 10
117.5
 20
181
 11
117.516
 21
181.251
  0
LINE
  8
0
 10
117.516
 20
181.251
 11
117.563
 21
181.497
  0
LINE
  8
0
 10
117.563
 20
181.497
 11
117.64
 21
181.736
  0
LINE
  8
0
 10
117.64
 20
181.736
 11
117.747
 21
181.964
  0
LINE
  8
0
 10
117.747
 20
181.964
 11
117.882
 21
182.176
  0
LINE
  8
0
 10
117.882
 20
182.176
 11
118.042
 21
182.369
  0
LINE
  8
0
 10
118.042
 20
182.369
 11
118.225
 21
182.541
  0
LINE
  8
0
 10
118.225
 20
182.541
 11
118.428
 21
182.689
  0
LINE
  8
0
 10
118.428
 20
182.689
 11
118.648
 21
182.81
  0
LINE
  8
0
 10
118.648
 20
182.81
 11
118.882
 21
182.902
  0
LINE
  8
0
 10
118.882
 20
182.902
 11
119.125
 21
182.965
  0
LINE
  8
0
 10
119.125
 20
182.965
 11
119.374
 21
182.996
  0
LINE
  8
0
 10
119.374
 20
182.996
 11
119.626
 21
182.996
  0
LINE
  8
0
 10
119.626
 20
182.996
 11
119.875
 21
182.965
  0
LINE
  8
0
 10
119.875
 20
182.965
 11
120.118
 21
182.902
  0
LINE
  8
0
 10
120.118
 20
182.902
 11
120.352
 21
182.81
  0
LINE
  8
0
 10
120.352
 20
182.81
 11
120.572
 21
182.689
  0
LINE
  8
0
 10
120.572
 20
182.689
 11
120.775
 21
182.541
  0
LINE
  8
0
 10
120.775
 20
182.541
 11
120.958
 21
182.369
  0
LINE
  8
0
 10
120.958
 20
182.369
 11
121.118
 21
182.176
  0
LINE
  8
0
 10
121.118
 20
182.176
 11
121.253
 21
181.964
  0
LINE
  8
0
 10
121.253
 20
181.964
 11
121.36
 21
181.736
  0
LINE
  8
0
 10
121.36
 20
181.736
 11
121.437
 21
181.497
  0
LINE
  8
0
 10
121.437
 20
181.497
 11
121.484
 21
181.251
  0
LINE
  8
0
 10
121.484
 20
181.251
 11
121.5
 21
181
  0
LINE
  8
0
 10
121.5
 20
181
 11
121.484
 21
180.749
  0
LINE
  8
0
 10
121.484
 20
180.749
 11
121.437
 21
180.503
  0
LINE
  8
0
 10
121.437
 20
180.503
 11
121.36
 21
180.264
  0
LINE
  8
0
 10
121.36
 20
180.264
 11
121.253
 21
180.036
  0
LINE
  8
0
 10
121.253
 20
180.036
 11
121.118
 21
179.824
  0
LINE
  8
0
 10
121.118
 20
179.824
 11
120.958
 21
179.631
  0
LINE
  8
0
 10
120.958
 20
179.631
 11
120.775
 21
179.459
  0
LINE
  8
0
 10
120.775
 20
179.459
 11
120.572
 21
179.311
  0
LINE
  8
0
 10
120.572
 20
179.311
 11
120.352
 21
179.19
  0
LINE
  8
0
 10
120.352
 20
179.19
 11
120.118
 21
179.098
  0
LINE
  8
0
 10
120.118
 20
179.098
 11
119.875
 21
179.035
  0
LINE
  8
0
 10
119.875
 20
179.035
 11
119.626
 21
179.004
  0
LINE
  8
0
 10
119.626
 20
179.004
 11
119.374
 21
179.004
  0
LINE
  8
0
 10
11.8744
 20
179.004
 11
11.6252
 21
179.035
  0
LINE
  8
0
 10
11.6252
 20
179.035
 11
11.382
 21
179.098
  0
LINE
  8
0
 10
11.382
 20
179.098
 11
11.1484
 21
179.19
  0
LINE
  8
0
 10
11.1484
 20
179.19
 11
10.9283
 21
179.311
  0
LINE
  8
0
 10
10.9283
 20
179.311
 11
10.7251
 21
179.459
  0
LINE
  8
0
 10
10.7251
 20
179.459
 11
10.5421
 21
179.631
  0
LINE
  8
0
 10
10.5421
 20
179.631
 11
10.382
 21
179.824
  0
LINE
  8
0
 10
10.382
 20
179.824
 11
10.2474
 21
180.036
  0
LINE
  8
0
 10
10.2474
 20
180.036
 11
10.1404
 21
180.264
  0
LINE
  8
0
 10
10.1404
 20
180.264
 11
10.0628
 21
180.503
  0
LINE
  8
0
 10
10.0628
 20
180.503
 11
10.0158
 21
180.749
  0
LINE
  8
0
 10
10.0158
 20
180.749
 11
10
 21
181
  0
LINE
  8
0
 10
10
 20
181
 11
10.0158
 21
181.251
  0
LINE
  8
0
 10
10.0158
 20
181.251
 11
10.0628
 21
181.497
  0
LINE
  8
0
 10
10.0628
 20
181.497
 11
10.1404
 21
181.736
  0
LINE
  8
0
 10
10.1404
 20
181.736
 11
10.2474
 21
181.964
  0
LINE
  8
0
 10
10.2474
 20
181.964
 11
10.382
 21
182.176
  0
LINE
  8
0
 10
10.382
 20
182.176
 11
10.5421
 21
182.369
  0
LINE
  8
0
 10
10.5421
 20
182.369
 11
10.7251
 21
182.541
  0
LINE
  8
0
 10
10.7251
 20
182.541
 11
10.9283
 21
182.689
  0
LINE
  8
0
 10
10.9283
 20
182.689
 11
11.1484
 21
182.81
  0
LINE
  8
0
 10
11.1484
 20
182.81
 11
11.382
 21
182.902
  0
LINE
  8
0
 10
11.382
 20
182.902
 11
11.6252
 21
182.965
  0
LINE
  8
0
 10
11.6252
 20
182.965
 11
11.8744
 21
182.996
  0
LINE
  8
0
 10
11.8744
 20
182.996
 11
12.1256
 21
182.996
  0
LINE
  8
0
 10
12.1256
 20
182.996
 11
12.3748
 21
182.965
  0
LINE
  8
0
 10
12.3748
 20
182.965
 11
12.618
 21
182.902
  0
LINE
  8
0
 10
12.618
 20
182.902
 11
12.8515
 21
182.81
  0
LINE
  8
0
 10
12.8515
 20
182.81
 11
13.0716
 21
182.689
  0
LINE
  8
0
 10
13.0716
 20
182.689
 11
13.2748
 21
182.541
  0
LINE
  8
0
 10
13.2748
 20
182.541
 11
13.4579
 21
182.369
  0
LINE
  8
0
 10
13.4579
 20
182.369
 11
13.618
 21
182.176
  0
LINE
  8
0
 10
13.618
 20
182.176
 11
13.7526
 21
181.964
  0
LINE
  8
0
 10
13.7526
 20
181.964
 11
13.8595
 21
181.736
  0
LINE
  8
0
 10
13.8595
 20
181.736
 11
13.9372
 21
181.497
  0
LINE
  8
0
 10
13.9372
 20
181.497
 11
13.9842
 21
181.251
  0
LINE
  8
0
 10
13.9842
 20
181.251
 11
14
 21
181
  0
LINE
  8
0
 10
14
 20
181
 11
13.9842
 21
180.749
  0
LINE
  8
0
 10
13.9842
 20
180.749
 11
13.9372
 21
180.503
  0
LINE
  8
0
 10
13.9372
 20
180.503
 11
13.8595
 21
180.264
  0
LINE
  8
0
 10
13.8595
 20
180.264
 11
13.7526
 21
180.036
  0
LINE
  8
0
 10
13.7526
 20
180.036
 11
13.618
 21
179.824
  0
LINE
  8
0
 10
13.618
 20
179.824
 11
13.4579
 21
179.631
  0
LINE
  8
0
 10
13.4579
 20
179.631
 11
13.2748
 21
179.459
  0
LINE
  8
0
 10
13.2748
 20
179.459
 11
13.0716
 21
179.311
  0
LINE
  8
0
 10
13.0716
 20
179.311
 11
12.8515
 21
179.19
  0
LINE
  8
0
 10
12.8515
 20
179.19
 11
12.618
 21
179.098
  0
LINE
  8
0
 10
12.618
 20
179.098
 11
12.3748
 21
179.035
  0
LINE
  8
0
 10
12.3748
 20
179.035
 11
12.1256
 21
179.004
  0
LINE
  8
0
 10
12.1256
 20
179.004
 11
11.8744
 21
179.004
  0
LINE
  8
0
 10
3
 20
154
 11
3
 21
179
  0
LINE
  8
0
 10
3
 20
179
 11
6
 21
179
  0
LINE
  8
0
 10
6
 20
179
 11
6
 21
154
  0
LINE
  8
0
 10
6
 20
154
 11
3
 21
154
  0
LINE
  8
0
 10
233
 20
154
 11
233
 21
179
  0
LINE
  8
0
 10
233
 20
179
 11
236
 21
179
  0
LINE
  8
0
 10
236
 20
179
 11
236
 21
154
  0
LINE
  8
0
 10
236
 20
154
 11
233
 21
154
  0
LINE
  8
0
 10
233
 20
113
 11
233
 21
138
  0
LINE
  8
0
 10
233
 20
138
 11
236
 21
138
  0
LINE
  8
0
 10
236
 20
138
 11
236
 21
113
  0
LINE
  8
0
 10
236
 20
113
 11
233
 21
113
  0
LINE
  8
0
 10
3
 20
113
 11
3
 21
138
  0
LINE
  8
0
 10
3
 20
138
 11
6
 21
138
  0
LINE
  8
0
 10
6
 20
138
 11
6
 21
113
  0
LINE
  8
0
 10
6
 20
113
 11
3
 21
113
  0
LINE
  8
0
 10
119.374
 20
109.004
 11
119.125
 21
109.035
  0
LINE
  8
0
 10
119.125
 20
109.035
 11
118.882
 21
109.098
  0
LINE
  8
0
 10
118.882
 20
109.098
 11
118.648
 21
109.19
  0
LINE
  8
0
 10
118.648
 20
109.19
 11
118.428
 21
109.311
  0
LINE
  8
0
 10
118.428
 20
109.311
 11
118.225
 21
109.459
  0
LINE
  8
0
 10
118.225
 20
109.459
 11
118.042
 21
109.631
  0
LINE
  8
0
 10
118.042
 20
109.631
 11
117.882
 21
109.824
  0
LINE
  8
0
 10
117.882
 20
109.824
 11
117.747
 21
110.036
  0
LINE
  8
0
 10
117.747
 20
110.036
 11
117.64
 21
110.264
  0
LINE
  8
0
 10
117.64
 20
110.264
 11
117.563
 21
110.503
  0
LINE
  8
0
 10
117.563
 20
110.503
 11
117.516
 21
110.749
  0
LINE
  8
0
 10
117.516
 20
110.749
 11
117.5
 21
111
  0
LINE
  8
0
 10
117.5
 20
111
 11
117.516
 21
111.251
  0
LINE
  8
0
 10
117.516
 20
111.251
 11
117.563
 21
111.497
  0
LINE
  8
0
 10
117.563
 20
111.497
 11
117.64
 21
111.736
  0
LINE
  8
0
 10
117.64
 20
111.736
 11
117.747
 21
111.964
  0
LINE
  8
0
 10
117.747
 20
111.964
 11
117.882
 21
112.176
  0
LINE
  8
0
 10
117.882
 20
112.176
 11
118.042
 21
112.369
  0
LINE
  8
0
 10
118.042
 20
112.369
 11
118.225
 21
112.541
  0
LINE
  8
0
 10
118.225
 20
112.541
 11
118.428
 21
112.689
  0
LINE
  8
0
 10
118.428
 20
112.689
 11
118.648
 21
112.81
  0
LINE
  8
0
 10
118.648
 20
112.81
 11
118.882
 21
112.902
  0
LINE
  8
0
 10
118.882
 20
112.902
 11
119.125
 21
112.965
  0
LINE
  8
0
 10
119.125
 20
112.965
 11
119.374
 21
112.996
  0
LINE
  8
0
 10
119.374
 20
112.996
 11
119.626
 21
112.996
  0
LINE
  8
0
 10
119.626
 20
112.996
 11
119.875
 21
112.965
  0
LINE
  8
0
 10
119.875
 20
112.965
 11
120.118
 21
112.902
  0
LINE
  8
0
 10
120.118
 20
112.902
 11
120.352
 21
112.81
  0
LINE
  8
0
 10
120.352
 20
112.81
 11
120.572
 21
112.689
  0
LINE
  8
0
 10
120.572
 20
112.689
 11
120.775
 21
112.541
  0
LINE
  8
0
 10
120.775
 20
112.541
 11
120.958
 21
112.369
  0
LINE
  8
0
 10
120.958
 20
112.369
 11
121.118
 21
112.176
  0
LINE
  8
0
 10
121.118
 20
112.176
 11
121.253
 21
111.964
  0
LINE
  8
0
 10
121.253
 20
111.964
 11
121.36
 21
111.736
  0
LINE
  8
0
 10
121.36
 20
111.736
 11
121.437
 21
111.497
  0
LINE
  8
0
 10
121.437
 20
111.497
 11
121.484
 21
111.251
  0
LINE
  8
0
 10
121.484
 20
111.251
 11
121.5
 21
111
  0
LINE
  8
0
 10
121.5
 20
111
 11
121.484
 21
110.749
  0
LINE
  8
0
 10
121.484
 20
110.749
 11
121.437
 21
110.503
  0
LINE
  8
0
 10
121.437
 20
110.503
 11
121.36
 21
110.264
  0
LINE
  8
0
 10
121.36
 20
110.264
 11
121.253
 21
110.036
  0
LINE
  8
0
 10
121.253
 20
110.036
 11
121.118
 21
109.824
  0
LINE
  8
0
 10
121.118
 20
109.824
 11
120.958
 21
109.631
  0
LINE
  8
0
 10
120.958
 20
109.631
 11
120.775
 21
109.459
  0
LINE
  8
0
 10
120.775
 20
109.459
 11
120.572
 21
109.311
  0
LINE
  8
0
 10
120.572
 20
109.311
 11
120.352
 21
109.19
  0
LINE
  8
0
 10
120.352
 20
109.19
 11
120.118
 21
109.098
  0
LINE
  8
0
 10
120.118
 20
109.098
 11
119.875
 21
109.035
  0
LINE
  8
0
 10
119.875
 20
109.035
 11
119.626
 21
109.004
  0
LINE
  8
0
 10
119.626
 20
109.004
 11
119.374
 21
109.004
  0
LINE
  8
0
 10
11.8744
 20
109.004
 11
11.6252
 21
109.035
  0
LINE
  8
0
 10
11.6252
 20
109.035
 11
11.382
 21
109.098
  0
LINE
  8
0
 10
11.382
 20
109.098
 11
11.1484
 21
109.19
  0
LINE
  8
0
 10
11.1484
 20
109.19
 11
10.9283
 21
109.311
  0
LINE
  8
0
 10
10.9283
 20
109.311
 11
10.7251
 21
109.459
  0
LINE
  8
0
 10
10.7251
 20
109.459
 11
10.5421
 21
109.631
  0
LINE
  8
0
 10
10.5421
 20
109.631
 11
10.382
 21
109.824
  0
LINE
  8
0
 10
10.382
 20
109.824
 11
10.2474
 21
110.036
  0
LINE
  8
0
 10
10.2474
 20
110.036
 11
10.1404
 21
110.264
  0
LINE
  8
0
 10
10.1404
 20
110.264
 11
10.0628
 21
110.503
  0
LINE
  8
0
 10
10.0628
 20
110.503
 11
10.0158
 21
110.749
  0
LINE
  8
0
 10
10.0158
 20
110.749
 11
10
 21
111
  0
LINE
  8
0
 10
10
 20
111
 11
10.0158
 21
111.251
  0
LINE
  8
0
 10
10.0158
 20
111.251
 11
10.0628
 21
111.497
  0
LINE
  8
0
 10
10.0628
 20
111.497
 11
10.1404
 21
111.736
  0
LINE
  8
0
 10
10.1404
 20
111.736
 11
10.2474
 21
111.964
  0
LINE
  8
0
 10
10.2474
 20
111.964
 11
10.382
 21
112.176
  0
LINE
  8
0
 10
10.382
 20
112.176
 11
10.5421
 21
112.369
  0
LINE
  8
0
 10
10.5421
 20
112.369
 11
10.7251
 21
112.541
  0
LINE
  8
0
 10
10.7251
 20
112.541
 11
10.9283
 21
112.689
  0
LINE
  8
0
 10
10.9283
 20
112.689
 11
11.1484
 21
112.81
  0
LINE
  8
0
 10
11.1484
 20
112.81
 11
11.382
 21
112.902
  0
LINE
  8
0
 10
11.382
 20
112.902
 11
11.6252
 21
112.965
  0
LINE
  8
0
 10
11.6252
 20
112.965
 11
11.8744
 21
112.996
  0
LINE
  8
0
 10
11.8744
 20
112.996
 11
12.1256
 21
112.996
  0
LINE
  8
0
 10
12.1256
 20
112.996
 11
12.3748
 21
112.965
  0
LINE
  8
0
 10
12.3748
 20
112.965
 11
12.618
 21
112.902
  0
LINE
  8
0
 10
12.618
 20
112.902
 11
12.8515
 21
112.81
  0
LINE
  8
0
 10
12.8515
 20
112.81
 11
13.0716
 21
112.689
  0
LINE
  8
0
 10
13.0716
 20
112.689
 11
13.2748
 21
112.541
  0
LINE
  8
0
 10
13.2748
 20
112.541
 11
13.4579
 21
112.369
  0
LINE
  8
0
 10
13.4579
 20
112.369
 11
13.618
 21
112.176
  0
LINE
  8
0
 10
13.618
 20
112.176
 11
13.7526
 21
111.964
  0
LINE
  8
0
 10
13.7526
 20
111.964
 11
13.8595
 21
111.736
  0
LINE
  8
0
 10
13.8595
 20
111.736
 11
13.9372
 21
111.497
  0
LINE
  8
0
 10
13.9372
 20
111.497
 11
13.9842
 21
111.251
  0
LINE
  8
0
 10
13.9842
 20
111.251
 11
14
 21
111
  0
LINE
  8
0
 10
14
 20
111
 11
13.9842
 21
110.749
  0
LINE
  8
0
 10
13.9842
 20
110.749
 11
13.9372
 21
110.503
  0
LINE
  8
0
 10
13.9372
 20
110.503
 11
13.8595
 21
110.264
  0
LINE
  8
0
 10
13.8595
 20
110.264
 11
13.7526
 21
110.036
  0
LINE
  8
0
 10
13.7526
 20
110.036
 11
13.618
 21
109.824
  0
LINE
  8
0
 10
13.618
 20
109.824
 11
13.4579
 21
109.631
  0
LINE
  8
0
 10
13.4579
 20
109.631
 11
13.2748
 21
109.459
  0
LINE
  8
0
 10
13.2748
 20
109.459
 11
13.0716
 21
109.311
  0
LINE
  8
0
 10
13.0716
 20
109.311
 11
12.8515
 21
109.19
  0
LINE
  8
0
 10
12.8515
 20
109.19
 11
12.618
 21
109.098
  0
LINE
  8
0
 10
12.618
 20
109.098
 11
12.3748
 21
109.035
  0
LINE
  8
0
 10
12.3748
 20
109.035
 11
12.1256
 21
109.004
  0
LINE
  8
0
 10
12.1256
 20
109.004
 11
11.8744
 21
109.004
  0
LINE
  8
0
 10
226.874
 20
109.004
 11
226.625
 21
109.035
  0
LINE
  8
0
 10
226.625
 20
109.035
 11
226.382
 21
109.098
  0
LINE
  8
0
 10
226.382
 20
109.098
 11
226.148
 21
109.19
  0
LINE
  8
0
 10
226.148
 20
109.19
 11
225.928
 21
109.311
  0
LINE
  8
0
 10
225.928
 20
109.311
 11
225.725
 21
109.459
  0
LINE
  8
0
 10
225.725
 20
109.459
 11
225.542
 21
109.631
  0
LINE
  8
0
 10
225.542
 20
109.631
 11
225.382
 21
109.824
  0
LINE
  8
0
 10
225.382
 20
109.824
 11
225.247
 21
110.036
  0
LINE
  8
0
 10
225.247
 20
110.036
 11
225.14
 21
110.264
  0
LINE
  8
0
 10
225.14
 20
110.264
 11
225.063
 21
110.503
  0
LINE
  8
0
 10
225.063
 20
110.503
 11
225.016
 21
110.749
  0
LINE
  8
0
 10
225.016
 20
110.749
 11
225
 21
111
  0
LINE
  8
0
 10
225
 20
111
 11
225.016
 21
111.251
  0
LINE
  8
0
 10
225.016
 20
111.251
 11
225.063
 21
111.497
  0
LINE
  8
0
 10
225.063
 20
111.497
 11
225.14
 21
111.736
  0
LINE
  8
0
 10
225.14
 20
111.736
 11
225.247
 21
111.964
  0
LINE
  8
0
 10
225.247
 20
111.964
 11
225.382
 21
112.176
  0
LINE
  8
0
 10
225.382
 20
112.176
 11
225.542
 21
112.369
  0
LINE
  8
0
 10
225.542
 20
112.369
 11
225.725
 21
112.541
  0
LINE
  8
0
 10
225.725
 20
112.541
 11
225.928
 21
112.689
  0
LINE
  8
0
 10
225.928
 20
112.689
 11
226.148
 21
112.81
  0
LINE
  8
0
 10
226.148
 20
112.81
 11
226.382
 21
112.902
  0
LINE
  8
0
 10
226.382
 20
112.902
 11
226.625
 21
112.965
  0
LINE
  8
0
 10
226.625
 20
112.965
 11
226.874
 21
112.996
  0
LINE
  8
0
 10
226.874
 20
112.996
 11
227.126
 21
112.996
  0
LINE
  8
0
 10
227.126
 20
112.996
 11
227.375
 21
112.965
  0
LINE
  8
0
 10
227.375
 20
112.965
 11
227.618
 21
112.902
  0
LINE
  8
0
 10
227.618
 20
112.902
 11
227.852
 21
112.81
  0
LINE
  8
0
 10
227.852
 20
112.81
 11
228.072
 21
112.689
  0
LINE
  8
0
 10
228.072
 20
112.689
 11
228.275
 21
112.541
  0
LINE
  8
0
 10
228.275
 20
112.541
 11
228.458
 21
112.369
  0
LINE
  8
0
 10
228.458
 20
112.369
 11
228.618
 21
112.176
  0
LINE
  8
0
 10
228.618
 20
112.176
 11
228.753
 21
111.964
  0
LINE
  8
0
 10
228.753
 20
111.964
 11
228.86
 21
111.736
  0
LINE
  8
0
 10
228.86
 20
111.736
 11
228.937
 21
111.497
  0
LINE
  8
0
 10
228.937
 20
111.497
 11
228.984
 21
111.251
  0
LINE
  8
0
 10
228.984
 20
111.251
 11
229
 21
111
  0
LINE
  8
0
 10
229
 20
111
 11
228.984
 21
110.749
  0
LINE
  8
0
 10
228.984
 20
110.749
 11
228.937
 21
110.503
  0
LINE
  8
0
 10
228.937
 20
110.503
 11
228.86
 21
110.264
  0
LINE
  8
0
 10
228.86
 20
110.264
 11
228.753
 21
110.036
  0
LINE
  8
0
 10
228.753
 20
110.036
 11
228.618
 21
109.824
  0
LINE
  8
0
 10
228.618
 20
109.824
 11
228.458
 21
109.631
  0
LINE
  8
0
 10
228.458
 20
109.631
 11
228.275
 21
109.459
  0
LINE
  8
0
 10
228.275
 20
109.459
 11
228.072
 21
109.311
  0
LINE
  8
0
 10
228.072
 20
109.311
 11
227.852
 21
109.19
  0
LINE
  8
0
 10
227.852
 20
109.19
 11
227.618
 21
109.098
  0
LINE
  8
0
 10
227.618
 20
109.098
 11
227.375
 21
109.035
  0
LINE
  8
0
 10
227.375
 20
109.035
 11
227.126
 21
109.004
  0
LINE
  8
0
 10
227.126
 20
109.004
 11
226.874
 21
109.004
  0
LINE
  8
0
 10
51.25
 20
102
 11
51.25
 21
105
  0
LINE
  8
0
 10
51.25
 20
105
 11
71.25
 21
105
  0
LINE
  8
0
 10
71.25
 20
105
 11
71.25
 21
102
  0
LINE
  8
0
 10
71.25
 20
102
 11
51.25
 21
102
  0
LINE
  8
0
 10
167.75
 20
102
 11
167.75
 21
105
  0
LINE
  8
0
 10
167.75
 20
105
 11
187.75
 21
105
  0
LINE
  8
0
 10
187.75
 20
105
 11
187.75
 21
102
  0
LINE
  8
0
 10
187.75
 20
102
 11
167.75
 21
102
  0
LINE
  8
0
 10
206.583
 20
102
 11
206.583
 21
105
  0
LINE
  8
0
 10
206.583
 20
105
 11
226.583
 21
105
  0
LINE
  8
0
 10
226.583
 20
105
 11
226.583
 21
102
  0
LINE
  8
0
 10
226.583
 20
102
 11
206.583
 21
102
  0
LINE
  8
0
 10
90.0833
 20
102
 11
90.0833
 21
105
  0
LINE
  8
0
 10
90.0833
 20
105
 11
110.083
 21
105
  0
LINE
  8
0
 10
110.083
 20
105
 11
110.083
 21
102
  0
LINE
  8
0
 10
110.083
 20
102
 11
90.0833
 21
102
  0
LINE
  8
0
 10
12.4167
 20
102
 11
12.4167
 21
105
  0
LINE
  8
0
 10
12.4167
 20
105
 11
32.4167
 21
105
  0
LINE
  8
0
 10
32.4167
 20
105
 11
32.4167
 21
102
  0
LINE
  8
0
 10
32.4167
 20
102
 11
12.4167
 21
102
  0
LINE
  8
0
 10
128.917
 20
102
 11
128.917
 21
105
  0
LINE
  8
0
 10
128.917
 20
105
 11
148.917
 21
105
  0
LINE
  8
0
 10
148.917
 20
105
 11
148.917
 21
102
  0
LINE
  8
0
 10
148.917
 20
102
 11
128.917
 21
102
  0
LINE
  8
0
 10
238.062
 20
-1.44685
 11
238.427
 21
-1.35316
  0
LINE
  8
0
 10
238.427
 20
-1.35316
 11
238.777
 21
-1.21448
  0
LINE
  8
0
 10
238.777
 20
-1.21448
 11
239.107
 21
-1.03297
  0
LINE
  8
0
 10
239.107
 20
-1.03297
 11
239.412
 21
-0.811539
  0
LINE
  8
0
 10
239.412
 20
-0.811539
 11
239.687
 21
-0.553635
  0
LINE
  8
0
 10
239.687
 20
-0.553635
 11
239.927
 21
-0.263351
  0
LINE
  8
0
 10
239.927
 20
-0.263351
 11
240.129
 21
0.0547333
  0
LINE
  8
0
 10
240.129
 20
0.0547333
 11
240.289
 21
0.395615
  0
LINE
  8
0
 10
240.289
 20
0.395615
 11
240.406
 21
0.753922
  0
LINE
  8
0
 10
240.406
 20
0.753922
 11
240.476
 21
1.12399
  0
LINE
  8
0
 10
240.476
 20
1.12399
 11
240.5
 21
1.5
  0
LINE
  8
0
 10
240.5
 20
1.5
 11
240.5
 21
92.5
  0
LINE
  8
0
 10
240.5
 20
92.5
 11
240.476
 21
92.876
  0
LINE
  8
0
 10
240.476
 20
92.876
 11
240.406
 21
93.2461
  0
LINE
  8
0
 10
240.406
 20
93.2461
 11
240.289
 21
93.6044
  0
LINE
  8
0
 10
240.289
 20
93.6044
 11
240.129
 21
93.9453
  0
LINE
  8
0
 10
240.129
 20
93.9453
 11
239.927
 21
94.2634
  0
LINE
  8
0
 10
239.927
 20
94.2634
 11
239.687
 21
94.5536
  0
LINE
  8
0
 10
239.687
 20
94.5536
 11
239.412
 21
94.8115
  0
LINE
  8
0
 10
239.412
 20
94.8115
 11
239.107
 21
95.033
  0
LINE
  8
0
 10
239.107
 20
95.033
 11
238.777
 21
95.2145
  0
LINE
  8
0
 10
238.777
 20
95.2145
 11
238.427
 21
95.3532
  0
LINE
  8
0
 10
238.427
 20
95.3532
 11
238.062
 21
95.4469
  0
LINE
  8
0
 10
238.062
 20
95.4469
 11
237.688
 21
95.4941
  0
LINE
  8
0
 10
237.688
 20
95.4941
 11
1.31161
 21
95.4941
  0
LINE
  8
0
 10
1.31161
 20
95.4941
 11
0.937851
 21
95.4469
  0
LINE
  8
0
 10
0.937851
 20
95.4469
 11
0.572937
 21
95.3532
  0
LINE
  8
0
 10
0.572937
 20
95.3532
 11
0.222656
 21
95.2145
  0
LINE
  8
0
 10
0.222656
 20
95.2145
 11
-0.107468
 21
95.033
  0
LINE
  8
0
 10
-0.107468
 20
95.033
 11
-0.412262
 21
94.8115
  0
LINE
  8
0
 10
-0.412262
 20
94.8115
 11
-0.686905
 21
94.5536
  0
LINE
  8
0
 10
-0.686905
 20
94.5536
 11
-0.927048
 21
94.2634
  0
LINE
  8
0
 10
-0.927048
 20
94.2634
 11
-1.12891
 21
93.9453
  0
LINE
  8
0
 10
-1.12891
 20
93.9453
 11
-1.28932
 21
93.6044
  0
LINE
  8
0
 10
-1.28932
 20
93.6044
 11
-1.40575
 21
93.2461
  0
LINE
  8
0
 10
-1.40575
 20
93.2461
 11
-1.47633
 21
92.876
  0
LINE
  8
0
 10
-1.47633
 20
92.876
 11
-1.5
 21
92.5
  0
LINE
  8
0
 10
-1.5
 20
92.5
 11
-1.5
 21
1.5
  0
LINE
  8
0
 10
-1.5
 20
1.5
 11
-1.47633
 21
1.12399
  0
LINE
  8
0
 10
-1.47633
 20
1.12399
 11
-1.40575
 21
0.753922
  0
LINE
  8
0
 10
-1.40575
 20
0.753922
 11
-1.28932
 21
0.395615
  0
LINE
  8
0
 10
-1.28932
 20
0.395615
 11
-1.12891
 21
0.0547333
  0
LINE
  8
0
 10
-1.12891
 20
0.0547333
 11
-0.927048
 21
-0.263351
  0
LINE
  8
0
 10
-0.927048
 20
-0.263351
 11
-0.686905
 21
-0.553635
  0
LINE
  8
0
 10
-0.686905
 20
-0.553635
 11
-0.412262
 21
-0.811539
  0
LINE
  8
0
 10
-0.412262
 20
-0.811539
 11
-0.107468
 21
-1.03297
  0
LINE
  8
0
 10
-0.107468
 20
-1.03297
 11
0.222656
 21
-1.21448
  0
LINE
  8
0
 10
0.222656
 20
-1.21448
 11
0.572937
 21
-1.35316
  0
LINE
  8
0
 10
0.572937
 20
-1.35316
 11
0.937851
 21
-1.44685
  0
LINE
  8
0
 10
0.937851
 20
-1.44685
 11
1.31161
 21
-1.49408
  0
LINE
  8
0
 10
1.31161
 20
-1.49408
 11
237.688
 21
-1.49408
  0
LINE
  8
0
 10
237.688
 20
-1.49408
 11
238.062
 21
-1.44685
  0
LINE
  8
0
 10
206.583
 20
88
 11
206.583
 21
91
  0
LINE
  8
0
 10
206.583
 20
91
 11
226.583
 21
91
  0
LINE
  8
0
 10
226.583
 20
91
 11
226.583
 21
88
  0
LINE
  8
0
 10
226.583
 20
88
 11
206.583
 21
88
  0
LINE
  8
0
 10
167.75
 20
88
 11
167.75
 21
91
  0
LINE
  8
0
 10
167.75
 20
91
 11
187.75
 21
91
  0
LINE
  8
0
 10
187.75
 20
91
 11
187.75
 21
88
  0
LINE
  8
0
 10
187.75
 20
88
 11
167.75
 21
88
  0
LINE
  8
0
 10
128.917
 20
88
 11
128.917
 21
91
  0
LINE
  8
0
 10
128.917
 20
91
 11
148.917
 21
91
  0
LINE
  8
0
 10
148.917
 20
91
 11
148.917
 21
88
  0
LINE
  8
0
 10
148.917
 20
88
 11
128.917
 21
88
  0
LINE
  8
0
 10
90.0833
 20
88
 11
90.0833
 21
91
  0
LINE
  8
0
 10
90.0833
 20
91
 11
110.083
 21
91
  0
LINE
  8
0
 10
110.083
 20
91
 11
110.083
 21
88
  0
LINE
  8
0
 10
110.083
 20
88
 11
90.0833
 21
88
  0
LINE
  8
0
 10
51.25
 20
88
 11
51.25
 21
91
  0
LINE
  8
0
 10
51.25
 20
91
 11
71.25
 21
91
  0
LINE
  8
0
 10
71.25
 20
91
 11
71.25
 21
88
  0
LINE
  8
0
 10
71.25
 20
88
 11
51.25
 21
88
  0
LINE
  8
0
 10
12.4167
 20
88
 11
12.4167
 21
91
  0
LINE
  8
0
 10
12.4167
 20
91
 11
32.4167
 21
91
  0
LINE
  8
0
 10
32.4167
 20
91
 11
32.4167
 21
88
  0
LINE
  8
0
 10
32.4167
 20
88
 11
12.4167
 21
88
  0
LINE
  8
0
 10
11.8744
 20
80.0039
 11
11.6252
 21
80.0354
  0
LINE
  8
0
 10
11.6252
 20
80.0354
 11
11.382
 21
80.0979
  0
LINE
  8
0
 10
11.382
 20
80.0979
 11
11.1484
 21
80.1903
  0
LINE
  8
0
 10
11.1484
 20
80.1903
 11
10.9283
 21
80.3113
  0
LINE
  8
0
 10
10.9283
 20
80.3113
 11
10.7251
 21
80.459
  0
LINE
  8
0
 10
10.7251
 20
80.459
 11
10.5421
 21
80.6309
  0
LINE
  8
0
 10
10.5421
 20
80.6309
 11
10.382
 21
80.8244
  0
LINE
  8
0
 10
10.382
 20
80.8244
 11
10.2474
 21
81.0365
  0
LINE
  8
0
 10
10.2474
 20
81.0365
 11
10.1404
 21
81.2637
  0
LINE
  8
0
 10
10.1404
 20
81.2637
 11
10.0628
 21
81.5026
  0
LINE
  8
0
 10
10.0628
 20
81.5026
 11
10.0158
 21
81.7493
  0
LINE
  8
0
 10
10.0158
 20
81.7493
 11
10
 21
82
  0
LINE
  8
0
 10
10
 20
82
 11
10.0158
 21
82.2507
  0
LINE
  8
0
 10
10.0158
 20
82.2507
 11
10.0628
 21
82.4974
  0
LINE
  8
0
 10
10.0628
 20
82.4974
 11
10.1404
 21
82.7362
  0
LINE
  8
0
 10
10.1404
 20
82.7362
 11
10.2474
 21
82.9635
  0
LINE
  8
0
 10
10.2474
 20
82.9635
 11
10.382
 21
83.1756
  0
LINE
  8
0
 10
10.382
 20
83.1756
 11
10.5421
 21
83.3691
  0
LINE
  8
0
 10
10.5421
 20
83.3691
 11
10.7251
 21
83.541
  0
LINE
  8
0
 10
10.7251
 20
83.541
 11
10.9283
 21
83.6886
  0
LINE
  8
0
 10
10.9283
 20
83.6886
 11
11.1484
 21
83.8096
  0
LINE
  8
0
 10
11.1484
 20
83.8096
 11
11.382
 21
83.9021
  0
LINE
  8
0
 10
11.382
 20
83.9021
 11
11.6252
 21
83.9646
  0
LINE
  8
0
 10
11.6252
 20
83.9646
 11
11.8744
 21
83.996
  0
LINE
  8
0
 10
11.8744
 20
83.996
 11
12.1256
 21
83.996
  0
LINE
  8
0
 10
12.1256
 20
83.996
 11
12.3748
 21
83.9646
  0
LINE
  8
0
 10
12.3748
 20
83.9646
 11
12.618
 21
83.9021
  0
LINE
  8
0
 10
12.618
 20
83.9021
 11
12.8515
 21
83.8096
  0
LINE
  8
0
 10
12.8515
 20
83.8096
 11
13.0716
 21
83.6886
  0
LINE
  8
0
 10
13.0716
 20
83.6886
 11
13.2748
 21
83.541
  0
LINE
  8
0
 10
13.2748
 20
83.541
 11
13.4579
 21
83.3691
  0
LINE
  8
0
 10
13.4579
 20
83.3691
 11
13.618
 21
83.1756
  0
LINE
  8
0
 10
13.618
 20
83.1756
 11
13.7526
 21
82.9635
  0
LINE
  8
0
 10
13.7526
 20
82.9635
 11
13.8595
 21
82.7362
  0
LINE
  8
0
 10
13.8595
 20
82.7362
 11
13.9372
 21
82.4974
  0
LINE
  8
0
 10
13.9372
 20
82.4974
 11
13.9842
 21
82.2507
  0
LINE
  8
0
 10
13.9842
 20
82.2507
 11
14
 21
82
  0
LINE
  8
0
 10
14
 20
82
 11
13.9842
 21
81.7493
  0
LINE
  8
0
 10
13.9842
 20
81.7493
 11
13.9372
 21
81.5026
  0
LINE
  8
0
 10
13.9372
 20
81.5026
 11
13.8595
 21
81.2637
  0
LINE
  8
0
 10
13.8595
 20
81.2637
 11
13.7526
 21
81.0365
  0
LINE
  8
0
 10
13.7526
 20
81.0365
 11
13.618
 21
80.8244
  0
LINE
  8
0
 10
13.618
 20
80.8244
 11
13.4579
 21
80.6309
  0
LINE
  8
0
 10
13.4579
 20
80.6309
 11
13.2748
 21
80.459
  0
LINE
  8
0
 10
13.2748
 20
80.459
 11
13.0716
 21
80.3113
  0
LINE
  8
0
 10
13.0716
 20
80.3113
 11
12.8515
 21
80.1903
  0
LINE
  8
0
 10
12.8515
 20
80.1903
 11
12.618
 21
80.0979
  0
LINE
  8
0
 10
12.618
 20
80.0979
 11
12.3748
 21
80.0354
  0
LINE
  8
0
 10
12.3748
 20
80.0354
 11
12.1256
 21
80.0039
  0
LINE
  8
0
 10
12.1256
 20
80.0039
 11
11.8744
 21
80.0039
  0
LINE
  8
0
 10
226.874
 20
80.0039
 11
226.625
 21
80.0354
  0
LINE
  8
0
 10
226.625
 20
80.0354
 11
226.382
 21
80.0979
  0
LINE
  8
0
 10
226.382
 20
80.0979
 11
226.148
 21
80.1903
  0
LINE
  8
0
 10
226.148
 20
80.1903
 11
225.928
 21
80.3113
  0
LINE
  8
0
 10
225.928
 20
80.3113
 11
225.725
 21
80.459
  0
LINE
  8
0
 10
225.725
 20
80.459
 11
225.542
 21
80.6309
  0
LINE
  8
0
 10
225.542
 20
80.6309
 11
225.382
 21
80.8244
  0
LINE
  8
0
 10
225.382
 20
80.8244
 11
225.247
 21
81.0365
  0
LINE
  8
0
 10
225.247
 20
81.0365
 11
225.14
 21
81.2637
  0
LINE
  8
0
 10
225.14
 20
81.2637
 11
225.063
 21
81.5026
  0
LINE
  8
0
 10
225.063
 20
81.5026
 11
225.016
 21
81.7493
  0
LINE
  8
0
 10
225.016
 20
81.7493
 11
225
 21
82
  0
LINE
  8
0
 10
225
 20
82
 11
225.016
 21
82.2507
  0
LINE
  8
0
 10
225.016
 20
82.2507
 11
225.063
 21
82.4974
  0
LINE
  8
0
 10
225.063
 20
82.4974
 11
225.14
 21
82.7362
  0
LINE
  8
0
 10
225.14
 20
82.7362
 11
225.247
 21
82.9635
  0
LINE
  8
0
 10
225.247
 20
82.9635
 11
225.382
 21
83.1756
  0
LINE
  8
0
 10
225.382
 20
83.1756
 11
225.542
 21
83.3691
  0
LINE
  8
0
 10
225.542
 20
83.3691
 11
225.725
 21
83.541
  0
LINE
  8
0
 10
225.725
 20
83.541
 11
225.928
 21
83.6886
  0
LINE
  8
0
 10
225.928
 20
83.6886
 11
226.148
 21
83.8096
  0
LINE
  8
0
 10
226.148
 20
83.8096
 11
226.382
 21
83.9021
  0
LINE
  8
0
 10
226.382
 20
83.9021
 11
226.625
 21
83.9646
  0
LINE
  8
0
 10
226.625
 20
83.9646
 11
226.874
 21
83.996
  0
LINE
  8
0
 10
226.874
 20
83.996
 11
227.126
 21
83.996
  0
LINE
  8
0
 10
227.126
 20
83.996
 11
227.375
 21
83.9646
  0
LINE
  8
0
 10
227.375
 20
83.9646
 11
227.618
 21
83.9021
  0
LINE
  8
0
 10
227.618
 20
83.9021
 11
227.852
 21
83.8096
  0
LINE
  8
0
 10
227.852
 20
83.8096
 11
228.072
 21
83.6886
  0
LINE
  8
0
 10
228.072
 20
83.6886
 11
228.275
 21
83.541
  0
LINE
  8
0
 10
228.275
 20
83.541
 11
228.458
 21
83.3691
  0
LINE
  8
0
 10
228.458
 20
83.3691
 11
228.618
 21
83.1756
  0
LINE
  8
0
 10
228.618
 20
83.1756
 11
228.753
 21
82.9635
  0
LINE
  8
0
 10
228.753
 20
82.9635
 11
228.86
 21
82.7362
  0
LINE
  8
0
 10
228.86
 20
82.7362
 11
228.937
 21
82.4974
  0
LINE
  8
0
 10
228.937
 20
82.4974
 11
228.984
 21
82.2507
  0
LINE
  8
0
 10
228.984
 20
82.2507
 11
229
 21
82
  0
LINE
  8
0
 10
229
 20
82
 11
228.984
 21
81.7493
  0
LINE
  8
0
 10
228.984
 20
81.7493
 11
228.937
 21
81.5026
  0
LINE
  8
0
 10
228.937
 20
81.5026
 11
228.86
 21
81.2637
  0
LINE
  8
0
 10
228.86
 20
81.2637
 11
228.753
 21
81.0365
  0
LINE
  8
0
 10
228.753
 20
81.0365
 11
228.618
 21
80.8244
  0
LINE
  8
0
 10
228.618
 20
80.8244
 11
228.458
 21
80.6309
  0
LINE
  8
0
 10
228.458
 20
80.6309
 11
228.275
 21
80.459
  0
LINE
  8
0
 10
228.275
 20
80.459
 11
228.072
 21
80.3113
  0
LINE
  8
0
 10
228.072
 20
80.3113
 11
227.852
 21
80.1903
  0
LINE
  8
0
 10
227.852
 20
80.1903
 11
227.618
 21
80.0979
  0
LINE
  8
0
 10
227.618
 20
80.0979
 11
227.375
 21
80.0354
  0
LINE
  8
0
 10
227.375
 20
80.0354
 11
227.126
 21
80.0039
  0
LINE
  8
0
 10
227.126
 20
80.0039
 11
226.874
 21
80.0039
  0
LINE
  8
0
 10
119.374
 20
80.0039
 11
119.125
 21
80.0354
  0
LINE
  8
0
 10
119.125
 20
80.0354
 11
118.882
 21
80.0979
  0
LINE
  8
0
 10
118.882
 20
80.0979
 11
118.648
 21
80.1903
  0
LINE
  8
0
 10
118.648
 20
80.1903
 11
118.428
 21
80.3113
  0
LINE
  8
0
 10
118.428
 20
80.3113
 11
118.225
 21
80.459
  0
LINE
  8
0
 10
118.225
 20
80.459
 11
118.042
 21
80.6309
  0
LINE
  8
0
 10
118.042
 20
80.6309
 11
117.882
 21
80.8244
  0
LINE
  8
0
 10
117.882
 20
80.8244
 11
117.747
 21
81.0365
  0
LINE
  8
0
 10
117.747
 20
81.0365
 11
117.64
 21
81.2637
  0
LINE
  8
0
 10
117.64
 20
81.2637
 11
117.563
 21
81.5026
  0
LINE
  8
0
 10
117.563
 20
81.5026
 11
117.516
 21
81.7493
  0
LINE
  8
0
 10
117.516
 20
81.7493
 11
117.5
 21
82
  0
LINE
  8
0
 10
117.5
 20
82
 11
117.516
 21
82.2507
  0
LINE
  8
0
 10
117.516
 20
82.2507
 11
117.563
 21
82.4974
  0
LINE
  8
0
 10
117.563
 20
82.4974
 11
117.64
 21
82.7362
  0
LINE
  8
0
 10
117.64
 20
82.7362
 11
117.747
 21
82.9635
  0
LINE
  8
0
 10
117.747
 20
82.9635
 11
117.882
 21
83.1756
  0
LINE
  8
0
 10
117.882
 20
83.1756
 11
118.042
 21
83.3691
  0
LINE
  8
0
 10
118.042
 20
83.3691
 11
118.225
 21
83.541
  0
LINE
  8
0
 10
118.225
 20
83.541
 11
118.428
 21
83.6886
  0
LINE
  8
0
 10
118.428
 20
83.6886
 11
118.648
 21
83.8096
  0
LINE
  8
0
 10
118.648
 20
83.8096
 11
118.882
 21
83.9021
  0
LINE
  8
0
 10
118.882
 20
83.9021
 11
119.125
 21
83.9646
  0
LINE
  8
0
 10
119.125
 20
83.9646
 11
119.374
 21
83.996
  0
LINE
  8
0
 10
119.374
 20
83.996
 11
119.626
 21
83.996
  0
LINE
  8
0
 10
119.626
 20
83.996
 11
119.875
 21
83.9646
  0
LINE
  8
0
 10
119.875
 20
83.9646
 11
120.118
 21
83.9021
  0
LINE
  8
0
 10
120.118
 20
83.9021
 11
120.352
 21
83.8096
  0
LINE
  8
0
 10
120.352
 20
83.8096
 11
120.572
 21
83.6886
  0
LINE
  8
0
 10
120.572
 20
83.6886
 11
120.775
 21
83.541
  0
LINE
  8
0
 10
120.775
 20
83.541
 11
120.958
 21
83.3691
  0
LINE
  8
0
 10
120.958
 20
83.3691
 11
121.118
 21
83.1756
  0
LINE
  8
0
 10
121.118
 20
83.1756
 11
121.253
 21
82.9635
  0
LINE
  8
0
 10
121.253
 20
82.9635
 11
121.36
 21
82.7362
  0
LINE
  8
0
 10
121.36
 20
82.7362
 11
121.437
 21
82.4974
  0
LINE
  8
0
 10
121.437
 20
82.4974
 11
121.484
 21
82.2507
  0
LINE
  8
0
 10
121.484
 20
82.2507
 11
121.5
 21
82
  0
LINE
  8
0
 10
121.5
 20
82
 11
121.484
 21
81.7493
  0
LINE
  8
0
 10
121.484
 20
81.7493
 11
121.437
 21
81.5026
  0
LINE
  8
0
 10
121.437
 20
81.5026
 11
121.36
 21
81.2637
  0
LINE
  8
0
 10
121.36
 20
81.2637
 11
121.253
 21
81.0365
  0
LINE
  8
0
 10
121.253
 20
81.0365
 11
121.118
 21
80.8244
  0
LINE
  8
0
 10
121.118
 20
80.8244
 11
120.958
 21
80.6309
  0
LINE
  8
0
 10
120.958
 20
80.6309
 11
120.775
 21
80.459
  0
LINE
  8
0
 10
120.775
 20
80.459
 11
120.572
 21
80.3113
  0
LINE
  8
0
 10
120.572
 20
80.3113
 11
120.352
 21
80.1903
  0
LINE
  8
0
 10
120.352
 20
80.1903
 11
120.118
 21
80.0979
  0
LINE
  8
0
 10
120.118
 20
80.0979
 11
119.875
 21
80.0354
  0
LINE
  8
0
 10
119.875
 20
80.0354
 11
119.626
 21
80.0039
  0
LINE
  8
0
 10
119.626
 20
80.0039
 11
119.374
 21
80.0039
  0
LINE
  8
0
 10
3
 20
55
 11
3
 21
80
  0
LINE
  8
0
 10
3
 20
80
 11
6
 21
80
  0
LINE
  8
0
 10
6
 20
80
 11
6
 21
55
  0
LINE
  8
0
 10
6
 20
55
 11
3
 21
55
  0
LINE
  8
0
 10
233
 20
55
 11
233
 21
80
  0
LINE
  8
0
 10
233
 20
80
 11
236
 21
80
  0
LINE
  8
0
 10
236
 20
80
 11
236
 21
55
  0
LINE
  8
0
 10
236
 20
55
 11
233
 21
55
  0
LINE
  8
0
 10
217.121
 20
34.0257
 11
215.502
 21
34.2303
  0
LINE
  8
0
 10
215.502
 20
34.2303
 11
213.92
 21
34.6363
  0
LINE
  8
0
 10
213.92
 20
34.6363
 11
212.402
 21
35.2372
  0
LINE
  8
0
 10
212.402
 20
35.2372
 11
210.972
 21
36.0237
  0
LINE
  8
0
 10
210.972
 20
36.0237
 11
209.651
 21
36.9833
  0
LINE
  8
0
 10
209.651
 20
36.9833
 11
208.461
 21
38.1009
  0
LINE
  8
0
 10
208.461
 20
38.1009
 11
207.42
 21
39.3588
  0
LINE
  8
0
 10
207.42
 20
39.3588
 11
206.546
 21
40.7372
  0
LINE
  8
0
 10
206.546
 20
40.7372
 11
205.85
 21
42.2144
  0
LINE
  8
0
 10
205.85
 20
42.2144
 11
205.346
 21
43.767
  0
LINE
  8
0
 10
205.346
 20
43.767
 11
205.04
 21
45.3707
  0
LINE
  8
0
 10
205.04
 20
45.3707
 11
204.938
 21
47
  0
LINE
  8
0
 10
204.938
 20
47
 11
205.04
 21
48.6293
  0
LINE
  8
0
 10
205.04
 20
48.6293
 11
205.346
 21
50.233
  0
LINE
  8
0
 10
205.346
 20
50.233
 11
205.85
 21
51.7856
  0
LINE
  8
0
 10
205.85
 20
51.7856
 11
206.546
 21
53.2628
  0
LINE
  8
0
 10
206.546
 20
53.2628
 11
207.42
 21
54.6412
  0
LINE
  8
0
 10
207.42
 20
54.6412
 11
208.461
 21
55.8991
  0
LINE
  8
0
 10
208.461
 20
55.8991
 11
209.651
 21
57.0167
  0
LINE
  8
0
 10
209.651
 20
57.0167
 11
210.972
 21
57.9763
  0
LINE
  8
0
 10
210.972
 20
57.9763
 11
212.402
 21
58.7627
  0
LINE
  8
0
 10
212.402
 20
58.7627
 11
213.92
 21
59.3637
  0
LINE
  8
0
 10
213.92
 20
59.3637
 11
215.502
 21
59.7697
  0
LINE
  8
0
 10
215.502
 20
59.7697
 11
217.121
 21
59.9743
  0
LINE
  8
0
 10
217.121
 20
59.9743
 11
218.754
 21
59.9743
  0
LINE
  8
0
 10
218.754
 20
59.9743
 11
220.373
 21
59.7697
  0
LINE
  8
0
 10
220.373
 20
59.7697
 11
221.955
 21
59.3637
  0
LINE
  8
0
 10
221.955
 20
59.3637
 11
223.473
 21
58.7627
  0
LINE
  8
0
 10
223.473
 20
58.7627
 11
224.903
 21
57.9763
  0
LINE
  8
0
 10
224.903
 20
57.9763
 11
226.224
 21
57.0167
  0
LINE
  8
0
 10
226.224
 20
57.0167
 11
227.414
 21
55.8991
  0
LINE
  8
0
 10
227.414
 20
55.8991
 11
228.455
 21
54.6412
  0
LINE
  8
0
 10
228.455
 20
54.6412
 11
229.329
 21
53.2628
  0
LINE
  8
0
 10
229.329
 20
53.2628
 11
230.025
 21
51.7856
  0
LINE
  8
0
 10
230.025
 20
51.7856
 11
230.529
 21
50.233
  0
LINE
  8
0
 10
230.529
 20
50.233
 11
230.835
 21
48.6293
  0
LINE
  8
0
 10
230.835
 20
48.6293
 11
230.938
 21
47
  0
LINE
  8
0
 10
230.938
 20
47
 11
230.835
 21
45.3707
  0
LINE
  8
0
 10
230.835
 20
45.3707
 11
230.529
 21
43.767
  0
LINE
  8
0
 10
230.529
 20
43.767
 11
230.025
 21
42.2144
  0
LINE
  8
0
 10
230.025
 20
42.2144
 11
229.329
 21
40.7372
  0
LINE
  8
0
 10
229.329
 20
40.7372
 11
228.455
 21
39.3588
  0
LINE
  8
0
 10
228.455
 20
39.3588
 11
227.414
 21
38.1009
  0
LINE
  8
0
 10
227.414
 20
38.1009
 11
226.224
 21
36.9833
  0
LINE
  8
0
 10
226.224
 20
36.9833
 11
224.903
 21
36.0237
  0
LINE
  8
0
 10
224.903
 20
36.0237
 11
223.473
 21
35.2372
  0
LINE
  8
0
 10
223.473
 20
35.2372
 11
221.955
 21
34.6363
  0
LINE
  8
0
 10
221.955
 20
34.6363
 11
220.373
 21
34.2303
  0
LINE
  8
0
 10
220.373
 20
34.2303
 11
218.754
 21
34.0257
  0
LINE
  8
0
 10
218.754
 20
34.0257
 11
217.121
 21
34.0257
  0
LINE
  8
0
 10
188.996
 20
34.0257
 11
187.377
 21
34.2303
  0
LINE
  8
0
 10
187.377
 20
34.2303
 11
185.795
 21
34.6363
  0
LINE
  8
0
 10
185.795
 20
34.6363
 11
184.277
 21
35.2372
  0
LINE
  8
0
 10
184.277
 20
35.2372
 11
182.847
 21
36.0237
  0
LINE
  8
0
 10
182.847
 20
36.0237
 11
181.526
 21
36.9833
  0
LINE
  8
0
 10
181.526
 20
36.9833
 11
180.336
 21
38.1009
  0
LINE
  8
0
 10
180.336
 20
38.1009
 11
179.295
 21
39.3588
  0
LINE
  8
0
 10
179.295
 20
39.3588
 11
178.421
 21
40.7372
  0
LINE
  8
0
 10
178.421
 20
40.7372
 11
177.725
 21
42.2144
  0
LINE
  8
0
 10
177.725
 20
42.2144
 11
177.221
 21
43.767
  0
LINE
  8
0
 10
177.221
 20
43.767
 11
176.915
 21
45.3707
  0
LINE
  8
0
 10
176.915
 20
45.3707
 11
176.812
 21
47
  0
LINE
  8
0
 10
176.812
 20
47
 11
176.915
 21
48.6293
  0
LINE
  8
0
 10
176.915
 20
48.6293
 11
177.221
 21
50.233
  0
LINE
  8
0
 10
177.221
 20
50.233
 11
177.725
 21
51.7856
  0
LINE
  8
0
 10
177.725
 20
51.7856
 11
178.421
 21
53.2628
  0
LINE
  8
0
 10
178.421
 20
53.2628
 11
179.295
 21
54.6412
  0
LINE
  8
0
 10
179.295
 20
54.6412
 11
180.336
 21
55.8991
  0
LINE
  8
0
 10
180.336
 20
55.8991
 11
181.526
 21
57.0167
  0
LINE
  8
0
 10
181.526
 20
57.0167
 11
182.847
 21
57.9763
  0
LINE
  8
0
 10
182.847
 20
57.9763
 11
184.277
 21
58.7627
  0
LINE
  8
0
 10
184.277
 20
58.7627
 11
185.795
 21
59.3637
  0
LINE
  8
0
 10
185.795
 20
59.3637
 11
187.377
 21
59.7697
  0
LINE
  8
0
 10
187.377
 20
59.7697
 11
188.996
 21
59.9743
  0
LINE
  8
0
 10
188.996
 20
59.9743
 11
190.629
 21
59.9743
  0
LINE
  8
0
 10
190.629
 20
59.9743
 11
192.248
 21
59.7697
  0
LINE
  8
0
 10
192.248
 20
59.7697
 11
193.83
 21
59.3637
  0
LINE
  8
0
 10
193.83
 20
59.3637
 11
195.348
 21
58.7627
  0
LINE
  8
0
 10
195.348
 20
58.7627
 11
196.778
 21
57.9763
  0
LINE
  8
0
 10
196.778
 20
57.9763
 11
198.099
 21
57.0167
  0
LINE
  8
0
 10
198.099
 20
57.0167
 11
199.289
 21
55.8991
  0
LINE
  8
0
 10
199.289
 20
55.8991
 11
200.33
 21
54.6412
  0
LINE
  8
0
 10
200.33
 20
54.6412
 11
201.204
 21
53.2628
  0
LINE
  8
0
 10
201.204
 20
53.2628
 11
201.9
 21
51.7856
  0
LINE
  8
0
 10
201.9
 20
51.7856
 11
202.404
 21
50.233
  0
LINE
  8
0
 10
202.404
 20
50.233
 11
202.71
 21
48.6293
  0
LINE
  8
0
 10
202.71
 20
48.6293
 11
202.812
 21
47
  0
LINE
  8
0
 10
202.812
 20
47
 11
202.71
 21
45.3707
  0
LINE
  8
0
 10
202.71
 20
45.3707
 11
202.404
 21
43.767
  0
LINE
  8
0
 10
202.404
 20
43.767
 11
201.9
 21
42.2144
  0
LINE
  8
0
 10
201.9
 20
42.2144
 11
201.204
 21
40.7372
  0
LINE
  8
0
 10
201.204
 20
40.7372
 11
200.33
 21
39.3588
  0
LINE
  8
0
 10
200.33
 20
39.3588
 11
199.289
 21
38.1009
  0
LINE
  8
0
 10
199.289
 20
38.1009
 11
198.099
 21
36.9833
  0
LINE
  8
0
 10
198.099
 20
36.9833
 11
196.778
 21
36.0237
  0
LINE
  8
0
 10
196.778
 20
36.0237
 11
195.348
 21
35.2372
  0
LINE
  8
0
 10
195.348
 20
35.2372
 11
193.83
 21
34.6363
  0
LINE
  8
0
 10
193.83
 20
34.6363
 11
192.248
 21
34.2303
  0
LINE
  8
0
 10
192.248
 20
34.2303
 11
190.629
 21
34.0257
  0
LINE
  8
0
 10
190.629
 20
34.0257
 11
188.996
 21
34.0257
  0
LINE
  8
0
 10
160.871
 20
34.0257
 11
159.252
 21
34.2303
  0
LINE
  8
0
 10
159.252
 20
34.2303
 11
157.67
 21
34.6363
  0
LINE
  8
0
 10
157.67
 20
34.6363
 11
156.152
 21
35.2372
  0
LINE
  8
0
 10
156.152
 20
35.2372
 11
154.722
 21
36.0237
  0
LINE
  8
0
 10
154.722
 20
36.0237
 11
153.401
 21
36.9833
  0
LINE
  8
0
 10
153.401
 20
36.9833
 11
152.211
 21
38.1009
  0
LINE
  8
0
 10
152.211
 20
38.1009
 11
151.17
 21
39.3588
  0
LINE
  8
0
 10
151.17
 20
39.3588
 11
150.296
 21
40.7372
  0
LINE
  8
0
 10
150.296
 20
40.7372
 11
149.6
 21
42.2144
  0
LINE
  8
0
 10
149.6
 20
42.2144
 11
149.096
 21
43.767
  0
LINE
  8
0
 10
149.096
 20
43.767
 11
148.79
 21
45.3707
  0
LINE
  8
0
 10
148.79
 20
45.3707
 11
148.688
 21
47
  0
LINE
  8
0
 10
148.688
 20
47
 11
148.79
 21
48.6293
  0
LINE
  8
0
 10
148.79
 20
48.6293
 11
149.096
 21
50.233
  0
LINE
  8
0
 10
149.096
 20
50.233
 11
149.6
 21
51.7856
  0
LINE
  8
0
 10
149.6
 20
51.7856
 11
150.296
 21
53.2628
  0
LINE
  8
0
 10
150.296
 20
53.2628
 11
151.17
 21
54.6412
  0
LINE
  8
0
 10
151.17
 20
54.6412
 11
152.211
 21
55.8991
  0
LINE
  8
0
 10
152.211
 20
55.8991
 11
153.401
 21
57.0167
  0
LINE
  8
0
 10
153.401
 20
57.0167
 11
154.722
 21
57.9763
  0
LINE
  8
0
 10
154.722
 20
57.9763
 11
156.152
 21
58.7627
  0
LINE
  8
0
 10
156.152
 20
58.7627
 11
157.67
 21
59.3637
  0
LINE
  8
0
 10
157.67
 20
59.3637
 11
159.252
 21
59.7697
  0
LINE
  8
0
 10
159.252
 20
59.7697
 11
160.871
 21
59.9743
  0
LINE
  8
0
 10
160.871
 20
59.9743
 11
162.504
 21
59.9743
  0
LINE
  8
0
 10
162.504
 20
59.9743
 11
164.123
 21
59.7697
  0
LINE
  8
0
 10
164.123
 20
59.7697
 11
165.705
 21
59.3637
  0
LINE
  8
0
 10
165.705
 20
59.3637
 11
167.223
 21
58.7627
  0
LINE
  8
0
 10
167.223
 20
58.7627
 11
168.653
 21
57.9763
  0
LINE
  8
0
 10
168.653
 20
57.9763
 11
169.974
 21
57.0167
  0
LINE
  8
0
 10
169.974
 20
57.0167
 11
171.164
 21
55.8991
  0
LINE
  8
0
 10
171.164
 20
55.8991
 11
172.205
 21
54.6412
  0
LINE
  8
0
 10
172.205
 20
54.6412
 11
173.079
 21
53.2628
  0
LINE
  8
0
 10
173.079
 20
53.2628
 11
173.775
 21
51.7856
  0
LINE
  8
0
 10
173.775
 20
51.7856
 11
174.279
 21
50.233
  0
LINE
  8
0
 10
174.279
 20
50.233
 11
174.585
 21
48.6293
  0
LINE
  8
0
 10
174.585
 20
48.6293
 11
174.688
 21
47
  0
LINE
  8
0
 10
174.688
 20
47
 11
174.585
 21
45.3707
  0
LINE
  8
0
 10
174.585
 20
45.3707
 11
174.279
 21
43.767
  0
LINE
  8
0
 10
174.279
 20
43.767
 11
173.775
 21
42.2144
  0
LINE
  8
0
 10
173.775
 20
42.2144
 11
173.079
 21
40.7372
  0
LINE
  8
0
 10
173.079
 20
40.7372
 11
172.205
 21
39.3588
  0
LINE
  8
0
 10
172.205
 20
39.3588
 11
171.164
 21
38.1009
  0
LINE
  8
0
 10
171.164
 20
38.1009
 11
169.974
 21
36.9833
  0
LINE
  8
0
 10
169.974
 20
36.9833
 11
168.653
 21
36.0237
  0
LINE
  8
0
 10
168.653
 20
36.0237
 11
167.223
 21
35.2372
  0
LINE
  8
0
 10
167.223
 20
35.2372
 11
165.705
 21
34.6363
  0
LINE
  8
0
 10
165.705
 20
34.6363
 11
164.123
 21
34.2303
  0
LINE
  8
0
 10
164.123
 20
34.2303
 11
162.504
 21
34.0257
  0
LINE
  8
0
 10
162.504
 20
34.0257
 11
160.871
 21
34.0257
  0
LINE
  8
0
 10
132.746
 20
34.0257
 11
131.127
 21
34.2303
  0
LINE
  8
0
 10
131.127
 20
34.2303
 11
129.545
 21
34.6363
  0
LINE
  8
0
 10
129.545
 20
34.6363
 11
128.027
 21
35.2372
  0
LINE
  8
0
 10
128.027
 20
35.2372
 11
126.597
 21
36.0237
  0
LINE
  8
0
 10
126.597
 20
36.0237
 11
125.276
 21
36.9833
  0
LINE
  8
0
 10
125.276
 20
36.9833
 11
124.086
 21
38.1009
  0
LINE
  8
0
 10
124.086
 20
38.1009
 11
123.045
 21
39.3588
  0
LINE
  8
0
 10
123.045
 20
39.3588
 11
122.171
 21
40.7372
  0
LINE
  8
0
 10
122.171
 20
40.7372
 11
121.475
 21
42.2144
  0
LINE
  8
0
 10
121.475
 20
42.2144
 11
120.971
 21
43.767
  0
LINE
  8
0
 10
120.971
 20
43.767
 11
120.665
 21
45.3707
  0
LINE
  8
0
 10
120.665
 20
45.3707
 11
120.562
 21
47
  0
LINE
  8
0
 10
120.562
 20
47
 11
120.665
 21
48.6293
  0
LINE
  8
0
 10
120.665
 20
48.6293
 11
120.971
 21
50.233
  0
LINE
  8
0
 10
120.971
 20
50.233
 11
121.475
 21
51.7856
  0
LINE
  8
0
 10
121.475
 20
51.7856
 11
122.171
 21
53.2628
  0
LINE
  8
0
 10
122.171
 20
53.2628
 11
123.045
 21
54.6412
  0
LINE
  8
0
 10
123.045
 20
54.6412
 11
124.086
 21
55.8991
  0
LINE
  8
0
 10
124.086
 20
55.8991
 11
125.276
 21
57.0167
  0
LINE
  8
0
 10
125.276
 20
57.0167
 11
126.597
 21
57.9763
  0
LINE
  8
0
 10
126.597
 20
57.9763
 11
128.027
 21
58.7627
  0
LINE
  8
0
 10
128.027
 20
58.7627
 11
129.545
 21
59.3637
  0
LINE
  8
0
 10
129.545
 20
59.3637
 11
131.127
 21
59.7697
  0
LINE
  8
0
 10
131.127
 20
59.7697
 11
132.746
 21
59.9743
  0
LINE
  8
0
 10
132.746
 20
59.9743
 11
134.379
 21
59.9743
  0
LINE
  8
0
 10
134.379
 20
59.9743
 11
135.998
 21
59.7697
  0
LINE
  8
0
 10
135.998
 20
59.7697
 11
137.58
 21
59.3637
  0
LINE
  8
0
 10
137.58
 20
59.3637
 11
139.098
 21
58.7627
  0
LINE
  8
0
 10
139.098
 20
58.7627
 11
140.528
 21
57.9763
  0
LINE
  8
0
 10
140.528
 20
57.9763
 11
141.849
 21
57.0167
  0
LINE
  8
0
 10
141.849
 20
57.0167
 11
143.039
 21
55.8991
  0
LINE
  8
0
 10
143.039
 20
55.8991
 11
144.08
 21
54.6412
  0
LINE
  8
0
 10
144.08
 20
54.6412
 11
144.954
 21
53.2628
  0
LINE
  8
0
 10
144.954
 20
53.2628
 11
145.65
 21
51.7856
  0
LINE
  8
0
 10
145.65
 20
51.7856
 11
146.154
 21
50.233
  0
LINE
  8
0
 10
146.154
 20
50.233
 11
146.46
 21
48.6293
  0
LINE
  8
0
 10
146.46
 20
48.6293
 11
146.562
 21
47
  0
LINE
  8
0
 10
146.562
 20
47
 11
146.46
 21
45.3707
  0
LINE
  8
0
 10
146.46
 20
45.3707
 11
146.154
 21
43.767
  0
LINE
  8
0
 10
146.154
 20
43.767
 11
145.65
 21
42.2144
  0
LINE
  8
0
 10
145.65
 20
42.2144
 11
144.954
 21
40.7372
  0
LINE
  8
0
 10
144.954
 20
40.7372
 11
144.08
 21
39.3588
  0
LINE
  8
0
 10
144.08
 20
39.3588
 11
143.039
 21
38.1009
  0
LINE
  8
0
 10
143.039
 20
38.1009
 11
141.849
 21
36.9833
  0
LINE
  8
0
 10
141.849
 20
36.9833
 11
140.528
 21
36.0237
  0
LINE
  8
0
 10
140.528
 20
36.0237
 11
139.098
 21
35.2372
  0
LINE
  8
0
 10
139.098
 20
35.2372
 11
137.58
 21
34.6363
  0
LINE
  8
0
 10
137.58
 20
34.6363
 11
135.998
 21
34.2303
  0
LINE
  8
0
 10
135.998
 20
34.2303
 11
134.379
 21
34.0257
  0
LINE
  8
0
 10
134.379
 20
34.0257
 11
132.746
 21
34.0257
  0
LINE
  8
0
 10
20.2462
 20
34.0257
 11
18.6265
 21
34.2303
  0
LINE
  8
0
 10
18.6265
 20
34.2303
 11
17.0453
 21
34.6363
  0
LINE
  8
0
 10
17.0453
 20
34.6363
 11
15.5274
 21
35.2372
  0
LINE
  8
0
 10
15.5274
 20
35.2372
 11
14.0967
 21
36.0237
  0
LINE
  8
0
 10
14.0967
 20
36.0237
 11
12.776
 21
36.9833
  0
LINE
  8
0
 10
12.776
 20
36.9833
 11
11.5859
 21
38.1009
  0
LINE
  8
0
 10
11.5859
 20
38.1009
 11
10.5453
 21
39.3588
  0
LINE
  8
0
 10
10.5453
 20
39.3588
 11
9.6705
 21
40.7372
  0
LINE
  8
0
 10
9.6705
 20
40.7372
 11
8.9754
 21
42.2144
  0
LINE
  8
0
 10
8.9754
 20
42.2144
 11
8.47092
 21
43.767
  0
LINE
  8
0
 10
8.47092
 20
43.767
 11
8.16501
 21
45.3707
  0
LINE
  8
0
 10
8.16501
 20
45.3707
 11
8.0625
 21
47
  0
LINE
  8
0
 10
8.0625
 20
47
 11
8.16501
 21
48.6293
  0
LINE
  8
0
 10
8.16501
 20
48.6293
 11
8.47092
 21
50.233
  0
LINE
  8
0
 10
8.47092
 20
50.233
 11
8.9754
 21
51.7856
  0
LINE
  8
0
 10
8.9754
 20
51.7856
 11
9.6705
 21
53.2628
  0
LINE
  8
0
 10
9.6705
 20
53.2628
 11
10.5453
 21
54.6412
  0
LINE
  8
0
 10
10.5453
 20
54.6412
 11
11.5859
 21
55.8991
  0
LINE
  8
0
 10
11.5859
 20
55.8991
 11
12.776
 21
57.0167
  0
LINE
  8
0
 10
12.776
 20
57.0167
 11
14.0967
 21
57.9763
  0
LINE
  8
0
 10
14.0967
 20
57.9763
 11
15.5274
 21
58.7627
  0
LINE
  8
0
 10
15.5274
 20
58.7627
 11
17.0453
 21
59.3637
  0
LINE
  8
0
 10
17.0453
 20
59.3637
 11
18.6265
 21
59.7697
  0
LINE
  8
0
 10
18.6265
 20
59.7697
 11
20.2462
 21
59.9743
  0
LINE
  8
0
 10
20.2462
 20
59.9743
 11
21.8788
 21
59.9743
  0
LINE
  8
0
 10
21.8788
 20
59.9743
 11
23.4984
 21
59.7697
  0
LINE
  8
0
 10
23.4984
 20
59.7697
 11
25.0797
 21
59.3637
  0
LINE
  8
0
 10
25.0797
 20
59.3637
 11
26.5976
 21
58.7627
  0
LINE
  8
0
 10
26.5976
 20
58.7627
 11
28.0282
 21
57.9763
  0
LINE
  8
0
 10
28.0282
 20
57.9763
 11
29.349
 21
57.0167
  0
LINE
  8
0
 10
29.349
 20
57.0167
 11
30.5391
 21
55.8991
  0
LINE
  8
0
 10
30.5391
 20
55.8991
 11
31.5797
 21
54.6412
  0
LINE
  8
0
 10
31.5797
 20
54.6412
 11
32.4545
 21
53.2628
  0
LINE
  8
0
 10
32.4545
 20
53.2628
 11
33.1496
 21
51.7856
  0
LINE
  8
0
 10
33.1496
 20
51.7856
 11
33.6541
 21
50.233
  0
LINE
  8
0
 10
33.6541
 20
50.233
 11
33.96
 21
48.6293
  0
LINE
  8
0
 10
33.96
 20
48.6293
 11
34.0625
 21
47
  0
LINE
  8
0
 10
34.0625
 20
47
 11
33.96
 21
45.3707
  0
LINE
  8
0
 10
33.96
 20
45.3707
 11
33.6541
 21
43.767
  0
LINE
  8
0
 10
33.6541
 20
43.767
 11
33.1496
 21
42.2144
  0
LINE
  8
0
 10
33.1496
 20
42.2144
 11
32.4545
 21
40.7372
  0
LINE
  8
0
 10
32.4545
 20
40.7372
 11
31.5797
 21
39.3588
  0
LINE
  8
0
 10
31.5797
 20
39.3588
 11
30.5391
 21
38.1009
  0
LINE
  8
0
 10
30.5391
 20
38.1009
 11
29.349
 21
36.9833
  0
LINE
  8
0
 10
29.349
 20
36.9833
 11
28.0282
 21
36.0237
  0
LINE
  8
0
 10
28.0282
 20
36.0237
 11
26.5976
 21
35.2372
  0
LINE
  8
0
 10
26.5976
 20
35.2372
 11
25.0797
 21
34.6363
  0
LINE
  8
0
 10
25.0797
 20
34.6363
 11
23.4984
 21
34.2303
  0
LINE
  8
0
 10
23.4984
 20
34.2303
 11
21.8788
 21
34.0257
  0
LINE
  8
0
 10
21.8788
 20
34.0257
 11
20.2462
 21
34.0257
  0
LINE
  8
0
 10
48.3712
 20
34.0257
 11
46.7515
 21
34.2303
  0
LINE
  8
0
 10
46.7515
 20
34.2303
 11
45.1703
 21
34.6363
  0
LINE
  8
0
 10
45.1703
 20
34.6363
 11
43.6524
 21
35.2372
  0
LINE
  8
0
 10
43.6524
 20
35.2372
 11
42.2217
 21
36.0237
  0
LINE
  8
0
 10
42.2217
 20
36.0237
 11
40.901
 21
36.9833
  0
LINE
  8
0
 10
40.901
 20
36.9833
 11
39.7109
 21
38.1009
  0
LINE
  8
0
 10
39.7109
 20
38.1009
 11
38.6703
 21
39.3588
  0
LINE
  8
0
 10
38.6703
 20
39.3588
 11
37.7955
 21
40.7372
  0
LINE
  8
0
 10
37.7955
 20
40.7372
 11
37.1004
 21
42.2144
  0
LINE
  8
0
 10
37.1004
 20
42.2144
 11
36.5959
 21
43.767
  0
LINE
  8
0
 10
36.5959
 20
43.767
 11
36.29
 21
45.3707
  0
LINE
  8
0
 10
36.29
 20
45.3707
 11
36.1875
 21
47
  0
LINE
  8
0
 10
36.1875
 20
47
 11
36.29
 21
48.6293
  0
LINE
  8
0
 10
36.29
 20
48.6293
 11
36.5959
 21
50.233
  0
LINE
  8
0
 10
36.5959
 20
50.233
 11
37.1004
 21
51.7856
  0
LINE
  8
0
 10
37.1004
 20
51.7856
 11
37.7955
 21
53.2628
  0
LINE
  8
0
 10
37.7955
 20
53.2628
 11
38.6703
 21
54.6412
  0
LINE
  8
0
 10
38.6703
 20
54.6412
 11
39.7109
 21
55.8991
  0
LINE
  8
0
 10
39.7109
 20
55.8991
 11
40.901
 21
57.0167
  0
LINE
  8
0
 10
40.901
 20
57.0167
 11
42.2217
 21
57.9763
  0
LINE
  8
0
 10
42.2217
 20
57.9763
 11
43.6524
 21
58.7627
  0
LINE
  8
0
 10
43.6524
 20
58.7627
 11
45.1703
 21
59.3637
  0
LINE
  8
0
 10
45.1703
 20
59.3637
 11
46.7515
 21
59.7697
  0
LINE
  8
0
 10
46.7515
 20
59.7697
 11
48.3712
 21
59.9743
  0
LINE
  8
0
 10
48.3712
 20
59.9743
 11
50.0038
 21
59.9743
  0
LINE
  8
0
 10
50.0038
 20
59.9743
 11
51.6234
 21
59.7697
  0
LINE
  8
0
 10
51.6234
 20
59.7697
 11
53.2047
 21
59.3637
  0
LINE
  8
0
 10
53.2047
 20
59.3637
 11
54.7226
 21
58.7627
  0
LINE
  8
0
 10
54.7226
 20
58.7627
 11
56.1532
 21
57.9763
  0
LINE
  8
0
 10
56.1532
 20
57.9763
 11
57.474
 21
57.0167
  0
LINE
  8
0
 10
57.474
 20
57.0167
 11
58.6641
 21
55.8991
  0
LINE
  8
0
 10
58.6641
 20
55.8991
 11
59.7047
 21
54.6412
  0
LINE
  8
0
 10
59.7047
 20
54.6412
 11
60.5795
 21
53.2628
  0
LINE
  8
0
 10
60.5795
 20
53.2628
 11
61.2746
 21
51.7856
  0
LINE
  8
0
 10
61.2746
 20
51.7856
 11
61.7791
 21
50.233
  0
LINE
  8
0
 10
61.7791
 20
50.233
 11
62.085
 21
48.6293
  0
LINE
  8
0
 10
62.085
 20
48.6293
 11
62.1875
 21
47
  0
LINE
  8
0
 10
62.1875
 20
47
 11
62.085
 21
45.3707
  0
LINE
  8
0
 10
62.085
 20
45.3707
 11
61.7791
 21
43.767
  0
LINE
  8
0
 10
61.7791
 20
43.767
 11
61.2746
 21
42.2144
  0
LINE
  8
0
 10
61.2746
 20
42.2144
 11
60.5795
 21
40.7372
  0
LINE
  8
0
 10
60.5795
 20
40.7372
 11
59.7047
 21
39.3588
  0
LINE
  8
0
 10
59.7047
 20
39.3588
 11
58.6641
 21
38.1009
  0
LINE
  8
0
 10
58.6641
 20
38.1009
 11
57.474
 21
36.9833
  0
LINE
  8
0
 10
57.474
 20
36.9833
 11
56.1532
 21
36.0237
  0
LINE
  8
0
 10
56.1532
 20
36.0237
 11
54.7226
 21
35.2372
  0
LINE
  8
0
 10
54.7226
 20
35.2372
 11
53.2047
 21
34.6363
  0
LINE
  8
0
 10
53.2047
 20
34.6363
 11
51.6234
 21
34.2303
  0
LINE
  8
0
 10
51.6234
 20
34.2303
 11
50.0038
 21
34.0257
  0
LINE
  8
0
 10
50.0038
 20
34.0257
 11
48.3712
 21
34.0257
  0
LINE
  8
0
 10
104.621
 20
34.0257
 11
103.002
 21
34.2303
  0
LINE
  8
0
 10
103.002
 20
34.2303
 11
101.42
 21
34.6363
  0
LINE
  8
0
 10
101.42
 20
34.6363
 11
99.9024
 21
35.2372
  0
LINE
  8
0
 10
99.9024
 20
35.2372
 11
98.4717
 21
36.0237
  0
LINE
  8
0
 10
98.4717
 20
36.0237
 11
97.151
 21
36.9833
  0
LINE
  8
0
 10
97.151
 20
36.9833
 11
95.9609
 21
38.1009
  0
LINE
  8
0
 10
95.9609
 20
38.1009
 11
94.9203
 21
39.3588
  0
LINE
  8
0
 10
94.9203
 20
39.3588
 11
94.0455
 21
40.7372
  0
LINE
  8
0
 10
94.0455
 20
40.7372
 11
93.3504
 21
42.2144
  0
LINE
  8
0
 10
93.3504
 20
42.2144
 11
92.8459
 21
43.767
  0
LINE
  8
0
 10
92.8459
 20
43.767
 11
92.54
 21
45.3707
  0
LINE
  8
0
 10
92.54
 20
45.3707
 11
92.4375
 21
47
  0
LINE
  8
0
 10
92.4375
 20
47
 11
92.54
 21
48.6293
  0
LINE
  8
0
 10
92.54
 20
48.6293
 11
92.8459
 21
50.233
  0
LINE
  8
0
 10
92.8459
 20
50.233
 11
93.3504
 21
51.7856
  0
LINE
  8
0
 10
93.3504
 20
51.7856
 11
94.0455
 21
53.2628
  0
LINE
  8
0
 10
94.0455
 20
53.2628
 11
94.9203
 21
54.6412
  0
LINE
  8
0
 10
94.9203
 20
54.6412
 11
95.9609
 21
55.8991
  0
LINE
  8
0
 10
95.9609
 20
55.8991
 11
97.151
 21
57.0167
  0
LINE
  8
0
 10
97.151
 20
57.0167
 11
98.4717
 21
57.9763
  0
LINE
  8
0
 10
98.4717
 20
57.9763
 11
99.9024
 21
58.7627
  0
LINE
  8
0
 10
99.9024
 20
58.7627
 11
101.42
 21
59.3637
  0
LINE
  8
0
 10
101.42
 20
59.3637
 11
103.002
 21
59.7697
  0
LINE
  8
0
 10
103.002
 20
59.7697
 11
104.621
 21
59.9743
  0
LINE
  8
0
 10
104.621
 20
59.9743
 11
106.254
 21
59.9743
  0
LINE
  8
0
 10
106.254
 20
59.9743
 11
107.873
 21
59.7697
  0
LINE
  8
0
 10
107.873
 20
59.7697
 11
109.455
 21
59.3637
  0
LINE
  8
0
 10
109.455
 20
59.3637
 11
110.973
 21
58.7627
  0
LINE
  8
0
 10
110.973
 20
58.7627
 11
112.403
 21
57.9763
  0
LINE
  8
0
 10
112.403
 20
57.9763
 11
113.724
 21
57.0167
  0
LINE
  8
0
 10
113.724
 20
57.0167
 11
114.914
 21
55.8991
  0
LINE
  8
0
 10
114.914
 20
55.8991
 11
115.955
 21
54.6412
  0
LINE
  8
0
 10
115.955
 20
54.6412
 11
116.829
 21
53.2628
  0
LINE
  8
0
 10
116.829
 20
53.2628
 11
117.525
 21
51.7856
  0
LINE
  8
0
 10
117.525
 20
51.7856
 11
118.029
 21
50.233
  0
LINE
  8
0
 10
118.029
 20
50.233
 11
118.335
 21
48.6293
  0
LINE
  8
0
 10
118.335
 20
48.6293
 11
118.438
 21
47
  0
LINE
  8
0
 10
118.438
 20
47
 11
118.335
 21
45.3707
  0
LINE
  8
0
 10
118.335
 20
45.3707
 11
118.029
 21
43.767
  0
LINE
  8
0
 10
118.029
 20
43.767
 11
117.525
 21
42.2144
  0
LINE
  8
0
 10
117.525
 20
42.2144
 11
116.829
 21
40.7372
  0
LINE
  8
0
 10
116.829
 20
40.7372
 11
115.955
 21
39.3588
  0
LINE
  8
0
 10
115.955
 20
39.3588
 11
114.914
 21
38.1009
  0
LINE
  8
0
 10
114.914
 20
38.1009
 11
113.724
 21
36.9833
  0
LINE
  8
0
 10
113.724
 20
36.9833
 11
112.403
 21
36.0237
  0
LINE
  8
0
 10
112.403
 20
36.0237
 11
110.973
 21
35.2372
  0
LINE
  8
0
 10
110.973
 20
35.2372
 11
109.455
 21
34.6363
  0
LINE
  8
0
 10
109.455
 20
34.6363
 11
107.873
 21
34.2303
  0
LINE
  8
0
 10
107.873
 20
34.2303
 11
106.254
 21
34.0257
  0
LINE
  8
0
 10
106.254
 20
34.0257
 11
104.621
 21
34.0257
  0
LINE
  8
0
 10
76.4962
 20
34.0257
 11
74.8765
 21
34.2303
  0
LINE
  8
0
 10
74.8765
 20
34.2303
 11
73.2953
 21
34.6363
  0
LINE
  8
0
 10
73.2953
 20
34.6363
 11
71.7774
 21
35.2372
  0
LINE
  8
0
 10
71.7774
 20
35.2372
 11
70.3467
 21
36.0237
  0
LINE
  8
0
 10
70.3467
 20
36.0237
 11
69.026
 21
36.9833
  0
LINE
  8
0
 10
69.026
 20
36.9833
 11
67.8359
 21
38.1009
  0
LINE
  8
0
 10
67.8359
 20
38.1009
 11
66.7953
 21
39.3588
  0
LINE
  8
0
 10
66.7953
 20
39.3588
 11
65.9205
 21
40.7372
  0
LINE
  8
0
 10
65.9205
 20
40.7372
 11
65.2254
 21
42.2144
  0
LINE
  8
0
 10
65.2254
 20
42.2144
 11
64.7209
 21
43.767
  0
LINE
  8
0
 10
64.7209
 20
43.767
 11
64.415
 21
45.3707
  0
LINE
  8
0
 10
64.415
 20
45.3707
 11
64.3125
 21
47
  0
LINE
  8
0
 10
64.3125
 20
47
 11
64.415
 21
48.6293
  0
LINE
  8
0
 10
64.415
 20
48.6293
 11
64.7209
 21
50.233
  0
LINE
  8
0
 10
64.7209
 20
50.233
 11
65.2254
 21
51.7856
  0
LINE
  8
0
 10
65.2254
 20
51.7856
 11
65.9205
 21
53.2628
  0
LINE
  8
0
 10
65.9205
 20
53.2628
 11
66.7953
 21
54.6412
  0
LINE
  8
0
 10
66.7953
 20
54.6412
 11
67.8359
 21
55.8991
  0
LINE
  8
0
 10
67.8359
 20
55.8991
 11
69.026
 21
57.0167
  0
LINE
  8
0
 10
69.026
 20
57.0167
 11
70.3467
 21
57.9763
  0
LINE
  8
0
 10
70.3467
 20
57.9763
 11
71.7774
 21
58.7627
  0
LINE
  8
0
 10
71.7774
 20
58.7627
 11
73.2953
 21
59.3637
  0
LINE
  8
0
 10
73.2953
 20
59.3637
 11
74.8765
 21
59.7697
  0
LINE
  8
0
 10
74.8765
 20
59.7697
 11
76.4962
 21
59.9743
  0
LINE
  8
0
 10
76.4962
 20
59.9743
 11
78.1288
 21
59.9743
  0
LINE
  8
0
 10
78.1288
 20
59.9743
 11
79.7484
 21
59.7697
  0
LINE
  8
0
 10
79.7484
 20
59.7697
 11
81.3297
 21
59.3637
  0
LINE
  8
0
 10
81.3297
 20
59.3637
 11
82.8476
 21
58.7627
  0
LINE
  8
0
 10
82.8476
 20
58.7627
 11
84.2782
 21
57.9763
  0
LINE
  8
0
 10
84.2782
 20
57.9763
 11
85.599
 21
57.0167
  0
LINE
  8
0
 10
85.599
 20
57.0167
 11
86.7891
 21
55.8991
  0
LINE
  8
0
 10
86.7891
 20
55.8991
 11
87.8297
 21
54.6412
  0
LINE
  8
0
 10
87.8297
 20
54.6412
 11
88.7045
 21
53.2628
  0
LINE
  8
0
 10
88.7045
 20
53.2628
 11
89.3996
 21
51.7856
  0
LINE
  8
0
 10
89.3996
 20
51.7856
 11
89.9041
 21
50.233
  0
LINE
  8
0
 10
89.9041
 20
50.233
 11
90.21
 21
48.6293
  0
LINE
  8
0
 10
90.21
 20
48.6293
 11
90.3125
 21
47
  0
LINE
  8
0
 10
90.3125
 20
47
 11
90.21
 21
45.3707
  0
LINE
  8
0
 10
90.21
 20
45.3707
 11
89.9041
 21
43.767
  0
LINE
  8
0
 10
89.9041
 20
43.767
 11
89.3996
 21
42.2144
  0
LINE
  8
0
 10
89.3996
 20
42.2144
 11
88.7045
 21
40.7372
  0
LINE
  8
0
 10
88.7045
 20
40.7372
 11
87.8297
 21
39.3588
  0
LINE
  8
0
 10
87.8297
 20
39.3588
 11
86.7891
 21
38.1009
  0
LINE
  8
0
 10
86.7891
 20
38.1009
 11
85.599
 21
36.9833
  0
LINE
  8
0
 10
85.599
 20
36.9833
 11
84.2782
 21
36.0237
  0
LINE
  8
0
 10
84.2782
 20
36.0237
 11
82.8476
 21
35.2372
  0
LINE
  8
0
 10
82.8476
 20
35.2372
 11
81.3297
 21
34.6363
  0
LINE
  8
0
 10
81.3297
 20
34.6363
 11
79.7484
 21
34.2303
  0
LINE
  8
0
 10
79.7484
 20
34.2303
 11
78.1288
 21
34.0257
  0
LINE
  8
0
 10
78.1288
 20
34.0257
 11
76.4962
 21
34.0257
  0
LINE
  8
0
 10
233
 20
14
 11
233
 21
39
  0
LINE
  8
0
 10
233
 20
39
 11
236
 21
39
  0
LINE
  8
0
 10
236
 20
39
 11
236
 21
14
  0
LINE
  8
0
 10
236
 20
14
 11
233
 21
14
  0
LINE
  8
0
 10
3
 20
14
 11
3
 21
39
  0
LINE
  8
0
 10
3
 20
39
 11
6
 21
39
  0
LINE
  8
0
 10
6
 20
39
 11
6
 21
14
  0
LINE
  8
0
 10
6
 20
14
 11
3
 21
14
  0
LINE
  8
0
 10
226.874
 20
10.0039
 11
226.625
 21
10.0354
  0
LINE
  8
0
 10
226.625
 20
10.0354
 11
226.382
 21
10.0979
  0
LINE
  8
0
 10
226.382
 20
10.0979
 11
226.148
 21
10.1903
  0
LINE
  8
0
 10
226.148
 20
10.1903
 11
225.928
 21
10.3113
  0
LINE
  8
0
 10
225.928
 20
10.3113
 11
225.725
 21
10.459
  0
LINE
  8
0
 10
225.725
 20
10.459
 11
225.542
 21
10.6309
  0
LINE
  8
0
 10
225.542
 20
10.6309
 11
225.382
 21
10.8244
  0
LINE
  8
0
 10
225.382
 20
10.8244
 11
225.247
 21
11.0365
  0
LINE
  8
0
 10
225.247
 20
11.0365
 11
225.14
 21
11.2637
  0
LINE
  8
0
 10
225.14
 20
11.2637
 11
225.063
 21
11.5026
  0
LINE
  8
0
 10
225.063
 20
11.5026
 11
225.016
 21
11.7493
  0
LINE
  8
0
 10
225.016
 20
11.7493
 11
225
 21
12
  0
LINE
  8
0
 10
225
 20
12
 11
225.016
 21
12.2507
  0
LINE
  8
0
 10
225.016
 20
12.2507
 11
225.063
 21
12.4974
  0
LINE
  8
0
 10
225.063
 20
12.4974
 11
225.14
 21
12.7362
  0
LINE
  8
0
 10
225.14
 20
12.7362
 11
225.247
 21
12.9635
  0
LINE
  8
0
 10
225.247
 20
12.9635
 11
225.382
 21
13.1756
  0
LINE
  8
0
 10
225.382
 20
13.1756
 11
225.542
 21
13.3691
  0
LINE
  8
0
 10
225.542
 20
13.3691
 11
225.725
 21
13.541
  0
LINE
  8
0
 10
225.725
 20
13.541
 11
225.928
 21
13.6886
  0
LINE
  8
0
 10
225.928
 20
13.6886
 11
226.148
 21
13.8096
  0
LINE
  8
0
 10
226.148
 20
13.8096
 11
226.382
 21
13.9021
  0
LINE
  8
0
 10
226.382
 20
13.9021
 11
226.625
 21
13.9646
  0
LINE
  8
0
 10
226.625
 20
13.9646
 11
226.874
 21
13.996
  0
LINE
  8
0
 10
226.874
 20
13.996
 11
227.126
 21
13.996
  0
LINE
  8
0
 10
227.126
 20
13.996
 11
227.375
 21
13.9646
  0
LINE
  8
0
 10
227.375
 20
13.9646
 11
227.618
 21
13.9021
  0
LINE
  8
0
 10
227.618
 20
13.9021
 11
227.852
 21
13.8096
  0
LINE
  8
0
 10
227.852
 20
13.8096
 11
228.072
 21
13.6886
  0
LINE
  8
0
 10
228.072
 20
13.6886
 11
228.275
 21
13.541
  0
LINE
  8
0
 10
228.275
 20
13.541
 11
228.458
 21
13.3691
  0
LINE
  8
0
 10
228.458
 20
13.3691
 11
228.618
 21
13.1756
  0
LINE
  8
0
 10
228.618
 20
13.1756
 11
228.753
 21
12.9635
  0
LINE
  8
0
 10
228.753
 20
12.9635
 11
228.86
 21
12.7362
  0
LINE
  8
0
 10
228.86
 20
12.7362
 11
228.937
 21
12.4974
  0
LINE
  8
0
 10
228.937
 20
12.4974
 11
228.984
 21
12.2507
  0
LINE
  8
0
 10
228.984
 20
12.2507
 11
229
 21
12
  0
LINE
  8
0
 10
229
 20
12
 11
228.984
 21
11.7493
  0
LINE
  8
0
 10
228.984
 20
11.7493
 11
228.937
 21
11.5026
  0
LINE
  8
0
 10
228.937
 20
11.5026
 11
228.86
 21
11.2637
  0
LINE
  8
0
 10
228.86
 20
11.2637
 11
228.753
 21
11.0365
  0
LINE
  8
0
 10
228.753
 20
11.0365
 11
228.618
 21
10.8244
  0
LINE
  8
0
 10
228.618
 20
10.8244
 11
228.458
 21
10.6309
  0
LINE
  8
0
 10
228.458
 20
10.6309
 11
228.275
 21
10.459
  0
LINE
  8
0
 10
228.275
 20
10.459
 11
228.072
 21
10.3113
  0
LINE
  8
0
 10
228.072
 20
10.3113
 11
227.852
 21
10.1903
  0
LINE
  8
0
 10
227.852
 20
10.1903
 11
227.618
 21
10.0979
  0
LINE
  8
0
 10
227.618
 20
10.0979
 11
227.375
 21
10.0354
  0
LINE
  8
0
 10
227.375
 20
10.0354
 11
227.126
 21
10.0039
  0
LINE
  8
0
 10
227.126
 20
10.0039
 11
226.874
 21
10.0039
  0
LINE
  8
0
 10
11.8744
 20
10.0039
 11
11.6252
 21
10.0354
  0
LINE
  8
0
 10
11.6252
 20
10.0354
 11
11.382
 21
10.0979
  0
LINE
  8
0
 10
11.382
 20
10.0979
 11
11.1484
 21
10.1903
  0
LINE
  8
0
 10
11.1484
 20
10.1903
 11
10.9283
 21
10.3113
  0
LINE
  8
0
 10
10.9283
 20
10.3113
 11
10.7251
 21
10.459
  0
LINE
  8
0
 10
10.7251
 20
10.459
 11
10.5421
 21
10.6309
  0
LINE
  8
0
 10
10.5421
 20
10.6309
 11
10.382
 21
10.8244
  0
LINE
  8
0
 10
10.382
 20
10.8244
 11
10.2474
 21
11.0365
  0
LINE
  8
0
 10
10.2474
 20
11.0365
 11
10.1404
 21
11.2637
  0
LINE
  8
0
 10
10.1404
 20
11.2637
 11
10.0628
 21
11.5026
  0
LINE
  8
0
 10
10.0628
 20
11.5026
 11
10.0158
 21
11.7493
  0
LINE
  8
0
 10
10.0158
 20
11.7493
 11
10
 21
12
  0
LINE
  8
0
 10
10
 20
12
 11
10.0158
 21
12.2507
  0
LINE
  8
0
 10
10.0158
 20
12.2507
 11
10.0628
 21
12.4974
  0
LINE
  8
0
 10
10.0628
 20
12.4974
 11
10.1404
 21
12.7362
  0
LINE
  8
0
 10
10.1404
 20
12.7362
 11
10.2474
 21
12.9635
  0
LINE
  8
0
 10
10.2474
 20
12.9635
 11
10.382
 21
13.1756
  0
LINE
  8
0
 10
10.382
 20
13.1756
 11
10.5421
 21
13.3691
  0
LINE
  8
0
 10
10.5421
 20
13.3691
 11
10.7251
 21
13.541
  0
LINE
  8
0
 10
10.7251
 20
13.541
 11
10.9283
 21
13.6886
  0
LINE
  8
0
 10
10.9283
 20
13.6886
 11
11.1484
 21
13.8096
  0
LINE
  8
0
 10
11.1484
 20
13.8096
 11
11.382
 21
13.9021
  0
LINE
  8
0
 10
11.382
 20
13.9021
 11
11.6252
 21
13.9646
  0
LINE
  8
0
 10
11.6252
 20
13.9646
 11
11.8744
 21
13.996
  0
LINE
  8
0
 10
11.8744
 20
13.996
 11
12.1256
 21
13.996
  0
LINE
  8
0
 10
12.1256
 20
13.996
 11
12.3748
 21
13.9646
  0
LINE
  8
0
 10
12.3748
 20
13.9646
 11
12.618
 21
13.9021
  0
LINE
  8
0
 10
12.618
 20
13.9021
 11
12.8515
 21
13.8096
  0
LINE
  8
0
 10
12.8515
 20
13.8096
 11
13.0716
 21
13.6886
  0
LINE
  8
0
 10
13.0716
 20
13.6886
 11
13.2748
 21
13.541
  0
LINE
  8
0
 10
13.2748
 20
13.541
 11
13.4579
 21
13.3691
  0
LINE
  8
0
 10
13.4579
 20
13.3691
 11
13.618
 21
13.1756
  0
LINE
  8
0
 10
13.618
 20
13.1756
 11
13.7526
 21
12.9635
  0
LINE
  8
0
 10
13.7526
 20
12.9635
 11
13.8595
 21
12.7362
  0
LINE
  8
0
 10
13.8595
 20
12.7362
 11
13.9372
 21
12.4974
  0
LINE
  8
0
 10
13.9372
 20
12.4974
 11
13.9842
 21
12.2507
  0
LINE
  8
0
 10
13.9842
 20
12.2507
 11
14
 21
12
  0
LINE
  8
0
 10
14
 20
12
 11
13.9842
 21
11.7493
  0
LINE
  8
0
 10
13.9842
 20
11.7493
 11
13.9372
 21
11.5026
  0
LINE
  8
0
 10
13.9372
 20
11.5026
 11
13.8595
 21
11.2637
  0
LINE
  8
0
 10
13.8595
 20
11.2637
 11
13.7526
 21
11.0365
  0
LINE
  8
0
 10
13.7526
 20
11.0365
 11
13.618
 21
10.8244
  0
LINE
  8
0
 10
13.618
 20
10.8244
 11
13.4579
 21
10.6309
  0
LINE
  8
0
 10
13.4579
 20
10.6309
 11
13.2748
 21
10.459
  0
LINE
  8
0
 10
13.2748
 20
10.459
 11
13.0716
 21
10.3113
  0
LINE
  8
0
 10
13.0716
 20
10.3113
 11
12.8515
 21
10.1903
  0
LINE
  8
0
 10
12.8515
 20
10.1903
 11
12.618
 21
10.0979
  0
LINE
  8
0
 10
12.618
 20
10.0979
 11
12.3748
 21
10.0354
  0
LINE
  8
0
 10
12.3748
 20
10.0354
 11
12.1256
 21
10.0039
  0
LINE
  8
0
 10
12.1256
 20
10.0039
 11
11.8744
 21
10.0039
  0
LINE
  8
0
 10
119.374
 20
10.0039
 11
119.125
 21
10.0354
  0
LINE
  8
0
 10
119.125
 20
10.0354
 11
118.882
 21
10.0979
  0
LINE
  8
0
 10
118.882
 20
10.0979
 11
118.648
 21
10.1903
  0
LINE
  8
0
 10
118.648
 20
10.1903
 11
118.428
 21
10.3113
  0
LINE
  8
0
 10
118.428
 20
10.3113
 11
118.225
 21
10.459
  0
LINE
  8
0
 10
118.225
 20
10.459
 11
118.042
 21
10.6309
  0
LINE
  8
0
 10
118.042
 20
10.6309
 11
117.882
 21
10.8244
  0
LINE
  8
0
 10
117.882
 20
10.8244
 11
117.747
 21
11.0365
  0
LINE
  8
0
 10
117.747
 20
11.0365
 11
117.64
 21
11.2637
  0
LINE
  8
0
 10
117.64
 20
11.2637
 11
117.563
 21
11.5026
  0
LINE
  8
0
 10
117.563
 20
11.5026
 11
117.516
 21
11.7493
  0
LINE
  8
0
 10
117.516
 20
11.7493
 11
117.5
 21
12
  0
LINE
  8
0
 10
117.5
 20
12
 11
117.516
 21
12.2507
  0
LINE
  8
0
 10
117.516
 20
12.2507
 11
117.563
 21
12.4974
  0
LINE
  8
0
 10
117.563
 20
12.4974
 11
117.64
 21
12.7362
  0
LINE
  8
0
 10
117.64
 20
12.7362
 11
117.747
 21
12.9635
  0
LINE
  8
0
 10
117.747
 20
12.9635
 11
117.882
 21
13.1756
  0
LINE
  8
0
 10
117.882
 20
13.1756
 11
118.042
 21
13.3691
  0
LINE
  8
0
 10
118.042
 20
13.3691
 11
118.225
 21
13.541
  0
LINE
  8
0
 10
118.225
 20
13.541
 11
118.428
 21
13.6886
  0
LINE
  8
0
 10
118.428
 20
13.6886
 11
118.648
 21
13.8096
  0
LINE
  8
0
 10
118.648
 20
13.8096
 11
118.882
 21
13.9021
  0
LINE
  8
0
 10
118.882
 20
13.9021
 11
119.125
 21
13.9646
  0
LINE
  8
0
 10
119.125
 20
13.9646
 11
119.374
 21
13.996
  0
LINE
  8
0
 10
119.374
 20
13.996
 11
119.626
 21
13.996
  0
LINE
  8
0
 10
119.626
 20
13.996
 11
119.875
 21
13.9646
  0
LINE
  8
0
 10
119.875
 20
13.9646
 11
120.118
 21
13.9021
  0
LINE
  8
0
 10
120.118
 20
13.9021
 11
120.352
 21
13.8096
  0
LINE
  8
0
 10
120.352
 20
13.8096
 11
120.572
 21
13.6886
  0
LINE
  8
0
 10
120.572
 20
13.6886
 11
120.775
 21
13.541
  0
LINE
  8
0
 10
120.775
 20
13.541
 11
120.958
 21
13.3691
  0
LINE
  8
0
 10
120.958
 20
13.3691
 11
121.118
 21
13.1756
  0
LINE
  8
0
 10
121.118
 20
13.1756
 11
121.253
 21
12.9635
  0
LINE
  8
0
 10
121.253
 20
12.9635
 11
121.36
 21
12.7362
  0
LINE
  8
0
 10
121.36
 20
12.7362
 11
121.437
 21
12.4974
  0
LINE
  8
0
 10
121.437
 20
12.4974
 11
121.484
 21
12.2507
  0
LINE
  8
0
 10
121.484
 20
12.2507
 11
121.5
 21
12
  0
LINE
  8
0
 10
121.5
 20
12
 11
121.484
 21
11.7493
  0
LINE
  8
0
 10
121.484
 20
11.7493
 11
121.437
 21
11.5026
  0
LINE
  8
0
 10
121.437
 20
11.5026
 11
121.36
 21
11.2637
  0
LINE
  8
0
 10
121.36
 20
11.2637
 11
121.253
 21
11.0365
  0
LINE
  8
0
 10
121.253
 20
11.0365
 11
121.118
 21
10.8244
  0
LINE
  8
0
 10
121.118
 20
10.8244
 11
120.958
 21
10.6309
  0
LINE
  8
0
 10
120.958
 20
10.6309
 11
120.775
 21
10.459
  0
LINE
  8
0
 10
120.775
 20
10.459
 11
120.572
 21
10.3113
  0
LINE
  8
0
 10
120.572
 20
10.3113
 11
120.352
 21
10.1903
  0
LINE
  8
0
 10
120.352
 20
10.1903
 11
120.118
 21
10.0979
  0
LINE
  8
0
 10
120.118
 20
10.0979
 11
119.875
 21
10.0354
  0
LINE
  8
0
 10
119.875
 20
10.0354
 11
119.626
 21
10.0039
  0
LINE
  8
0
 10
119.626
 20
10.0039
 11
119.374
 21
10.0039
  0
LINE
  8
0
 10
12.4167
 20
3
 11
12.4167
 21
6
  0
LINE
  8
0
 10
12.4167
 20
6
 11
32.4167
 21
6
  0
LINE
  8
0
 10
32.4167
 20
6
 11
32.4167
 21
3
  0
LINE
  8
0
 10
32.4167
 20
3
 11
12.4167
 21
3
  0
LINE
  8
0
 10
51.25
 20
3
 11
51.25
 21
6
  0
LINE
  8
0
 10
51.25
 20
6
 11
71.25
 21
6
  0
LINE
  8
0
 10
71.25
 20
6
 11
71.25
 21
3
  0
LINE
  8
0
 10
71.25
 20
3
 11
51.25
 21
3
  0
LINE
  8
0
 10
90.0833
 20
3
 11
90.0833
 21
6
  0
LINE
  8
0
 10
90.0833
 20
6
 11
110.083
 21
6
  0
LINE
  8
0
 10
110.083
 20
6
 11
110.083
 21
3
  0
LINE
  8
0
 10
110.083
 20
3
 11
90.0833
 21
3
  0
LINE
  8
0
 10
206.583
 20
3
 11
206.583
 21
6
  0
LINE
  8
0
 10
206.583
 20
6
 11
226.583
 21
6
  0
LINE
  8
0
 10
226.583
 20
6
 11
226.583
 21
3
  0
LINE
  8
0
 10
226.583
 20
3
 11
206.583
 21
3
  0
LINE
  8
0
 10
167.75
 20
3
 11
167.75
 21
6
  0
LINE
  8
0
 10
167.75
 20
6
 11
187.75
 21
6
  0
LINE
  8
0
 10
187.75
 20
6
 11
187.75
 21
3
  0
LINE
  8
0
 10
187.75
 20
3
 11
167.75
 21
3
  0
LINE
  8
0
 10
128.917
 20
3
 11
128.917
 21
6
  0
LINE
  8
0
 10
128.917
 20
6
 11
148.917
 21
6
  0
LINE
  8
0
 10
148.917
 20
6
 11
148.917
 21
3
  0
LINE
  8
0
 10
148.917
 20
3
 11
128.917
 21
3
  0
ENDSEC
  0
SECTION
  2
OBJECTS
  0
DICTIONARY
  0
ENDSEC
  0
EOF
