G04 #@! TF.GenerationSoftware,KiCad,Pcbnew,5.0.0-rc2-unknown-e4a6f2e~65~ubuntu18.04.1*
G04 #@! TF.CreationDate,2018-06-07T10:51:13+01:00*
G04 #@! TF.ProjectId,IV-11-breakout,49562D31312D627265616B6F75742E6B,rev?*
G04 #@! TF.SameCoordinates,Original*
G04 #@! TF.FileFunction,Copper,L1,Top,Signal*
G04 #@! TF.FilePolarity,Positive*
%FSLAX46Y46*%
G04 Gerber Fmt 4.6, Leading zero omitted, Abs format (unit mm)*
G04 Created by KiCad (PCBNEW 5.0.0-rc2-unknown-e4a6f2e~65~ubuntu18.04.1) date Thu Jun  7 10:51:13 2018*
%MOMM*%
%LPD*%
G01*
G04 APERTURE LIST*
G04 #@! TA.AperFunction,ComponentPad*
%ADD10O,1.700000X1.700000*%
G04 #@! TD*
G04 #@! TA.AperFunction,ComponentPad*
%ADD11R,1.700000X1.700000*%
G04 #@! TD*
G04 #@! TA.AperFunction,ComponentPad*
%ADD12C,1.524000*%
G04 #@! TD*
G04 #@! TA.AperFunction,Conductor*
%ADD13C,1.524000*%
G04 #@! TD*
G04 #@! TA.AperFunction,SMDPad,CuDef*
%ADD14R,1.500000X1.000000*%
G04 #@! TD*
G04 #@! TA.AperFunction,ViaPad*
%ADD15C,0.800000*%
G04 #@! TD*
G04 #@! TA.AperFunction,Conductor*
%ADD16C,0.250000*%
G04 #@! TD*
G04 #@! TA.AperFunction,Conductor*
%ADD17C,0.254000*%
G04 #@! TD*
G04 APERTURE END LIST*
D10*
G04 #@! TO.P,J1,13*
G04 #@! TO.N,/LED_DIN*
X102540000Y-99695000D03*
G04 #@! TO.P,J1,12*
G04 #@! TO.N,/LED+V*
X102540000Y-102235000D03*
G04 #@! TO.P,J1,11*
G04 #@! TO.N,/HEATER+V*
X102540000Y-104775000D03*
G04 #@! TO.P,J1,10*
G04 #@! TO.N,GND*
X102540000Y-107315000D03*
G04 #@! TO.P,J1,9*
G04 #@! TO.N,/GRID*
X102540000Y-109855000D03*
G04 #@! TO.P,J1,8*
G04 #@! TO.N,/DP*
X102540000Y-112395000D03*
G04 #@! TO.P,J1,7*
G04 #@! TO.N,/G*
X102540000Y-114935000D03*
G04 #@! TO.P,J1,6*
G04 #@! TO.N,/F*
X102540000Y-117475000D03*
G04 #@! TO.P,J1,5*
G04 #@! TO.N,/E*
X102540000Y-120015000D03*
G04 #@! TO.P,J1,4*
G04 #@! TO.N,/D*
X102540000Y-122555000D03*
G04 #@! TO.P,J1,3*
G04 #@! TO.N,/C*
X102540000Y-125095000D03*
G04 #@! TO.P,J1,2*
G04 #@! TO.N,/B*
X102540000Y-127635000D03*
D11*
G04 #@! TO.P,J1,1*
G04 #@! TO.N,/A*
X102540000Y-130175000D03*
G04 #@! TD*
D12*
G04 #@! TO.P,VFD1,1*
G04 #@! TO.N,GND*
X114052914Y-152295555D03*
D13*
G04 #@! TD*
G04 #@! TO.N,GND*
G04 #@! TO.C,VFD1*
X114179218Y-152766927D02*
X113926610Y-151824183D01*
D12*
G04 #@! TO.P,VFD1,2*
G04 #@! TO.N,/GRID*
X116742640Y-150742641D03*
D13*
G04 #@! TD*
G04 #@! TO.N,/GRID*
G04 #@! TO.C,VFD1*
X117087708Y-151087709D02*
X116397572Y-150397573D01*
D12*
G04 #@! TO.P,VFD1,3*
G04 #@! TO.N,/C*
X118295555Y-148052915D03*
D13*
G04 #@! TD*
G04 #@! TO.N,/C*
G04 #@! TO.C,VFD1*
X118766927Y-148179219D02*
X117824183Y-147926611D01*
D12*
G04 #@! TO.P,VFD1,4*
G04 #@! TO.N,/DP*
X118295555Y-144947086D03*
D13*
G04 #@! TD*
G04 #@! TO.N,/DP*
G04 #@! TO.C,VFD1*
X118766927Y-144820782D02*
X117824183Y-145073390D01*
D12*
G04 #@! TO.P,VFD1,5*
G04 #@! TO.N,/B*
X116742641Y-142257360D03*
D13*
G04 #@! TD*
G04 #@! TO.N,/B*
G04 #@! TO.C,VFD1*
X117087709Y-141912292D02*
X116397573Y-142602428D01*
D12*
G04 #@! TO.P,VFD1,6*
G04 #@! TO.N,/A*
X114052915Y-140704445D03*
D13*
G04 #@! TD*
G04 #@! TO.N,/A*
G04 #@! TO.C,VFD1*
X114179219Y-140233073D02*
X113926611Y-141175817D01*
D12*
G04 #@! TO.P,VFD1,7*
G04 #@! TO.N,/G*
X110947086Y-140704445D03*
D13*
G04 #@! TD*
G04 #@! TO.N,/G*
G04 #@! TO.C,VFD1*
X110820782Y-140233073D02*
X111073390Y-141175817D01*
D12*
G04 #@! TO.P,VFD1,8*
G04 #@! TO.N,/F*
X108257360Y-142257359D03*
D13*
G04 #@! TD*
G04 #@! TO.N,/F*
G04 #@! TO.C,VFD1*
X107912292Y-141912291D02*
X108602428Y-142602427D01*
D12*
G04 #@! TO.P,VFD1,9*
G04 #@! TO.N,/E*
X106704445Y-144947085D03*
D13*
G04 #@! TD*
G04 #@! TO.N,/E*
G04 #@! TO.C,VFD1*
X106233073Y-144820781D02*
X107175817Y-145073389D01*
D12*
G04 #@! TO.P,VFD1,10*
G04 #@! TO.N,/D*
X106704445Y-148052914D03*
D13*
G04 #@! TD*
G04 #@! TO.N,/D*
G04 #@! TO.C,VFD1*
X106233073Y-148179218D02*
X107175817Y-147926610D01*
D12*
G04 #@! TO.P,VFD1,11*
G04 #@! TO.N,/HEATER+V*
X108257359Y-150742640D03*
D13*
G04 #@! TD*
G04 #@! TO.N,/HEATER+V*
G04 #@! TO.C,VFD1*
X107912291Y-151087708D02*
X108602427Y-150397572D01*
D12*
G04 #@! TO.P,VFD1,12*
G04 #@! TO.N,N/C*
X110947085Y-152295555D03*
D13*
G04 #@! TD*
G04 #@! TO.N,N/C*
G04 #@! TO.C,VFD1*
X110820781Y-152766927D02*
X111073389Y-151824183D01*
D14*
G04 #@! TO.P,D1,1*
G04 #@! TO.N,/LED+V*
X114950000Y-148100000D03*
G04 #@! TO.P,D1,2*
G04 #@! TO.N,/LED_DOUT*
X114950000Y-144900000D03*
G04 #@! TO.P,D1,4*
G04 #@! TO.N,/LED_DIN*
X110050000Y-148100000D03*
G04 #@! TO.P,D1,3*
G04 #@! TO.N,GND*
X110050000Y-144900000D03*
G04 #@! TD*
D11*
G04 #@! TO.P,J2,1*
G04 #@! TO.N,/LED_DOUT*
X122860000Y-99695000D03*
G04 #@! TD*
D15*
G04 #@! TO.N,GND*
X108712000Y-146304000D03*
G04 #@! TO.N,/LED_DOUT*
X114812653Y-143260653D03*
G04 #@! TO.N,/A*
X114300000Y-133350000D03*
G04 #@! TO.N,/B*
X113538000Y-127762000D03*
G04 #@! TO.N,/GRID*
X117348000Y-124968000D03*
G04 #@! TO.N,/LED_DIN*
X110998000Y-143256000D03*
X109601000Y-125349000D03*
G04 #@! TO.N,/LED+V*
X115570000Y-131318000D03*
X111887000Y-102362000D03*
G04 #@! TO.N,/HEATER+V*
X112522000Y-125222000D03*
X112522000Y-115316000D03*
G04 #@! TD*
D16*
G04 #@! TO.N,GND*
X110050000Y-145650000D02*
X109396000Y-146304000D01*
X110050000Y-144900000D02*
X110050000Y-145650000D01*
X109396000Y-146304000D02*
X108712000Y-146304000D01*
G04 #@! TO.N,/LED_DOUT*
X114812653Y-144762653D02*
X114950000Y-144900000D01*
X114812653Y-143260653D02*
X114812653Y-144762653D01*
G04 #@! TO.N,/A*
X114300000Y-140457360D02*
X114052915Y-140704445D01*
X114300000Y-133350000D02*
X114300000Y-140457360D01*
G04 #@! TO.N,/B*
X116742641Y-142257360D02*
X116742641Y-129950641D01*
X116742641Y-129950641D02*
X114554000Y-127762000D01*
X114554000Y-127762000D02*
X113538000Y-127762000D01*
G04 #@! TO.N,/C*
X118364000Y-147994000D02*
X119036000Y-148666000D01*
X119174572Y-148931932D02*
X119213932Y-148931932D01*
X118295555Y-148052915D02*
X119174572Y-148931932D01*
X103632000Y-150114000D02*
X107950000Y-154432000D01*
X103632000Y-143002000D02*
X103632000Y-150114000D01*
X102540000Y-125095000D02*
X103389999Y-125944999D01*
X103389999Y-125944999D02*
X103389999Y-125995999D01*
X103389999Y-125995999D02*
X104140000Y-126746000D01*
X104140000Y-142494000D02*
X103632000Y-143002000D01*
X104140000Y-126746000D02*
X104140000Y-142494000D01*
X107950000Y-154432000D02*
X116332000Y-154432000D01*
X118295555Y-148941795D02*
X119634000Y-150280240D01*
X118295555Y-148052915D02*
X118295555Y-148941795D01*
X119634000Y-151130000D02*
X116332000Y-154432000D01*
X119634000Y-150280240D02*
X119634000Y-151130000D01*
G04 #@! TO.N,/D*
X105148963Y-125163963D02*
X105148963Y-142755037D01*
X102540000Y-122555000D02*
X105148963Y-125163963D01*
X105148963Y-142755037D02*
X104648000Y-143256000D01*
X104648000Y-145996469D02*
X106704445Y-148052914D01*
X104648000Y-143256000D02*
X104648000Y-145996469D01*
G04 #@! TO.N,/E*
X106704445Y-124179445D02*
X106704445Y-144947085D01*
X102540000Y-120015000D02*
X106704445Y-124179445D01*
G04 #@! TO.N,/F*
X103389999Y-118324999D02*
X102540000Y-117475000D01*
X108257360Y-142257359D02*
X108866885Y-141647834D01*
X108257360Y-123192360D02*
X102540000Y-117475000D01*
X108257360Y-142257359D02*
X108257360Y-123192360D01*
G04 #@! TO.N,/G*
X110947086Y-123342086D02*
X110947086Y-140704445D01*
X102540000Y-114935000D02*
X110947086Y-123342086D01*
G04 #@! TO.N,/DP*
X118450000Y-145466000D02*
X119450000Y-145466000D01*
X117856000Y-139319000D02*
X117856000Y-127711000D01*
X117856000Y-127711000D02*
X102540000Y-112395000D01*
X119174573Y-140637573D02*
X117856000Y-139319000D01*
X118295555Y-144947086D02*
X119174573Y-144068068D01*
X119174573Y-144068068D02*
X119174573Y-140637573D01*
G04 #@! TO.N,/GRID*
X103389999Y-110704999D02*
X103389999Y-110755999D01*
X102540000Y-109855000D02*
X103389999Y-110704999D01*
X103389999Y-110755999D02*
X117348000Y-124714000D01*
X117348000Y-124714000D02*
X117348000Y-124968000D01*
G04 #@! TO.N,/LED_DIN*
X110050000Y-147350000D02*
X111760000Y-145640000D01*
X110050000Y-148100000D02*
X110050000Y-147350000D01*
X111760000Y-145640000D02*
X111760000Y-144018000D01*
X111760000Y-144018000D02*
X110998000Y-143256000D01*
X110598001Y-142856001D02*
X110998000Y-143256000D01*
X109582001Y-141840001D02*
X110598001Y-142856001D01*
X109582001Y-125367999D02*
X109582001Y-141840001D01*
G04 #@! TO.N,/LED+V*
X114950000Y-148100000D02*
X114700000Y-148100000D01*
X115570000Y-131318000D02*
X115570000Y-141478000D01*
X115570000Y-141478000D02*
X113284000Y-143764000D01*
X113284000Y-143764000D02*
X113284000Y-147434000D01*
X114950000Y-148100000D02*
X113950000Y-148100000D01*
X113950000Y-148100000D02*
X113284000Y-147434000D01*
X102667000Y-102362000D02*
X102540000Y-102235000D01*
X111887000Y-102362000D02*
X102667000Y-102362000D01*
G04 #@! TO.N,/HEATER+V*
X109379734Y-150742640D02*
X112522000Y-147600374D01*
X108257359Y-150742640D02*
X109379734Y-150742640D01*
X112522000Y-147600374D02*
X112522000Y-127704998D01*
X112522000Y-127704998D02*
X112522000Y-125222000D01*
X102540000Y-104775000D02*
X110871000Y-104775000D01*
X110871000Y-104775000D02*
X112522000Y-106426000D01*
X112522000Y-106426000D02*
X112522000Y-115316000D01*
G04 #@! TD*
D17*
G04 #@! TO.N,GND*
G36*
X101960582Y-98296161D02*
X101469375Y-98624375D01*
X101141161Y-99115582D01*
X101025908Y-99695000D01*
X101141161Y-100274418D01*
X101469375Y-100765625D01*
X101767761Y-100965000D01*
X101469375Y-101164375D01*
X101141161Y-101655582D01*
X101025908Y-102235000D01*
X101141161Y-102814418D01*
X101469375Y-103305625D01*
X101767761Y-103505000D01*
X101469375Y-103704375D01*
X101141161Y-104195582D01*
X101025908Y-104775000D01*
X101141161Y-105354418D01*
X101469375Y-105845625D01*
X101788478Y-106058843D01*
X101658642Y-106119817D01*
X101268355Y-106548076D01*
X101098524Y-106958110D01*
X101219845Y-107188000D01*
X102413000Y-107188000D01*
X102413000Y-107168000D01*
X102667000Y-107168000D01*
X102667000Y-107188000D01*
X103860155Y-107188000D01*
X103981476Y-106958110D01*
X103811645Y-106548076D01*
X103421358Y-106119817D01*
X103291522Y-106058843D01*
X103610625Y-105845625D01*
X103818178Y-105535000D01*
X110556199Y-105535000D01*
X111762000Y-106740802D01*
X111762001Y-114612288D01*
X111644569Y-114729720D01*
X111487000Y-115110126D01*
X111487000Y-115521874D01*
X111644569Y-115902280D01*
X111935720Y-116193431D01*
X112316126Y-116351000D01*
X112727874Y-116351000D01*
X113108280Y-116193431D01*
X113399431Y-115902280D01*
X113557000Y-115521874D01*
X113557000Y-115110126D01*
X113399431Y-114729720D01*
X113282000Y-114612289D01*
X113282000Y-106500848D01*
X113296888Y-106426000D01*
X113282000Y-106351152D01*
X113282000Y-106351148D01*
X113237904Y-106129463D01*
X113069929Y-105878071D01*
X113006473Y-105835671D01*
X111461331Y-104290530D01*
X111418929Y-104227071D01*
X111167537Y-104059096D01*
X110945852Y-104015000D01*
X110945847Y-104015000D01*
X110871000Y-104000112D01*
X110796153Y-104015000D01*
X103818178Y-104015000D01*
X103610625Y-103704375D01*
X103312239Y-103505000D01*
X103610625Y-103305625D01*
X103733319Y-103122000D01*
X111183289Y-103122000D01*
X111300720Y-103239431D01*
X111681126Y-103397000D01*
X112092874Y-103397000D01*
X112473280Y-103239431D01*
X112764431Y-102948280D01*
X112922000Y-102567874D01*
X112922000Y-102156126D01*
X112764431Y-101775720D01*
X112473280Y-101484569D01*
X112092874Y-101327000D01*
X111681126Y-101327000D01*
X111300720Y-101484569D01*
X111183289Y-101602000D01*
X103903037Y-101602000D01*
X103610625Y-101164375D01*
X103312239Y-100965000D01*
X103610625Y-100765625D01*
X103938839Y-100274418D01*
X104054092Y-99695000D01*
X103938839Y-99115582D01*
X103610625Y-98624375D01*
X103119418Y-98296161D01*
X102811940Y-98235000D01*
X121821774Y-98235000D01*
X121762235Y-98246843D01*
X121552191Y-98387191D01*
X121411843Y-98597235D01*
X121362560Y-98845000D01*
X121362560Y-100545000D01*
X121411843Y-100792765D01*
X121552191Y-101002809D01*
X121762235Y-101143157D01*
X122010000Y-101192440D01*
X123710000Y-101192440D01*
X123957765Y-101143157D01*
X124167809Y-101002809D01*
X124265000Y-100857353D01*
X124265001Y-161765000D01*
X100735000Y-161765000D01*
X100735000Y-158575322D01*
X101365000Y-158575322D01*
X101365000Y-159424678D01*
X101690034Y-160209380D01*
X102290620Y-160809966D01*
X103075322Y-161135000D01*
X103924678Y-161135000D01*
X104709380Y-160809966D01*
X105309966Y-160209380D01*
X105635000Y-159424678D01*
X105635000Y-158575322D01*
X105309966Y-157790620D01*
X104709380Y-157190034D01*
X103924678Y-156865000D01*
X103075322Y-156865000D01*
X102290620Y-157190034D01*
X101690034Y-157790620D01*
X101365000Y-158575322D01*
X100735000Y-158575322D01*
X100735000Y-109855000D01*
X101025908Y-109855000D01*
X101141161Y-110434418D01*
X101469375Y-110925625D01*
X101767761Y-111125000D01*
X101469375Y-111324375D01*
X101141161Y-111815582D01*
X101025908Y-112395000D01*
X101141161Y-112974418D01*
X101469375Y-113465625D01*
X101767761Y-113665000D01*
X101469375Y-113864375D01*
X101141161Y-114355582D01*
X101025908Y-114935000D01*
X101141161Y-115514418D01*
X101469375Y-116005625D01*
X101767761Y-116205000D01*
X101469375Y-116404375D01*
X101141161Y-116895582D01*
X101025908Y-117475000D01*
X101141161Y-118054418D01*
X101469375Y-118545625D01*
X101767761Y-118745000D01*
X101469375Y-118944375D01*
X101141161Y-119435582D01*
X101025908Y-120015000D01*
X101141161Y-120594418D01*
X101469375Y-121085625D01*
X101767761Y-121285000D01*
X101469375Y-121484375D01*
X101141161Y-121975582D01*
X101025908Y-122555000D01*
X101141161Y-123134418D01*
X101469375Y-123625625D01*
X101767761Y-123825000D01*
X101469375Y-124024375D01*
X101141161Y-124515582D01*
X101025908Y-125095000D01*
X101141161Y-125674418D01*
X101469375Y-126165625D01*
X101767761Y-126365000D01*
X101469375Y-126564375D01*
X101141161Y-127055582D01*
X101025908Y-127635000D01*
X101141161Y-128214418D01*
X101469375Y-128705625D01*
X101487619Y-128717816D01*
X101442235Y-128726843D01*
X101232191Y-128867191D01*
X101091843Y-129077235D01*
X101042560Y-129325000D01*
X101042560Y-131025000D01*
X101091843Y-131272765D01*
X101232191Y-131482809D01*
X101442235Y-131623157D01*
X101690000Y-131672440D01*
X103380000Y-131672440D01*
X103380001Y-142179197D01*
X103147529Y-142411670D01*
X103084071Y-142454071D01*
X102916096Y-142705464D01*
X102872000Y-142927149D01*
X102872000Y-142927153D01*
X102857112Y-143002000D01*
X102872000Y-143076847D01*
X102872001Y-150039148D01*
X102857112Y-150114000D01*
X102916097Y-150410537D01*
X103030713Y-150582071D01*
X103084072Y-150661929D01*
X103147528Y-150704329D01*
X107359671Y-154916473D01*
X107402071Y-154979929D01*
X107653463Y-155147904D01*
X107875148Y-155192000D01*
X107875152Y-155192000D01*
X107949999Y-155206888D01*
X108024846Y-155192000D01*
X116257153Y-155192000D01*
X116332000Y-155206888D01*
X116406847Y-155192000D01*
X116406852Y-155192000D01*
X116628537Y-155147904D01*
X116879929Y-154979929D01*
X116922331Y-154916470D01*
X120118473Y-151720329D01*
X120181929Y-151677929D01*
X120349904Y-151426537D01*
X120394000Y-151204852D01*
X120394000Y-151204848D01*
X120408888Y-151130001D01*
X120394000Y-151055154D01*
X120394000Y-150355086D01*
X120408888Y-150280239D01*
X120394000Y-150205392D01*
X120394000Y-150205388D01*
X120349904Y-149983703D01*
X120181929Y-149732311D01*
X120118473Y-149689911D01*
X119820565Y-149392004D01*
X119929836Y-149228469D01*
X119988821Y-148931932D01*
X119978630Y-148880696D01*
X120142761Y-148547873D01*
X120179109Y-147993302D01*
X120000466Y-147467036D01*
X119634028Y-147049193D01*
X119261398Y-146865432D01*
X118052854Y-146541603D01*
X117638267Y-146514430D01*
X117112000Y-146693073D01*
X116694157Y-147059511D01*
X116448350Y-147557957D01*
X116412002Y-148112527D01*
X116590645Y-148638794D01*
X116957083Y-149056637D01*
X117329713Y-149240398D01*
X117635841Y-149322425D01*
X117696199Y-149412756D01*
X117747627Y-149489724D01*
X117811083Y-149532124D01*
X118874000Y-150595042D01*
X118874000Y-150815198D01*
X118489873Y-151199325D01*
X118512075Y-151087709D01*
X118403652Y-150542627D01*
X118172825Y-150197171D01*
X117288110Y-149312456D01*
X116942653Y-149081629D01*
X116397572Y-148973206D01*
X116186253Y-149015240D01*
X116298157Y-148847765D01*
X116347440Y-148600000D01*
X116347440Y-147600000D01*
X116298157Y-147352235D01*
X116157809Y-147142191D01*
X115947765Y-147001843D01*
X115700000Y-146952560D01*
X114200000Y-146952560D01*
X114044000Y-146983590D01*
X114044000Y-146016410D01*
X114200000Y-146047440D01*
X115700000Y-146047440D01*
X115947765Y-145998157D01*
X116157809Y-145857809D01*
X116298157Y-145647765D01*
X116347440Y-145400000D01*
X116347440Y-144400000D01*
X116298157Y-144152235D01*
X116186254Y-143984761D01*
X116397573Y-144026795D01*
X116942654Y-143918372D01*
X117288111Y-143687545D01*
X118172826Y-142802830D01*
X118403653Y-142457374D01*
X118414573Y-142402473D01*
X118414573Y-143468915D01*
X117329713Y-143759603D01*
X116957083Y-143943364D01*
X116590645Y-144361207D01*
X116412002Y-144887474D01*
X116448350Y-145442044D01*
X116694157Y-145940490D01*
X117112000Y-146306928D01*
X117638267Y-146485571D01*
X118052854Y-146458398D01*
X118920174Y-146226000D01*
X119524852Y-146226000D01*
X119746537Y-146181904D01*
X119997929Y-146013929D01*
X120165904Y-145762537D01*
X120224889Y-145466000D01*
X120165904Y-145169463D01*
X120138023Y-145127736D01*
X120179109Y-145006699D01*
X120142761Y-144452128D01*
X119946823Y-144054808D01*
X119934573Y-143993222D01*
X119934573Y-140712421D01*
X119949461Y-140637573D01*
X119934573Y-140562725D01*
X119934573Y-140562721D01*
X119890477Y-140341036D01*
X119890477Y-140341035D01*
X119764902Y-140153100D01*
X119722502Y-140089644D01*
X119659046Y-140047244D01*
X118616000Y-139004199D01*
X118616000Y-133575322D01*
X119365000Y-133575322D01*
X119365000Y-134424678D01*
X119690034Y-135209380D01*
X120290620Y-135809966D01*
X121075322Y-136135000D01*
X121924678Y-136135000D01*
X122709380Y-135809966D01*
X123309966Y-135209380D01*
X123635000Y-134424678D01*
X123635000Y-133575322D01*
X123309966Y-132790620D01*
X122709380Y-132190034D01*
X121924678Y-131865000D01*
X121075322Y-131865000D01*
X120290620Y-132190034D01*
X119690034Y-132790620D01*
X119365000Y-133575322D01*
X118616000Y-133575322D01*
X118616000Y-127785847D01*
X118630888Y-127711000D01*
X118616000Y-127636153D01*
X118616000Y-127636148D01*
X118571904Y-127414463D01*
X118403929Y-127163071D01*
X118340473Y-127120671D01*
X117222802Y-126003000D01*
X117553874Y-126003000D01*
X117934280Y-125845431D01*
X118225431Y-125554280D01*
X118383000Y-125173874D01*
X118383000Y-124762126D01*
X118225431Y-124381720D01*
X117934280Y-124090569D01*
X117703978Y-123995175D01*
X104083028Y-110374227D01*
X103981142Y-110221745D01*
X104054092Y-109855000D01*
X103938839Y-109275582D01*
X103610625Y-108784375D01*
X103291522Y-108571157D01*
X103421358Y-108510183D01*
X103811645Y-108081924D01*
X103981476Y-107671890D01*
X103860155Y-107442000D01*
X102667000Y-107442000D01*
X102667000Y-107462000D01*
X102413000Y-107462000D01*
X102413000Y-107442000D01*
X101219845Y-107442000D01*
X101098524Y-107671890D01*
X101268355Y-108081924D01*
X101658642Y-108510183D01*
X101788478Y-108571157D01*
X101469375Y-108784375D01*
X101141161Y-109275582D01*
X101025908Y-109855000D01*
X100735000Y-109855000D01*
X100735000Y-98235000D01*
X102268060Y-98235000D01*
X101960582Y-98296161D01*
X101960582Y-98296161D01*
G37*
X101960582Y-98296161D02*
X101469375Y-98624375D01*
X101141161Y-99115582D01*
X101025908Y-99695000D01*
X101141161Y-100274418D01*
X101469375Y-100765625D01*
X101767761Y-100965000D01*
X101469375Y-101164375D01*
X101141161Y-101655582D01*
X101025908Y-102235000D01*
X101141161Y-102814418D01*
X101469375Y-103305625D01*
X101767761Y-103505000D01*
X101469375Y-103704375D01*
X101141161Y-104195582D01*
X101025908Y-104775000D01*
X101141161Y-105354418D01*
X101469375Y-105845625D01*
X101788478Y-106058843D01*
X101658642Y-106119817D01*
X101268355Y-106548076D01*
X101098524Y-106958110D01*
X101219845Y-107188000D01*
X102413000Y-107188000D01*
X102413000Y-107168000D01*
X102667000Y-107168000D01*
X102667000Y-107188000D01*
X103860155Y-107188000D01*
X103981476Y-106958110D01*
X103811645Y-106548076D01*
X103421358Y-106119817D01*
X103291522Y-106058843D01*
X103610625Y-105845625D01*
X103818178Y-105535000D01*
X110556199Y-105535000D01*
X111762000Y-106740802D01*
X111762001Y-114612288D01*
X111644569Y-114729720D01*
X111487000Y-115110126D01*
X111487000Y-115521874D01*
X111644569Y-115902280D01*
X111935720Y-116193431D01*
X112316126Y-116351000D01*
X112727874Y-116351000D01*
X113108280Y-116193431D01*
X113399431Y-115902280D01*
X113557000Y-115521874D01*
X113557000Y-115110126D01*
X113399431Y-114729720D01*
X113282000Y-114612289D01*
X113282000Y-106500848D01*
X113296888Y-106426000D01*
X113282000Y-106351152D01*
X113282000Y-106351148D01*
X113237904Y-106129463D01*
X113069929Y-105878071D01*
X113006473Y-105835671D01*
X111461331Y-104290530D01*
X111418929Y-104227071D01*
X111167537Y-104059096D01*
X110945852Y-104015000D01*
X110945847Y-104015000D01*
X110871000Y-104000112D01*
X110796153Y-104015000D01*
X103818178Y-104015000D01*
X103610625Y-103704375D01*
X103312239Y-103505000D01*
X103610625Y-103305625D01*
X103733319Y-103122000D01*
X111183289Y-103122000D01*
X111300720Y-103239431D01*
X111681126Y-103397000D01*
X112092874Y-103397000D01*
X112473280Y-103239431D01*
X112764431Y-102948280D01*
X112922000Y-102567874D01*
X112922000Y-102156126D01*
X112764431Y-101775720D01*
X112473280Y-101484569D01*
X112092874Y-101327000D01*
X111681126Y-101327000D01*
X111300720Y-101484569D01*
X111183289Y-101602000D01*
X103903037Y-101602000D01*
X103610625Y-101164375D01*
X103312239Y-100965000D01*
X103610625Y-100765625D01*
X103938839Y-100274418D01*
X104054092Y-99695000D01*
X103938839Y-99115582D01*
X103610625Y-98624375D01*
X103119418Y-98296161D01*
X102811940Y-98235000D01*
X121821774Y-98235000D01*
X121762235Y-98246843D01*
X121552191Y-98387191D01*
X121411843Y-98597235D01*
X121362560Y-98845000D01*
X121362560Y-100545000D01*
X121411843Y-100792765D01*
X121552191Y-101002809D01*
X121762235Y-101143157D01*
X122010000Y-101192440D01*
X123710000Y-101192440D01*
X123957765Y-101143157D01*
X124167809Y-101002809D01*
X124265000Y-100857353D01*
X124265001Y-161765000D01*
X100735000Y-161765000D01*
X100735000Y-158575322D01*
X101365000Y-158575322D01*
X101365000Y-159424678D01*
X101690034Y-160209380D01*
X102290620Y-160809966D01*
X103075322Y-161135000D01*
X103924678Y-161135000D01*
X104709380Y-160809966D01*
X105309966Y-160209380D01*
X105635000Y-159424678D01*
X105635000Y-158575322D01*
X105309966Y-157790620D01*
X104709380Y-157190034D01*
X103924678Y-156865000D01*
X103075322Y-156865000D01*
X102290620Y-157190034D01*
X101690034Y-157790620D01*
X101365000Y-158575322D01*
X100735000Y-158575322D01*
X100735000Y-109855000D01*
X101025908Y-109855000D01*
X101141161Y-110434418D01*
X101469375Y-110925625D01*
X101767761Y-111125000D01*
X101469375Y-111324375D01*
X101141161Y-111815582D01*
X101025908Y-112395000D01*
X101141161Y-112974418D01*
X101469375Y-113465625D01*
X101767761Y-113665000D01*
X101469375Y-113864375D01*
X101141161Y-114355582D01*
X101025908Y-114935000D01*
X101141161Y-115514418D01*
X101469375Y-116005625D01*
X101767761Y-116205000D01*
X101469375Y-116404375D01*
X101141161Y-116895582D01*
X101025908Y-117475000D01*
X101141161Y-118054418D01*
X101469375Y-118545625D01*
X101767761Y-118745000D01*
X101469375Y-118944375D01*
X101141161Y-119435582D01*
X101025908Y-120015000D01*
X101141161Y-120594418D01*
X101469375Y-121085625D01*
X101767761Y-121285000D01*
X101469375Y-121484375D01*
X101141161Y-121975582D01*
X101025908Y-122555000D01*
X101141161Y-123134418D01*
X101469375Y-123625625D01*
X101767761Y-123825000D01*
X101469375Y-124024375D01*
X101141161Y-124515582D01*
X101025908Y-125095000D01*
X101141161Y-125674418D01*
X101469375Y-126165625D01*
X101767761Y-126365000D01*
X101469375Y-126564375D01*
X101141161Y-127055582D01*
X101025908Y-127635000D01*
X101141161Y-128214418D01*
X101469375Y-128705625D01*
X101487619Y-128717816D01*
X101442235Y-128726843D01*
X101232191Y-128867191D01*
X101091843Y-129077235D01*
X101042560Y-129325000D01*
X101042560Y-131025000D01*
X101091843Y-131272765D01*
X101232191Y-131482809D01*
X101442235Y-131623157D01*
X101690000Y-131672440D01*
X103380000Y-131672440D01*
X103380001Y-142179197D01*
X103147529Y-142411670D01*
X103084071Y-142454071D01*
X102916096Y-142705464D01*
X102872000Y-142927149D01*
X102872000Y-142927153D01*
X102857112Y-143002000D01*
X102872000Y-143076847D01*
X102872001Y-150039148D01*
X102857112Y-150114000D01*
X102916097Y-150410537D01*
X103030713Y-150582071D01*
X103084072Y-150661929D01*
X103147528Y-150704329D01*
X107359671Y-154916473D01*
X107402071Y-154979929D01*
X107653463Y-155147904D01*
X107875148Y-155192000D01*
X107875152Y-155192000D01*
X107949999Y-155206888D01*
X108024846Y-155192000D01*
X116257153Y-155192000D01*
X116332000Y-155206888D01*
X116406847Y-155192000D01*
X116406852Y-155192000D01*
X116628537Y-155147904D01*
X116879929Y-154979929D01*
X116922331Y-154916470D01*
X120118473Y-151720329D01*
X120181929Y-151677929D01*
X120349904Y-151426537D01*
X120394000Y-151204852D01*
X120394000Y-151204848D01*
X120408888Y-151130001D01*
X120394000Y-151055154D01*
X120394000Y-150355086D01*
X120408888Y-150280239D01*
X120394000Y-150205392D01*
X120394000Y-150205388D01*
X120349904Y-149983703D01*
X120181929Y-149732311D01*
X120118473Y-149689911D01*
X119820565Y-149392004D01*
X119929836Y-149228469D01*
X119988821Y-148931932D01*
X119978630Y-148880696D01*
X120142761Y-148547873D01*
X120179109Y-147993302D01*
X120000466Y-147467036D01*
X119634028Y-147049193D01*
X119261398Y-146865432D01*
X118052854Y-146541603D01*
X117638267Y-146514430D01*
X117112000Y-146693073D01*
X116694157Y-147059511D01*
X116448350Y-147557957D01*
X116412002Y-148112527D01*
X116590645Y-148638794D01*
X116957083Y-149056637D01*
X117329713Y-149240398D01*
X117635841Y-149322425D01*
X117696199Y-149412756D01*
X117747627Y-149489724D01*
X117811083Y-149532124D01*
X118874000Y-150595042D01*
X118874000Y-150815198D01*
X118489873Y-151199325D01*
X118512075Y-151087709D01*
X118403652Y-150542627D01*
X118172825Y-150197171D01*
X117288110Y-149312456D01*
X116942653Y-149081629D01*
X116397572Y-148973206D01*
X116186253Y-149015240D01*
X116298157Y-148847765D01*
X116347440Y-148600000D01*
X116347440Y-147600000D01*
X116298157Y-147352235D01*
X116157809Y-147142191D01*
X115947765Y-147001843D01*
X115700000Y-146952560D01*
X114200000Y-146952560D01*
X114044000Y-146983590D01*
X114044000Y-146016410D01*
X114200000Y-146047440D01*
X115700000Y-146047440D01*
X115947765Y-145998157D01*
X116157809Y-145857809D01*
X116298157Y-145647765D01*
X116347440Y-145400000D01*
X116347440Y-144400000D01*
X116298157Y-144152235D01*
X116186254Y-143984761D01*
X116397573Y-144026795D01*
X116942654Y-143918372D01*
X117288111Y-143687545D01*
X118172826Y-142802830D01*
X118403653Y-142457374D01*
X118414573Y-142402473D01*
X118414573Y-143468915D01*
X117329713Y-143759603D01*
X116957083Y-143943364D01*
X116590645Y-144361207D01*
X116412002Y-144887474D01*
X116448350Y-145442044D01*
X116694157Y-145940490D01*
X117112000Y-146306928D01*
X117638267Y-146485571D01*
X118052854Y-146458398D01*
X118920174Y-146226000D01*
X119524852Y-146226000D01*
X119746537Y-146181904D01*
X119997929Y-146013929D01*
X120165904Y-145762537D01*
X120224889Y-145466000D01*
X120165904Y-145169463D01*
X120138023Y-145127736D01*
X120179109Y-145006699D01*
X120142761Y-144452128D01*
X119946823Y-144054808D01*
X119934573Y-143993222D01*
X119934573Y-140712421D01*
X119949461Y-140637573D01*
X119934573Y-140562725D01*
X119934573Y-140562721D01*
X119890477Y-140341036D01*
X119890477Y-140341035D01*
X119764902Y-140153100D01*
X119722502Y-140089644D01*
X119659046Y-140047244D01*
X118616000Y-139004199D01*
X118616000Y-133575322D01*
X119365000Y-133575322D01*
X119365000Y-134424678D01*
X119690034Y-135209380D01*
X120290620Y-135809966D01*
X121075322Y-136135000D01*
X121924678Y-136135000D01*
X122709380Y-135809966D01*
X123309966Y-135209380D01*
X123635000Y-134424678D01*
X123635000Y-133575322D01*
X123309966Y-132790620D01*
X122709380Y-132190034D01*
X121924678Y-131865000D01*
X121075322Y-131865000D01*
X120290620Y-132190034D01*
X119690034Y-132790620D01*
X119365000Y-133575322D01*
X118616000Y-133575322D01*
X118616000Y-127785847D01*
X118630888Y-127711000D01*
X118616000Y-127636153D01*
X118616000Y-127636148D01*
X118571904Y-127414463D01*
X118403929Y-127163071D01*
X118340473Y-127120671D01*
X117222802Y-126003000D01*
X117553874Y-126003000D01*
X117934280Y-125845431D01*
X118225431Y-125554280D01*
X118383000Y-125173874D01*
X118383000Y-124762126D01*
X118225431Y-124381720D01*
X117934280Y-124090569D01*
X117703978Y-123995175D01*
X104083028Y-110374227D01*
X103981142Y-110221745D01*
X104054092Y-109855000D01*
X103938839Y-109275582D01*
X103610625Y-108784375D01*
X103291522Y-108571157D01*
X103421358Y-108510183D01*
X103811645Y-108081924D01*
X103981476Y-107671890D01*
X103860155Y-107442000D01*
X102667000Y-107442000D01*
X102667000Y-107462000D01*
X102413000Y-107462000D01*
X102413000Y-107442000D01*
X101219845Y-107442000D01*
X101098524Y-107671890D01*
X101268355Y-108081924D01*
X101658642Y-108510183D01*
X101788478Y-108571157D01*
X101469375Y-108784375D01*
X101141161Y-109275582D01*
X101025908Y-109855000D01*
X100735000Y-109855000D01*
X100735000Y-98235000D01*
X102268060Y-98235000D01*
X101960582Y-98296161D01*
G36*
X113359671Y-148584473D02*
X113402071Y-148647929D01*
X113586622Y-148771242D01*
X113601843Y-148847765D01*
X113742191Y-149057809D01*
X113952235Y-149198157D01*
X114200000Y-149247440D01*
X115604337Y-149247440D01*
X115390392Y-149390393D01*
X115081628Y-149852492D01*
X114973205Y-150397573D01*
X115081628Y-150942654D01*
X115312455Y-151288111D01*
X116197170Y-152172826D01*
X116542626Y-152403653D01*
X117087708Y-152512076D01*
X117199324Y-152489874D01*
X116017199Y-153672000D01*
X115223969Y-153672000D01*
X115325555Y-153575411D01*
X115547689Y-153075185D01*
X115561486Y-152528029D01*
X115435182Y-152056657D01*
X114208457Y-152385358D01*
X114213633Y-152404676D01*
X113968287Y-152470417D01*
X113963111Y-152451098D01*
X112736386Y-152779798D01*
X112862689Y-153251170D01*
X113120014Y-153672000D01*
X111907507Y-153672000D01*
X111950807Y-153634027D01*
X112134568Y-153261397D01*
X112455656Y-152063081D01*
X112544342Y-152063081D01*
X112670646Y-152534453D01*
X113897371Y-152205752D01*
X113485145Y-150667303D01*
X113244732Y-150604900D01*
X113176926Y-150638557D01*
X112780273Y-151015699D01*
X112558139Y-151515925D01*
X112544342Y-152063081D01*
X112455656Y-152063081D01*
X112458397Y-152052854D01*
X112485571Y-151638266D01*
X112306928Y-151112000D01*
X111940489Y-150694157D01*
X111752729Y-150601563D01*
X113730490Y-150601563D01*
X114142717Y-152140012D01*
X115369442Y-151811312D01*
X115243139Y-151339940D01*
X114957612Y-150872988D01*
X114515126Y-150550846D01*
X113983043Y-150422558D01*
X113907493Y-150427314D01*
X113730490Y-150601563D01*
X111752729Y-150601563D01*
X111442043Y-150448349D01*
X110887472Y-150412001D01*
X110732604Y-150464572D01*
X112986187Y-148210989D01*
X113359671Y-148584473D01*
X113359671Y-148584473D01*
G37*
X113359671Y-148584473D02*
X113402071Y-148647929D01*
X113586622Y-148771242D01*
X113601843Y-148847765D01*
X113742191Y-149057809D01*
X113952235Y-149198157D01*
X114200000Y-149247440D01*
X115604337Y-149247440D01*
X115390392Y-149390393D01*
X115081628Y-149852492D01*
X114973205Y-150397573D01*
X115081628Y-150942654D01*
X115312455Y-151288111D01*
X116197170Y-152172826D01*
X116542626Y-152403653D01*
X117087708Y-152512076D01*
X117199324Y-152489874D01*
X116017199Y-153672000D01*
X115223969Y-153672000D01*
X115325555Y-153575411D01*
X115547689Y-153075185D01*
X115561486Y-152528029D01*
X115435182Y-152056657D01*
X114208457Y-152385358D01*
X114213633Y-152404676D01*
X113968287Y-152470417D01*
X113963111Y-152451098D01*
X112736386Y-152779798D01*
X112862689Y-153251170D01*
X113120014Y-153672000D01*
X111907507Y-153672000D01*
X111950807Y-153634027D01*
X112134568Y-153261397D01*
X112455656Y-152063081D01*
X112544342Y-152063081D01*
X112670646Y-152534453D01*
X113897371Y-152205752D01*
X113485145Y-150667303D01*
X113244732Y-150604900D01*
X113176926Y-150638557D01*
X112780273Y-151015699D01*
X112558139Y-151515925D01*
X112544342Y-152063081D01*
X112455656Y-152063081D01*
X112458397Y-152052854D01*
X112485571Y-151638266D01*
X112306928Y-151112000D01*
X111940489Y-150694157D01*
X111752729Y-150601563D01*
X113730490Y-150601563D01*
X114142717Y-152140012D01*
X115369442Y-151811312D01*
X115243139Y-151339940D01*
X114957612Y-150872988D01*
X114515126Y-150550846D01*
X113983043Y-150422558D01*
X113907493Y-150427314D01*
X113730490Y-150601563D01*
X111752729Y-150601563D01*
X111442043Y-150448349D01*
X110887472Y-150412001D01*
X110732604Y-150464572D01*
X112986187Y-148210989D01*
X113359671Y-148584473D01*
G36*
X109963000Y-143295802D02*
X109963000Y-143461874D01*
X110120569Y-143842280D01*
X110189520Y-143911231D01*
X110177000Y-143923750D01*
X110177000Y-144773000D01*
X110197000Y-144773000D01*
X110197000Y-145027000D01*
X110177000Y-145027000D01*
X110177000Y-145876250D01*
X110312974Y-146012224D01*
X109565528Y-146759671D01*
X109502072Y-146802071D01*
X109401518Y-146952560D01*
X109300000Y-146952560D01*
X109052235Y-147001843D01*
X108842191Y-147142191D01*
X108701843Y-147352235D01*
X108652560Y-147600000D01*
X108652560Y-148600000D01*
X108701843Y-148847765D01*
X108813746Y-149015239D01*
X108602427Y-148973205D01*
X108057345Y-149081628D01*
X107711889Y-149312455D01*
X106827174Y-150197170D01*
X106596347Y-150542627D01*
X106487924Y-151087708D01*
X106596347Y-151632789D01*
X106905111Y-152094888D01*
X107367210Y-152403652D01*
X107912291Y-152512075D01*
X108457372Y-152403652D01*
X108802829Y-152172825D01*
X109477590Y-151498064D01*
X109676271Y-151458544D01*
X109735726Y-151418817D01*
X109435773Y-152538256D01*
X109408600Y-152952843D01*
X109587243Y-153479110D01*
X109756403Y-153672000D01*
X108264802Y-153672000D01*
X104392000Y-149799199D01*
X104392000Y-146815270D01*
X105020200Y-147443471D01*
X104999535Y-147467035D01*
X104820892Y-147993302D01*
X104857240Y-148547872D01*
X105103047Y-149046318D01*
X105520890Y-149412756D01*
X106047157Y-149591399D01*
X106461744Y-149564226D01*
X107670288Y-149240397D01*
X108042918Y-149056636D01*
X108409356Y-148638793D01*
X108587999Y-148112527D01*
X108551651Y-147557956D01*
X108305843Y-147059510D01*
X107888000Y-146693071D01*
X107361734Y-146514428D01*
X106947146Y-146541602D01*
X106411470Y-146685136D01*
X105905665Y-146179332D01*
X106947146Y-146458397D01*
X107361734Y-146485571D01*
X107888000Y-146306928D01*
X108305843Y-145940489D01*
X108551651Y-145442043D01*
X108568449Y-145185750D01*
X108665000Y-145185750D01*
X108665000Y-145526310D01*
X108761673Y-145759699D01*
X108940302Y-145938327D01*
X109173691Y-146035000D01*
X109764250Y-146035000D01*
X109923000Y-145876250D01*
X109923000Y-145027000D01*
X108823750Y-145027000D01*
X108665000Y-145185750D01*
X108568449Y-145185750D01*
X108587999Y-144887472D01*
X108409356Y-144361206D01*
X108042918Y-143943363D01*
X107670288Y-143759602D01*
X107464445Y-143704446D01*
X107464445Y-143440099D01*
X107711890Y-143687544D01*
X108057346Y-143918371D01*
X108602428Y-144026794D01*
X108818075Y-143983899D01*
X108761673Y-144040301D01*
X108665000Y-144273690D01*
X108665000Y-144614250D01*
X108823750Y-144773000D01*
X109923000Y-144773000D01*
X109923000Y-143923750D01*
X109764250Y-143765000D01*
X109377045Y-143765000D01*
X109609608Y-143609607D01*
X109876849Y-143209651D01*
X109963000Y-143295802D01*
X109963000Y-143295802D01*
G37*
X109963000Y-143295802D02*
X109963000Y-143461874D01*
X110120569Y-143842280D01*
X110189520Y-143911231D01*
X110177000Y-143923750D01*
X110177000Y-144773000D01*
X110197000Y-144773000D01*
X110197000Y-145027000D01*
X110177000Y-145027000D01*
X110177000Y-145876250D01*
X110312974Y-146012224D01*
X109565528Y-146759671D01*
X109502072Y-146802071D01*
X109401518Y-146952560D01*
X109300000Y-146952560D01*
X109052235Y-147001843D01*
X108842191Y-147142191D01*
X108701843Y-147352235D01*
X108652560Y-147600000D01*
X108652560Y-148600000D01*
X108701843Y-148847765D01*
X108813746Y-149015239D01*
X108602427Y-148973205D01*
X108057345Y-149081628D01*
X107711889Y-149312455D01*
X106827174Y-150197170D01*
X106596347Y-150542627D01*
X106487924Y-151087708D01*
X106596347Y-151632789D01*
X106905111Y-152094888D01*
X107367210Y-152403652D01*
X107912291Y-152512075D01*
X108457372Y-152403652D01*
X108802829Y-152172825D01*
X109477590Y-151498064D01*
X109676271Y-151458544D01*
X109735726Y-151418817D01*
X109435773Y-152538256D01*
X109408600Y-152952843D01*
X109587243Y-153479110D01*
X109756403Y-153672000D01*
X108264802Y-153672000D01*
X104392000Y-149799199D01*
X104392000Y-146815270D01*
X105020200Y-147443471D01*
X104999535Y-147467035D01*
X104820892Y-147993302D01*
X104857240Y-148547872D01*
X105103047Y-149046318D01*
X105520890Y-149412756D01*
X106047157Y-149591399D01*
X106461744Y-149564226D01*
X107670288Y-149240397D01*
X108042918Y-149056636D01*
X108409356Y-148638793D01*
X108587999Y-148112527D01*
X108551651Y-147557956D01*
X108305843Y-147059510D01*
X107888000Y-146693071D01*
X107361734Y-146514428D01*
X106947146Y-146541602D01*
X106411470Y-146685136D01*
X105905665Y-146179332D01*
X106947146Y-146458397D01*
X107361734Y-146485571D01*
X107888000Y-146306928D01*
X108305843Y-145940489D01*
X108551651Y-145442043D01*
X108568449Y-145185750D01*
X108665000Y-145185750D01*
X108665000Y-145526310D01*
X108761673Y-145759699D01*
X108940302Y-145938327D01*
X109173691Y-146035000D01*
X109764250Y-146035000D01*
X109923000Y-145876250D01*
X109923000Y-145027000D01*
X108823750Y-145027000D01*
X108665000Y-145185750D01*
X108568449Y-145185750D01*
X108587999Y-144887472D01*
X108409356Y-144361206D01*
X108042918Y-143943363D01*
X107670288Y-143759602D01*
X107464445Y-143704446D01*
X107464445Y-143440099D01*
X107711890Y-143687544D01*
X108057346Y-143918371D01*
X108602428Y-144026794D01*
X108818075Y-143983899D01*
X108761673Y-144040301D01*
X108665000Y-144273690D01*
X108665000Y-144614250D01*
X108823750Y-144773000D01*
X109923000Y-144773000D01*
X109923000Y-143923750D01*
X109764250Y-143765000D01*
X109377045Y-143765000D01*
X109609608Y-143609607D01*
X109876849Y-143209651D01*
X109963000Y-143295802D01*
G04 #@! TD*
M02*
