G04 #@! TF.GenerationSoftware,KiCad,Pcbnew,5.0.0-rc2-unknown-e4a6f2e~65~ubuntu18.04.1*
G04 #@! TF.CreationDate,2018-06-05T21:23:57+01:00*
G04 #@! TF.ProjectId,IV-11-breakout,49562D31312D627265616B6F75742E6B,rev?*
G04 #@! TF.SameCoordinates,Original*
G04 #@! TF.FileFunction,Legend,Top*
G04 #@! TF.FilePolarity,Positive*
%FSLAX46Y46*%
G04 Gerber Fmt 4.6, Leading zero omitted, Abs format (unit mm)*
G04 Created by KiCad (PCBNEW 5.0.0-rc2-unknown-e4a6f2e~65~ubuntu18.04.1) date Tue Jun  5 21:23:57 2018*
%MOMM*%
%LPD*%
G01*
G04 APERTURE LIST*
%ADD10C,0.120000*%
%ADD11C,0.150000*%
G04 APERTURE END LIST*
D10*
G04 #@! TO.C,R1*
X112522000Y-116562000D02*
X112522000Y-115872000D01*
X112522000Y-105942000D02*
X112522000Y-106632000D01*
X114242000Y-115872000D02*
X114242000Y-106632000D01*
X110802000Y-115872000D02*
X114242000Y-115872000D01*
X110802000Y-106632000D02*
X110802000Y-115872000D01*
X114242000Y-106632000D02*
X110802000Y-106632000D01*
D11*
G04 #@! TO.C,VFD1*
X123500000Y-146500000D02*
G75*
G03X123500000Y-146500000I-11000000J0D01*
G01*
D10*
G04 #@! TO.C,D1*
X116150000Y-149250000D02*
X108850000Y-149250000D01*
X116150000Y-143750000D02*
X108850000Y-143750000D01*
X108850000Y-143750000D02*
X108850000Y-144900000D01*
G04 #@! TO.C,J1*
X103870000Y-100905000D02*
X101210000Y-100905000D01*
X103870000Y-128905000D02*
X103870000Y-100905000D01*
X101210000Y-128905000D02*
X101210000Y-100905000D01*
X103870000Y-128905000D02*
X101210000Y-128905000D01*
X103870000Y-130175000D02*
X103870000Y-131505000D01*
X103870000Y-131505000D02*
X102540000Y-131505000D01*
G04 #@! TO.C,J2*
X121530000Y-103311000D02*
X124190000Y-103311000D01*
X121530000Y-103251000D02*
X121530000Y-103311000D01*
X124190000Y-103251000D02*
X124190000Y-103311000D01*
X121530000Y-103251000D02*
X124190000Y-103251000D01*
X121530000Y-101981000D02*
X121530000Y-100651000D01*
X121530000Y-100651000D02*
X122860000Y-100651000D01*
G04 #@! TO.C,R1*
D11*
X115694380Y-111418666D02*
X115218190Y-111752000D01*
X115694380Y-111990095D02*
X114694380Y-111990095D01*
X114694380Y-111609142D01*
X114742000Y-111513904D01*
X114789619Y-111466285D01*
X114884857Y-111418666D01*
X115027714Y-111418666D01*
X115122952Y-111466285D01*
X115170571Y-111513904D01*
X115218190Y-111609142D01*
X115218190Y-111990095D01*
X115694380Y-110466285D02*
X115694380Y-111037714D01*
X115694380Y-110752000D02*
X114694380Y-110752000D01*
X114837238Y-110847238D01*
X114932476Y-110942476D01*
X114980095Y-111037714D01*
G04 #@! TO.C,VFD1*
X110755284Y-155064571D02*
X110421951Y-155064571D01*
X110421951Y-155588380D02*
X110421951Y-154588380D01*
X110898141Y-154588380D01*
X111850522Y-155588380D02*
X111517189Y-155112190D01*
X111279094Y-155588380D02*
X111279094Y-154588380D01*
X111660046Y-154588380D01*
X111755284Y-154636000D01*
X111802903Y-154683619D01*
X111850522Y-154778857D01*
X111850522Y-154921714D01*
X111802903Y-155016952D01*
X111755284Y-155064571D01*
X111660046Y-155112190D01*
X111279094Y-155112190D01*
X112469570Y-154588380D02*
X112660046Y-154588380D01*
X112755284Y-154636000D01*
X112850522Y-154731238D01*
X112898141Y-154921714D01*
X112898141Y-155255047D01*
X112850522Y-155445523D01*
X112755284Y-155540761D01*
X112660046Y-155588380D01*
X112469570Y-155588380D01*
X112374332Y-155540761D01*
X112279094Y-155445523D01*
X112231475Y-155255047D01*
X112231475Y-154921714D01*
X112279094Y-154731238D01*
X112374332Y-154636000D01*
X112469570Y-154588380D01*
X113326713Y-155588380D02*
X113326713Y-154588380D01*
X113898141Y-155588380D01*
X113898141Y-154588380D01*
X114231475Y-154588380D02*
X114802903Y-154588380D01*
X114517189Y-155588380D02*
X114517189Y-154588380D01*
G04 #@! TO.C,D1*
X116935714Y-148552380D02*
X116364285Y-148552380D01*
X116650000Y-148552380D02*
X116650000Y-147552380D01*
X116554761Y-147695238D01*
X116459523Y-147790476D01*
X116364285Y-147838095D01*
G04 #@! TD*
M02*
