M48
;DRILL file {KiCad 5.0.0-rc2-unknown-e4a6f2e~65~ubuntu18.04.1} date Tue Jun  5 21:23:59 2018
;FORMAT={-:-/ absolute / inch / decimal}
FMAT,2
INCH,TZ
T1C0.0157
T2C0.0300
T3C0.0315
T4C0.0394
T5C0.1181
%
G90
G05
M72
T1
X4.28Y-5.76
X4.33Y-4.92
X4.37Y-5.64
X4.43Y-4.93
X4.47Y-5.03
X4.5Y-5.25
X4.5202Y-5.6402
X4.55Y-5.17
X4.62Y-4.92
T2
X4.201Y-5.7066
X4.201Y-5.8289
X4.2621Y-5.9347
X4.2621Y-5.6007
X4.368Y-5.9959
X4.368Y-5.5395
X4.4903Y-5.9959
X4.4903Y-5.5395
X4.5962Y-5.9347
X4.5962Y-5.6007
X4.6573Y-5.7066
X4.6573Y-5.8289
T3
X4.43Y-4.13
X4.43Y-4.63
T4
X4.037Y-4.025
X4.037Y-4.125
X4.037Y-4.225
X4.037Y-4.325
X4.037Y-4.425
X4.037Y-4.525
X4.037Y-4.625
X4.037Y-4.725
X4.037Y-4.825
X4.037Y-4.925
X4.037Y-5.025
X4.037Y-5.125
X4.837Y-4.015
T5
X4.7835Y-5.275
X4.0748Y-6.2598
T0
M30
