G04 #@! TF.GenerationSoftware,KiCad,Pcbnew,5.0.0-rc2-unknown-e4a6f2e~65~ubuntu18.04.1*
G04 #@! TF.CreationDate,2018-06-07T10:51:13+01:00*
G04 #@! TF.ProjectId,IV-11-breakout,49562D31312D627265616B6F75742E6B,rev?*
G04 #@! TF.SameCoordinates,Original*
G04 #@! TF.FileFunction,Legend,Top*
G04 #@! TF.FilePolarity,Positive*
%FSLAX46Y46*%
G04 Gerber Fmt 4.6, Leading zero omitted, Abs format (unit mm)*
G04 Created by KiCad (PCBNEW 5.0.0-rc2-unknown-e4a6f2e~65~ubuntu18.04.1) date Thu Jun  7 10:51:13 2018*
%MOMM*%
%LPD*%
G01*
G04 APERTURE LIST*
%ADD10C,0.120000*%
%ADD11C,0.150000*%
G04 APERTURE END LIST*
D10*
G04 #@! TO.C,J1*
X103870000Y-131505000D02*
X102540000Y-131505000D01*
X103870000Y-130175000D02*
X103870000Y-131505000D01*
X103870000Y-128905000D02*
X101210000Y-128905000D01*
X101210000Y-128905000D02*
X101210000Y-98365000D01*
X103870000Y-128905000D02*
X103870000Y-98365000D01*
X103870000Y-98365000D02*
X101210000Y-98365000D01*
D11*
G04 #@! TO.C,VFD1*
X123500000Y-146500000D02*
G75*
G03X123500000Y-146500000I-11000000J0D01*
G01*
D10*
G04 #@! TO.C,D1*
X108850000Y-143750000D02*
X108850000Y-144900000D01*
X116150000Y-143750000D02*
X108850000Y-143750000D01*
X116150000Y-149250000D02*
X108850000Y-149250000D01*
G04 #@! TO.C,J2*
X121530000Y-101025000D02*
X124190000Y-101025000D01*
X121530000Y-100965000D02*
X121530000Y-101025000D01*
X124190000Y-100965000D02*
X124190000Y-101025000D01*
X121530000Y-100965000D02*
X124190000Y-100965000D01*
X121530000Y-99695000D02*
X121530000Y-98365000D01*
X121530000Y-98365000D02*
X122860000Y-98365000D01*
G04 #@! TO.C,VFD1*
D11*
X110714285Y-150428571D02*
X110380952Y-150428571D01*
X110380952Y-150952380D02*
X110380952Y-149952380D01*
X110857142Y-149952380D01*
X111809523Y-150952380D02*
X111476190Y-150476190D01*
X111238095Y-150952380D02*
X111238095Y-149952380D01*
X111619047Y-149952380D01*
X111714285Y-150000000D01*
X111761904Y-150047619D01*
X111809523Y-150142857D01*
X111809523Y-150285714D01*
X111761904Y-150380952D01*
X111714285Y-150428571D01*
X111619047Y-150476190D01*
X111238095Y-150476190D01*
X112428571Y-149952380D02*
X112619047Y-149952380D01*
X112714285Y-150000000D01*
X112809523Y-150095238D01*
X112857142Y-150285714D01*
X112857142Y-150619047D01*
X112809523Y-150809523D01*
X112714285Y-150904761D01*
X112619047Y-150952380D01*
X112428571Y-150952380D01*
X112333333Y-150904761D01*
X112238095Y-150809523D01*
X112190476Y-150619047D01*
X112190476Y-150285714D01*
X112238095Y-150095238D01*
X112333333Y-150000000D01*
X112428571Y-149952380D01*
X113285714Y-150952380D02*
X113285714Y-149952380D01*
X113857142Y-150952380D01*
X113857142Y-149952380D01*
X114190476Y-149952380D02*
X114761904Y-149952380D01*
X114476190Y-150952380D02*
X114476190Y-149952380D01*
G04 #@! TO.C,D1*
X116935714Y-148552380D02*
X116364285Y-148552380D01*
X116650000Y-148552380D02*
X116650000Y-147552380D01*
X116554761Y-147695238D01*
X116459523Y-147790476D01*
X116364285Y-147838095D01*
G04 #@! TD*
M02*
