G04 #@! TF.GenerationSoftware,KiCad,Pcbnew,5.0.0-rc2-unknown-e4a6f2e~65~ubuntu18.04.1*
G04 #@! TF.CreationDate,2018-06-05T21:23:57+01:00*
G04 #@! TF.ProjectId,IV-11-breakout,49562D31312D627265616B6F75742E6B,rev?*
G04 #@! TF.SameCoordinates,Original*
G04 #@! TF.FileFunction,Legend,Bot*
G04 #@! TF.FilePolarity,Positive*
%FSLAX46Y46*%
G04 Gerber Fmt 4.6, Leading zero omitted, Abs format (unit mm)*
G04 Created by KiCad (PCBNEW 5.0.0-rc2-unknown-e4a6f2e~65~ubuntu18.04.1) date Tue Jun  5 21:23:57 2018*
%MOMM*%
%LPD*%
G01*
G04 APERTURE LIST*
%ADD10C,0.175000*%
%ADD11C,0.300000*%
%ADD12C,0.010000*%
%ADD13C,0.150000*%
G04 APERTURE END LIST*
D10*
X107402190Y-109228000D02*
X107497428Y-109180380D01*
X107640285Y-109180380D01*
X107783142Y-109228000D01*
X107878380Y-109323238D01*
X107926000Y-109418476D01*
X107973619Y-109608952D01*
X107973619Y-109751809D01*
X107926000Y-109942285D01*
X107878380Y-110037523D01*
X107783142Y-110132761D01*
X107640285Y-110180380D01*
X107545047Y-110180380D01*
X107402190Y-110132761D01*
X107354571Y-110085142D01*
X107354571Y-109751809D01*
X107545047Y-109751809D01*
X106354571Y-110180380D02*
X106687904Y-109704190D01*
X106926000Y-110180380D02*
X106926000Y-109180380D01*
X106545047Y-109180380D01*
X106449809Y-109228000D01*
X106402190Y-109275619D01*
X106354571Y-109370857D01*
X106354571Y-109513714D01*
X106402190Y-109608952D01*
X106449809Y-109656571D01*
X106545047Y-109704190D01*
X106926000Y-109704190D01*
X105926000Y-110180380D02*
X105926000Y-109180380D01*
X105449809Y-110180380D02*
X105449809Y-109180380D01*
X105211714Y-109180380D01*
X105068857Y-109228000D01*
X104973619Y-109323238D01*
X104926000Y-109418476D01*
X104878380Y-109608952D01*
X104878380Y-109751809D01*
X104926000Y-109942285D01*
X104973619Y-110037523D01*
X105068857Y-110132761D01*
X105211714Y-110180380D01*
X105449809Y-110180380D01*
D11*
X115316857Y-110494285D02*
X114116857Y-110494285D01*
X114116857Y-110894285D02*
X115316857Y-111294285D01*
X114116857Y-111694285D01*
X114859714Y-112094285D02*
X114859714Y-113008571D01*
X115316857Y-114208571D02*
X115316857Y-113522857D01*
X115316857Y-113865714D02*
X114116857Y-113865714D01*
X114288285Y-113751428D01*
X114402571Y-113637142D01*
X114459714Y-113522857D01*
X115316857Y-115351428D02*
X115316857Y-114665714D01*
X115316857Y-115008571D02*
X114116857Y-115008571D01*
X114288285Y-114894285D01*
X114402571Y-114780000D01*
X114459714Y-114665714D01*
X114116857Y-116608571D02*
X115316857Y-117008571D01*
X114116857Y-117408571D01*
X114688285Y-118208571D02*
X114688285Y-117808571D01*
X115316857Y-117808571D02*
X114116857Y-117808571D01*
X114116857Y-118380000D01*
X115316857Y-118837142D02*
X114116857Y-118837142D01*
X114116857Y-119122857D01*
X114174000Y-119294285D01*
X114288285Y-119408571D01*
X114402571Y-119465714D01*
X114631142Y-119522857D01*
X114802571Y-119522857D01*
X115031142Y-119465714D01*
X115145428Y-119408571D01*
X115259714Y-119294285D01*
X115316857Y-119122857D01*
X115316857Y-118837142D01*
X114688285Y-121351428D02*
X114745428Y-121522857D01*
X114802571Y-121580000D01*
X114916857Y-121637142D01*
X115088285Y-121637142D01*
X115202571Y-121580000D01*
X115259714Y-121522857D01*
X115316857Y-121408571D01*
X115316857Y-120951428D01*
X114116857Y-120951428D01*
X114116857Y-121351428D01*
X114174000Y-121465714D01*
X114231142Y-121522857D01*
X114345428Y-121580000D01*
X114459714Y-121580000D01*
X114574000Y-121522857D01*
X114631142Y-121465714D01*
X114688285Y-121351428D01*
X114688285Y-120951428D01*
X115316857Y-122151428D02*
X114516857Y-122151428D01*
X114745428Y-122151428D02*
X114631142Y-122208571D01*
X114574000Y-122265714D01*
X114516857Y-122380000D01*
X114516857Y-122494285D01*
X115259714Y-123351428D02*
X115316857Y-123237142D01*
X115316857Y-123008571D01*
X115259714Y-122894285D01*
X115145428Y-122837142D01*
X114688285Y-122837142D01*
X114574000Y-122894285D01*
X114516857Y-123008571D01*
X114516857Y-123237142D01*
X114574000Y-123351428D01*
X114688285Y-123408571D01*
X114802571Y-123408571D01*
X114916857Y-122837142D01*
X115316857Y-124437142D02*
X114688285Y-124437142D01*
X114574000Y-124380000D01*
X114516857Y-124265714D01*
X114516857Y-124037142D01*
X114574000Y-123922857D01*
X115259714Y-124437142D02*
X115316857Y-124322857D01*
X115316857Y-124037142D01*
X115259714Y-123922857D01*
X115145428Y-123865714D01*
X115031142Y-123865714D01*
X114916857Y-123922857D01*
X114859714Y-124037142D01*
X114859714Y-124322857D01*
X114802571Y-124437142D01*
X115316857Y-125008571D02*
X114116857Y-125008571D01*
X114859714Y-125122857D02*
X115316857Y-125465714D01*
X114516857Y-125465714D02*
X114974000Y-125008571D01*
X115316857Y-126151428D02*
X115259714Y-126037142D01*
X115202571Y-125980000D01*
X115088285Y-125922857D01*
X114745428Y-125922857D01*
X114631142Y-125980000D01*
X114574000Y-126037142D01*
X114516857Y-126151428D01*
X114516857Y-126322857D01*
X114574000Y-126437142D01*
X114631142Y-126494285D01*
X114745428Y-126551428D01*
X115088285Y-126551428D01*
X115202571Y-126494285D01*
X115259714Y-126437142D01*
X115316857Y-126322857D01*
X115316857Y-126151428D01*
X114516857Y-127580000D02*
X115316857Y-127580000D01*
X114516857Y-127065714D02*
X115145428Y-127065714D01*
X115259714Y-127122857D01*
X115316857Y-127237142D01*
X115316857Y-127408571D01*
X115259714Y-127522857D01*
X115202571Y-127580000D01*
X114516857Y-127980000D02*
X114516857Y-128437142D01*
X114116857Y-128151428D02*
X115145428Y-128151428D01*
X115259714Y-128208571D01*
X115316857Y-128322857D01*
X115316857Y-128437142D01*
X117416857Y-103837142D02*
X116216857Y-103837142D01*
X117416857Y-104351428D02*
X116788285Y-104351428D01*
X116674000Y-104294285D01*
X116616857Y-104180000D01*
X116616857Y-104008571D01*
X116674000Y-103894285D01*
X116731142Y-103837142D01*
X116616857Y-104751428D02*
X116616857Y-105208571D01*
X116216857Y-104922857D02*
X117245428Y-104922857D01*
X117359714Y-104980000D01*
X117416857Y-105094285D01*
X117416857Y-105208571D01*
X116616857Y-105437142D02*
X116616857Y-105894285D01*
X116216857Y-105608571D02*
X117245428Y-105608571D01*
X117359714Y-105665714D01*
X117416857Y-105780000D01*
X117416857Y-105894285D01*
X116616857Y-106294285D02*
X117816857Y-106294285D01*
X116674000Y-106294285D02*
X116616857Y-106408571D01*
X116616857Y-106637142D01*
X116674000Y-106751428D01*
X116731142Y-106808571D01*
X116845428Y-106865714D01*
X117188285Y-106865714D01*
X117302571Y-106808571D01*
X117359714Y-106751428D01*
X117416857Y-106637142D01*
X117416857Y-106408571D01*
X117359714Y-106294285D01*
X117302571Y-107380000D02*
X117359714Y-107437142D01*
X117416857Y-107380000D01*
X117359714Y-107322857D01*
X117302571Y-107380000D01*
X117416857Y-107380000D01*
X116674000Y-107380000D02*
X116731142Y-107437142D01*
X116788285Y-107380000D01*
X116731142Y-107322857D01*
X116674000Y-107380000D01*
X116788285Y-107380000D01*
X116159714Y-108808571D02*
X117702571Y-107780000D01*
X116159714Y-110065714D02*
X117702571Y-109037142D01*
X116616857Y-110980000D02*
X117588285Y-110980000D01*
X117702571Y-110922857D01*
X117759714Y-110865714D01*
X117816857Y-110751428D01*
X117816857Y-110580000D01*
X117759714Y-110465714D01*
X117359714Y-110980000D02*
X117416857Y-110865714D01*
X117416857Y-110637142D01*
X117359714Y-110522857D01*
X117302571Y-110465714D01*
X117188285Y-110408571D01*
X116845428Y-110408571D01*
X116731142Y-110465714D01*
X116674000Y-110522857D01*
X116616857Y-110637142D01*
X116616857Y-110865714D01*
X116674000Y-110980000D01*
X117416857Y-111551428D02*
X116616857Y-111551428D01*
X116216857Y-111551428D02*
X116274000Y-111494285D01*
X116331142Y-111551428D01*
X116274000Y-111608571D01*
X116216857Y-111551428D01*
X116331142Y-111551428D01*
X116616857Y-111951428D02*
X116616857Y-112408571D01*
X116216857Y-112122857D02*
X117245428Y-112122857D01*
X117359714Y-112180000D01*
X117416857Y-112294285D01*
X117416857Y-112408571D01*
X117416857Y-112808571D02*
X116216857Y-112808571D01*
X117416857Y-113322857D02*
X116788285Y-113322857D01*
X116674000Y-113265714D01*
X116616857Y-113151428D01*
X116616857Y-112980000D01*
X116674000Y-112865714D01*
X116731142Y-112808571D01*
X116616857Y-114408571D02*
X117416857Y-114408571D01*
X116616857Y-113894285D02*
X117245428Y-113894285D01*
X117359714Y-113951428D01*
X117416857Y-114065714D01*
X117416857Y-114237142D01*
X117359714Y-114351428D01*
X117302571Y-114408571D01*
X117416857Y-114980000D02*
X116216857Y-114980000D01*
X116674000Y-114980000D02*
X116616857Y-115094285D01*
X116616857Y-115322857D01*
X116674000Y-115437142D01*
X116731142Y-115494285D01*
X116845428Y-115551428D01*
X117188285Y-115551428D01*
X117302571Y-115494285D01*
X117359714Y-115437142D01*
X117416857Y-115322857D01*
X117416857Y-115094285D01*
X117359714Y-114980000D01*
X117302571Y-116065714D02*
X117359714Y-116122857D01*
X117416857Y-116065714D01*
X117359714Y-116008571D01*
X117302571Y-116065714D01*
X117416857Y-116065714D01*
X117359714Y-117151428D02*
X117416857Y-117037142D01*
X117416857Y-116808571D01*
X117359714Y-116694285D01*
X117302571Y-116637142D01*
X117188285Y-116580000D01*
X116845428Y-116580000D01*
X116731142Y-116637142D01*
X116674000Y-116694285D01*
X116616857Y-116808571D01*
X116616857Y-117037142D01*
X116674000Y-117151428D01*
X117416857Y-117837142D02*
X117359714Y-117722857D01*
X117302571Y-117665714D01*
X117188285Y-117608571D01*
X116845428Y-117608571D01*
X116731142Y-117665714D01*
X116674000Y-117722857D01*
X116616857Y-117837142D01*
X116616857Y-118008571D01*
X116674000Y-118122857D01*
X116731142Y-118180000D01*
X116845428Y-118237142D01*
X117188285Y-118237142D01*
X117302571Y-118180000D01*
X117359714Y-118122857D01*
X117416857Y-118008571D01*
X117416857Y-117837142D01*
X117416857Y-118751428D02*
X116616857Y-118751428D01*
X116731142Y-118751428D02*
X116674000Y-118808571D01*
X116616857Y-118922857D01*
X116616857Y-119094285D01*
X116674000Y-119208571D01*
X116788285Y-119265714D01*
X117416857Y-119265714D01*
X116788285Y-119265714D02*
X116674000Y-119322857D01*
X116616857Y-119437142D01*
X116616857Y-119608571D01*
X116674000Y-119722857D01*
X116788285Y-119780000D01*
X117416857Y-119780000D01*
X116159714Y-121208571D02*
X117702571Y-120180000D01*
X117416857Y-122122857D02*
X116216857Y-122122857D01*
X117359714Y-122122857D02*
X117416857Y-122008571D01*
X117416857Y-121780000D01*
X117359714Y-121665714D01*
X117302571Y-121608571D01*
X117188285Y-121551428D01*
X116845428Y-121551428D01*
X116731142Y-121608571D01*
X116674000Y-121665714D01*
X116616857Y-121780000D01*
X116616857Y-122008571D01*
X116674000Y-122122857D01*
X117416857Y-123208571D02*
X116788285Y-123208571D01*
X116674000Y-123151428D01*
X116616857Y-123037142D01*
X116616857Y-122808571D01*
X116674000Y-122694285D01*
X117359714Y-123208571D02*
X117416857Y-123094285D01*
X117416857Y-122808571D01*
X117359714Y-122694285D01*
X117245428Y-122637142D01*
X117131142Y-122637142D01*
X117016857Y-122694285D01*
X116959714Y-122808571D01*
X116959714Y-123094285D01*
X116902571Y-123208571D01*
X116616857Y-123665714D02*
X117416857Y-123951428D01*
X116616857Y-124237142D01*
X117416857Y-124694285D02*
X116616857Y-124694285D01*
X116216857Y-124694285D02*
X116274000Y-124637142D01*
X116331142Y-124694285D01*
X116274000Y-124751428D01*
X116216857Y-124694285D01*
X116331142Y-124694285D01*
X117416857Y-125780000D02*
X116216857Y-125780000D01*
X117359714Y-125780000D02*
X117416857Y-125665714D01*
X117416857Y-125437142D01*
X117359714Y-125322857D01*
X117302571Y-125265714D01*
X117188285Y-125208571D01*
X116845428Y-125208571D01*
X116731142Y-125265714D01*
X116674000Y-125322857D01*
X116616857Y-125437142D01*
X116616857Y-125665714D01*
X116674000Y-125780000D01*
X117416857Y-126351428D02*
X116616857Y-126351428D01*
X116731142Y-126351428D02*
X116674000Y-126408571D01*
X116616857Y-126522857D01*
X116616857Y-126694285D01*
X116674000Y-126808571D01*
X116788285Y-126865714D01*
X117416857Y-126865714D01*
X116788285Y-126865714D02*
X116674000Y-126922857D01*
X116616857Y-127037142D01*
X116616857Y-127208571D01*
X116674000Y-127322857D01*
X116788285Y-127380000D01*
X117416857Y-127380000D01*
X116616857Y-127951428D02*
X117816857Y-127951428D01*
X116674000Y-127951428D02*
X116616857Y-128065714D01*
X116616857Y-128294285D01*
X116674000Y-128408571D01*
X116731142Y-128465714D01*
X116845428Y-128522857D01*
X117188285Y-128522857D01*
X117302571Y-128465714D01*
X117359714Y-128408571D01*
X117416857Y-128294285D01*
X117416857Y-128065714D01*
X117359714Y-127951428D01*
X116616857Y-128922857D02*
X117416857Y-129208571D01*
X116616857Y-129494285D02*
X117416857Y-129208571D01*
X117702571Y-129094285D01*
X117759714Y-129037142D01*
X117816857Y-128922857D01*
X117359714Y-130408571D02*
X117416857Y-130294285D01*
X117416857Y-130065714D01*
X117359714Y-129951428D01*
X117245428Y-129894285D01*
X116788285Y-129894285D01*
X116674000Y-129951428D01*
X116616857Y-130065714D01*
X116616857Y-130294285D01*
X116674000Y-130408571D01*
X116788285Y-130465714D01*
X116902571Y-130465714D01*
X117016857Y-129894285D01*
X116159714Y-131837142D02*
X117702571Y-130808571D01*
X116216857Y-132065714D02*
X117416857Y-132465714D01*
X116216857Y-132865714D01*
X116788285Y-133665714D02*
X116788285Y-133265714D01*
X117416857Y-133265714D02*
X116216857Y-133265714D01*
X116216857Y-133837142D01*
X117416857Y-134294285D02*
X116216857Y-134294285D01*
X116216857Y-134580000D01*
X116274000Y-134751428D01*
X116388285Y-134865714D01*
X116502571Y-134922857D01*
X116731142Y-134980000D01*
X116902571Y-134980000D01*
X117131142Y-134922857D01*
X117245428Y-134865714D01*
X117359714Y-134751428D01*
X117416857Y-134580000D01*
X117416857Y-134294285D01*
D10*
X105354571Y-130722666D02*
X104878380Y-130722666D01*
X105449809Y-131008380D02*
X105116476Y-130008380D01*
X104783142Y-131008380D01*
X105116476Y-127690571D02*
X104973619Y-127738190D01*
X104926000Y-127785809D01*
X104878381Y-127881047D01*
X104878381Y-128023904D01*
X104926000Y-128119142D01*
X104973619Y-128166761D01*
X105068857Y-128214380D01*
X105449809Y-128214380D01*
X105449809Y-127214380D01*
X105116476Y-127214380D01*
X105021238Y-127262000D01*
X104973619Y-127309619D01*
X104926000Y-127404857D01*
X104926000Y-127500095D01*
X104973619Y-127595333D01*
X105021238Y-127642952D01*
X105116476Y-127690571D01*
X105449809Y-127690571D01*
X104878381Y-125579142D02*
X104926000Y-125626761D01*
X105068857Y-125674380D01*
X105164095Y-125674380D01*
X105306952Y-125626761D01*
X105402190Y-125531523D01*
X105449809Y-125436285D01*
X105497428Y-125245809D01*
X105497428Y-125102952D01*
X105449809Y-124912476D01*
X105402190Y-124817238D01*
X105306952Y-124722000D01*
X105164095Y-124674380D01*
X105068857Y-124674380D01*
X104926000Y-124722000D01*
X104878381Y-124769619D01*
X105449809Y-123134380D02*
X105449809Y-122134380D01*
X105211714Y-122134380D01*
X105068857Y-122182000D01*
X104973619Y-122277238D01*
X104926000Y-122372476D01*
X104878381Y-122562952D01*
X104878381Y-122705809D01*
X104926000Y-122896285D01*
X104973619Y-122991523D01*
X105068857Y-123086761D01*
X105211714Y-123134380D01*
X105449809Y-123134380D01*
X105354571Y-120324571D02*
X105021238Y-120324571D01*
X104878381Y-120848380D02*
X105354571Y-120848380D01*
X105354571Y-119848380D01*
X104878381Y-119848380D01*
X104973618Y-117530571D02*
X105306952Y-117530571D01*
X105306952Y-118054380D02*
X105306952Y-117054380D01*
X104830761Y-117054380D01*
X104926000Y-114308000D02*
X105021238Y-114260380D01*
X105164095Y-114260380D01*
X105306952Y-114308000D01*
X105402190Y-114403238D01*
X105449809Y-114498476D01*
X105497428Y-114688952D01*
X105497428Y-114831809D01*
X105449809Y-115022285D01*
X105402190Y-115117523D01*
X105306952Y-115212761D01*
X105164095Y-115260380D01*
X105068857Y-115260380D01*
X104926000Y-115212761D01*
X104878381Y-115165142D01*
X104878381Y-114831809D01*
X105068857Y-114831809D01*
X106449809Y-112720380D02*
X106449809Y-111720380D01*
X106211714Y-111720380D01*
X106068857Y-111768000D01*
X105973619Y-111863238D01*
X105926000Y-111958476D01*
X105878381Y-112148952D01*
X105878381Y-112291809D01*
X105926000Y-112482285D01*
X105973619Y-112577523D01*
X106068857Y-112672761D01*
X106211714Y-112720380D01*
X106449809Y-112720380D01*
X105449809Y-112720380D02*
X105449809Y-111720380D01*
X105068857Y-111720380D01*
X104973619Y-111768000D01*
X104926000Y-111815619D01*
X104878381Y-111910857D01*
X104878381Y-112053714D01*
X104926000Y-112148952D01*
X104973619Y-112196571D01*
X105068857Y-112244190D01*
X105449809Y-112244190D01*
X106973618Y-106688000D02*
X107068856Y-106640380D01*
X107211714Y-106640380D01*
X107354571Y-106688000D01*
X107449809Y-106783238D01*
X107497428Y-106878476D01*
X107545047Y-107068952D01*
X107545047Y-107211809D01*
X107497428Y-107402285D01*
X107449809Y-107497523D01*
X107354571Y-107592761D01*
X107211714Y-107640380D01*
X107116475Y-107640380D01*
X106973618Y-107592761D01*
X106925999Y-107545142D01*
X106925999Y-107211809D01*
X107116475Y-107211809D01*
X106497428Y-107640380D02*
X106497428Y-106640380D01*
X105925999Y-107640380D01*
X105925999Y-106640380D01*
X105449809Y-107640380D02*
X105449809Y-106640380D01*
X105211714Y-106640380D01*
X105068856Y-106688000D01*
X104973618Y-106783238D01*
X104925999Y-106878476D01*
X104878380Y-107068952D01*
X104878380Y-107211809D01*
X104925999Y-107402285D01*
X104973618Y-107497523D01*
X105068856Y-107592761D01*
X105211714Y-107640380D01*
X105449809Y-107640380D01*
X107449809Y-104100380D02*
X107116476Y-105100380D01*
X106783142Y-104100380D01*
X105878380Y-105005142D02*
X105925999Y-105052761D01*
X106068856Y-105100380D01*
X106164095Y-105100380D01*
X106306952Y-105052761D01*
X106402190Y-104957523D01*
X106449809Y-104862285D01*
X106497428Y-104671809D01*
X106497428Y-104528952D01*
X106449809Y-104338476D01*
X106402190Y-104243238D01*
X106306952Y-104148000D01*
X106164095Y-104100380D01*
X106068856Y-104100380D01*
X105925999Y-104148000D01*
X105878380Y-104195619D01*
X104878380Y-105005142D02*
X104925999Y-105052761D01*
X105068856Y-105100380D01*
X105164095Y-105100380D01*
X105306952Y-105052761D01*
X105402190Y-104957523D01*
X105449809Y-104862285D01*
X105497428Y-104671809D01*
X105497428Y-104528952D01*
X105449809Y-104338476D01*
X105402190Y-104243238D01*
X105306952Y-104148000D01*
X105164095Y-104100380D01*
X105068856Y-104100380D01*
X104925999Y-104148000D01*
X104878380Y-104195619D01*
X108387905Y-102424666D02*
X108721238Y-102424666D01*
X108721238Y-101724666D01*
X108154571Y-102058000D02*
X107921238Y-102058000D01*
X107821238Y-102424666D02*
X108154571Y-102424666D01*
X108154571Y-101724666D01*
X107821238Y-101724666D01*
X107521238Y-102424666D02*
X107521238Y-101724666D01*
X107354571Y-101724666D01*
X107254571Y-101758000D01*
X107187905Y-101824666D01*
X107154571Y-101891333D01*
X107121238Y-102024666D01*
X107121238Y-102124666D01*
X107154571Y-102258000D01*
X107187905Y-102324666D01*
X107254571Y-102391333D01*
X107354571Y-102424666D01*
X107521238Y-102424666D01*
X106987905Y-102491333D02*
X106454571Y-102491333D01*
X106287905Y-102424666D02*
X106287905Y-101724666D01*
X106121238Y-101724666D01*
X106021238Y-101758000D01*
X105954571Y-101824666D01*
X105921238Y-101891333D01*
X105887905Y-102024666D01*
X105887905Y-102124666D01*
X105921238Y-102258000D01*
X105954571Y-102324666D01*
X106021238Y-102391333D01*
X106121238Y-102424666D01*
X106287905Y-102424666D01*
X105587905Y-102424666D02*
X105587905Y-101724666D01*
X105254571Y-102424666D02*
X105254571Y-101724666D01*
X104854571Y-102424666D01*
X104854571Y-101724666D01*
D12*
G04 #@! TO.C,REF\002A\002A*
G36*
X105872576Y-134104964D02*
X106273322Y-134180513D01*
X106503154Y-134738041D01*
X106275748Y-135072465D01*
X106212431Y-135166122D01*
X106155896Y-135250782D01*
X106108727Y-135322495D01*
X106073502Y-135377311D01*
X106052805Y-135411280D01*
X106048342Y-135420530D01*
X106059820Y-135437195D01*
X106091551Y-135472806D01*
X106139483Y-135523371D01*
X106199562Y-135584900D01*
X106267733Y-135653399D01*
X106339945Y-135724879D01*
X106412142Y-135795347D01*
X106480273Y-135860811D01*
X106540283Y-135917280D01*
X106588119Y-135960763D01*
X106619727Y-135987268D01*
X106630305Y-135993605D01*
X106649806Y-135984486D01*
X106692531Y-135958920D01*
X106754298Y-135919597D01*
X106830931Y-135869203D01*
X106918248Y-135810427D01*
X106968052Y-135776368D01*
X107058993Y-135714289D01*
X107141059Y-135659126D01*
X107210163Y-135613554D01*
X107262222Y-135580250D01*
X107293150Y-135561890D01*
X107299650Y-135559131D01*
X107318121Y-135565385D01*
X107361172Y-135582434D01*
X107422749Y-135607703D01*
X107496799Y-135638622D01*
X107577270Y-135672618D01*
X107658107Y-135707118D01*
X107733258Y-135739551D01*
X107796671Y-135767343D01*
X107842293Y-135787923D01*
X107864069Y-135798719D01*
X107864926Y-135799356D01*
X107869084Y-135816307D01*
X107878361Y-135861451D01*
X107891844Y-135930110D01*
X107908621Y-136017602D01*
X107927781Y-136119250D01*
X107938830Y-136178556D01*
X107959510Y-136287172D01*
X107979189Y-136385277D01*
X107996789Y-136467909D01*
X108011233Y-136530104D01*
X108021446Y-136566899D01*
X108024686Y-136574296D01*
X108046617Y-136581540D01*
X108096147Y-136587385D01*
X108167485Y-136591835D01*
X108254839Y-136594893D01*
X108352417Y-136596565D01*
X108454426Y-136596853D01*
X108555075Y-136595761D01*
X108648572Y-136593294D01*
X108729125Y-136589456D01*
X108790942Y-136584250D01*
X108828230Y-136577681D01*
X108835993Y-136573741D01*
X108845298Y-136550188D01*
X108858600Y-136500282D01*
X108874337Y-136430623D01*
X108890946Y-136347813D01*
X108896319Y-136318905D01*
X108921848Y-136179531D01*
X108942408Y-136069436D01*
X108958815Y-135984982D01*
X108971887Y-135922530D01*
X108982441Y-135878444D01*
X108991294Y-135849085D01*
X108999263Y-135830815D01*
X109007165Y-135819998D01*
X109008727Y-135818485D01*
X109033886Y-135803377D01*
X109082850Y-135780329D01*
X109149621Y-135751644D01*
X109228205Y-135719622D01*
X109312607Y-135686565D01*
X109396830Y-135654773D01*
X109474879Y-135626549D01*
X109540759Y-135604193D01*
X109588473Y-135590007D01*
X109612027Y-135586293D01*
X109612852Y-135586602D01*
X109632104Y-135599189D01*
X109674463Y-135627744D01*
X109735521Y-135669267D01*
X109810868Y-135720756D01*
X109896096Y-135779211D01*
X109920315Y-135795858D01*
X110008123Y-135855215D01*
X110088238Y-135907447D01*
X110156062Y-135949708D01*
X110206993Y-135979153D01*
X110236431Y-135992937D01*
X110240048Y-135993605D01*
X110259057Y-135982024D01*
X110296714Y-135950024D01*
X110348973Y-135901718D01*
X110411786Y-135841220D01*
X110481106Y-135772644D01*
X110552885Y-135700104D01*
X110623077Y-135627712D01*
X110687635Y-135559584D01*
X110742510Y-135499832D01*
X110783656Y-135452571D01*
X110807026Y-135421913D01*
X110810842Y-135413432D01*
X110801855Y-135393691D01*
X110777616Y-135353274D01*
X110742209Y-135298763D01*
X110713711Y-135256823D01*
X110661418Y-135180829D01*
X110599845Y-135090834D01*
X110538370Y-135000564D01*
X110505469Y-134952032D01*
X110394359Y-134787762D01*
X110468916Y-134649869D01*
X110501578Y-134587049D01*
X110526966Y-134533629D01*
X110541446Y-134497484D01*
X110543460Y-134488284D01*
X110528584Y-134477221D01*
X110486547Y-134455394D01*
X110421227Y-134424434D01*
X110336500Y-134385970D01*
X110236245Y-134341632D01*
X110124339Y-134293047D01*
X110004659Y-134241846D01*
X109881084Y-134189659D01*
X109757491Y-134138113D01*
X109637757Y-134088840D01*
X109525759Y-134043467D01*
X109425377Y-134003625D01*
X109340486Y-133970942D01*
X109274965Y-133947049D01*
X109232690Y-133933574D01*
X109218172Y-133931406D01*
X109199653Y-133948583D01*
X109169590Y-133986190D01*
X109134232Y-134036366D01*
X109131434Y-134040578D01*
X109027625Y-134170264D01*
X108906515Y-134274834D01*
X108771976Y-134353381D01*
X108627882Y-134404999D01*
X108478105Y-134428782D01*
X108326517Y-134423823D01*
X108176992Y-134389217D01*
X108033400Y-134324057D01*
X108001984Y-134304886D01*
X107875125Y-134205174D01*
X107773255Y-134087377D01*
X107696904Y-133955571D01*
X107646602Y-133813833D01*
X107622879Y-133666242D01*
X107626265Y-133516873D01*
X107657288Y-133369803D01*
X107716480Y-133229111D01*
X107804369Y-133098873D01*
X107840042Y-133058586D01*
X107951706Y-132956055D01*
X108069257Y-132881341D01*
X108201020Y-132830090D01*
X108331507Y-132801546D01*
X108478216Y-132794500D01*
X108625653Y-132817996D01*
X108768834Y-132869649D01*
X108902777Y-132947071D01*
X109022498Y-133047875D01*
X109123014Y-133169676D01*
X109133609Y-133185684D01*
X109168306Y-133236398D01*
X109198370Y-133274950D01*
X109217565Y-133293381D01*
X109218172Y-133293649D01*
X109238936Y-133289692D01*
X109286062Y-133274007D01*
X109355673Y-133248222D01*
X109443893Y-133213969D01*
X109546844Y-133172877D01*
X109660650Y-133126576D01*
X109781435Y-133076696D01*
X109905321Y-133024867D01*
X110028432Y-132972719D01*
X110146891Y-132921882D01*
X110256823Y-132873987D01*
X110354349Y-132830662D01*
X110435593Y-132793538D01*
X110496679Y-132764244D01*
X110533730Y-132744412D01*
X110543460Y-132736426D01*
X110535883Y-132712021D01*
X110515560Y-132666358D01*
X110486125Y-132607310D01*
X110468916Y-132574840D01*
X110394359Y-132436947D01*
X110505469Y-132272677D01*
X110562390Y-132188821D01*
X110625030Y-132097013D01*
X110684011Y-132010980D01*
X110713711Y-131967887D01*
X110754410Y-131907277D01*
X110786663Y-131855955D01*
X110806384Y-131820615D01*
X110810554Y-131809137D01*
X110799307Y-131792430D01*
X110767911Y-131755454D01*
X110719624Y-131701795D01*
X110657708Y-131635038D01*
X110585421Y-131558766D01*
X110539008Y-131510527D01*
X110456087Y-131426133D01*
X110381920Y-131353197D01*
X110319680Y-131294669D01*
X110272541Y-131253497D01*
X110243673Y-131232628D01*
X110237815Y-131230626D01*
X110215532Y-131239917D01*
X110170477Y-131265591D01*
X110107211Y-131304800D01*
X110030295Y-131354697D01*
X109944292Y-131412433D01*
X109920315Y-131428851D01*
X109833170Y-131488677D01*
X109754710Y-131542350D01*
X109689345Y-131586870D01*
X109641484Y-131619235D01*
X109615535Y-131636445D01*
X109612852Y-131638107D01*
X109592172Y-131635621D01*
X109546704Y-131622423D01*
X109482444Y-131600814D01*
X109405387Y-131573096D01*
X109321529Y-131541570D01*
X109236866Y-131508537D01*
X109157392Y-131476299D01*
X109089104Y-131447157D01*
X109037997Y-131423412D01*
X109010067Y-131407365D01*
X109008727Y-131406225D01*
X109000745Y-131396412D01*
X108992851Y-131379839D01*
X108984229Y-131352868D01*
X108974062Y-131311861D01*
X108961531Y-131253180D01*
X108945821Y-131173187D01*
X108926113Y-131068245D01*
X108901592Y-130934715D01*
X108896319Y-130905804D01*
X108879764Y-130820118D01*
X108863569Y-130745418D01*
X108849296Y-130688306D01*
X108838508Y-130655383D01*
X108835993Y-130650969D01*
X108813696Y-130643694D01*
X108763869Y-130637781D01*
X108692304Y-130633234D01*
X108604793Y-130630055D01*
X108507128Y-130628251D01*
X108405101Y-130627823D01*
X108304503Y-130628777D01*
X108211127Y-130631116D01*
X108130765Y-130634844D01*
X108069209Y-130639966D01*
X108032250Y-130646484D01*
X108024686Y-130650414D01*
X108017056Y-130672292D01*
X108004642Y-130722109D01*
X107988522Y-130794903D01*
X107969773Y-130885711D01*
X107949471Y-130989569D01*
X107938830Y-131046154D01*
X107918760Y-131153514D01*
X107900580Y-131249254D01*
X107885199Y-131328694D01*
X107873531Y-131387154D01*
X107866488Y-131419955D01*
X107864926Y-131425354D01*
X107847322Y-131434478D01*
X107804918Y-131453765D01*
X107743772Y-131480645D01*
X107669943Y-131512546D01*
X107589489Y-131546898D01*
X107508468Y-131581129D01*
X107432937Y-131612669D01*
X107368955Y-131638946D01*
X107322580Y-131657389D01*
X107299869Y-131665429D01*
X107298876Y-131665578D01*
X107280961Y-131656465D01*
X107239733Y-131630914D01*
X107179291Y-131591612D01*
X107103731Y-131541243D01*
X107017152Y-131482494D01*
X106967421Y-131448342D01*
X106876236Y-131386110D01*
X106793449Y-131330836D01*
X106723249Y-131285218D01*
X106669824Y-131251952D01*
X106637361Y-131233736D01*
X106630083Y-131231105D01*
X106613145Y-131242414D01*
X106576978Y-131273681D01*
X106525635Y-131320910D01*
X106463167Y-131380108D01*
X106393626Y-131447281D01*
X106321065Y-131518434D01*
X106249535Y-131589574D01*
X106183087Y-131656707D01*
X106125774Y-131715839D01*
X106081647Y-131762975D01*
X106054759Y-131794123D01*
X106048342Y-131804543D01*
X106057365Y-131821509D01*
X106082715Y-131862089D01*
X106121810Y-131922337D01*
X106172071Y-131998307D01*
X106230917Y-132086054D01*
X106275748Y-132152244D01*
X106503154Y-132486668D01*
X106388238Y-132765433D01*
X106273322Y-133044197D01*
X105872576Y-133119746D01*
X105471829Y-133195294D01*
X105471829Y-134029415D01*
X105872576Y-134104964D01*
X105872576Y-134104964D01*
G37*
X105872576Y-134104964D02*
X106273322Y-134180513D01*
X106503154Y-134738041D01*
X106275748Y-135072465D01*
X106212431Y-135166122D01*
X106155896Y-135250782D01*
X106108727Y-135322495D01*
X106073502Y-135377311D01*
X106052805Y-135411280D01*
X106048342Y-135420530D01*
X106059820Y-135437195D01*
X106091551Y-135472806D01*
X106139483Y-135523371D01*
X106199562Y-135584900D01*
X106267733Y-135653399D01*
X106339945Y-135724879D01*
X106412142Y-135795347D01*
X106480273Y-135860811D01*
X106540283Y-135917280D01*
X106588119Y-135960763D01*
X106619727Y-135987268D01*
X106630305Y-135993605D01*
X106649806Y-135984486D01*
X106692531Y-135958920D01*
X106754298Y-135919597D01*
X106830931Y-135869203D01*
X106918248Y-135810427D01*
X106968052Y-135776368D01*
X107058993Y-135714289D01*
X107141059Y-135659126D01*
X107210163Y-135613554D01*
X107262222Y-135580250D01*
X107293150Y-135561890D01*
X107299650Y-135559131D01*
X107318121Y-135565385D01*
X107361172Y-135582434D01*
X107422749Y-135607703D01*
X107496799Y-135638622D01*
X107577270Y-135672618D01*
X107658107Y-135707118D01*
X107733258Y-135739551D01*
X107796671Y-135767343D01*
X107842293Y-135787923D01*
X107864069Y-135798719D01*
X107864926Y-135799356D01*
X107869084Y-135816307D01*
X107878361Y-135861451D01*
X107891844Y-135930110D01*
X107908621Y-136017602D01*
X107927781Y-136119250D01*
X107938830Y-136178556D01*
X107959510Y-136287172D01*
X107979189Y-136385277D01*
X107996789Y-136467909D01*
X108011233Y-136530104D01*
X108021446Y-136566899D01*
X108024686Y-136574296D01*
X108046617Y-136581540D01*
X108096147Y-136587385D01*
X108167485Y-136591835D01*
X108254839Y-136594893D01*
X108352417Y-136596565D01*
X108454426Y-136596853D01*
X108555075Y-136595761D01*
X108648572Y-136593294D01*
X108729125Y-136589456D01*
X108790942Y-136584250D01*
X108828230Y-136577681D01*
X108835993Y-136573741D01*
X108845298Y-136550188D01*
X108858600Y-136500282D01*
X108874337Y-136430623D01*
X108890946Y-136347813D01*
X108896319Y-136318905D01*
X108921848Y-136179531D01*
X108942408Y-136069436D01*
X108958815Y-135984982D01*
X108971887Y-135922530D01*
X108982441Y-135878444D01*
X108991294Y-135849085D01*
X108999263Y-135830815D01*
X109007165Y-135819998D01*
X109008727Y-135818485D01*
X109033886Y-135803377D01*
X109082850Y-135780329D01*
X109149621Y-135751644D01*
X109228205Y-135719622D01*
X109312607Y-135686565D01*
X109396830Y-135654773D01*
X109474879Y-135626549D01*
X109540759Y-135604193D01*
X109588473Y-135590007D01*
X109612027Y-135586293D01*
X109612852Y-135586602D01*
X109632104Y-135599189D01*
X109674463Y-135627744D01*
X109735521Y-135669267D01*
X109810868Y-135720756D01*
X109896096Y-135779211D01*
X109920315Y-135795858D01*
X110008123Y-135855215D01*
X110088238Y-135907447D01*
X110156062Y-135949708D01*
X110206993Y-135979153D01*
X110236431Y-135992937D01*
X110240048Y-135993605D01*
X110259057Y-135982024D01*
X110296714Y-135950024D01*
X110348973Y-135901718D01*
X110411786Y-135841220D01*
X110481106Y-135772644D01*
X110552885Y-135700104D01*
X110623077Y-135627712D01*
X110687635Y-135559584D01*
X110742510Y-135499832D01*
X110783656Y-135452571D01*
X110807026Y-135421913D01*
X110810842Y-135413432D01*
X110801855Y-135393691D01*
X110777616Y-135353274D01*
X110742209Y-135298763D01*
X110713711Y-135256823D01*
X110661418Y-135180829D01*
X110599845Y-135090834D01*
X110538370Y-135000564D01*
X110505469Y-134952032D01*
X110394359Y-134787762D01*
X110468916Y-134649869D01*
X110501578Y-134587049D01*
X110526966Y-134533629D01*
X110541446Y-134497484D01*
X110543460Y-134488284D01*
X110528584Y-134477221D01*
X110486547Y-134455394D01*
X110421227Y-134424434D01*
X110336500Y-134385970D01*
X110236245Y-134341632D01*
X110124339Y-134293047D01*
X110004659Y-134241846D01*
X109881084Y-134189659D01*
X109757491Y-134138113D01*
X109637757Y-134088840D01*
X109525759Y-134043467D01*
X109425377Y-134003625D01*
X109340486Y-133970942D01*
X109274965Y-133947049D01*
X109232690Y-133933574D01*
X109218172Y-133931406D01*
X109199653Y-133948583D01*
X109169590Y-133986190D01*
X109134232Y-134036366D01*
X109131434Y-134040578D01*
X109027625Y-134170264D01*
X108906515Y-134274834D01*
X108771976Y-134353381D01*
X108627882Y-134404999D01*
X108478105Y-134428782D01*
X108326517Y-134423823D01*
X108176992Y-134389217D01*
X108033400Y-134324057D01*
X108001984Y-134304886D01*
X107875125Y-134205174D01*
X107773255Y-134087377D01*
X107696904Y-133955571D01*
X107646602Y-133813833D01*
X107622879Y-133666242D01*
X107626265Y-133516873D01*
X107657288Y-133369803D01*
X107716480Y-133229111D01*
X107804369Y-133098873D01*
X107840042Y-133058586D01*
X107951706Y-132956055D01*
X108069257Y-132881341D01*
X108201020Y-132830090D01*
X108331507Y-132801546D01*
X108478216Y-132794500D01*
X108625653Y-132817996D01*
X108768834Y-132869649D01*
X108902777Y-132947071D01*
X109022498Y-133047875D01*
X109123014Y-133169676D01*
X109133609Y-133185684D01*
X109168306Y-133236398D01*
X109198370Y-133274950D01*
X109217565Y-133293381D01*
X109218172Y-133293649D01*
X109238936Y-133289692D01*
X109286062Y-133274007D01*
X109355673Y-133248222D01*
X109443893Y-133213969D01*
X109546844Y-133172877D01*
X109660650Y-133126576D01*
X109781435Y-133076696D01*
X109905321Y-133024867D01*
X110028432Y-132972719D01*
X110146891Y-132921882D01*
X110256823Y-132873987D01*
X110354349Y-132830662D01*
X110435593Y-132793538D01*
X110496679Y-132764244D01*
X110533730Y-132744412D01*
X110543460Y-132736426D01*
X110535883Y-132712021D01*
X110515560Y-132666358D01*
X110486125Y-132607310D01*
X110468916Y-132574840D01*
X110394359Y-132436947D01*
X110505469Y-132272677D01*
X110562390Y-132188821D01*
X110625030Y-132097013D01*
X110684011Y-132010980D01*
X110713711Y-131967887D01*
X110754410Y-131907277D01*
X110786663Y-131855955D01*
X110806384Y-131820615D01*
X110810554Y-131809137D01*
X110799307Y-131792430D01*
X110767911Y-131755454D01*
X110719624Y-131701795D01*
X110657708Y-131635038D01*
X110585421Y-131558766D01*
X110539008Y-131510527D01*
X110456087Y-131426133D01*
X110381920Y-131353197D01*
X110319680Y-131294669D01*
X110272541Y-131253497D01*
X110243673Y-131232628D01*
X110237815Y-131230626D01*
X110215532Y-131239917D01*
X110170477Y-131265591D01*
X110107211Y-131304800D01*
X110030295Y-131354697D01*
X109944292Y-131412433D01*
X109920315Y-131428851D01*
X109833170Y-131488677D01*
X109754710Y-131542350D01*
X109689345Y-131586870D01*
X109641484Y-131619235D01*
X109615535Y-131636445D01*
X109612852Y-131638107D01*
X109592172Y-131635621D01*
X109546704Y-131622423D01*
X109482444Y-131600814D01*
X109405387Y-131573096D01*
X109321529Y-131541570D01*
X109236866Y-131508537D01*
X109157392Y-131476299D01*
X109089104Y-131447157D01*
X109037997Y-131423412D01*
X109010067Y-131407365D01*
X109008727Y-131406225D01*
X109000745Y-131396412D01*
X108992851Y-131379839D01*
X108984229Y-131352868D01*
X108974062Y-131311861D01*
X108961531Y-131253180D01*
X108945821Y-131173187D01*
X108926113Y-131068245D01*
X108901592Y-130934715D01*
X108896319Y-130905804D01*
X108879764Y-130820118D01*
X108863569Y-130745418D01*
X108849296Y-130688306D01*
X108838508Y-130655383D01*
X108835993Y-130650969D01*
X108813696Y-130643694D01*
X108763869Y-130637781D01*
X108692304Y-130633234D01*
X108604793Y-130630055D01*
X108507128Y-130628251D01*
X108405101Y-130627823D01*
X108304503Y-130628777D01*
X108211127Y-130631116D01*
X108130765Y-130634844D01*
X108069209Y-130639966D01*
X108032250Y-130646484D01*
X108024686Y-130650414D01*
X108017056Y-130672292D01*
X108004642Y-130722109D01*
X107988522Y-130794903D01*
X107969773Y-130885711D01*
X107949471Y-130989569D01*
X107938830Y-131046154D01*
X107918760Y-131153514D01*
X107900580Y-131249254D01*
X107885199Y-131328694D01*
X107873531Y-131387154D01*
X107866488Y-131419955D01*
X107864926Y-131425354D01*
X107847322Y-131434478D01*
X107804918Y-131453765D01*
X107743772Y-131480645D01*
X107669943Y-131512546D01*
X107589489Y-131546898D01*
X107508468Y-131581129D01*
X107432937Y-131612669D01*
X107368955Y-131638946D01*
X107322580Y-131657389D01*
X107299869Y-131665429D01*
X107298876Y-131665578D01*
X107280961Y-131656465D01*
X107239733Y-131630914D01*
X107179291Y-131591612D01*
X107103731Y-131541243D01*
X107017152Y-131482494D01*
X106967421Y-131448342D01*
X106876236Y-131386110D01*
X106793449Y-131330836D01*
X106723249Y-131285218D01*
X106669824Y-131251952D01*
X106637361Y-131233736D01*
X106630083Y-131231105D01*
X106613145Y-131242414D01*
X106576978Y-131273681D01*
X106525635Y-131320910D01*
X106463167Y-131380108D01*
X106393626Y-131447281D01*
X106321065Y-131518434D01*
X106249535Y-131589574D01*
X106183087Y-131656707D01*
X106125774Y-131715839D01*
X106081647Y-131762975D01*
X106054759Y-131794123D01*
X106048342Y-131804543D01*
X106057365Y-131821509D01*
X106082715Y-131862089D01*
X106121810Y-131922337D01*
X106172071Y-131998307D01*
X106230917Y-132086054D01*
X106275748Y-132152244D01*
X106503154Y-132486668D01*
X106388238Y-132765433D01*
X106273322Y-133044197D01*
X105872576Y-133119746D01*
X105471829Y-133195294D01*
X105471829Y-134029415D01*
X105872576Y-134104964D01*
G36*
X111411645Y-135995388D02*
X111429206Y-136052865D01*
X111451395Y-136089872D01*
X111468942Y-136101927D01*
X111489742Y-136098609D01*
X111522419Y-136077079D01*
X111545562Y-136058874D01*
X111587402Y-136021344D01*
X111605005Y-135993148D01*
X111603856Y-135969111D01*
X111585710Y-135897808D01*
X111586534Y-135845442D01*
X111607098Y-135802918D01*
X111619134Y-135788642D01*
X111661483Y-135742947D01*
X112214526Y-135742947D01*
X112214526Y-135559131D01*
X111412421Y-135559131D01*
X111412421Y-135651039D01*
X111414603Y-135706219D01*
X111422351Y-135734688D01*
X111437468Y-135742943D01*
X111437916Y-135742947D01*
X111453749Y-135746845D01*
X111451684Y-135764474D01*
X111440261Y-135788901D01*
X111419005Y-135839350D01*
X111406216Y-135880316D01*
X111402938Y-135933028D01*
X111411645Y-135995388D01*
X111411645Y-135995388D01*
G37*
X111411645Y-135995388D02*
X111429206Y-136052865D01*
X111451395Y-136089872D01*
X111468942Y-136101927D01*
X111489742Y-136098609D01*
X111522419Y-136077079D01*
X111545562Y-136058874D01*
X111587402Y-136021344D01*
X111605005Y-135993148D01*
X111603856Y-135969111D01*
X111585710Y-135897808D01*
X111586534Y-135845442D01*
X111607098Y-135802918D01*
X111619134Y-135788642D01*
X111661483Y-135742947D01*
X112214526Y-135742947D01*
X112214526Y-135559131D01*
X111412421Y-135559131D01*
X111412421Y-135651039D01*
X111414603Y-135706219D01*
X111422351Y-135734688D01*
X111437468Y-135742943D01*
X111437916Y-135742947D01*
X111453749Y-135746845D01*
X111451684Y-135764474D01*
X111440261Y-135788901D01*
X111419005Y-135839350D01*
X111406216Y-135880316D01*
X111402938Y-135933028D01*
X111411645Y-135995388D01*
G36*
X111426226Y-132601957D02*
X111446090Y-132643546D01*
X111474784Y-132683825D01*
X111507809Y-132714510D01*
X111549931Y-132736861D01*
X111605915Y-132752136D01*
X111680528Y-132761592D01*
X111778535Y-132766487D01*
X111904702Y-132768081D01*
X111917914Y-132768106D01*
X112214526Y-132768473D01*
X112214526Y-132584657D01*
X111941081Y-132584657D01*
X111839777Y-132584527D01*
X111766353Y-132583621D01*
X111715271Y-132581173D01*
X111680990Y-132576414D01*
X111657971Y-132568574D01*
X111640673Y-132556885D01*
X111623581Y-132540602D01*
X111586857Y-132483634D01*
X111580042Y-132421445D01*
X111603261Y-132362199D01*
X111620543Y-132341595D01*
X111636791Y-132326470D01*
X111654191Y-132315610D01*
X111678212Y-132308310D01*
X111714322Y-132303863D01*
X111767988Y-132301564D01*
X111844680Y-132300704D01*
X111938043Y-132300578D01*
X112214526Y-132300578D01*
X112214526Y-132116763D01*
X111412421Y-132116763D01*
X111412421Y-132208671D01*
X111414603Y-132263851D01*
X111422351Y-132292320D01*
X111437468Y-132300575D01*
X111437916Y-132300578D01*
X111452720Y-132304408D01*
X111451040Y-132321301D01*
X111434773Y-132354888D01*
X111410840Y-132431063D01*
X111408178Y-132518200D01*
X111426226Y-132601957D01*
X111426226Y-132601957D01*
G37*
X111426226Y-132601957D02*
X111446090Y-132643546D01*
X111474784Y-132683825D01*
X111507809Y-132714510D01*
X111549931Y-132736861D01*
X111605915Y-132752136D01*
X111680528Y-132761592D01*
X111778535Y-132766487D01*
X111904702Y-132768081D01*
X111917914Y-132768106D01*
X112214526Y-132768473D01*
X112214526Y-132584657D01*
X111941081Y-132584657D01*
X111839777Y-132584527D01*
X111766353Y-132583621D01*
X111715271Y-132581173D01*
X111680990Y-132576414D01*
X111657971Y-132568574D01*
X111640673Y-132556885D01*
X111623581Y-132540602D01*
X111586857Y-132483634D01*
X111580042Y-132421445D01*
X111603261Y-132362199D01*
X111620543Y-132341595D01*
X111636791Y-132326470D01*
X111654191Y-132315610D01*
X111678212Y-132308310D01*
X111714322Y-132303863D01*
X111767988Y-132301564D01*
X111844680Y-132300704D01*
X111938043Y-132300578D01*
X112214526Y-132300578D01*
X112214526Y-132116763D01*
X111412421Y-132116763D01*
X111412421Y-132208671D01*
X111414603Y-132263851D01*
X111422351Y-132292320D01*
X111437468Y-132300575D01*
X111437916Y-132300578D01*
X111452720Y-132304408D01*
X111451040Y-132321301D01*
X111434773Y-132354888D01*
X111410840Y-132431063D01*
X111408178Y-132518200D01*
X111426226Y-132601957D01*
G36*
X111409554Y-137162784D02*
X111419949Y-137205574D01*
X111458013Y-137287609D01*
X111516149Y-137357757D01*
X111585852Y-137406305D01*
X111601502Y-137412975D01*
X111642496Y-137422124D01*
X111703138Y-137428529D01*
X111764430Y-137430710D01*
X111880316Y-137430710D01*
X111880316Y-137188407D01*
X111880693Y-137088471D01*
X111882987Y-137018069D01*
X111888938Y-136973313D01*
X111900285Y-136950315D01*
X111918771Y-136945189D01*
X111946136Y-136954048D01*
X111978155Y-136969917D01*
X112031592Y-137014184D01*
X112058215Y-137075699D01*
X112057347Y-137150885D01*
X112028371Y-137236053D01*
X111992611Y-137309659D01*
X112040904Y-137370734D01*
X112089197Y-137431810D01*
X112142285Y-137374351D01*
X112192445Y-137297641D01*
X112222688Y-137203302D01*
X112231151Y-137101827D01*
X112215974Y-137003711D01*
X112210824Y-136987881D01*
X112165791Y-136901647D01*
X112098652Y-136837501D01*
X112007405Y-136794091D01*
X111890044Y-136770064D01*
X111887529Y-136769784D01*
X111759627Y-136767633D01*
X111713997Y-136776329D01*
X111713997Y-136946105D01*
X111721013Y-136961697D01*
X111726388Y-137004029D01*
X111729457Y-137066434D01*
X111729921Y-137105981D01*
X111729630Y-137179728D01*
X111727783Y-137225840D01*
X111722912Y-137250100D01*
X111713555Y-137258294D01*
X111698245Y-137256206D01*
X111692322Y-137254455D01*
X111636668Y-137224560D01*
X111591815Y-137177542D01*
X111572105Y-137136049D01*
X111573295Y-137080926D01*
X111597875Y-137025068D01*
X111638570Y-136978212D01*
X111688108Y-136950094D01*
X111713997Y-136946105D01*
X111713997Y-136776329D01*
X111647133Y-136789074D01*
X111552727Y-136831611D01*
X111479088Y-136892747D01*
X111428893Y-136969985D01*
X111404822Y-137060830D01*
X111409554Y-137162784D01*
X111409554Y-137162784D01*
G37*
X111409554Y-137162784D02*
X111419949Y-137205574D01*
X111458013Y-137287609D01*
X111516149Y-137357757D01*
X111585852Y-137406305D01*
X111601502Y-137412975D01*
X111642496Y-137422124D01*
X111703138Y-137428529D01*
X111764430Y-137430710D01*
X111880316Y-137430710D01*
X111880316Y-137188407D01*
X111880693Y-137088471D01*
X111882987Y-137018069D01*
X111888938Y-136973313D01*
X111900285Y-136950315D01*
X111918771Y-136945189D01*
X111946136Y-136954048D01*
X111978155Y-136969917D01*
X112031592Y-137014184D01*
X112058215Y-137075699D01*
X112057347Y-137150885D01*
X112028371Y-137236053D01*
X111992611Y-137309659D01*
X112040904Y-137370734D01*
X112089197Y-137431810D01*
X112142285Y-137374351D01*
X112192445Y-137297641D01*
X112222688Y-137203302D01*
X112231151Y-137101827D01*
X112215974Y-137003711D01*
X112210824Y-136987881D01*
X112165791Y-136901647D01*
X112098652Y-136837501D01*
X112007405Y-136794091D01*
X111890044Y-136770064D01*
X111887529Y-136769784D01*
X111759627Y-136767633D01*
X111713997Y-136776329D01*
X111713997Y-136946105D01*
X111721013Y-136961697D01*
X111726388Y-137004029D01*
X111729457Y-137066434D01*
X111729921Y-137105981D01*
X111729630Y-137179728D01*
X111727783Y-137225840D01*
X111722912Y-137250100D01*
X111713555Y-137258294D01*
X111698245Y-137256206D01*
X111692322Y-137254455D01*
X111636668Y-137224560D01*
X111591815Y-137177542D01*
X111572105Y-137136049D01*
X111573295Y-137080926D01*
X111597875Y-137025068D01*
X111638570Y-136978212D01*
X111688108Y-136950094D01*
X111713997Y-136946105D01*
X111713997Y-136776329D01*
X111647133Y-136789074D01*
X111552727Y-136831611D01*
X111479088Y-136892747D01*
X111428893Y-136969985D01*
X111404822Y-137060830D01*
X111409554Y-137162784D01*
G36*
X111419419Y-136550576D02*
X111460549Y-136647395D01*
X111480571Y-136677890D01*
X111511340Y-136716865D01*
X111535533Y-136741331D01*
X111543413Y-136745578D01*
X111560899Y-136733584D01*
X111590570Y-136702887D01*
X111611279Y-136678312D01*
X111665336Y-136611046D01*
X111620642Y-136557930D01*
X111591789Y-136516884D01*
X111581829Y-136476863D01*
X111584261Y-136431059D01*
X111602345Y-136358324D01*
X111639881Y-136308256D01*
X111700562Y-136277829D01*
X111788081Y-136264017D01*
X111788136Y-136264013D01*
X111885958Y-136265208D01*
X111957730Y-136283772D01*
X112006595Y-136320804D01*
X112023143Y-136346050D01*
X112043749Y-136413097D01*
X112043762Y-136484709D01*
X112023768Y-136547015D01*
X112014000Y-136561763D01*
X111989047Y-136598750D01*
X111984958Y-136627668D01*
X112003530Y-136658856D01*
X112036887Y-136693336D01*
X112093196Y-136747912D01*
X112143142Y-136687318D01*
X112199513Y-136593698D01*
X112227293Y-136488125D01*
X112225282Y-136377798D01*
X112206862Y-136305343D01*
X112161310Y-136220656D01*
X112089650Y-136152927D01*
X112039066Y-136122157D01*
X111966488Y-136097236D01*
X111874569Y-136084766D01*
X111774948Y-136084670D01*
X111679267Y-136096870D01*
X111599169Y-136121290D01*
X111590956Y-136125136D01*
X111510413Y-136182093D01*
X111451771Y-136259209D01*
X111416247Y-136350390D01*
X111405057Y-136449543D01*
X111419419Y-136550576D01*
X111419419Y-136550576D01*
G37*
X111419419Y-136550576D02*
X111460549Y-136647395D01*
X111480571Y-136677890D01*
X111511340Y-136716865D01*
X111535533Y-136741331D01*
X111543413Y-136745578D01*
X111560899Y-136733584D01*
X111590570Y-136702887D01*
X111611279Y-136678312D01*
X111665336Y-136611046D01*
X111620642Y-136557930D01*
X111591789Y-136516884D01*
X111581829Y-136476863D01*
X111584261Y-136431059D01*
X111602345Y-136358324D01*
X111639881Y-136308256D01*
X111700562Y-136277829D01*
X111788081Y-136264017D01*
X111788136Y-136264013D01*
X111885958Y-136265208D01*
X111957730Y-136283772D01*
X112006595Y-136320804D01*
X112023143Y-136346050D01*
X112043749Y-136413097D01*
X112043762Y-136484709D01*
X112023768Y-136547015D01*
X112014000Y-136561763D01*
X111989047Y-136598750D01*
X111984958Y-136627668D01*
X112003530Y-136658856D01*
X112036887Y-136693336D01*
X112093196Y-136747912D01*
X112143142Y-136687318D01*
X112199513Y-136593698D01*
X112227293Y-136488125D01*
X112225282Y-136377798D01*
X112206862Y-136305343D01*
X112161310Y-136220656D01*
X112089650Y-136152927D01*
X112039066Y-136122157D01*
X111966488Y-136097236D01*
X111874569Y-136084766D01*
X111774948Y-136084670D01*
X111679267Y-136096870D01*
X111599169Y-136121290D01*
X111590956Y-136125136D01*
X111510413Y-136182093D01*
X111451771Y-136259209D01*
X111416247Y-136350390D01*
X111405057Y-136449543D01*
X111419419Y-136550576D01*
G36*
X111672533Y-134924131D02*
X111795089Y-134925710D01*
X111888179Y-134931481D01*
X111955651Y-134942991D01*
X112001355Y-134961790D01*
X112029139Y-134989426D01*
X112042854Y-135027448D01*
X112046358Y-135074526D01*
X112042432Y-135123832D01*
X112028089Y-135161283D01*
X111999478Y-135188428D01*
X111952751Y-135206815D01*
X111884058Y-135217993D01*
X111789550Y-135223511D01*
X111672533Y-135224921D01*
X111412421Y-135224921D01*
X111412421Y-135408736D01*
X112214526Y-135408736D01*
X112214526Y-135316828D01*
X112212281Y-135261422D01*
X112204396Y-135232891D01*
X112189428Y-135224921D01*
X112176097Y-135220120D01*
X112178917Y-135201014D01*
X112197783Y-135162504D01*
X112226887Y-135074239D01*
X112224825Y-134980623D01*
X112193221Y-134890921D01*
X112168257Y-134848204D01*
X112141226Y-134815621D01*
X112107405Y-134791817D01*
X112062068Y-134775439D01*
X112000489Y-134765131D01*
X111917943Y-134759541D01*
X111809705Y-134757312D01*
X111726004Y-134757026D01*
X111412421Y-134757026D01*
X111412421Y-134924131D01*
X111672533Y-134924131D01*
X111672533Y-134924131D01*
G37*
X111672533Y-134924131D02*
X111795089Y-134925710D01*
X111888179Y-134931481D01*
X111955651Y-134942991D01*
X112001355Y-134961790D01*
X112029139Y-134989426D01*
X112042854Y-135027448D01*
X112046358Y-135074526D01*
X112042432Y-135123832D01*
X112028089Y-135161283D01*
X111999478Y-135188428D01*
X111952751Y-135206815D01*
X111884058Y-135217993D01*
X111789550Y-135223511D01*
X111672533Y-135224921D01*
X111412421Y-135224921D01*
X111412421Y-135408736D01*
X112214526Y-135408736D01*
X112214526Y-135316828D01*
X112212281Y-135261422D01*
X112204396Y-135232891D01*
X112189428Y-135224921D01*
X112176097Y-135220120D01*
X112178917Y-135201014D01*
X112197783Y-135162504D01*
X112226887Y-135074239D01*
X112224825Y-134980623D01*
X112193221Y-134890921D01*
X112168257Y-134848204D01*
X112141226Y-134815621D01*
X112107405Y-134791817D01*
X112062068Y-134775439D01*
X112000489Y-134765131D01*
X111917943Y-134759541D01*
X111809705Y-134757312D01*
X111726004Y-134757026D01*
X111412421Y-134757026D01*
X111412421Y-134924131D01*
X111672533Y-134924131D01*
G36*
X111422310Y-134415669D02*
X111468340Y-134500192D01*
X111541006Y-134566321D01*
X111600106Y-134597478D01*
X111652305Y-134610855D01*
X111726719Y-134619522D01*
X111812442Y-134623237D01*
X111898569Y-134621754D01*
X111974193Y-134614831D01*
X112014584Y-134606745D01*
X112069840Y-134579465D01*
X112128530Y-134532220D01*
X112179852Y-134475282D01*
X112213005Y-134418924D01*
X112213531Y-134417550D01*
X112228018Y-134347616D01*
X112228377Y-134264737D01*
X112215188Y-134185977D01*
X112204617Y-134155566D01*
X112160201Y-134077239D01*
X112102007Y-134021143D01*
X112024965Y-133984286D01*
X111924001Y-133963680D01*
X111871116Y-133959018D01*
X111804663Y-133959613D01*
X111804663Y-134138736D01*
X111901630Y-134144770D01*
X111975523Y-134162138D01*
X112022736Y-134189740D01*
X112036237Y-134209404D01*
X112045651Y-134259787D01*
X112042864Y-134319673D01*
X112029316Y-134371449D01*
X112021862Y-134385027D01*
X111978451Y-134420849D01*
X111912014Y-134444493D01*
X111831161Y-134454558D01*
X111744502Y-134449642D01*
X111692349Y-134438655D01*
X111631951Y-134407109D01*
X111594197Y-134357311D01*
X111581143Y-134297337D01*
X111594849Y-134235264D01*
X111628372Y-134187582D01*
X111656031Y-134162525D01*
X111683294Y-134147900D01*
X111720190Y-134140929D01*
X111776750Y-134138833D01*
X111804663Y-134138736D01*
X111804663Y-133959613D01*
X111729994Y-133960282D01*
X111614271Y-133983265D01*
X111523941Y-134027972D01*
X111459000Y-134094405D01*
X111419445Y-134182565D01*
X111414858Y-134201495D01*
X111404090Y-134315266D01*
X111422310Y-134415669D01*
X111422310Y-134415669D01*
G37*
X111422310Y-134415669D02*
X111468340Y-134500192D01*
X111541006Y-134566321D01*
X111600106Y-134597478D01*
X111652305Y-134610855D01*
X111726719Y-134619522D01*
X111812442Y-134623237D01*
X111898569Y-134621754D01*
X111974193Y-134614831D01*
X112014584Y-134606745D01*
X112069840Y-134579465D01*
X112128530Y-134532220D01*
X112179852Y-134475282D01*
X112213005Y-134418924D01*
X112213531Y-134417550D01*
X112228018Y-134347616D01*
X112228377Y-134264737D01*
X112215188Y-134185977D01*
X112204617Y-134155566D01*
X112160201Y-134077239D01*
X112102007Y-134021143D01*
X112024965Y-133984286D01*
X111924001Y-133963680D01*
X111871116Y-133959018D01*
X111804663Y-133959613D01*
X111804663Y-134138736D01*
X111901630Y-134144770D01*
X111975523Y-134162138D01*
X112022736Y-134189740D01*
X112036237Y-134209404D01*
X112045651Y-134259787D01*
X112042864Y-134319673D01*
X112029316Y-134371449D01*
X112021862Y-134385027D01*
X111978451Y-134420849D01*
X111912014Y-134444493D01*
X111831161Y-134454558D01*
X111744502Y-134449642D01*
X111692349Y-134438655D01*
X111631951Y-134407109D01*
X111594197Y-134357311D01*
X111581143Y-134297337D01*
X111594849Y-134235264D01*
X111628372Y-134187582D01*
X111656031Y-134162525D01*
X111683294Y-134147900D01*
X111720190Y-134140929D01*
X111776750Y-134138833D01*
X111804663Y-134138736D01*
X111804663Y-133959613D01*
X111729994Y-133960282D01*
X111614271Y-133983265D01*
X111523941Y-134027972D01*
X111459000Y-134094405D01*
X111419445Y-134182565D01*
X111414858Y-134201495D01*
X111404090Y-134315266D01*
X111422310Y-134415669D01*
G36*
X111409547Y-133622628D02*
X111421548Y-133685908D01*
X111446648Y-133751557D01*
X111449848Y-133758572D01*
X111476026Y-133808356D01*
X111500353Y-133842834D01*
X111515937Y-133853978D01*
X111541353Y-133843366D01*
X111578853Y-133817588D01*
X111592852Y-133806146D01*
X111647954Y-133758992D01*
X111612086Y-133698201D01*
X111588192Y-133640347D01*
X111575420Y-133573500D01*
X111574613Y-133509394D01*
X111586615Y-133459764D01*
X111594105Y-133447854D01*
X111628450Y-133425172D01*
X111668013Y-133422416D01*
X111698920Y-133439388D01*
X111704913Y-133449427D01*
X111712357Y-133479510D01*
X111721106Y-133532389D01*
X111729467Y-133597575D01*
X111730778Y-133609600D01*
X111748888Y-133714297D01*
X111779651Y-133790232D01*
X111825907Y-133840592D01*
X111890497Y-133868564D01*
X111969387Y-133877278D01*
X112059065Y-133865240D01*
X112129486Y-133826151D01*
X112180777Y-133759855D01*
X112213067Y-133666194D01*
X112225807Y-133562223D01*
X112225654Y-133477438D01*
X112214083Y-133408665D01*
X112198109Y-133361697D01*
X112170275Y-133302350D01*
X112137973Y-133247506D01*
X112123755Y-133228013D01*
X112082835Y-133177881D01*
X111960477Y-133298803D01*
X112005967Y-133367543D01*
X112040133Y-133436488D01*
X112058004Y-133510111D01*
X112059889Y-133580883D01*
X112046101Y-133641274D01*
X112016949Y-133683757D01*
X111992352Y-133697474D01*
X111952904Y-133695417D01*
X111922737Y-133661330D01*
X111901906Y-133595308D01*
X111892279Y-133522974D01*
X111873910Y-133411652D01*
X111839254Y-133328952D01*
X111787297Y-133273765D01*
X111717023Y-133244988D01*
X111633707Y-133241001D01*
X111546681Y-133260693D01*
X111480902Y-133305589D01*
X111436068Y-133376091D01*
X111411879Y-133472601D01*
X111407137Y-133544100D01*
X111409547Y-133622628D01*
X111409547Y-133622628D01*
G37*
X111409547Y-133622628D02*
X111421548Y-133685908D01*
X111446648Y-133751557D01*
X111449848Y-133758572D01*
X111476026Y-133808356D01*
X111500353Y-133842834D01*
X111515937Y-133853978D01*
X111541353Y-133843366D01*
X111578853Y-133817588D01*
X111592852Y-133806146D01*
X111647954Y-133758992D01*
X111612086Y-133698201D01*
X111588192Y-133640347D01*
X111575420Y-133573500D01*
X111574613Y-133509394D01*
X111586615Y-133459764D01*
X111594105Y-133447854D01*
X111628450Y-133425172D01*
X111668013Y-133422416D01*
X111698920Y-133439388D01*
X111704913Y-133449427D01*
X111712357Y-133479510D01*
X111721106Y-133532389D01*
X111729467Y-133597575D01*
X111730778Y-133609600D01*
X111748888Y-133714297D01*
X111779651Y-133790232D01*
X111825907Y-133840592D01*
X111890497Y-133868564D01*
X111969387Y-133877278D01*
X112059065Y-133865240D01*
X112129486Y-133826151D01*
X112180777Y-133759855D01*
X112213067Y-133666194D01*
X112225807Y-133562223D01*
X112225654Y-133477438D01*
X112214083Y-133408665D01*
X112198109Y-133361697D01*
X112170275Y-133302350D01*
X112137973Y-133247506D01*
X112123755Y-133228013D01*
X112082835Y-133177881D01*
X111960477Y-133298803D01*
X112005967Y-133367543D01*
X112040133Y-133436488D01*
X112058004Y-133510111D01*
X112059889Y-133580883D01*
X112046101Y-133641274D01*
X112016949Y-133683757D01*
X111992352Y-133697474D01*
X111952904Y-133695417D01*
X111922737Y-133661330D01*
X111901906Y-133595308D01*
X111892279Y-133522974D01*
X111873910Y-133411652D01*
X111839254Y-133328952D01*
X111787297Y-133273765D01*
X111717023Y-133244988D01*
X111633707Y-133241001D01*
X111546681Y-133260693D01*
X111480902Y-133305589D01*
X111436068Y-133376091D01*
X111411879Y-133472601D01*
X111407137Y-133544100D01*
X111409547Y-133622628D01*
G36*
X111431027Y-131801018D02*
X111438866Y-131817670D01*
X111481086Y-131875305D01*
X111542700Y-131929805D01*
X111610543Y-131970499D01*
X111641734Y-131982074D01*
X111697449Y-131992634D01*
X111764781Y-131998931D01*
X111792585Y-131999696D01*
X111880316Y-131999789D01*
X111880316Y-131494850D01*
X111926270Y-131505613D01*
X111980620Y-131532033D01*
X112027591Y-131578222D01*
X112057848Y-131633172D01*
X112064131Y-131668189D01*
X112056506Y-131715677D01*
X112037383Y-131772335D01*
X112028584Y-131791582D01*
X111993036Y-131862759D01*
X112039367Y-131923502D01*
X112070703Y-131958552D01*
X112096567Y-131977202D01*
X112104158Y-131978147D01*
X112122556Y-131961485D01*
X112150515Y-131924970D01*
X112172327Y-131891828D01*
X112211537Y-131802393D01*
X112229285Y-131702129D01*
X112224670Y-131602754D01*
X112200551Y-131523539D01*
X112148884Y-131441880D01*
X112080856Y-131383849D01*
X111992843Y-131347546D01*
X111881216Y-131331072D01*
X111830138Y-131329611D01*
X111713091Y-131335457D01*
X111709686Y-131336175D01*
X111709686Y-131503489D01*
X111720662Y-131508097D01*
X111726715Y-131527036D01*
X111729310Y-131566098D01*
X111729910Y-131631077D01*
X111729921Y-131656097D01*
X111729014Y-131732221D01*
X111725720Y-131780496D01*
X111719181Y-131806460D01*
X111708537Y-131815648D01*
X111705119Y-131815973D01*
X111677956Y-131805487D01*
X111639903Y-131779242D01*
X111626579Y-131767959D01*
X111588896Y-131726072D01*
X111574080Y-131682409D01*
X111572842Y-131658885D01*
X111588329Y-131595243D01*
X111629930Y-131541873D01*
X111690353Y-131508019D01*
X111692322Y-131507419D01*
X111709686Y-131503489D01*
X111709686Y-131336175D01*
X111620928Y-131354899D01*
X111547190Y-131389922D01*
X111494848Y-131432756D01*
X111438092Y-131511948D01*
X111407762Y-131605040D01*
X111405021Y-131704055D01*
X111431027Y-131801018D01*
X111431027Y-131801018D01*
G37*
X111431027Y-131801018D02*
X111438866Y-131817670D01*
X111481086Y-131875305D01*
X111542700Y-131929805D01*
X111610543Y-131970499D01*
X111641734Y-131982074D01*
X111697449Y-131992634D01*
X111764781Y-131998931D01*
X111792585Y-131999696D01*
X111880316Y-131999789D01*
X111880316Y-131494850D01*
X111926270Y-131505613D01*
X111980620Y-131532033D01*
X112027591Y-131578222D01*
X112057848Y-131633172D01*
X112064131Y-131668189D01*
X112056506Y-131715677D01*
X112037383Y-131772335D01*
X112028584Y-131791582D01*
X111993036Y-131862759D01*
X112039367Y-131923502D01*
X112070703Y-131958552D01*
X112096567Y-131977202D01*
X112104158Y-131978147D01*
X112122556Y-131961485D01*
X112150515Y-131924970D01*
X112172327Y-131891828D01*
X112211537Y-131802393D01*
X112229285Y-131702129D01*
X112224670Y-131602754D01*
X112200551Y-131523539D01*
X112148884Y-131441880D01*
X112080856Y-131383849D01*
X111992843Y-131347546D01*
X111881216Y-131331072D01*
X111830138Y-131329611D01*
X111713091Y-131335457D01*
X111709686Y-131336175D01*
X111709686Y-131503489D01*
X111720662Y-131508097D01*
X111726715Y-131527036D01*
X111729310Y-131566098D01*
X111729910Y-131631077D01*
X111729921Y-131656097D01*
X111729014Y-131732221D01*
X111725720Y-131780496D01*
X111719181Y-131806460D01*
X111708537Y-131815648D01*
X111705119Y-131815973D01*
X111677956Y-131805487D01*
X111639903Y-131779242D01*
X111626579Y-131767959D01*
X111588896Y-131726072D01*
X111574080Y-131682409D01*
X111572842Y-131658885D01*
X111588329Y-131595243D01*
X111629930Y-131541873D01*
X111690353Y-131508019D01*
X111692322Y-131507419D01*
X111709686Y-131503489D01*
X111709686Y-131336175D01*
X111620928Y-131354899D01*
X111547190Y-131389922D01*
X111494848Y-131432756D01*
X111438092Y-131511948D01*
X111407762Y-131605040D01*
X111405021Y-131704055D01*
X111431027Y-131801018D01*
G36*
X111421104Y-130230784D02*
X111459754Y-130318205D01*
X111524290Y-130384570D01*
X111614812Y-130429976D01*
X111731418Y-130454518D01*
X111749624Y-130456277D01*
X111877984Y-130457656D01*
X111990496Y-130439784D01*
X112081688Y-130403750D01*
X112111022Y-130384455D01*
X112173106Y-130317245D01*
X112213316Y-130231650D01*
X112230003Y-130135890D01*
X112221517Y-130038187D01*
X112195380Y-129963917D01*
X112151335Y-129900047D01*
X112093587Y-129847846D01*
X112092236Y-129846943D01*
X112056593Y-129825744D01*
X112020752Y-129811967D01*
X111975519Y-129803624D01*
X111911701Y-129798727D01*
X111859368Y-129796569D01*
X111811910Y-129795671D01*
X111811910Y-129962743D01*
X111859154Y-129964376D01*
X111922046Y-129970304D01*
X111962407Y-129980761D01*
X111991122Y-129999619D01*
X112007896Y-130017281D01*
X112043016Y-130079894D01*
X112047710Y-130145408D01*
X112022440Y-130206421D01*
X111994124Y-130236928D01*
X111965589Y-130258911D01*
X111938284Y-130271769D01*
X111902750Y-130277412D01*
X111849524Y-130277751D01*
X111800506Y-130276012D01*
X111730482Y-130272271D01*
X111685064Y-130266341D01*
X111655440Y-130255653D01*
X111632797Y-130237639D01*
X111619855Y-130223363D01*
X111585860Y-130163651D01*
X111584165Y-130099234D01*
X111604301Y-130045219D01*
X111646352Y-129999140D01*
X111715428Y-129971689D01*
X111811910Y-129962743D01*
X111811910Y-129795671D01*
X111755299Y-129794599D01*
X111677468Y-129797964D01*
X111618930Y-129808045D01*
X111572737Y-129826226D01*
X111531942Y-129853890D01*
X111519828Y-129864146D01*
X111459474Y-129928278D01*
X111424220Y-129997066D01*
X111409450Y-130081189D01*
X111408243Y-130122209D01*
X111421104Y-130230784D01*
X111421104Y-130230784D01*
G37*
X111421104Y-130230784D02*
X111459754Y-130318205D01*
X111524290Y-130384570D01*
X111614812Y-130429976D01*
X111731418Y-130454518D01*
X111749624Y-130456277D01*
X111877984Y-130457656D01*
X111990496Y-130439784D01*
X112081688Y-130403750D01*
X112111022Y-130384455D01*
X112173106Y-130317245D01*
X112213316Y-130231650D01*
X112230003Y-130135890D01*
X112221517Y-130038187D01*
X112195380Y-129963917D01*
X112151335Y-129900047D01*
X112093587Y-129847846D01*
X112092236Y-129846943D01*
X112056593Y-129825744D01*
X112020752Y-129811967D01*
X111975519Y-129803624D01*
X111911701Y-129798727D01*
X111859368Y-129796569D01*
X111811910Y-129795671D01*
X111811910Y-129962743D01*
X111859154Y-129964376D01*
X111922046Y-129970304D01*
X111962407Y-129980761D01*
X111991122Y-129999619D01*
X112007896Y-130017281D01*
X112043016Y-130079894D01*
X112047710Y-130145408D01*
X112022440Y-130206421D01*
X111994124Y-130236928D01*
X111965589Y-130258911D01*
X111938284Y-130271769D01*
X111902750Y-130277412D01*
X111849524Y-130277751D01*
X111800506Y-130276012D01*
X111730482Y-130272271D01*
X111685064Y-130266341D01*
X111655440Y-130255653D01*
X111632797Y-130237639D01*
X111619855Y-130223363D01*
X111585860Y-130163651D01*
X111584165Y-130099234D01*
X111604301Y-130045219D01*
X111646352Y-129999140D01*
X111715428Y-129971689D01*
X111811910Y-129962743D01*
X111811910Y-129795671D01*
X111755299Y-129794599D01*
X111677468Y-129797964D01*
X111618930Y-129808045D01*
X111572737Y-129826226D01*
X111531942Y-129853890D01*
X111519828Y-129864146D01*
X111459474Y-129928278D01*
X111424220Y-129997066D01*
X111409450Y-130081189D01*
X111408243Y-130122209D01*
X111421104Y-130230784D01*
G36*
X112670078Y-136305193D02*
X112690845Y-136385068D01*
X112733705Y-136451962D01*
X112765723Y-136484351D01*
X112841413Y-136537445D01*
X112929216Y-136567873D01*
X113037150Y-136578327D01*
X113045875Y-136578380D01*
X113133605Y-136578473D01*
X113133605Y-136073534D01*
X113179559Y-136084298D01*
X113221178Y-136103732D01*
X113264544Y-136137745D01*
X113271467Y-136144860D01*
X113308935Y-136206003D01*
X113315289Y-136275729D01*
X113290638Y-136355987D01*
X113284000Y-136369592D01*
X113263819Y-136411319D01*
X113252321Y-136439268D01*
X113251258Y-136444145D01*
X113261583Y-136461168D01*
X113286845Y-136493633D01*
X113300650Y-136510114D01*
X113332361Y-136544264D01*
X113353299Y-136555478D01*
X113372560Y-136547695D01*
X113377827Y-136543535D01*
X113400878Y-136515357D01*
X113428892Y-136468862D01*
X113445246Y-136436434D01*
X113474059Y-136344385D01*
X113483395Y-136242476D01*
X113472332Y-136145963D01*
X113464412Y-136118934D01*
X113419581Y-136035276D01*
X113350598Y-135973266D01*
X113256794Y-135932545D01*
X113137498Y-135912755D01*
X113075118Y-135910582D01*
X112984298Y-135916926D01*
X112984298Y-136077157D01*
X112991012Y-136092655D01*
X112996280Y-136134312D01*
X112999389Y-136194876D01*
X112999921Y-136235907D01*
X112999408Y-136309711D01*
X112997006Y-136356293D01*
X112991422Y-136381848D01*
X112981361Y-136392569D01*
X112966763Y-136394657D01*
X112921796Y-136380331D01*
X112877353Y-136344262D01*
X112843242Y-136296815D01*
X112829288Y-136249349D01*
X112841666Y-136184879D01*
X112877452Y-136129070D01*
X112929033Y-136090374D01*
X112984298Y-136077157D01*
X112984298Y-135916926D01*
X112942866Y-135919821D01*
X112837498Y-135948336D01*
X112758178Y-135996729D01*
X112704071Y-136065604D01*
X112674343Y-136155565D01*
X112668618Y-136204300D01*
X112670078Y-136305193D01*
X112670078Y-136305193D01*
G37*
X112670078Y-136305193D02*
X112690845Y-136385068D01*
X112733705Y-136451962D01*
X112765723Y-136484351D01*
X112841413Y-136537445D01*
X112929216Y-136567873D01*
X113037150Y-136578327D01*
X113045875Y-136578380D01*
X113133605Y-136578473D01*
X113133605Y-136073534D01*
X113179559Y-136084298D01*
X113221178Y-136103732D01*
X113264544Y-136137745D01*
X113271467Y-136144860D01*
X113308935Y-136206003D01*
X113315289Y-136275729D01*
X113290638Y-136355987D01*
X113284000Y-136369592D01*
X113263819Y-136411319D01*
X113252321Y-136439268D01*
X113251258Y-136444145D01*
X113261583Y-136461168D01*
X113286845Y-136493633D01*
X113300650Y-136510114D01*
X113332361Y-136544264D01*
X113353299Y-136555478D01*
X113372560Y-136547695D01*
X113377827Y-136543535D01*
X113400878Y-136515357D01*
X113428892Y-136468862D01*
X113445246Y-136436434D01*
X113474059Y-136344385D01*
X113483395Y-136242476D01*
X113472332Y-136145963D01*
X113464412Y-136118934D01*
X113419581Y-136035276D01*
X113350598Y-135973266D01*
X113256794Y-135932545D01*
X113137498Y-135912755D01*
X113075118Y-135910582D01*
X112984298Y-135916926D01*
X112984298Y-136077157D01*
X112991012Y-136092655D01*
X112996280Y-136134312D01*
X112999389Y-136194876D01*
X112999921Y-136235907D01*
X112999408Y-136309711D01*
X112997006Y-136356293D01*
X112991422Y-136381848D01*
X112981361Y-136392569D01*
X112966763Y-136394657D01*
X112921796Y-136380331D01*
X112877353Y-136344262D01*
X112843242Y-136296815D01*
X112829288Y-136249349D01*
X112841666Y-136184879D01*
X112877452Y-136129070D01*
X112929033Y-136090374D01*
X112984298Y-136077157D01*
X112984298Y-135916926D01*
X112942866Y-135919821D01*
X112837498Y-135948336D01*
X112758178Y-135996729D01*
X112704071Y-136065604D01*
X112674343Y-136155565D01*
X112668618Y-136204300D01*
X112670078Y-136305193D01*
G36*
X112665447Y-135777167D02*
X112678112Y-135841408D01*
X112696864Y-135877980D01*
X112728017Y-135916453D01*
X112797127Y-135861717D01*
X112838979Y-135827969D01*
X112859398Y-135805053D01*
X112862517Y-135782279D01*
X112852472Y-135748956D01*
X112846789Y-135733314D01*
X112838404Y-135669542D01*
X112856378Y-135611140D01*
X112896982Y-135568264D01*
X112909929Y-135561299D01*
X112944224Y-135553713D01*
X113007427Y-135547859D01*
X113095060Y-135544011D01*
X113202640Y-135542443D01*
X113217944Y-135542421D01*
X113484526Y-135542421D01*
X113484526Y-135358605D01*
X112665710Y-135358605D01*
X112665710Y-135450513D01*
X112667094Y-135503507D01*
X112673252Y-135531115D01*
X112687194Y-135541324D01*
X112700344Y-135542421D01*
X112734978Y-135542421D01*
X112700344Y-135586450D01*
X112676716Y-135636937D01*
X112665033Y-135704760D01*
X112665447Y-135777167D01*
X112665447Y-135777167D01*
G37*
X112665447Y-135777167D02*
X112678112Y-135841408D01*
X112696864Y-135877980D01*
X112728017Y-135916453D01*
X112797127Y-135861717D01*
X112838979Y-135827969D01*
X112859398Y-135805053D01*
X112862517Y-135782279D01*
X112852472Y-135748956D01*
X112846789Y-135733314D01*
X112838404Y-135669542D01*
X112856378Y-135611140D01*
X112896982Y-135568264D01*
X112909929Y-135561299D01*
X112944224Y-135553713D01*
X113007427Y-135547859D01*
X113095060Y-135544011D01*
X113202640Y-135542443D01*
X113217944Y-135542421D01*
X113484526Y-135542421D01*
X113484526Y-135358605D01*
X112665710Y-135358605D01*
X112665710Y-135450513D01*
X112667094Y-135503507D01*
X112673252Y-135531115D01*
X112687194Y-135541324D01*
X112700344Y-135542421D01*
X112734978Y-135542421D01*
X112700344Y-135586450D01*
X112676716Y-135636937D01*
X112665033Y-135704760D01*
X112665447Y-135777167D01*
G36*
X112670673Y-134983992D02*
X112687780Y-135054427D01*
X112696844Y-135074787D01*
X112720583Y-135114253D01*
X112747321Y-135144541D01*
X112781699Y-135166952D01*
X112828360Y-135182786D01*
X112891946Y-135193343D01*
X112977099Y-135199924D01*
X113088462Y-135203828D01*
X113162849Y-135205310D01*
X113484526Y-135210765D01*
X113484526Y-135117580D01*
X113482156Y-135061047D01*
X113474055Y-135031922D01*
X113460451Y-135024394D01*
X113445741Y-135020420D01*
X113448554Y-135002652D01*
X113460348Y-134978440D01*
X113478427Y-134917828D01*
X113483299Y-134839929D01*
X113475330Y-134757995D01*
X113454889Y-134685281D01*
X113452051Y-134678759D01*
X113405365Y-134612302D01*
X113340464Y-134568491D01*
X113264600Y-134548332D01*
X113237344Y-134549872D01*
X113237344Y-134714345D01*
X113274024Y-134728837D01*
X113300309Y-134771805D01*
X113314417Y-134841129D01*
X113316290Y-134878177D01*
X113311494Y-134939919D01*
X113292858Y-134980960D01*
X113284000Y-134990973D01*
X113235806Y-135018100D01*
X113192092Y-135024394D01*
X113133605Y-135024394D01*
X113133605Y-134942930D01*
X113138432Y-134848234D01*
X113153613Y-134781813D01*
X113180200Y-134739846D01*
X113192052Y-134730449D01*
X113237344Y-134714345D01*
X113237344Y-134549872D01*
X113185026Y-134552829D01*
X113108995Y-134582985D01*
X113057612Y-134624131D01*
X113035397Y-134649052D01*
X113020798Y-134673448D01*
X113011897Y-134705191D01*
X113006775Y-134752152D01*
X113003515Y-134822204D01*
X113002577Y-134849990D01*
X112996879Y-135024394D01*
X112944091Y-135024138D01*
X112888603Y-135017384D01*
X112855052Y-134992964D01*
X112833618Y-134943630D01*
X112833236Y-134942306D01*
X112824808Y-134872360D01*
X112835816Y-134803914D01*
X112862585Y-134753047D01*
X112875803Y-134732637D01*
X112873974Y-134710654D01*
X112854824Y-134676826D01*
X112841308Y-134656961D01*
X112812432Y-134618106D01*
X112790786Y-134594038D01*
X112784589Y-134590176D01*
X112752519Y-134606079D01*
X112714219Y-134653065D01*
X112701297Y-134673473D01*
X112679041Y-134732143D01*
X112666432Y-134811212D01*
X112663600Y-134899041D01*
X112670673Y-134983992D01*
X112670673Y-134983992D01*
G37*
X112670673Y-134983992D02*
X112687780Y-135054427D01*
X112696844Y-135074787D01*
X112720583Y-135114253D01*
X112747321Y-135144541D01*
X112781699Y-135166952D01*
X112828360Y-135182786D01*
X112891946Y-135193343D01*
X112977099Y-135199924D01*
X113088462Y-135203828D01*
X113162849Y-135205310D01*
X113484526Y-135210765D01*
X113484526Y-135117580D01*
X113482156Y-135061047D01*
X113474055Y-135031922D01*
X113460451Y-135024394D01*
X113445741Y-135020420D01*
X113448554Y-135002652D01*
X113460348Y-134978440D01*
X113478427Y-134917828D01*
X113483299Y-134839929D01*
X113475330Y-134757995D01*
X113454889Y-134685281D01*
X113452051Y-134678759D01*
X113405365Y-134612302D01*
X113340464Y-134568491D01*
X113264600Y-134548332D01*
X113237344Y-134549872D01*
X113237344Y-134714345D01*
X113274024Y-134728837D01*
X113300309Y-134771805D01*
X113314417Y-134841129D01*
X113316290Y-134878177D01*
X113311494Y-134939919D01*
X113292858Y-134980960D01*
X113284000Y-134990973D01*
X113235806Y-135018100D01*
X113192092Y-135024394D01*
X113133605Y-135024394D01*
X113133605Y-134942930D01*
X113138432Y-134848234D01*
X113153613Y-134781813D01*
X113180200Y-134739846D01*
X113192052Y-134730449D01*
X113237344Y-134714345D01*
X113237344Y-134549872D01*
X113185026Y-134552829D01*
X113108995Y-134582985D01*
X113057612Y-134624131D01*
X113035397Y-134649052D01*
X113020798Y-134673448D01*
X113011897Y-134705191D01*
X113006775Y-134752152D01*
X113003515Y-134822204D01*
X113002577Y-134849990D01*
X112996879Y-135024394D01*
X112944091Y-135024138D01*
X112888603Y-135017384D01*
X112855052Y-134992964D01*
X112833618Y-134943630D01*
X112833236Y-134942306D01*
X112824808Y-134872360D01*
X112835816Y-134803914D01*
X112862585Y-134753047D01*
X112875803Y-134732637D01*
X112873974Y-134710654D01*
X112854824Y-134676826D01*
X112841308Y-134656961D01*
X112812432Y-134618106D01*
X112790786Y-134594038D01*
X112784589Y-134590176D01*
X112752519Y-134606079D01*
X112714219Y-134653065D01*
X112701297Y-134673473D01*
X112679041Y-134732143D01*
X112666432Y-134811212D01*
X112663600Y-134899041D01*
X112670673Y-134983992D01*
G36*
X112669104Y-133978130D02*
X112674066Y-134044220D01*
X112933079Y-134130626D01*
X113192092Y-134217031D01*
X113100184Y-134244124D01*
X113043384Y-134260428D01*
X112966625Y-134281875D01*
X112882251Y-134305035D01*
X112836993Y-134317280D01*
X112665710Y-134363344D01*
X112665710Y-134553387D01*
X112845349Y-134496582D01*
X112933704Y-134468607D01*
X113040281Y-134434813D01*
X113151454Y-134399520D01*
X113250579Y-134368013D01*
X113476171Y-134296250D01*
X113486253Y-134141286D01*
X113347528Y-134099270D01*
X113261351Y-134073359D01*
X113166347Y-134045083D01*
X113082441Y-134020369D01*
X113079102Y-134019394D01*
X113022248Y-134000935D01*
X112983456Y-133984649D01*
X112968787Y-133973242D01*
X112970483Y-133970898D01*
X112993225Y-133962671D01*
X113041940Y-133947038D01*
X113110502Y-133925904D01*
X113192785Y-133901170D01*
X113238046Y-133887787D01*
X113484526Y-133815311D01*
X113484526Y-133661495D01*
X113096006Y-133538531D01*
X112987022Y-133503988D01*
X112888048Y-133472521D01*
X112803736Y-133445616D01*
X112738734Y-133424759D01*
X112697692Y-133411438D01*
X112685701Y-133407388D01*
X112673423Y-133410594D01*
X112668046Y-133435765D01*
X112668584Y-133488146D01*
X112668990Y-133496345D01*
X112674066Y-133593482D01*
X112908013Y-133657100D01*
X112993333Y-133680484D01*
X113068335Y-133701381D01*
X113126507Y-133717951D01*
X113161337Y-133728354D01*
X113167016Y-133730276D01*
X113160486Y-133738241D01*
X113126654Y-133754304D01*
X113070127Y-133776621D01*
X112995510Y-133803345D01*
X112928107Y-133825937D01*
X112664143Y-133912041D01*
X112669104Y-133978130D01*
X112669104Y-133978130D01*
G37*
X112669104Y-133978130D02*
X112674066Y-134044220D01*
X112933079Y-134130626D01*
X113192092Y-134217031D01*
X113100184Y-134244124D01*
X113043384Y-134260428D01*
X112966625Y-134281875D01*
X112882251Y-134305035D01*
X112836993Y-134317280D01*
X112665710Y-134363344D01*
X112665710Y-134553387D01*
X112845349Y-134496582D01*
X112933704Y-134468607D01*
X113040281Y-134434813D01*
X113151454Y-134399520D01*
X113250579Y-134368013D01*
X113476171Y-134296250D01*
X113486253Y-134141286D01*
X113347528Y-134099270D01*
X113261351Y-134073359D01*
X113166347Y-134045083D01*
X113082441Y-134020369D01*
X113079102Y-134019394D01*
X113022248Y-134000935D01*
X112983456Y-133984649D01*
X112968787Y-133973242D01*
X112970483Y-133970898D01*
X112993225Y-133962671D01*
X113041940Y-133947038D01*
X113110502Y-133925904D01*
X113192785Y-133901170D01*
X113238046Y-133887787D01*
X113484526Y-133815311D01*
X113484526Y-133661495D01*
X113096006Y-133538531D01*
X112987022Y-133503988D01*
X112888048Y-133472521D01*
X112803736Y-133445616D01*
X112738734Y-133424759D01*
X112697692Y-133411438D01*
X112685701Y-133407388D01*
X112673423Y-133410594D01*
X112668046Y-133435765D01*
X112668584Y-133488146D01*
X112668990Y-133496345D01*
X112674066Y-133593482D01*
X112908013Y-133657100D01*
X112993333Y-133680484D01*
X113068335Y-133701381D01*
X113126507Y-133717951D01*
X113161337Y-133728354D01*
X113167016Y-133730276D01*
X113160486Y-133738241D01*
X113126654Y-133754304D01*
X113070127Y-133776621D01*
X112995510Y-133803345D01*
X112928107Y-133825937D01*
X112664143Y-133912041D01*
X112669104Y-133978130D01*
G36*
X113484526Y-133336631D02*
X113484526Y-133244723D01*
X113482962Y-133191377D01*
X113476485Y-133163593D01*
X113462418Y-133153590D01*
X113452906Y-133152815D01*
X113433832Y-133151128D01*
X113430174Y-133140490D01*
X113441932Y-133112535D01*
X113452906Y-133090795D01*
X113478911Y-133007332D01*
X113480416Y-132916604D01*
X113461021Y-132842842D01*
X113414165Y-132774154D01*
X113345004Y-132721794D01*
X113263427Y-132693122D01*
X113258866Y-132692392D01*
X113209101Y-132688132D01*
X113137659Y-132686014D01*
X113083626Y-132686184D01*
X113083626Y-132868720D01*
X113155441Y-132872949D01*
X113214634Y-132882568D01*
X113248060Y-132895590D01*
X113293740Y-132944856D01*
X113310115Y-133003350D01*
X113296873Y-133063671D01*
X113257373Y-133115217D01*
X113230807Y-133134738D01*
X113199106Y-133146152D01*
X113152832Y-133151498D01*
X113083328Y-133152815D01*
X113014499Y-133150458D01*
X112954026Y-133144233D01*
X112913556Y-133135408D01*
X112909929Y-133133937D01*
X112866802Y-133098347D01*
X112843124Y-133046400D01*
X112839301Y-132988278D01*
X112855738Y-132934160D01*
X112892840Y-132894226D01*
X112900222Y-132890083D01*
X112945239Y-132877116D01*
X113009967Y-132870052D01*
X113083626Y-132868720D01*
X113083626Y-132686184D01*
X113056230Y-132686271D01*
X113012405Y-132687472D01*
X112903988Y-132695645D01*
X112822588Y-132712630D01*
X112762412Y-132740887D01*
X112717666Y-132782872D01*
X112691400Y-132823632D01*
X112672935Y-132880581D01*
X112666602Y-132951411D01*
X112671760Y-133023941D01*
X112687769Y-133085986D01*
X112706920Y-133118768D01*
X112737732Y-133152815D01*
X112348210Y-133152815D01*
X112348210Y-133336631D01*
X113484526Y-133336631D01*
X113484526Y-133336631D01*
G37*
X113484526Y-133336631D02*
X113484526Y-133244723D01*
X113482962Y-133191377D01*
X113476485Y-133163593D01*
X113462418Y-133153590D01*
X113452906Y-133152815D01*
X113433832Y-133151128D01*
X113430174Y-133140490D01*
X113441932Y-133112535D01*
X113452906Y-133090795D01*
X113478911Y-133007332D01*
X113480416Y-132916604D01*
X113461021Y-132842842D01*
X113414165Y-132774154D01*
X113345004Y-132721794D01*
X113263427Y-132693122D01*
X113258866Y-132692392D01*
X113209101Y-132688132D01*
X113137659Y-132686014D01*
X113083626Y-132686184D01*
X113083626Y-132868720D01*
X113155441Y-132872949D01*
X113214634Y-132882568D01*
X113248060Y-132895590D01*
X113293740Y-132944856D01*
X113310115Y-133003350D01*
X113296873Y-133063671D01*
X113257373Y-133115217D01*
X113230807Y-133134738D01*
X113199106Y-133146152D01*
X113152832Y-133151498D01*
X113083328Y-133152815D01*
X113014499Y-133150458D01*
X112954026Y-133144233D01*
X112913556Y-133135408D01*
X112909929Y-133133937D01*
X112866802Y-133098347D01*
X112843124Y-133046400D01*
X112839301Y-132988278D01*
X112855738Y-132934160D01*
X112892840Y-132894226D01*
X112900222Y-132890083D01*
X112945239Y-132877116D01*
X113009967Y-132870052D01*
X113083626Y-132868720D01*
X113083626Y-132686184D01*
X113056230Y-132686271D01*
X113012405Y-132687472D01*
X112903988Y-132695645D01*
X112822588Y-132712630D01*
X112762412Y-132740887D01*
X112717666Y-132782872D01*
X112691400Y-132823632D01*
X112672935Y-132880581D01*
X112666602Y-132951411D01*
X112671760Y-133023941D01*
X112687769Y-133085986D01*
X112706920Y-133118768D01*
X112737732Y-133152815D01*
X112348210Y-133152815D01*
X112348210Y-133336631D01*
X113484526Y-133336631D01*
G36*
X112667486Y-132283881D02*
X112674982Y-132308888D01*
X112691451Y-132316950D01*
X112698886Y-132317289D01*
X112719594Y-132318736D01*
X112722845Y-132328698D01*
X112708648Y-132355612D01*
X112698948Y-132371598D01*
X112678175Y-132422033D01*
X112667904Y-132482272D01*
X112667114Y-132545434D01*
X112674786Y-132604637D01*
X112689898Y-132653002D01*
X112711432Y-132683646D01*
X112738366Y-132689689D01*
X112745660Y-132686639D01*
X112775937Y-132664406D01*
X112813175Y-132629930D01*
X112819195Y-132623694D01*
X112846875Y-132590833D01*
X112855818Y-132562480D01*
X112849576Y-132522827D01*
X112845429Y-132506942D01*
X112835467Y-132457509D01*
X112839947Y-132422752D01*
X112855746Y-132393400D01*
X112876949Y-132366513D01*
X112903614Y-132346710D01*
X112940827Y-132332948D01*
X112993673Y-132324184D01*
X113067237Y-132319374D01*
X113166605Y-132317474D01*
X113226601Y-132317289D01*
X113484526Y-132317289D01*
X113484526Y-132150184D01*
X112665710Y-132150184D01*
X112665710Y-132233736D01*
X112667486Y-132283881D01*
X112667486Y-132283881D01*
G37*
X112667486Y-132283881D02*
X112674982Y-132308888D01*
X112691451Y-132316950D01*
X112698886Y-132317289D01*
X112719594Y-132318736D01*
X112722845Y-132328698D01*
X112708648Y-132355612D01*
X112698948Y-132371598D01*
X112678175Y-132422033D01*
X112667904Y-132482272D01*
X112667114Y-132545434D01*
X112674786Y-132604637D01*
X112689898Y-132653002D01*
X112711432Y-132683646D01*
X112738366Y-132689689D01*
X112745660Y-132686639D01*
X112775937Y-132664406D01*
X112813175Y-132629930D01*
X112819195Y-132623694D01*
X112846875Y-132590833D01*
X112855818Y-132562480D01*
X112849576Y-132522827D01*
X112845429Y-132506942D01*
X112835467Y-132457509D01*
X112839947Y-132422752D01*
X112855746Y-132393400D01*
X112876949Y-132366513D01*
X112903614Y-132346710D01*
X112940827Y-132332948D01*
X112993673Y-132324184D01*
X113067237Y-132319374D01*
X113166605Y-132317474D01*
X113226601Y-132317289D01*
X113484526Y-132317289D01*
X113484526Y-132150184D01*
X112665710Y-132150184D01*
X112665710Y-132233736D01*
X112667486Y-132283881D01*
G36*
X112672184Y-131764457D02*
X112693160Y-131843070D01*
X112731180Y-131902916D01*
X112780978Y-131945147D01*
X112802230Y-131958275D01*
X112824492Y-131967968D01*
X112852970Y-131974744D01*
X112892871Y-131979123D01*
X112949401Y-131981624D01*
X113027767Y-131982768D01*
X113133176Y-131983072D01*
X113161142Y-131983078D01*
X113484526Y-131983078D01*
X113484526Y-131902868D01*
X113480943Y-131851706D01*
X113471866Y-131813877D01*
X113466268Y-131804399D01*
X113456606Y-131778488D01*
X113466268Y-131752024D01*
X113478330Y-131708452D01*
X113483185Y-131645160D01*
X113481078Y-131575010D01*
X113472256Y-131510860D01*
X113460937Y-131473407D01*
X113414412Y-131400933D01*
X113349846Y-131355640D01*
X113264000Y-131335278D01*
X113261796Y-131335088D01*
X113223713Y-131336875D01*
X113223713Y-131498473D01*
X113267030Y-131512601D01*
X113291408Y-131535612D01*
X113309845Y-131581804D01*
X113317205Y-131642775D01*
X113313583Y-131704949D01*
X113299074Y-131754751D01*
X113289765Y-131768703D01*
X113246753Y-131793085D01*
X113197857Y-131799263D01*
X113133605Y-131799263D01*
X113133605Y-131706818D01*
X113140366Y-131618995D01*
X113159520Y-131552418D01*
X113189376Y-131511002D01*
X113223713Y-131498473D01*
X113223713Y-131336875D01*
X113168004Y-131339490D01*
X113093847Y-131370424D01*
X113037767Y-131428581D01*
X113032665Y-131436620D01*
X113016055Y-131471163D01*
X113005996Y-131513918D01*
X113001107Y-131573686D01*
X112999983Y-131644690D01*
X112999921Y-131799263D01*
X112935125Y-131799263D01*
X112884850Y-131792706D01*
X112851169Y-131775975D01*
X112849376Y-131774016D01*
X112834642Y-131736783D01*
X112828931Y-131680580D01*
X112831737Y-131618467D01*
X112842556Y-131563510D01*
X112858782Y-131530899D01*
X112871780Y-131513228D01*
X112874262Y-131494569D01*
X112863613Y-131468819D01*
X112837218Y-131429873D01*
X112792465Y-131371630D01*
X112788273Y-131366284D01*
X112772760Y-131369023D01*
X112746960Y-131391876D01*
X112718289Y-131426609D01*
X112694166Y-131464990D01*
X112688470Y-131477048D01*
X112677103Y-131521034D01*
X112668995Y-131585487D01*
X112665743Y-131657497D01*
X112665736Y-131660864D01*
X112672184Y-131764457D01*
X112672184Y-131764457D01*
G37*
X112672184Y-131764457D02*
X112693160Y-131843070D01*
X112731180Y-131902916D01*
X112780978Y-131945147D01*
X112802230Y-131958275D01*
X112824492Y-131967968D01*
X112852970Y-131974744D01*
X112892871Y-131979123D01*
X112949401Y-131981624D01*
X113027767Y-131982768D01*
X113133176Y-131983072D01*
X113161142Y-131983078D01*
X113484526Y-131983078D01*
X113484526Y-131902868D01*
X113480943Y-131851706D01*
X113471866Y-131813877D01*
X113466268Y-131804399D01*
X113456606Y-131778488D01*
X113466268Y-131752024D01*
X113478330Y-131708452D01*
X113483185Y-131645160D01*
X113481078Y-131575010D01*
X113472256Y-131510860D01*
X113460937Y-131473407D01*
X113414412Y-131400933D01*
X113349846Y-131355640D01*
X113264000Y-131335278D01*
X113261796Y-131335088D01*
X113223713Y-131336875D01*
X113223713Y-131498473D01*
X113267030Y-131512601D01*
X113291408Y-131535612D01*
X113309845Y-131581804D01*
X113317205Y-131642775D01*
X113313583Y-131704949D01*
X113299074Y-131754751D01*
X113289765Y-131768703D01*
X113246753Y-131793085D01*
X113197857Y-131799263D01*
X113133605Y-131799263D01*
X113133605Y-131706818D01*
X113140366Y-131618995D01*
X113159520Y-131552418D01*
X113189376Y-131511002D01*
X113223713Y-131498473D01*
X113223713Y-131336875D01*
X113168004Y-131339490D01*
X113093847Y-131370424D01*
X113037767Y-131428581D01*
X113032665Y-131436620D01*
X113016055Y-131471163D01*
X113005996Y-131513918D01*
X113001107Y-131573686D01*
X112999983Y-131644690D01*
X112999921Y-131799263D01*
X112935125Y-131799263D01*
X112884850Y-131792706D01*
X112851169Y-131775975D01*
X112849376Y-131774016D01*
X112834642Y-131736783D01*
X112828931Y-131680580D01*
X112831737Y-131618467D01*
X112842556Y-131563510D01*
X112858782Y-131530899D01*
X112871780Y-131513228D01*
X112874262Y-131494569D01*
X112863613Y-131468819D01*
X112837218Y-131429873D01*
X112792465Y-131371630D01*
X112788273Y-131366284D01*
X112772760Y-131369023D01*
X112746960Y-131391876D01*
X112718289Y-131426609D01*
X112694166Y-131464990D01*
X112688470Y-131477048D01*
X112677103Y-131521034D01*
X112668995Y-131585487D01*
X112665743Y-131657497D01*
X112665736Y-131660864D01*
X112672184Y-131764457D01*
G36*
X111426468Y-131067360D02*
X111443874Y-131102592D01*
X111474206Y-131146040D01*
X111507283Y-131177706D01*
X111548817Y-131199394D01*
X111604522Y-131212903D01*
X111680111Y-131220038D01*
X111781296Y-131222600D01*
X111824797Y-131222750D01*
X111920135Y-131222312D01*
X111988271Y-131220496D01*
X112035418Y-131216545D01*
X112067790Y-131209702D01*
X112091600Y-131199211D01*
X112107843Y-131188296D01*
X112176952Y-131118619D01*
X112218521Y-131036566D01*
X112231023Y-130948050D01*
X112212934Y-130858981D01*
X112200142Y-130830763D01*
X112164931Y-130763210D01*
X112716700Y-130763210D01*
X112691205Y-130812512D01*
X112671480Y-130877473D01*
X112666427Y-130957320D01*
X112675756Y-131037052D01*
X112696714Y-131097265D01*
X112736627Y-131147208D01*
X112793741Y-131189881D01*
X112799605Y-131193090D01*
X112827227Y-131206622D01*
X112855068Y-131216505D01*
X112888794Y-131223309D01*
X112934071Y-131227601D01*
X112996562Y-131229951D01*
X113081935Y-131230928D01*
X113178010Y-131231105D01*
X113484526Y-131231105D01*
X113484526Y-131047289D01*
X112919339Y-131047289D01*
X112876077Y-130995875D01*
X112841472Y-130942466D01*
X112835180Y-130891888D01*
X112851372Y-130841030D01*
X112867227Y-130813925D01*
X112889810Y-130793751D01*
X112923940Y-130779403D01*
X112974434Y-130769776D01*
X113046111Y-130763763D01*
X113143788Y-130760260D01*
X113208802Y-130759026D01*
X113476171Y-130754855D01*
X113481222Y-130667125D01*
X113486273Y-130579394D01*
X111827101Y-130579394D01*
X111827101Y-130763210D01*
X111919600Y-130767896D01*
X111983809Y-130783688D01*
X112023759Y-130813183D01*
X112043480Y-130858980D01*
X112047421Y-130905250D01*
X112042892Y-130957628D01*
X112025069Y-130992390D01*
X112001519Y-131014128D01*
X111976189Y-131031240D01*
X111947969Y-131041427D01*
X111908431Y-131045960D01*
X111849142Y-131046109D01*
X111799498Y-131044584D01*
X111724710Y-131041081D01*
X111675611Y-131035867D01*
X111644467Y-131027087D01*
X111623545Y-131012886D01*
X111611452Y-130999484D01*
X111585081Y-130943487D01*
X111580822Y-130877211D01*
X111589906Y-130839156D01*
X111622196Y-130801477D01*
X111685006Y-130776519D01*
X111777894Y-130764422D01*
X111827101Y-130763210D01*
X111827101Y-130579394D01*
X111412421Y-130579394D01*
X111412421Y-130671302D01*
X111414603Y-130726483D01*
X111422351Y-130754952D01*
X111437468Y-130763206D01*
X111437916Y-130763210D01*
X111452720Y-130767040D01*
X111451039Y-130783933D01*
X111434772Y-130817519D01*
X111409887Y-130895778D01*
X111407271Y-130983827D01*
X111426468Y-131067360D01*
X111426468Y-131067360D01*
G37*
X111426468Y-131067360D02*
X111443874Y-131102592D01*
X111474206Y-131146040D01*
X111507283Y-131177706D01*
X111548817Y-131199394D01*
X111604522Y-131212903D01*
X111680111Y-131220038D01*
X111781296Y-131222600D01*
X111824797Y-131222750D01*
X111920135Y-131222312D01*
X111988271Y-131220496D01*
X112035418Y-131216545D01*
X112067790Y-131209702D01*
X112091600Y-131199211D01*
X112107843Y-131188296D01*
X112176952Y-131118619D01*
X112218521Y-131036566D01*
X112231023Y-130948050D01*
X112212934Y-130858981D01*
X112200142Y-130830763D01*
X112164931Y-130763210D01*
X112716700Y-130763210D01*
X112691205Y-130812512D01*
X112671480Y-130877473D01*
X112666427Y-130957320D01*
X112675756Y-131037052D01*
X112696714Y-131097265D01*
X112736627Y-131147208D01*
X112793741Y-131189881D01*
X112799605Y-131193090D01*
X112827227Y-131206622D01*
X112855068Y-131216505D01*
X112888794Y-131223309D01*
X112934071Y-131227601D01*
X112996562Y-131229951D01*
X113081935Y-131230928D01*
X113178010Y-131231105D01*
X113484526Y-131231105D01*
X113484526Y-131047289D01*
X112919339Y-131047289D01*
X112876077Y-130995875D01*
X112841472Y-130942466D01*
X112835180Y-130891888D01*
X112851372Y-130841030D01*
X112867227Y-130813925D01*
X112889810Y-130793751D01*
X112923940Y-130779403D01*
X112974434Y-130769776D01*
X113046111Y-130763763D01*
X113143788Y-130760260D01*
X113208802Y-130759026D01*
X113476171Y-130754855D01*
X113481222Y-130667125D01*
X113486273Y-130579394D01*
X111827101Y-130579394D01*
X111827101Y-130763210D01*
X111919600Y-130767896D01*
X111983809Y-130783688D01*
X112023759Y-130813183D01*
X112043480Y-130858980D01*
X112047421Y-130905250D01*
X112042892Y-130957628D01*
X112025069Y-130992390D01*
X112001519Y-131014128D01*
X111976189Y-131031240D01*
X111947969Y-131041427D01*
X111908431Y-131045960D01*
X111849142Y-131046109D01*
X111799498Y-131044584D01*
X111724710Y-131041081D01*
X111675611Y-131035867D01*
X111644467Y-131027087D01*
X111623545Y-131012886D01*
X111611452Y-130999484D01*
X111585081Y-130943487D01*
X111580822Y-130877211D01*
X111589906Y-130839156D01*
X111622196Y-130801477D01*
X111685006Y-130776519D01*
X111777894Y-130764422D01*
X111827101Y-130763210D01*
X111827101Y-130579394D01*
X111412421Y-130579394D01*
X111412421Y-130671302D01*
X111414603Y-130726483D01*
X111422351Y-130754952D01*
X111437468Y-130763206D01*
X111437916Y-130763210D01*
X111452720Y-130767040D01*
X111451039Y-130783933D01*
X111434772Y-130817519D01*
X111409887Y-130895778D01*
X111407271Y-130983827D01*
X111426468Y-131067360D01*
G04 #@! TO.C,J2*
D13*
X120481666Y-102297666D02*
X120815000Y-102297666D01*
X120815000Y-101597666D01*
X120248333Y-101931000D02*
X120015000Y-101931000D01*
X119915000Y-102297666D02*
X120248333Y-102297666D01*
X120248333Y-101597666D01*
X119915000Y-101597666D01*
X119615000Y-102297666D02*
X119615000Y-101597666D01*
X119448333Y-101597666D01*
X119348333Y-101631000D01*
X119281666Y-101697666D01*
X119248333Y-101764333D01*
X119215000Y-101897666D01*
X119215000Y-101997666D01*
X119248333Y-102131000D01*
X119281666Y-102197666D01*
X119348333Y-102264333D01*
X119448333Y-102297666D01*
X119615000Y-102297666D01*
X119081666Y-102364333D02*
X118548333Y-102364333D01*
X118381666Y-102297666D02*
X118381666Y-101597666D01*
X118215000Y-101597666D01*
X118115000Y-101631000D01*
X118048333Y-101697666D01*
X118015000Y-101764333D01*
X117981666Y-101897666D01*
X117981666Y-101997666D01*
X118015000Y-102131000D01*
X118048333Y-102197666D01*
X118115000Y-102264333D01*
X118215000Y-102297666D01*
X118381666Y-102297666D01*
X117548333Y-101597666D02*
X117415000Y-101597666D01*
X117348333Y-101631000D01*
X117281666Y-101697666D01*
X117248333Y-101831000D01*
X117248333Y-102064333D01*
X117281666Y-102197666D01*
X117348333Y-102264333D01*
X117415000Y-102297666D01*
X117548333Y-102297666D01*
X117615000Y-102264333D01*
X117681666Y-102197666D01*
X117715000Y-102064333D01*
X117715000Y-101831000D01*
X117681666Y-101697666D01*
X117615000Y-101631000D01*
X117548333Y-101597666D01*
X116948333Y-101597666D02*
X116948333Y-102164333D01*
X116915000Y-102231000D01*
X116881666Y-102264333D01*
X116815000Y-102297666D01*
X116681666Y-102297666D01*
X116615000Y-102264333D01*
X116581666Y-102231000D01*
X116548333Y-102164333D01*
X116548333Y-101597666D01*
X116315000Y-101597666D02*
X115915000Y-101597666D01*
X116115000Y-102297666D02*
X116115000Y-101597666D01*
G04 #@! TD*
M02*
