G04 #@! TF.GenerationSoftware,KiCad,Pcbnew,5.0.0-rc2-unknown-e4a6f2e~65~ubuntu18.04.1*
G04 #@! TF.CreationDate,2018-06-05T21:23:57+01:00*
G04 #@! TF.ProjectId,IV-11-breakout,49562D31312D627265616B6F75742E6B,rev?*
G04 #@! TF.SameCoordinates,Original*
G04 #@! TF.FileFunction,Soldermask,Top*
G04 #@! TF.FilePolarity,Negative*
%FSLAX46Y46*%
G04 Gerber Fmt 4.6, Leading zero omitted, Abs format (unit mm)*
G04 Created by KiCad (PCBNEW 5.0.0-rc2-unknown-e4a6f2e~65~ubuntu18.04.1) date Tue Jun  5 21:23:57 2018*
%MOMM*%
%LPD*%
G01*
G04 APERTURE LIST*
%ADD10O,2.000000X2.000000*%
%ADD11C,2.000000*%
%ADD12C,1.924000*%
%ADD13C,1.924000*%
%ADD14R,1.900000X1.400000*%
%ADD15R,2.100000X2.100000*%
%ADD16O,2.100000X2.100000*%
%ADD17C,3.400000*%
G04 APERTURE END LIST*
D10*
G04 #@! TO.C,R1*
X112522000Y-117602000D03*
D11*
X112522000Y-104902000D03*
G04 #@! TD*
D12*
G04 #@! TO.C,VFD1*
X110947085Y-152295555D03*
D13*
X110820781Y-152766927D02*
X111073389Y-151824183D01*
D12*
X108257359Y-150742640D03*
D13*
X107912291Y-151087708D02*
X108602427Y-150397572D01*
D12*
X106704445Y-148052914D03*
D13*
X106233073Y-148179218D02*
X107175817Y-147926610D01*
D12*
X106704445Y-144947085D03*
D13*
X106233073Y-144820781D02*
X107175817Y-145073389D01*
D12*
X108257360Y-142257359D03*
D13*
X107912292Y-141912291D02*
X108602428Y-142602427D01*
D12*
X110947086Y-140704445D03*
D13*
X110820782Y-140233073D02*
X111073390Y-141175817D01*
D12*
X114052915Y-140704445D03*
D13*
X114179219Y-140233073D02*
X113926611Y-141175817D01*
D12*
X116742641Y-142257360D03*
D13*
X117087709Y-141912292D02*
X116397573Y-142602428D01*
D12*
X118295555Y-144947086D03*
D13*
X118766927Y-144820782D02*
X117824183Y-145073390D01*
D12*
X118295555Y-148052915D03*
D13*
X118766927Y-148179219D02*
X117824183Y-147926611D01*
D12*
X116742640Y-150742641D03*
D13*
X117087708Y-151087709D02*
X116397572Y-150397573D01*
D12*
X114052914Y-152295555D03*
D13*
X114179218Y-152766927D02*
X113926610Y-151824183D01*
G04 #@! TD*
D14*
G04 #@! TO.C,D1*
X110050000Y-144900000D03*
X110050000Y-148100000D03*
X114950000Y-144900000D03*
X114950000Y-148100000D03*
G04 #@! TD*
D15*
G04 #@! TO.C,J1*
X102540000Y-130175000D03*
D16*
X102540000Y-127635000D03*
X102540000Y-125095000D03*
X102540000Y-122555000D03*
X102540000Y-120015000D03*
X102540000Y-117475000D03*
X102540000Y-114935000D03*
X102540000Y-112395000D03*
X102540000Y-109855000D03*
X102540000Y-107315000D03*
X102540000Y-104775000D03*
X102540000Y-102235000D03*
G04 #@! TD*
D15*
G04 #@! TO.C,J2*
X122860000Y-101981000D03*
G04 #@! TD*
D17*
G04 #@! TO.C,REF\002A\002A*
X103500000Y-159000000D03*
G04 #@! TD*
G04 #@! TO.C,REF\002A\002A*
X121500000Y-133985000D03*
G04 #@! TD*
M02*
