G04 #@! TF.GenerationSoftware,KiCad,Pcbnew,5.0.0-rc2-unknown-e4a6f2e~65~ubuntu18.04.1*
G04 #@! TF.CreationDate,2018-06-05T21:23:57+01:00*
G04 #@! TF.ProjectId,IV-11-breakout,49562D31312D627265616B6F75742E6B,rev?*
G04 #@! TF.SameCoordinates,Original*
G04 #@! TF.FileFunction,Copper,L2,Bot,Signal*
G04 #@! TF.FilePolarity,Positive*
%FSLAX46Y46*%
G04 Gerber Fmt 4.6, Leading zero omitted, Abs format (unit mm)*
G04 Created by KiCad (PCBNEW 5.0.0-rc2-unknown-e4a6f2e~65~ubuntu18.04.1) date Tue Jun  5 21:23:57 2018*
%MOMM*%
%LPD*%
G01*
G04 APERTURE LIST*
G04 #@! TA.AperFunction,ComponentPad*
%ADD10O,1.600000X1.600000*%
G04 #@! TD*
G04 #@! TA.AperFunction,ComponentPad*
%ADD11C,1.600000*%
G04 #@! TD*
G04 #@! TA.AperFunction,ComponentPad*
%ADD12C,1.524000*%
G04 #@! TD*
G04 #@! TA.AperFunction,Conductor*
%ADD13C,1.524000*%
G04 #@! TD*
G04 #@! TA.AperFunction,ComponentPad*
%ADD14R,1.700000X1.700000*%
G04 #@! TD*
G04 #@! TA.AperFunction,ComponentPad*
%ADD15O,1.700000X1.700000*%
G04 #@! TD*
G04 #@! TA.AperFunction,ViaPad*
%ADD16C,0.800000*%
G04 #@! TD*
G04 #@! TA.AperFunction,Conductor*
%ADD17C,0.250000*%
G04 #@! TD*
G04 #@! TA.AperFunction,Conductor*
%ADD18C,0.254000*%
G04 #@! TD*
G04 APERTURE END LIST*
D10*
G04 #@! TO.P,R1,2*
G04 #@! TO.N,Net-(R1-Pad2)*
X112522000Y-117602000D03*
D11*
G04 #@! TO.P,R1,1*
G04 #@! TO.N,VCC*
X112522000Y-104902000D03*
G04 #@! TD*
D12*
G04 #@! TO.P,VFD1,12*
G04 #@! TO.N,N/C*
X110947085Y-152295555D03*
D13*
G04 #@! TD*
G04 #@! TO.N,N/C*
G04 #@! TO.C,VFD1*
X110820781Y-152766927D02*
X111073389Y-151824183D01*
D12*
G04 #@! TO.P,VFD1,11*
G04 #@! TO.N,Net-(R1-Pad2)*
X108257359Y-150742640D03*
D13*
G04 #@! TD*
G04 #@! TO.N,Net-(R1-Pad2)*
G04 #@! TO.C,VFD1*
X107912291Y-151087708D02*
X108602427Y-150397572D01*
D12*
G04 #@! TO.P,VFD1,10*
G04 #@! TO.N,/D*
X106704445Y-148052914D03*
D13*
G04 #@! TD*
G04 #@! TO.N,/D*
G04 #@! TO.C,VFD1*
X106233073Y-148179218D02*
X107175817Y-147926610D01*
D12*
G04 #@! TO.P,VFD1,9*
G04 #@! TO.N,/E*
X106704445Y-144947085D03*
D13*
G04 #@! TD*
G04 #@! TO.N,/E*
G04 #@! TO.C,VFD1*
X106233073Y-144820781D02*
X107175817Y-145073389D01*
D12*
G04 #@! TO.P,VFD1,8*
G04 #@! TO.N,/F*
X108257360Y-142257359D03*
D13*
G04 #@! TD*
G04 #@! TO.N,/F*
G04 #@! TO.C,VFD1*
X107912292Y-141912291D02*
X108602428Y-142602427D01*
D12*
G04 #@! TO.P,VFD1,7*
G04 #@! TO.N,/G*
X110947086Y-140704445D03*
D13*
G04 #@! TD*
G04 #@! TO.N,/G*
G04 #@! TO.C,VFD1*
X110820782Y-140233073D02*
X111073390Y-141175817D01*
D12*
G04 #@! TO.P,VFD1,6*
G04 #@! TO.N,/A*
X114052915Y-140704445D03*
D13*
G04 #@! TD*
G04 #@! TO.N,/A*
G04 #@! TO.C,VFD1*
X114179219Y-140233073D02*
X113926611Y-141175817D01*
D12*
G04 #@! TO.P,VFD1,5*
G04 #@! TO.N,/B*
X116742641Y-142257360D03*
D13*
G04 #@! TD*
G04 #@! TO.N,/B*
G04 #@! TO.C,VFD1*
X117087709Y-141912292D02*
X116397573Y-142602428D01*
D12*
G04 #@! TO.P,VFD1,4*
G04 #@! TO.N,/DP*
X118295555Y-144947086D03*
D13*
G04 #@! TD*
G04 #@! TO.N,/DP*
G04 #@! TO.C,VFD1*
X118766927Y-144820782D02*
X117824183Y-145073390D01*
D12*
G04 #@! TO.P,VFD1,3*
G04 #@! TO.N,/C*
X118295555Y-148052915D03*
D13*
G04 #@! TD*
G04 #@! TO.N,/C*
G04 #@! TO.C,VFD1*
X118766927Y-148179219D02*
X117824183Y-147926611D01*
D12*
G04 #@! TO.P,VFD1,2*
G04 #@! TO.N,/GRID*
X116742640Y-150742641D03*
D13*
G04 #@! TD*
G04 #@! TO.N,/GRID*
G04 #@! TO.C,VFD1*
X117087708Y-151087709D02*
X116397572Y-150397573D01*
D12*
G04 #@! TO.P,VFD1,1*
G04 #@! TO.N,GND*
X114052914Y-152295555D03*
D13*
G04 #@! TD*
G04 #@! TO.N,GND*
G04 #@! TO.C,VFD1*
X114179218Y-152766927D02*
X113926610Y-151824183D01*
D14*
G04 #@! TO.P,J1,1*
G04 #@! TO.N,/A*
X102540000Y-130175000D03*
D15*
G04 #@! TO.P,J1,2*
G04 #@! TO.N,/B*
X102540000Y-127635000D03*
G04 #@! TO.P,J1,3*
G04 #@! TO.N,/C*
X102540000Y-125095000D03*
G04 #@! TO.P,J1,4*
G04 #@! TO.N,/D*
X102540000Y-122555000D03*
G04 #@! TO.P,J1,5*
G04 #@! TO.N,/E*
X102540000Y-120015000D03*
G04 #@! TO.P,J1,6*
G04 #@! TO.N,/F*
X102540000Y-117475000D03*
G04 #@! TO.P,J1,7*
G04 #@! TO.N,/G*
X102540000Y-114935000D03*
G04 #@! TO.P,J1,8*
G04 #@! TO.N,/DP*
X102540000Y-112395000D03*
G04 #@! TO.P,J1,9*
G04 #@! TO.N,/GRID*
X102540000Y-109855000D03*
G04 #@! TO.P,J1,10*
G04 #@! TO.N,GND*
X102540000Y-107315000D03*
G04 #@! TO.P,J1,11*
G04 #@! TO.N,VCC*
X102540000Y-104775000D03*
G04 #@! TO.P,J1,12*
G04 #@! TO.N,/LED_DIN*
X102540000Y-102235000D03*
G04 #@! TD*
D14*
G04 #@! TO.P,J2,1*
G04 #@! TO.N,/LED_DOUT*
X122860000Y-101981000D03*
G04 #@! TD*
D16*
G04 #@! TO.N,GND*
X108712000Y-146304000D03*
G04 #@! TO.N,/LED_DOUT*
X114812653Y-143260653D03*
G04 #@! TO.N,/A*
X114300000Y-133350000D03*
G04 #@! TO.N,/B*
X113538000Y-127762000D03*
G04 #@! TO.N,/GRID*
X117348000Y-124968000D03*
G04 #@! TO.N,/LED_DIN*
X110998000Y-143256000D03*
X109982000Y-124968000D03*
G04 #@! TO.N,VCC*
X115570000Y-131318000D03*
G04 #@! TO.N,Net-(R1-Pad2)*
X112522000Y-125222000D03*
G04 #@! TD*
D17*
G04 #@! TO.N,/LED_DOUT*
X122860000Y-103081000D02*
X116078000Y-109863000D01*
X122860000Y-101981000D02*
X122860000Y-103081000D01*
X116078000Y-109863000D02*
X116078000Y-130302000D01*
X116295001Y-130519001D02*
X116295001Y-140752999D01*
X116078000Y-130302000D02*
X116295001Y-130519001D01*
X116295001Y-140752999D02*
X114808000Y-142240000D01*
X114808000Y-142240000D02*
X114808000Y-143256000D01*
X114808000Y-143256000D02*
X114812653Y-143260653D01*
G04 #@! TO.N,/A*
X102540000Y-130175000D02*
X112141000Y-130175000D01*
X112141000Y-130175000D02*
X114300000Y-132334000D01*
X114300000Y-132334000D02*
X114300000Y-133350000D01*
G04 #@! TO.N,/B*
X102667000Y-127762000D02*
X102540000Y-127635000D01*
X113538000Y-127762000D02*
X102667000Y-127762000D01*
G04 #@! TO.N,/GRID*
X116742640Y-150742641D02*
X117352165Y-150133116D01*
X119513359Y-150742641D02*
X116742640Y-150742641D01*
X120650000Y-149606000D02*
X119513359Y-150742641D01*
X120650000Y-142748000D02*
X120650000Y-149606000D01*
X117348000Y-124968000D02*
X117348000Y-139446000D01*
X117348000Y-139446000D02*
X120650000Y-142748000D01*
G04 #@! TO.N,/LED_DIN*
X102540000Y-102235000D02*
X109982000Y-109677000D01*
X109982000Y-109677000D02*
X109982000Y-124968000D01*
G04 #@! TO.N,VCC*
X115570000Y-131318000D02*
X114563001Y-130311001D01*
X114563001Y-106943001D02*
X112522000Y-104902000D01*
X114563001Y-130311001D02*
X114563001Y-106943001D01*
G04 #@! TO.N,Net-(R1-Pad2)*
X112522000Y-125222000D02*
X112522000Y-117602000D01*
G04 #@! TD*
D18*
G04 #@! TO.N,GND*
G36*
X121411843Y-100883235D02*
X121362560Y-101131000D01*
X121362560Y-102831000D01*
X121411843Y-103078765D01*
X121552191Y-103288809D01*
X121567296Y-103298902D01*
X115593530Y-109272669D01*
X115530071Y-109315071D01*
X115362096Y-109566464D01*
X115323001Y-109763007D01*
X115323001Y-107017847D01*
X115337889Y-106943000D01*
X115323001Y-106868153D01*
X115323001Y-106868149D01*
X115278905Y-106646464D01*
X115213164Y-106548076D01*
X115153330Y-106458527D01*
X115153328Y-106458525D01*
X115110930Y-106395072D01*
X115047477Y-106352674D01*
X113935104Y-105240302D01*
X113957000Y-105187439D01*
X113957000Y-104616561D01*
X113738534Y-104089138D01*
X113334862Y-103685466D01*
X112807439Y-103467000D01*
X112236561Y-103467000D01*
X111709138Y-103685466D01*
X111305466Y-104089138D01*
X111087000Y-104616561D01*
X111087000Y-105187439D01*
X111305466Y-105714862D01*
X111709138Y-106118534D01*
X112236561Y-106337000D01*
X112807439Y-106337000D01*
X112860302Y-106315104D01*
X113803002Y-107257805D01*
X113803002Y-116936223D01*
X113556577Y-116567423D01*
X113081909Y-116250260D01*
X112663333Y-116167000D01*
X112380667Y-116167000D01*
X111962091Y-116250260D01*
X111487423Y-116567423D01*
X111170260Y-117042091D01*
X111058887Y-117602000D01*
X111170260Y-118161909D01*
X111487423Y-118636577D01*
X111762001Y-118820044D01*
X111762000Y-124518289D01*
X111644569Y-124635720D01*
X111487000Y-125016126D01*
X111487000Y-125427874D01*
X111644569Y-125808280D01*
X111935720Y-126099431D01*
X112316126Y-126257000D01*
X112727874Y-126257000D01*
X113108280Y-126099431D01*
X113399431Y-125808280D01*
X113557000Y-125427874D01*
X113557000Y-125016126D01*
X113399431Y-124635720D01*
X113282000Y-124518289D01*
X113282000Y-118820043D01*
X113556577Y-118636577D01*
X113803002Y-118267777D01*
X113803001Y-126751491D01*
X113743874Y-126727000D01*
X113332126Y-126727000D01*
X112951720Y-126884569D01*
X112834289Y-127002000D01*
X103903037Y-127002000D01*
X103610625Y-126564375D01*
X103312239Y-126365000D01*
X103610625Y-126165625D01*
X103938839Y-125674418D01*
X104054092Y-125095000D01*
X103938839Y-124515582D01*
X103610625Y-124024375D01*
X103312239Y-123825000D01*
X103610625Y-123625625D01*
X103938839Y-123134418D01*
X104054092Y-122555000D01*
X103938839Y-121975582D01*
X103610625Y-121484375D01*
X103312239Y-121285000D01*
X103610625Y-121085625D01*
X103938839Y-120594418D01*
X104054092Y-120015000D01*
X103938839Y-119435582D01*
X103610625Y-118944375D01*
X103312239Y-118745000D01*
X103610625Y-118545625D01*
X103938839Y-118054418D01*
X104054092Y-117475000D01*
X103938839Y-116895582D01*
X103610625Y-116404375D01*
X103312239Y-116205000D01*
X103610625Y-116005625D01*
X103938839Y-115514418D01*
X104054092Y-114935000D01*
X103938839Y-114355582D01*
X103610625Y-113864375D01*
X103312239Y-113665000D01*
X103610625Y-113465625D01*
X103938839Y-112974418D01*
X104054092Y-112395000D01*
X103938839Y-111815582D01*
X103610625Y-111324375D01*
X103312239Y-111125000D01*
X103610625Y-110925625D01*
X103938839Y-110434418D01*
X104054092Y-109855000D01*
X103938839Y-109275582D01*
X103610625Y-108784375D01*
X103291522Y-108571157D01*
X103421358Y-108510183D01*
X103811645Y-108081924D01*
X103981476Y-107671890D01*
X103860155Y-107442000D01*
X102667000Y-107442000D01*
X102667000Y-107462000D01*
X102413000Y-107462000D01*
X102413000Y-107442000D01*
X101219845Y-107442000D01*
X101098524Y-107671890D01*
X101268355Y-108081924D01*
X101658642Y-108510183D01*
X101788478Y-108571157D01*
X101469375Y-108784375D01*
X101141161Y-109275582D01*
X101025908Y-109855000D01*
X101141161Y-110434418D01*
X101469375Y-110925625D01*
X101767761Y-111125000D01*
X101469375Y-111324375D01*
X101141161Y-111815582D01*
X101025908Y-112395000D01*
X101141161Y-112974418D01*
X101469375Y-113465625D01*
X101767761Y-113665000D01*
X101469375Y-113864375D01*
X101141161Y-114355582D01*
X101025908Y-114935000D01*
X101141161Y-115514418D01*
X101469375Y-116005625D01*
X101767761Y-116205000D01*
X101469375Y-116404375D01*
X101141161Y-116895582D01*
X101025908Y-117475000D01*
X101141161Y-118054418D01*
X101469375Y-118545625D01*
X101767761Y-118745000D01*
X101469375Y-118944375D01*
X101141161Y-119435582D01*
X101025908Y-120015000D01*
X101141161Y-120594418D01*
X101469375Y-121085625D01*
X101767761Y-121285000D01*
X101469375Y-121484375D01*
X101141161Y-121975582D01*
X101025908Y-122555000D01*
X101141161Y-123134418D01*
X101469375Y-123625625D01*
X101767761Y-123825000D01*
X101469375Y-124024375D01*
X101141161Y-124515582D01*
X101025908Y-125095000D01*
X101141161Y-125674418D01*
X101469375Y-126165625D01*
X101767761Y-126365000D01*
X101469375Y-126564375D01*
X101141161Y-127055582D01*
X101025908Y-127635000D01*
X101141161Y-128214418D01*
X101469375Y-128705625D01*
X101487619Y-128717816D01*
X101442235Y-128726843D01*
X101232191Y-128867191D01*
X101091843Y-129077235D01*
X101042560Y-129325000D01*
X101042560Y-131025000D01*
X101091843Y-131272765D01*
X101232191Y-131482809D01*
X101442235Y-131623157D01*
X101690000Y-131672440D01*
X103390000Y-131672440D01*
X103637765Y-131623157D01*
X103847809Y-131482809D01*
X103988157Y-131272765D01*
X104037440Y-131025000D01*
X104037440Y-130935000D01*
X111826199Y-130935000D01*
X113538744Y-132647545D01*
X113422569Y-132763720D01*
X113265000Y-133144126D01*
X113265000Y-133555874D01*
X113422569Y-133936280D01*
X113713720Y-134227431D01*
X114094126Y-134385000D01*
X114505874Y-134385000D01*
X114886280Y-134227431D01*
X115177431Y-133936280D01*
X115335000Y-133555874D01*
X115335000Y-133144126D01*
X115177431Y-132763720D01*
X115060000Y-132646289D01*
X115060000Y-132408846D01*
X115074888Y-132333999D01*
X115060000Y-132259152D01*
X115060000Y-132259148D01*
X115053037Y-132224143D01*
X115364126Y-132353000D01*
X115535001Y-132353000D01*
X115535002Y-139881009D01*
X115412758Y-139520890D01*
X115046319Y-139103047D01*
X114547873Y-138857239D01*
X113993302Y-138820891D01*
X113467036Y-138999534D01*
X113049193Y-139365972D01*
X112865432Y-139738602D01*
X112541603Y-140947146D01*
X112514430Y-141361733D01*
X112693073Y-141888000D01*
X113059511Y-142305843D01*
X113557957Y-142551650D01*
X114027190Y-142582405D01*
X113935222Y-142674373D01*
X113777653Y-143054779D01*
X113777653Y-143466527D01*
X113935222Y-143846933D01*
X114226373Y-144138084D01*
X114606779Y-144295653D01*
X115018527Y-144295653D01*
X115398933Y-144138084D01*
X115690084Y-143846933D01*
X115702113Y-143817892D01*
X115852492Y-143918372D01*
X116397573Y-144026795D01*
X116942654Y-143918372D01*
X117288111Y-143687545D01*
X118172826Y-142802830D01*
X118403653Y-142457374D01*
X118512076Y-141912292D01*
X118455609Y-141628410D01*
X119890000Y-143062802D01*
X119890000Y-143947585D01*
X119479110Y-143587243D01*
X118952844Y-143408600D01*
X118538256Y-143435774D01*
X117329713Y-143759603D01*
X116957083Y-143943364D01*
X116590645Y-144361207D01*
X116412002Y-144887474D01*
X116448350Y-145442044D01*
X116694157Y-145940490D01*
X117112000Y-146306928D01*
X117638267Y-146485571D01*
X118052854Y-146458398D01*
X119261398Y-146134569D01*
X119634028Y-145950808D01*
X119890000Y-145658927D01*
X119890001Y-147341074D01*
X119634028Y-147049193D01*
X119261398Y-146865432D01*
X118052854Y-146541603D01*
X117638267Y-146514430D01*
X117112000Y-146693073D01*
X116694157Y-147059511D01*
X116448350Y-147557957D01*
X116412002Y-148112527D01*
X116590645Y-148638794D01*
X116957083Y-149056637D01*
X117329713Y-149240398D01*
X118538256Y-149564227D01*
X118952844Y-149591401D01*
X119479110Y-149412758D01*
X119890001Y-149052416D01*
X119890001Y-149291197D01*
X119198558Y-149982641D01*
X118097122Y-149982641D01*
X118068069Y-149836579D01*
X117900094Y-149585187D01*
X117648702Y-149417212D01*
X117352165Y-149358228D01*
X117336915Y-149361261D01*
X117288110Y-149312456D01*
X116942653Y-149081629D01*
X116397572Y-148973206D01*
X115852491Y-149081629D01*
X115390392Y-149390393D01*
X115081628Y-149852492D01*
X114973205Y-150397573D01*
X115081628Y-150942654D01*
X115312455Y-151288111D01*
X116197170Y-152172826D01*
X116542626Y-152403653D01*
X117087708Y-152512076D01*
X117632789Y-152403653D01*
X118094888Y-152094889D01*
X118403652Y-151632790D01*
X118429540Y-151502641D01*
X119438512Y-151502641D01*
X119513359Y-151517529D01*
X119588206Y-151502641D01*
X119588211Y-151502641D01*
X119809896Y-151458545D01*
X120061288Y-151290570D01*
X120103690Y-151227111D01*
X121134473Y-150196329D01*
X121197929Y-150153929D01*
X121365904Y-149902537D01*
X121410000Y-149680852D01*
X121410000Y-149680848D01*
X121424888Y-149606001D01*
X121410000Y-149531154D01*
X121410000Y-142822846D01*
X121424888Y-142747999D01*
X121410000Y-142673152D01*
X121410000Y-142673148D01*
X121365904Y-142451463D01*
X121197929Y-142200071D01*
X121134473Y-142157671D01*
X118108000Y-139131199D01*
X118108000Y-133560322D01*
X119365000Y-133560322D01*
X119365000Y-134409678D01*
X119690034Y-135194380D01*
X120290620Y-135794966D01*
X121075322Y-136120000D01*
X121924678Y-136120000D01*
X122709380Y-135794966D01*
X123309966Y-135194380D01*
X123635000Y-134409678D01*
X123635000Y-133560322D01*
X123309966Y-132775620D01*
X122709380Y-132175034D01*
X121924678Y-131850000D01*
X121075322Y-131850000D01*
X120290620Y-132175034D01*
X119690034Y-132775620D01*
X119365000Y-133560322D01*
X118108000Y-133560322D01*
X118108000Y-125671711D01*
X118225431Y-125554280D01*
X118383000Y-125173874D01*
X118383000Y-124762126D01*
X118225431Y-124381720D01*
X117934280Y-124090569D01*
X117553874Y-123933000D01*
X117142126Y-123933000D01*
X116838000Y-124058973D01*
X116838000Y-110177801D01*
X123344476Y-103671327D01*
X123407929Y-103628929D01*
X123450327Y-103565476D01*
X123450329Y-103565474D01*
X123508483Y-103478440D01*
X123710000Y-103478440D01*
X123957765Y-103429157D01*
X124167809Y-103288809D01*
X124265000Y-103143353D01*
X124265001Y-161765000D01*
X100735000Y-161765000D01*
X100735000Y-158575322D01*
X101365000Y-158575322D01*
X101365000Y-159424678D01*
X101690034Y-160209380D01*
X102290620Y-160809966D01*
X103075322Y-161135000D01*
X103924678Y-161135000D01*
X104709380Y-160809966D01*
X105309966Y-160209380D01*
X105635000Y-159424678D01*
X105635000Y-158575322D01*
X105309966Y-157790620D01*
X104709380Y-157190034D01*
X103924678Y-156865000D01*
X103075322Y-156865000D01*
X102290620Y-157190034D01*
X101690034Y-157790620D01*
X101365000Y-158575322D01*
X100735000Y-158575322D01*
X100735000Y-152952843D01*
X109408600Y-152952843D01*
X109587243Y-153479110D01*
X109953681Y-153896953D01*
X110452127Y-154142760D01*
X111006697Y-154179108D01*
X111532964Y-154000465D01*
X111950807Y-153634027D01*
X112134568Y-153261397D01*
X112263612Y-152779798D01*
X112736386Y-152779798D01*
X112862689Y-153251170D01*
X113148216Y-153718122D01*
X113590702Y-154040264D01*
X114122785Y-154168552D01*
X114198335Y-154163796D01*
X114375338Y-153989547D01*
X113963111Y-152451098D01*
X112736386Y-152779798D01*
X112263612Y-152779798D01*
X112455656Y-152063081D01*
X112544342Y-152063081D01*
X112670646Y-152534453D01*
X113227074Y-152385358D01*
X114208457Y-152385358D01*
X114620683Y-153923807D01*
X114861096Y-153986210D01*
X114928902Y-153952553D01*
X115325555Y-153575411D01*
X115547689Y-153075185D01*
X115561486Y-152528029D01*
X115435182Y-152056657D01*
X114208457Y-152385358D01*
X113227074Y-152385358D01*
X113897371Y-152205752D01*
X113485145Y-150667303D01*
X113244732Y-150604900D01*
X113176926Y-150638557D01*
X112780273Y-151015699D01*
X112558139Y-151515925D01*
X112544342Y-152063081D01*
X112455656Y-152063081D01*
X112458397Y-152052854D01*
X112485571Y-151638266D01*
X112306928Y-151112000D01*
X111940489Y-150694157D01*
X111752729Y-150601563D01*
X113730490Y-150601563D01*
X114142717Y-152140012D01*
X115369442Y-151811312D01*
X115243139Y-151339940D01*
X114957612Y-150872988D01*
X114515126Y-150550846D01*
X113983043Y-150422558D01*
X113907493Y-150427314D01*
X113730490Y-150601563D01*
X111752729Y-150601563D01*
X111442043Y-150448349D01*
X110887472Y-150412001D01*
X110361206Y-150590644D01*
X109943363Y-150957082D01*
X109759602Y-151329712D01*
X109435773Y-152538256D01*
X109408600Y-152952843D01*
X100735000Y-152952843D01*
X100735000Y-151087708D01*
X106487924Y-151087708D01*
X106596347Y-151632789D01*
X106905111Y-152094888D01*
X107367210Y-152403652D01*
X107912291Y-152512075D01*
X108457372Y-152403652D01*
X108802829Y-152172825D01*
X109687544Y-151288110D01*
X109918371Y-150942654D01*
X110026794Y-150397572D01*
X109918371Y-149852491D01*
X109609607Y-149390392D01*
X109147508Y-149081628D01*
X108602427Y-148973205D01*
X108057345Y-149081628D01*
X107711889Y-149312455D01*
X106827174Y-150197170D01*
X106596347Y-150542627D01*
X106487924Y-151087708D01*
X100735000Y-151087708D01*
X100735000Y-147993302D01*
X104820892Y-147993302D01*
X104857240Y-148547872D01*
X105103047Y-149046318D01*
X105520890Y-149412756D01*
X106047157Y-149591399D01*
X106461744Y-149564226D01*
X107670288Y-149240397D01*
X108042918Y-149056636D01*
X108409356Y-148638793D01*
X108587999Y-148112527D01*
X108551651Y-147557956D01*
X108305843Y-147059510D01*
X107888000Y-146693071D01*
X107361734Y-146514428D01*
X106947146Y-146541602D01*
X105738603Y-146865431D01*
X105365973Y-147049192D01*
X104999535Y-147467035D01*
X104820892Y-147993302D01*
X100735000Y-147993302D01*
X100735000Y-145006697D01*
X104820892Y-145006697D01*
X104999535Y-145532964D01*
X105365973Y-145950807D01*
X105738603Y-146134568D01*
X106947146Y-146458397D01*
X107361734Y-146485571D01*
X107888000Y-146306928D01*
X108305843Y-145940489D01*
X108551651Y-145442043D01*
X108587999Y-144887472D01*
X108409356Y-144361206D01*
X108042918Y-143943363D01*
X107670288Y-143759602D01*
X106461744Y-143435773D01*
X106047157Y-143408600D01*
X105520890Y-143587243D01*
X105103047Y-143953681D01*
X104857240Y-144452127D01*
X104820892Y-145006697D01*
X100735000Y-145006697D01*
X100735000Y-141912291D01*
X106487925Y-141912291D01*
X106596348Y-142457372D01*
X106827175Y-142802829D01*
X107711890Y-143687544D01*
X108057346Y-143918371D01*
X108602428Y-144026794D01*
X109147509Y-143918371D01*
X109609608Y-143609607D01*
X109918372Y-143147508D01*
X110026795Y-142602427D01*
X109918372Y-142057345D01*
X109687545Y-141711889D01*
X108802830Y-140827174D01*
X108457373Y-140596347D01*
X107912292Y-140487924D01*
X107367211Y-140596347D01*
X106905112Y-140905111D01*
X106596348Y-141367210D01*
X106487925Y-141912291D01*
X100735000Y-141912291D01*
X100735000Y-140047157D01*
X109408601Y-140047157D01*
X109435774Y-140461744D01*
X109759603Y-141670288D01*
X109943364Y-142042918D01*
X110361207Y-142409356D01*
X110375934Y-142414355D01*
X110120569Y-142669720D01*
X109963000Y-143050126D01*
X109963000Y-143461874D01*
X110120569Y-143842280D01*
X110411720Y-144133431D01*
X110792126Y-144291000D01*
X111203874Y-144291000D01*
X111584280Y-144133431D01*
X111875431Y-143842280D01*
X112033000Y-143461874D01*
X112033000Y-143050126D01*
X111875431Y-142669720D01*
X111653221Y-142447510D01*
X111940490Y-142305843D01*
X112306929Y-141888000D01*
X112485572Y-141361734D01*
X112458398Y-140947146D01*
X112134569Y-139738603D01*
X111950808Y-139365973D01*
X111532965Y-138999535D01*
X111006698Y-138820892D01*
X110452128Y-138857240D01*
X109953682Y-139103047D01*
X109587244Y-139520890D01*
X109408601Y-140047157D01*
X100735000Y-140047157D01*
X100735000Y-102235000D01*
X101025908Y-102235000D01*
X101141161Y-102814418D01*
X101469375Y-103305625D01*
X101767761Y-103505000D01*
X101469375Y-103704375D01*
X101141161Y-104195582D01*
X101025908Y-104775000D01*
X101141161Y-105354418D01*
X101469375Y-105845625D01*
X101788478Y-106058843D01*
X101658642Y-106119817D01*
X101268355Y-106548076D01*
X101098524Y-106958110D01*
X101219845Y-107188000D01*
X102413000Y-107188000D01*
X102413000Y-107168000D01*
X102667000Y-107168000D01*
X102667000Y-107188000D01*
X103860155Y-107188000D01*
X103981476Y-106958110D01*
X103811645Y-106548076D01*
X103421358Y-106119817D01*
X103291522Y-106058843D01*
X103610625Y-105845625D01*
X103938839Y-105354418D01*
X104045980Y-104815782D01*
X109222000Y-109991803D01*
X109222001Y-124264288D01*
X109104569Y-124381720D01*
X108947000Y-124762126D01*
X108947000Y-125173874D01*
X109104569Y-125554280D01*
X109395720Y-125845431D01*
X109776126Y-126003000D01*
X110187874Y-126003000D01*
X110568280Y-125845431D01*
X110859431Y-125554280D01*
X111017000Y-125173874D01*
X111017000Y-124762126D01*
X110859431Y-124381720D01*
X110742000Y-124264289D01*
X110742000Y-109751846D01*
X110756888Y-109676999D01*
X110742000Y-109602152D01*
X110742000Y-109602148D01*
X110697904Y-109380463D01*
X110627825Y-109275582D01*
X110572329Y-109192526D01*
X110572327Y-109192524D01*
X110529929Y-109129071D01*
X110466476Y-109086673D01*
X103981209Y-102601408D01*
X104054092Y-102235000D01*
X103938839Y-101655582D01*
X103610625Y-101164375D01*
X103119418Y-100836161D01*
X102686256Y-100750000D01*
X102393744Y-100750000D01*
X101960582Y-100836161D01*
X101469375Y-101164375D01*
X101141161Y-101655582D01*
X101025908Y-102235000D01*
X100735000Y-102235000D01*
X100735000Y-100735000D01*
X121510891Y-100735000D01*
X121411843Y-100883235D01*
X121411843Y-100883235D01*
G37*
X121411843Y-100883235D02*
X121362560Y-101131000D01*
X121362560Y-102831000D01*
X121411843Y-103078765D01*
X121552191Y-103288809D01*
X121567296Y-103298902D01*
X115593530Y-109272669D01*
X115530071Y-109315071D01*
X115362096Y-109566464D01*
X115323001Y-109763007D01*
X115323001Y-107017847D01*
X115337889Y-106943000D01*
X115323001Y-106868153D01*
X115323001Y-106868149D01*
X115278905Y-106646464D01*
X115213164Y-106548076D01*
X115153330Y-106458527D01*
X115153328Y-106458525D01*
X115110930Y-106395072D01*
X115047477Y-106352674D01*
X113935104Y-105240302D01*
X113957000Y-105187439D01*
X113957000Y-104616561D01*
X113738534Y-104089138D01*
X113334862Y-103685466D01*
X112807439Y-103467000D01*
X112236561Y-103467000D01*
X111709138Y-103685466D01*
X111305466Y-104089138D01*
X111087000Y-104616561D01*
X111087000Y-105187439D01*
X111305466Y-105714862D01*
X111709138Y-106118534D01*
X112236561Y-106337000D01*
X112807439Y-106337000D01*
X112860302Y-106315104D01*
X113803002Y-107257805D01*
X113803002Y-116936223D01*
X113556577Y-116567423D01*
X113081909Y-116250260D01*
X112663333Y-116167000D01*
X112380667Y-116167000D01*
X111962091Y-116250260D01*
X111487423Y-116567423D01*
X111170260Y-117042091D01*
X111058887Y-117602000D01*
X111170260Y-118161909D01*
X111487423Y-118636577D01*
X111762001Y-118820044D01*
X111762000Y-124518289D01*
X111644569Y-124635720D01*
X111487000Y-125016126D01*
X111487000Y-125427874D01*
X111644569Y-125808280D01*
X111935720Y-126099431D01*
X112316126Y-126257000D01*
X112727874Y-126257000D01*
X113108280Y-126099431D01*
X113399431Y-125808280D01*
X113557000Y-125427874D01*
X113557000Y-125016126D01*
X113399431Y-124635720D01*
X113282000Y-124518289D01*
X113282000Y-118820043D01*
X113556577Y-118636577D01*
X113803002Y-118267777D01*
X113803001Y-126751491D01*
X113743874Y-126727000D01*
X113332126Y-126727000D01*
X112951720Y-126884569D01*
X112834289Y-127002000D01*
X103903037Y-127002000D01*
X103610625Y-126564375D01*
X103312239Y-126365000D01*
X103610625Y-126165625D01*
X103938839Y-125674418D01*
X104054092Y-125095000D01*
X103938839Y-124515582D01*
X103610625Y-124024375D01*
X103312239Y-123825000D01*
X103610625Y-123625625D01*
X103938839Y-123134418D01*
X104054092Y-122555000D01*
X103938839Y-121975582D01*
X103610625Y-121484375D01*
X103312239Y-121285000D01*
X103610625Y-121085625D01*
X103938839Y-120594418D01*
X104054092Y-120015000D01*
X103938839Y-119435582D01*
X103610625Y-118944375D01*
X103312239Y-118745000D01*
X103610625Y-118545625D01*
X103938839Y-118054418D01*
X104054092Y-117475000D01*
X103938839Y-116895582D01*
X103610625Y-116404375D01*
X103312239Y-116205000D01*
X103610625Y-116005625D01*
X103938839Y-115514418D01*
X104054092Y-114935000D01*
X103938839Y-114355582D01*
X103610625Y-113864375D01*
X103312239Y-113665000D01*
X103610625Y-113465625D01*
X103938839Y-112974418D01*
X104054092Y-112395000D01*
X103938839Y-111815582D01*
X103610625Y-111324375D01*
X103312239Y-111125000D01*
X103610625Y-110925625D01*
X103938839Y-110434418D01*
X104054092Y-109855000D01*
X103938839Y-109275582D01*
X103610625Y-108784375D01*
X103291522Y-108571157D01*
X103421358Y-108510183D01*
X103811645Y-108081924D01*
X103981476Y-107671890D01*
X103860155Y-107442000D01*
X102667000Y-107442000D01*
X102667000Y-107462000D01*
X102413000Y-107462000D01*
X102413000Y-107442000D01*
X101219845Y-107442000D01*
X101098524Y-107671890D01*
X101268355Y-108081924D01*
X101658642Y-108510183D01*
X101788478Y-108571157D01*
X101469375Y-108784375D01*
X101141161Y-109275582D01*
X101025908Y-109855000D01*
X101141161Y-110434418D01*
X101469375Y-110925625D01*
X101767761Y-111125000D01*
X101469375Y-111324375D01*
X101141161Y-111815582D01*
X101025908Y-112395000D01*
X101141161Y-112974418D01*
X101469375Y-113465625D01*
X101767761Y-113665000D01*
X101469375Y-113864375D01*
X101141161Y-114355582D01*
X101025908Y-114935000D01*
X101141161Y-115514418D01*
X101469375Y-116005625D01*
X101767761Y-116205000D01*
X101469375Y-116404375D01*
X101141161Y-116895582D01*
X101025908Y-117475000D01*
X101141161Y-118054418D01*
X101469375Y-118545625D01*
X101767761Y-118745000D01*
X101469375Y-118944375D01*
X101141161Y-119435582D01*
X101025908Y-120015000D01*
X101141161Y-120594418D01*
X101469375Y-121085625D01*
X101767761Y-121285000D01*
X101469375Y-121484375D01*
X101141161Y-121975582D01*
X101025908Y-122555000D01*
X101141161Y-123134418D01*
X101469375Y-123625625D01*
X101767761Y-123825000D01*
X101469375Y-124024375D01*
X101141161Y-124515582D01*
X101025908Y-125095000D01*
X101141161Y-125674418D01*
X101469375Y-126165625D01*
X101767761Y-126365000D01*
X101469375Y-126564375D01*
X101141161Y-127055582D01*
X101025908Y-127635000D01*
X101141161Y-128214418D01*
X101469375Y-128705625D01*
X101487619Y-128717816D01*
X101442235Y-128726843D01*
X101232191Y-128867191D01*
X101091843Y-129077235D01*
X101042560Y-129325000D01*
X101042560Y-131025000D01*
X101091843Y-131272765D01*
X101232191Y-131482809D01*
X101442235Y-131623157D01*
X101690000Y-131672440D01*
X103390000Y-131672440D01*
X103637765Y-131623157D01*
X103847809Y-131482809D01*
X103988157Y-131272765D01*
X104037440Y-131025000D01*
X104037440Y-130935000D01*
X111826199Y-130935000D01*
X113538744Y-132647545D01*
X113422569Y-132763720D01*
X113265000Y-133144126D01*
X113265000Y-133555874D01*
X113422569Y-133936280D01*
X113713720Y-134227431D01*
X114094126Y-134385000D01*
X114505874Y-134385000D01*
X114886280Y-134227431D01*
X115177431Y-133936280D01*
X115335000Y-133555874D01*
X115335000Y-133144126D01*
X115177431Y-132763720D01*
X115060000Y-132646289D01*
X115060000Y-132408846D01*
X115074888Y-132333999D01*
X115060000Y-132259152D01*
X115060000Y-132259148D01*
X115053037Y-132224143D01*
X115364126Y-132353000D01*
X115535001Y-132353000D01*
X115535002Y-139881009D01*
X115412758Y-139520890D01*
X115046319Y-139103047D01*
X114547873Y-138857239D01*
X113993302Y-138820891D01*
X113467036Y-138999534D01*
X113049193Y-139365972D01*
X112865432Y-139738602D01*
X112541603Y-140947146D01*
X112514430Y-141361733D01*
X112693073Y-141888000D01*
X113059511Y-142305843D01*
X113557957Y-142551650D01*
X114027190Y-142582405D01*
X113935222Y-142674373D01*
X113777653Y-143054779D01*
X113777653Y-143466527D01*
X113935222Y-143846933D01*
X114226373Y-144138084D01*
X114606779Y-144295653D01*
X115018527Y-144295653D01*
X115398933Y-144138084D01*
X115690084Y-143846933D01*
X115702113Y-143817892D01*
X115852492Y-143918372D01*
X116397573Y-144026795D01*
X116942654Y-143918372D01*
X117288111Y-143687545D01*
X118172826Y-142802830D01*
X118403653Y-142457374D01*
X118512076Y-141912292D01*
X118455609Y-141628410D01*
X119890000Y-143062802D01*
X119890000Y-143947585D01*
X119479110Y-143587243D01*
X118952844Y-143408600D01*
X118538256Y-143435774D01*
X117329713Y-143759603D01*
X116957083Y-143943364D01*
X116590645Y-144361207D01*
X116412002Y-144887474D01*
X116448350Y-145442044D01*
X116694157Y-145940490D01*
X117112000Y-146306928D01*
X117638267Y-146485571D01*
X118052854Y-146458398D01*
X119261398Y-146134569D01*
X119634028Y-145950808D01*
X119890000Y-145658927D01*
X119890001Y-147341074D01*
X119634028Y-147049193D01*
X119261398Y-146865432D01*
X118052854Y-146541603D01*
X117638267Y-146514430D01*
X117112000Y-146693073D01*
X116694157Y-147059511D01*
X116448350Y-147557957D01*
X116412002Y-148112527D01*
X116590645Y-148638794D01*
X116957083Y-149056637D01*
X117329713Y-149240398D01*
X118538256Y-149564227D01*
X118952844Y-149591401D01*
X119479110Y-149412758D01*
X119890001Y-149052416D01*
X119890001Y-149291197D01*
X119198558Y-149982641D01*
X118097122Y-149982641D01*
X118068069Y-149836579D01*
X117900094Y-149585187D01*
X117648702Y-149417212D01*
X117352165Y-149358228D01*
X117336915Y-149361261D01*
X117288110Y-149312456D01*
X116942653Y-149081629D01*
X116397572Y-148973206D01*
X115852491Y-149081629D01*
X115390392Y-149390393D01*
X115081628Y-149852492D01*
X114973205Y-150397573D01*
X115081628Y-150942654D01*
X115312455Y-151288111D01*
X116197170Y-152172826D01*
X116542626Y-152403653D01*
X117087708Y-152512076D01*
X117632789Y-152403653D01*
X118094888Y-152094889D01*
X118403652Y-151632790D01*
X118429540Y-151502641D01*
X119438512Y-151502641D01*
X119513359Y-151517529D01*
X119588206Y-151502641D01*
X119588211Y-151502641D01*
X119809896Y-151458545D01*
X120061288Y-151290570D01*
X120103690Y-151227111D01*
X121134473Y-150196329D01*
X121197929Y-150153929D01*
X121365904Y-149902537D01*
X121410000Y-149680852D01*
X121410000Y-149680848D01*
X121424888Y-149606001D01*
X121410000Y-149531154D01*
X121410000Y-142822846D01*
X121424888Y-142747999D01*
X121410000Y-142673152D01*
X121410000Y-142673148D01*
X121365904Y-142451463D01*
X121197929Y-142200071D01*
X121134473Y-142157671D01*
X118108000Y-139131199D01*
X118108000Y-133560322D01*
X119365000Y-133560322D01*
X119365000Y-134409678D01*
X119690034Y-135194380D01*
X120290620Y-135794966D01*
X121075322Y-136120000D01*
X121924678Y-136120000D01*
X122709380Y-135794966D01*
X123309966Y-135194380D01*
X123635000Y-134409678D01*
X123635000Y-133560322D01*
X123309966Y-132775620D01*
X122709380Y-132175034D01*
X121924678Y-131850000D01*
X121075322Y-131850000D01*
X120290620Y-132175034D01*
X119690034Y-132775620D01*
X119365000Y-133560322D01*
X118108000Y-133560322D01*
X118108000Y-125671711D01*
X118225431Y-125554280D01*
X118383000Y-125173874D01*
X118383000Y-124762126D01*
X118225431Y-124381720D01*
X117934280Y-124090569D01*
X117553874Y-123933000D01*
X117142126Y-123933000D01*
X116838000Y-124058973D01*
X116838000Y-110177801D01*
X123344476Y-103671327D01*
X123407929Y-103628929D01*
X123450327Y-103565476D01*
X123450329Y-103565474D01*
X123508483Y-103478440D01*
X123710000Y-103478440D01*
X123957765Y-103429157D01*
X124167809Y-103288809D01*
X124265000Y-103143353D01*
X124265001Y-161765000D01*
X100735000Y-161765000D01*
X100735000Y-158575322D01*
X101365000Y-158575322D01*
X101365000Y-159424678D01*
X101690034Y-160209380D01*
X102290620Y-160809966D01*
X103075322Y-161135000D01*
X103924678Y-161135000D01*
X104709380Y-160809966D01*
X105309966Y-160209380D01*
X105635000Y-159424678D01*
X105635000Y-158575322D01*
X105309966Y-157790620D01*
X104709380Y-157190034D01*
X103924678Y-156865000D01*
X103075322Y-156865000D01*
X102290620Y-157190034D01*
X101690034Y-157790620D01*
X101365000Y-158575322D01*
X100735000Y-158575322D01*
X100735000Y-152952843D01*
X109408600Y-152952843D01*
X109587243Y-153479110D01*
X109953681Y-153896953D01*
X110452127Y-154142760D01*
X111006697Y-154179108D01*
X111532964Y-154000465D01*
X111950807Y-153634027D01*
X112134568Y-153261397D01*
X112263612Y-152779798D01*
X112736386Y-152779798D01*
X112862689Y-153251170D01*
X113148216Y-153718122D01*
X113590702Y-154040264D01*
X114122785Y-154168552D01*
X114198335Y-154163796D01*
X114375338Y-153989547D01*
X113963111Y-152451098D01*
X112736386Y-152779798D01*
X112263612Y-152779798D01*
X112455656Y-152063081D01*
X112544342Y-152063081D01*
X112670646Y-152534453D01*
X113227074Y-152385358D01*
X114208457Y-152385358D01*
X114620683Y-153923807D01*
X114861096Y-153986210D01*
X114928902Y-153952553D01*
X115325555Y-153575411D01*
X115547689Y-153075185D01*
X115561486Y-152528029D01*
X115435182Y-152056657D01*
X114208457Y-152385358D01*
X113227074Y-152385358D01*
X113897371Y-152205752D01*
X113485145Y-150667303D01*
X113244732Y-150604900D01*
X113176926Y-150638557D01*
X112780273Y-151015699D01*
X112558139Y-151515925D01*
X112544342Y-152063081D01*
X112455656Y-152063081D01*
X112458397Y-152052854D01*
X112485571Y-151638266D01*
X112306928Y-151112000D01*
X111940489Y-150694157D01*
X111752729Y-150601563D01*
X113730490Y-150601563D01*
X114142717Y-152140012D01*
X115369442Y-151811312D01*
X115243139Y-151339940D01*
X114957612Y-150872988D01*
X114515126Y-150550846D01*
X113983043Y-150422558D01*
X113907493Y-150427314D01*
X113730490Y-150601563D01*
X111752729Y-150601563D01*
X111442043Y-150448349D01*
X110887472Y-150412001D01*
X110361206Y-150590644D01*
X109943363Y-150957082D01*
X109759602Y-151329712D01*
X109435773Y-152538256D01*
X109408600Y-152952843D01*
X100735000Y-152952843D01*
X100735000Y-151087708D01*
X106487924Y-151087708D01*
X106596347Y-151632789D01*
X106905111Y-152094888D01*
X107367210Y-152403652D01*
X107912291Y-152512075D01*
X108457372Y-152403652D01*
X108802829Y-152172825D01*
X109687544Y-151288110D01*
X109918371Y-150942654D01*
X110026794Y-150397572D01*
X109918371Y-149852491D01*
X109609607Y-149390392D01*
X109147508Y-149081628D01*
X108602427Y-148973205D01*
X108057345Y-149081628D01*
X107711889Y-149312455D01*
X106827174Y-150197170D01*
X106596347Y-150542627D01*
X106487924Y-151087708D01*
X100735000Y-151087708D01*
X100735000Y-147993302D01*
X104820892Y-147993302D01*
X104857240Y-148547872D01*
X105103047Y-149046318D01*
X105520890Y-149412756D01*
X106047157Y-149591399D01*
X106461744Y-149564226D01*
X107670288Y-149240397D01*
X108042918Y-149056636D01*
X108409356Y-148638793D01*
X108587999Y-148112527D01*
X108551651Y-147557956D01*
X108305843Y-147059510D01*
X107888000Y-146693071D01*
X107361734Y-146514428D01*
X106947146Y-146541602D01*
X105738603Y-146865431D01*
X105365973Y-147049192D01*
X104999535Y-147467035D01*
X104820892Y-147993302D01*
X100735000Y-147993302D01*
X100735000Y-145006697D01*
X104820892Y-145006697D01*
X104999535Y-145532964D01*
X105365973Y-145950807D01*
X105738603Y-146134568D01*
X106947146Y-146458397D01*
X107361734Y-146485571D01*
X107888000Y-146306928D01*
X108305843Y-145940489D01*
X108551651Y-145442043D01*
X108587999Y-144887472D01*
X108409356Y-144361206D01*
X108042918Y-143943363D01*
X107670288Y-143759602D01*
X106461744Y-143435773D01*
X106047157Y-143408600D01*
X105520890Y-143587243D01*
X105103047Y-143953681D01*
X104857240Y-144452127D01*
X104820892Y-145006697D01*
X100735000Y-145006697D01*
X100735000Y-141912291D01*
X106487925Y-141912291D01*
X106596348Y-142457372D01*
X106827175Y-142802829D01*
X107711890Y-143687544D01*
X108057346Y-143918371D01*
X108602428Y-144026794D01*
X109147509Y-143918371D01*
X109609608Y-143609607D01*
X109918372Y-143147508D01*
X110026795Y-142602427D01*
X109918372Y-142057345D01*
X109687545Y-141711889D01*
X108802830Y-140827174D01*
X108457373Y-140596347D01*
X107912292Y-140487924D01*
X107367211Y-140596347D01*
X106905112Y-140905111D01*
X106596348Y-141367210D01*
X106487925Y-141912291D01*
X100735000Y-141912291D01*
X100735000Y-140047157D01*
X109408601Y-140047157D01*
X109435774Y-140461744D01*
X109759603Y-141670288D01*
X109943364Y-142042918D01*
X110361207Y-142409356D01*
X110375934Y-142414355D01*
X110120569Y-142669720D01*
X109963000Y-143050126D01*
X109963000Y-143461874D01*
X110120569Y-143842280D01*
X110411720Y-144133431D01*
X110792126Y-144291000D01*
X111203874Y-144291000D01*
X111584280Y-144133431D01*
X111875431Y-143842280D01*
X112033000Y-143461874D01*
X112033000Y-143050126D01*
X111875431Y-142669720D01*
X111653221Y-142447510D01*
X111940490Y-142305843D01*
X112306929Y-141888000D01*
X112485572Y-141361734D01*
X112458398Y-140947146D01*
X112134569Y-139738603D01*
X111950808Y-139365973D01*
X111532965Y-138999535D01*
X111006698Y-138820892D01*
X110452128Y-138857240D01*
X109953682Y-139103047D01*
X109587244Y-139520890D01*
X109408601Y-140047157D01*
X100735000Y-140047157D01*
X100735000Y-102235000D01*
X101025908Y-102235000D01*
X101141161Y-102814418D01*
X101469375Y-103305625D01*
X101767761Y-103505000D01*
X101469375Y-103704375D01*
X101141161Y-104195582D01*
X101025908Y-104775000D01*
X101141161Y-105354418D01*
X101469375Y-105845625D01*
X101788478Y-106058843D01*
X101658642Y-106119817D01*
X101268355Y-106548076D01*
X101098524Y-106958110D01*
X101219845Y-107188000D01*
X102413000Y-107188000D01*
X102413000Y-107168000D01*
X102667000Y-107168000D01*
X102667000Y-107188000D01*
X103860155Y-107188000D01*
X103981476Y-106958110D01*
X103811645Y-106548076D01*
X103421358Y-106119817D01*
X103291522Y-106058843D01*
X103610625Y-105845625D01*
X103938839Y-105354418D01*
X104045980Y-104815782D01*
X109222000Y-109991803D01*
X109222001Y-124264288D01*
X109104569Y-124381720D01*
X108947000Y-124762126D01*
X108947000Y-125173874D01*
X109104569Y-125554280D01*
X109395720Y-125845431D01*
X109776126Y-126003000D01*
X110187874Y-126003000D01*
X110568280Y-125845431D01*
X110859431Y-125554280D01*
X111017000Y-125173874D01*
X111017000Y-124762126D01*
X110859431Y-124381720D01*
X110742000Y-124264289D01*
X110742000Y-109751846D01*
X110756888Y-109676999D01*
X110742000Y-109602152D01*
X110742000Y-109602148D01*
X110697904Y-109380463D01*
X110627825Y-109275582D01*
X110572329Y-109192526D01*
X110572327Y-109192524D01*
X110529929Y-109129071D01*
X110466476Y-109086673D01*
X103981209Y-102601408D01*
X104054092Y-102235000D01*
X103938839Y-101655582D01*
X103610625Y-101164375D01*
X103119418Y-100836161D01*
X102686256Y-100750000D01*
X102393744Y-100750000D01*
X101960582Y-100836161D01*
X101469375Y-101164375D01*
X101141161Y-101655582D01*
X101025908Y-102235000D01*
X100735000Y-102235000D01*
X100735000Y-100735000D01*
X121510891Y-100735000D01*
X121411843Y-100883235D01*
G04 #@! TD*
M02*
