G04 #@! TF.GenerationSoftware,KiCad,Pcbnew,5.0.0-rc2-unknown-e4a6f2e~65~ubuntu18.04.1*
G04 #@! TF.CreationDate,2018-06-07T10:51:13+01:00*
G04 #@! TF.ProjectId,IV-11-breakout,49562D31312D627265616B6F75742E6B,rev?*
G04 #@! TF.SameCoordinates,Original*
G04 #@! TF.FileFunction,Legend,Bot*
G04 #@! TF.FilePolarity,Positive*
%FSLAX46Y46*%
G04 Gerber Fmt 4.6, Leading zero omitted, Abs format (unit mm)*
G04 Created by KiCad (PCBNEW 5.0.0-rc2-unknown-e4a6f2e~65~ubuntu18.04.1) date Thu Jun  7 10:51:13 2018*
%MOMM*%
%LPD*%
G01*
G04 APERTURE LIST*
%ADD10C,0.175000*%
%ADD11C,0.300000*%
%ADD12C,0.010000*%
G04 APERTURE END LIST*
D10*
X120430666Y-100011666D02*
X120764000Y-100011666D01*
X120764000Y-99311666D01*
X120197333Y-99645000D02*
X119964000Y-99645000D01*
X119864000Y-100011666D02*
X120197333Y-100011666D01*
X120197333Y-99311666D01*
X119864000Y-99311666D01*
X119564000Y-100011666D02*
X119564000Y-99311666D01*
X119397333Y-99311666D01*
X119297333Y-99345000D01*
X119230666Y-99411666D01*
X119197333Y-99478333D01*
X119164000Y-99611666D01*
X119164000Y-99711666D01*
X119197333Y-99845000D01*
X119230666Y-99911666D01*
X119297333Y-99978333D01*
X119397333Y-100011666D01*
X119564000Y-100011666D01*
X119030666Y-100078333D02*
X118497333Y-100078333D01*
X118330666Y-100011666D02*
X118330666Y-99311666D01*
X118164000Y-99311666D01*
X118064000Y-99345000D01*
X117997333Y-99411666D01*
X117964000Y-99478333D01*
X117930666Y-99611666D01*
X117930666Y-99711666D01*
X117964000Y-99845000D01*
X117997333Y-99911666D01*
X118064000Y-99978333D01*
X118164000Y-100011666D01*
X118330666Y-100011666D01*
X117497333Y-99311666D02*
X117364000Y-99311666D01*
X117297333Y-99345000D01*
X117230666Y-99411666D01*
X117197333Y-99545000D01*
X117197333Y-99778333D01*
X117230666Y-99911666D01*
X117297333Y-99978333D01*
X117364000Y-100011666D01*
X117497333Y-100011666D01*
X117564000Y-99978333D01*
X117630666Y-99911666D01*
X117664000Y-99778333D01*
X117664000Y-99545000D01*
X117630666Y-99411666D01*
X117564000Y-99345000D01*
X117497333Y-99311666D01*
X116897333Y-99311666D02*
X116897333Y-99878333D01*
X116864000Y-99945000D01*
X116830666Y-99978333D01*
X116764000Y-100011666D01*
X116630666Y-100011666D01*
X116564000Y-99978333D01*
X116530666Y-99945000D01*
X116497333Y-99878333D01*
X116497333Y-99311666D01*
X116264000Y-99311666D02*
X115864000Y-99311666D01*
X116064000Y-100011666D02*
X116064000Y-99311666D01*
X107969666Y-102551666D02*
X108302999Y-102551666D01*
X108302999Y-101851666D01*
X107736333Y-102185000D02*
X107502999Y-102185000D01*
X107402999Y-102551666D02*
X107736333Y-102551666D01*
X107736333Y-101851666D01*
X107402999Y-101851666D01*
X107102999Y-102551666D02*
X107102999Y-101851666D01*
X106936333Y-101851666D01*
X106836333Y-101885000D01*
X106769666Y-101951666D01*
X106736333Y-102018333D01*
X106702999Y-102151666D01*
X106702999Y-102251666D01*
X106736333Y-102385000D01*
X106769666Y-102451666D01*
X106836333Y-102518333D01*
X106936333Y-102551666D01*
X107102999Y-102551666D01*
X106402999Y-102285000D02*
X105869666Y-102285000D01*
X106136333Y-102551666D02*
X106136333Y-102018333D01*
X105636333Y-101851666D02*
X105402999Y-102551666D01*
X105169666Y-101851666D01*
X107402190Y-109228000D02*
X107497428Y-109180380D01*
X107640285Y-109180380D01*
X107783142Y-109228000D01*
X107878380Y-109323238D01*
X107926000Y-109418476D01*
X107973619Y-109608952D01*
X107973619Y-109751809D01*
X107926000Y-109942285D01*
X107878380Y-110037523D01*
X107783142Y-110132761D01*
X107640285Y-110180380D01*
X107545047Y-110180380D01*
X107402190Y-110132761D01*
X107354571Y-110085142D01*
X107354571Y-109751809D01*
X107545047Y-109751809D01*
X106354571Y-110180380D02*
X106687904Y-109704190D01*
X106926000Y-110180380D02*
X106926000Y-109180380D01*
X106545047Y-109180380D01*
X106449809Y-109228000D01*
X106402190Y-109275619D01*
X106354571Y-109370857D01*
X106354571Y-109513714D01*
X106402190Y-109608952D01*
X106449809Y-109656571D01*
X106545047Y-109704190D01*
X106926000Y-109704190D01*
X105926000Y-110180380D02*
X105926000Y-109180380D01*
X105449809Y-110180380D02*
X105449809Y-109180380D01*
X105211714Y-109180380D01*
X105068857Y-109228000D01*
X104973619Y-109323238D01*
X104926000Y-109418476D01*
X104878380Y-109608952D01*
X104878380Y-109751809D01*
X104926000Y-109942285D01*
X104973619Y-110037523D01*
X105068857Y-110132761D01*
X105211714Y-110180380D01*
X105449809Y-110180380D01*
D11*
X118490142Y-126614714D02*
X119690142Y-126614714D01*
X119690142Y-126214714D02*
X118490142Y-125814714D01*
X119690142Y-125414714D01*
X118947285Y-125014714D02*
X118947285Y-124100428D01*
X118490142Y-122900428D02*
X118490142Y-123586142D01*
X118490142Y-123243285D02*
X119690142Y-123243285D01*
X119518714Y-123357571D01*
X119404428Y-123471857D01*
X119347285Y-123586142D01*
X118490142Y-121757571D02*
X118490142Y-122443285D01*
X118490142Y-122100428D02*
X119690142Y-122100428D01*
X119518714Y-122214714D01*
X119404428Y-122329000D01*
X119347285Y-122443285D01*
X119690142Y-120500428D02*
X118490142Y-120100428D01*
X119690142Y-119700428D01*
X119118714Y-118900428D02*
X119118714Y-119300428D01*
X118490142Y-119300428D02*
X119690142Y-119300428D01*
X119690142Y-118729000D01*
X118490142Y-118271857D02*
X119690142Y-118271857D01*
X119690142Y-117986142D01*
X119633000Y-117814714D01*
X119518714Y-117700428D01*
X119404428Y-117643285D01*
X119175857Y-117586142D01*
X119004428Y-117586142D01*
X118775857Y-117643285D01*
X118661571Y-117700428D01*
X118547285Y-117814714D01*
X118490142Y-117986142D01*
X118490142Y-118271857D01*
X119118714Y-115757571D02*
X119061571Y-115586142D01*
X119004428Y-115529000D01*
X118890142Y-115471857D01*
X118718714Y-115471857D01*
X118604428Y-115529000D01*
X118547285Y-115586142D01*
X118490142Y-115700428D01*
X118490142Y-116157571D01*
X119690142Y-116157571D01*
X119690142Y-115757571D01*
X119633000Y-115643285D01*
X119575857Y-115586142D01*
X119461571Y-115529000D01*
X119347285Y-115529000D01*
X119233000Y-115586142D01*
X119175857Y-115643285D01*
X119118714Y-115757571D01*
X119118714Y-116157571D01*
X118490142Y-114957571D02*
X119290142Y-114957571D01*
X119061571Y-114957571D02*
X119175857Y-114900428D01*
X119233000Y-114843285D01*
X119290142Y-114729000D01*
X119290142Y-114614714D01*
X118547285Y-113757571D02*
X118490142Y-113871857D01*
X118490142Y-114100428D01*
X118547285Y-114214714D01*
X118661571Y-114271857D01*
X119118714Y-114271857D01*
X119233000Y-114214714D01*
X119290142Y-114100428D01*
X119290142Y-113871857D01*
X119233000Y-113757571D01*
X119118714Y-113700428D01*
X119004428Y-113700428D01*
X118890142Y-114271857D01*
X118490142Y-112671857D02*
X119118714Y-112671857D01*
X119233000Y-112729000D01*
X119290142Y-112843285D01*
X119290142Y-113071857D01*
X119233000Y-113186142D01*
X118547285Y-112671857D02*
X118490142Y-112786142D01*
X118490142Y-113071857D01*
X118547285Y-113186142D01*
X118661571Y-113243285D01*
X118775857Y-113243285D01*
X118890142Y-113186142D01*
X118947285Y-113071857D01*
X118947285Y-112786142D01*
X119004428Y-112671857D01*
X118490142Y-112100428D02*
X119690142Y-112100428D01*
X118947285Y-111986142D02*
X118490142Y-111643285D01*
X119290142Y-111643285D02*
X118833000Y-112100428D01*
X118490142Y-110957571D02*
X118547285Y-111071857D01*
X118604428Y-111129000D01*
X118718714Y-111186142D01*
X119061571Y-111186142D01*
X119175857Y-111129000D01*
X119233000Y-111071857D01*
X119290142Y-110957571D01*
X119290142Y-110786142D01*
X119233000Y-110671857D01*
X119175857Y-110614714D01*
X119061571Y-110557571D01*
X118718714Y-110557571D01*
X118604428Y-110614714D01*
X118547285Y-110671857D01*
X118490142Y-110786142D01*
X118490142Y-110957571D01*
X119290142Y-109529000D02*
X118490142Y-109529000D01*
X119290142Y-110043285D02*
X118661571Y-110043285D01*
X118547285Y-109986142D01*
X118490142Y-109871857D01*
X118490142Y-109700428D01*
X118547285Y-109586142D01*
X118604428Y-109529000D01*
X119290142Y-109129000D02*
X119290142Y-108671857D01*
X119690142Y-108957571D02*
X118661571Y-108957571D01*
X118547285Y-108900428D01*
X118490142Y-108786142D01*
X118490142Y-108671857D01*
X116390142Y-133271857D02*
X117590142Y-133271857D01*
X116390142Y-132757571D02*
X117018714Y-132757571D01*
X117133000Y-132814714D01*
X117190142Y-132929000D01*
X117190142Y-133100428D01*
X117133000Y-133214714D01*
X117075857Y-133271857D01*
X117190142Y-132357571D02*
X117190142Y-131900428D01*
X117590142Y-132186142D02*
X116561571Y-132186142D01*
X116447285Y-132129000D01*
X116390142Y-132014714D01*
X116390142Y-131900428D01*
X117190142Y-131671857D02*
X117190142Y-131214714D01*
X117590142Y-131500428D02*
X116561571Y-131500428D01*
X116447285Y-131443285D01*
X116390142Y-131329000D01*
X116390142Y-131214714D01*
X117190142Y-130814714D02*
X115990142Y-130814714D01*
X117133000Y-130814714D02*
X117190142Y-130700428D01*
X117190142Y-130471857D01*
X117133000Y-130357571D01*
X117075857Y-130300428D01*
X116961571Y-130243285D01*
X116618714Y-130243285D01*
X116504428Y-130300428D01*
X116447285Y-130357571D01*
X116390142Y-130471857D01*
X116390142Y-130700428D01*
X116447285Y-130814714D01*
X116504428Y-129728999D02*
X116447285Y-129671857D01*
X116390142Y-129728999D01*
X116447285Y-129786142D01*
X116504428Y-129728999D01*
X116390142Y-129728999D01*
X117133000Y-129728999D02*
X117075857Y-129671857D01*
X117018714Y-129728999D01*
X117075857Y-129786142D01*
X117133000Y-129728999D01*
X117018714Y-129728999D01*
X117647285Y-128300428D02*
X116104428Y-129329000D01*
X117647285Y-127043285D02*
X116104428Y-128071857D01*
X117190142Y-126128999D02*
X116218714Y-126128999D01*
X116104428Y-126186142D01*
X116047285Y-126243285D01*
X115990142Y-126357571D01*
X115990142Y-126528999D01*
X116047285Y-126643285D01*
X116447285Y-126128999D02*
X116390142Y-126243285D01*
X116390142Y-126471857D01*
X116447285Y-126586142D01*
X116504428Y-126643285D01*
X116618714Y-126700428D01*
X116961571Y-126700428D01*
X117075857Y-126643285D01*
X117133000Y-126586142D01*
X117190142Y-126471857D01*
X117190142Y-126243285D01*
X117133000Y-126128999D01*
X116390142Y-125557571D02*
X117190142Y-125557571D01*
X117590142Y-125557571D02*
X117533000Y-125614714D01*
X117475857Y-125557571D01*
X117533000Y-125500428D01*
X117590142Y-125557571D01*
X117475857Y-125557571D01*
X117190142Y-125157571D02*
X117190142Y-124700428D01*
X117590142Y-124986142D02*
X116561571Y-124986142D01*
X116447285Y-124928999D01*
X116390142Y-124814714D01*
X116390142Y-124700428D01*
X116390142Y-124300428D02*
X117590142Y-124300428D01*
X116390142Y-123786142D02*
X117018714Y-123786142D01*
X117133000Y-123843285D01*
X117190142Y-123957571D01*
X117190142Y-124128999D01*
X117133000Y-124243285D01*
X117075857Y-124300428D01*
X117190142Y-122700428D02*
X116390142Y-122700428D01*
X117190142Y-123214714D02*
X116561571Y-123214714D01*
X116447285Y-123157571D01*
X116390142Y-123043285D01*
X116390142Y-122871857D01*
X116447285Y-122757571D01*
X116504428Y-122700428D01*
X116390142Y-122128999D02*
X117590142Y-122128999D01*
X117133000Y-122128999D02*
X117190142Y-122014714D01*
X117190142Y-121786142D01*
X117133000Y-121671857D01*
X117075857Y-121614714D01*
X116961571Y-121557571D01*
X116618714Y-121557571D01*
X116504428Y-121614714D01*
X116447285Y-121671857D01*
X116390142Y-121786142D01*
X116390142Y-122014714D01*
X116447285Y-122128999D01*
X116504428Y-121043285D02*
X116447285Y-120986142D01*
X116390142Y-121043285D01*
X116447285Y-121100428D01*
X116504428Y-121043285D01*
X116390142Y-121043285D01*
X116447285Y-119957571D02*
X116390142Y-120071857D01*
X116390142Y-120300428D01*
X116447285Y-120414714D01*
X116504428Y-120471857D01*
X116618714Y-120528999D01*
X116961571Y-120528999D01*
X117075857Y-120471857D01*
X117133000Y-120414714D01*
X117190142Y-120300428D01*
X117190142Y-120071857D01*
X117133000Y-119957571D01*
X116390142Y-119271857D02*
X116447285Y-119386142D01*
X116504428Y-119443285D01*
X116618714Y-119500428D01*
X116961571Y-119500428D01*
X117075857Y-119443285D01*
X117133000Y-119386142D01*
X117190142Y-119271857D01*
X117190142Y-119100428D01*
X117133000Y-118986142D01*
X117075857Y-118928999D01*
X116961571Y-118871857D01*
X116618714Y-118871857D01*
X116504428Y-118928999D01*
X116447285Y-118986142D01*
X116390142Y-119100428D01*
X116390142Y-119271857D01*
X116390142Y-118357571D02*
X117190142Y-118357571D01*
X117075857Y-118357571D02*
X117133000Y-118300428D01*
X117190142Y-118186142D01*
X117190142Y-118014714D01*
X117133000Y-117900428D01*
X117018714Y-117843285D01*
X116390142Y-117843285D01*
X117018714Y-117843285D02*
X117133000Y-117786142D01*
X117190142Y-117671857D01*
X117190142Y-117500428D01*
X117133000Y-117386142D01*
X117018714Y-117328999D01*
X116390142Y-117328999D01*
X117647285Y-115900428D02*
X116104428Y-116928999D01*
X116390142Y-114986142D02*
X117590142Y-114986142D01*
X116447285Y-114986142D02*
X116390142Y-115100428D01*
X116390142Y-115328999D01*
X116447285Y-115443285D01*
X116504428Y-115500428D01*
X116618714Y-115557571D01*
X116961571Y-115557571D01*
X117075857Y-115500428D01*
X117133000Y-115443285D01*
X117190142Y-115328999D01*
X117190142Y-115100428D01*
X117133000Y-114986142D01*
X116390142Y-113900428D02*
X117018714Y-113900428D01*
X117133000Y-113957571D01*
X117190142Y-114071857D01*
X117190142Y-114300428D01*
X117133000Y-114414714D01*
X116447285Y-113900428D02*
X116390142Y-114014714D01*
X116390142Y-114300428D01*
X116447285Y-114414714D01*
X116561571Y-114471857D01*
X116675857Y-114471857D01*
X116790142Y-114414714D01*
X116847285Y-114300428D01*
X116847285Y-114014714D01*
X116904428Y-113900428D01*
X117190142Y-113443285D02*
X116390142Y-113157571D01*
X117190142Y-112871857D01*
X116390142Y-112414714D02*
X117190142Y-112414714D01*
X117590142Y-112414714D02*
X117533000Y-112471857D01*
X117475857Y-112414714D01*
X117533000Y-112357571D01*
X117590142Y-112414714D01*
X117475857Y-112414714D01*
X116390142Y-111328999D02*
X117590142Y-111328999D01*
X116447285Y-111328999D02*
X116390142Y-111443285D01*
X116390142Y-111671857D01*
X116447285Y-111786142D01*
X116504428Y-111843285D01*
X116618714Y-111900428D01*
X116961571Y-111900428D01*
X117075857Y-111843285D01*
X117133000Y-111786142D01*
X117190142Y-111671857D01*
X117190142Y-111443285D01*
X117133000Y-111328999D01*
X116390142Y-110757571D02*
X117190142Y-110757571D01*
X117075857Y-110757571D02*
X117133000Y-110700428D01*
X117190142Y-110586142D01*
X117190142Y-110414714D01*
X117133000Y-110300428D01*
X117018714Y-110243285D01*
X116390142Y-110243285D01*
X117018714Y-110243285D02*
X117133000Y-110186142D01*
X117190142Y-110071857D01*
X117190142Y-109900428D01*
X117133000Y-109786142D01*
X117018714Y-109728999D01*
X116390142Y-109728999D01*
X117190142Y-109157571D02*
X115990142Y-109157571D01*
X117133000Y-109157571D02*
X117190142Y-109043285D01*
X117190142Y-108814714D01*
X117133000Y-108700428D01*
X117075857Y-108643285D01*
X116961571Y-108586142D01*
X116618714Y-108586142D01*
X116504428Y-108643285D01*
X116447285Y-108700428D01*
X116390142Y-108814714D01*
X116390142Y-109043285D01*
X116447285Y-109157571D01*
X117190142Y-108186142D02*
X116390142Y-107900428D01*
X117190142Y-107614714D02*
X116390142Y-107900428D01*
X116104428Y-108014714D01*
X116047285Y-108071857D01*
X115990142Y-108186142D01*
X116447285Y-106700428D02*
X116390142Y-106814714D01*
X116390142Y-107043285D01*
X116447285Y-107157571D01*
X116561571Y-107214714D01*
X117018714Y-107214714D01*
X117133000Y-107157571D01*
X117190142Y-107043285D01*
X117190142Y-106814714D01*
X117133000Y-106700428D01*
X117018714Y-106643285D01*
X116904428Y-106643285D01*
X116790142Y-107214714D01*
X117647285Y-105271857D02*
X116104428Y-106300428D01*
X117590142Y-105043285D02*
X116390142Y-104643285D01*
X117590142Y-104243285D01*
X117018714Y-103443285D02*
X117018714Y-103843285D01*
X116390142Y-103843285D02*
X117590142Y-103843285D01*
X117590142Y-103271857D01*
X116390142Y-102814714D02*
X117590142Y-102814714D01*
X117590142Y-102528999D01*
X117533000Y-102357571D01*
X117418714Y-102243285D01*
X117304428Y-102186142D01*
X117075857Y-102128999D01*
X116904428Y-102128999D01*
X116675857Y-102186142D01*
X116561571Y-102243285D01*
X116447285Y-102357571D01*
X116390142Y-102528999D01*
X116390142Y-102814714D01*
D10*
X105354571Y-130722666D02*
X104878380Y-130722666D01*
X105449809Y-131008380D02*
X105116476Y-130008380D01*
X104783142Y-131008380D01*
X105116476Y-127690571D02*
X104973619Y-127738190D01*
X104926000Y-127785809D01*
X104878381Y-127881047D01*
X104878381Y-128023904D01*
X104926000Y-128119142D01*
X104973619Y-128166761D01*
X105068857Y-128214380D01*
X105449809Y-128214380D01*
X105449809Y-127214380D01*
X105116476Y-127214380D01*
X105021238Y-127262000D01*
X104973619Y-127309619D01*
X104926000Y-127404857D01*
X104926000Y-127500095D01*
X104973619Y-127595333D01*
X105021238Y-127642952D01*
X105116476Y-127690571D01*
X105449809Y-127690571D01*
X104878381Y-125579142D02*
X104926000Y-125626761D01*
X105068857Y-125674380D01*
X105164095Y-125674380D01*
X105306952Y-125626761D01*
X105402190Y-125531523D01*
X105449809Y-125436285D01*
X105497428Y-125245809D01*
X105497428Y-125102952D01*
X105449809Y-124912476D01*
X105402190Y-124817238D01*
X105306952Y-124722000D01*
X105164095Y-124674380D01*
X105068857Y-124674380D01*
X104926000Y-124722000D01*
X104878381Y-124769619D01*
X105449809Y-123134380D02*
X105449809Y-122134380D01*
X105211714Y-122134380D01*
X105068857Y-122182000D01*
X104973619Y-122277238D01*
X104926000Y-122372476D01*
X104878381Y-122562952D01*
X104878381Y-122705809D01*
X104926000Y-122896285D01*
X104973619Y-122991523D01*
X105068857Y-123086761D01*
X105211714Y-123134380D01*
X105449809Y-123134380D01*
X105354571Y-120324571D02*
X105021238Y-120324571D01*
X104878381Y-120848380D02*
X105354571Y-120848380D01*
X105354571Y-119848380D01*
X104878381Y-119848380D01*
X104973618Y-117530571D02*
X105306952Y-117530571D01*
X105306952Y-118054380D02*
X105306952Y-117054380D01*
X104830761Y-117054380D01*
X104926000Y-114308000D02*
X105021238Y-114260380D01*
X105164095Y-114260380D01*
X105306952Y-114308000D01*
X105402190Y-114403238D01*
X105449809Y-114498476D01*
X105497428Y-114688952D01*
X105497428Y-114831809D01*
X105449809Y-115022285D01*
X105402190Y-115117523D01*
X105306952Y-115212761D01*
X105164095Y-115260380D01*
X105068857Y-115260380D01*
X104926000Y-115212761D01*
X104878381Y-115165142D01*
X104878381Y-114831809D01*
X105068857Y-114831809D01*
X106449809Y-112720380D02*
X106449809Y-111720380D01*
X106211714Y-111720380D01*
X106068857Y-111768000D01*
X105973619Y-111863238D01*
X105926000Y-111958476D01*
X105878381Y-112148952D01*
X105878381Y-112291809D01*
X105926000Y-112482285D01*
X105973619Y-112577523D01*
X106068857Y-112672761D01*
X106211714Y-112720380D01*
X106449809Y-112720380D01*
X105449809Y-112720380D02*
X105449809Y-111720380D01*
X105068857Y-111720380D01*
X104973619Y-111768000D01*
X104926000Y-111815619D01*
X104878381Y-111910857D01*
X104878381Y-112053714D01*
X104926000Y-112148952D01*
X104973619Y-112196571D01*
X105068857Y-112244190D01*
X105449809Y-112244190D01*
X106973618Y-106688000D02*
X107068856Y-106640380D01*
X107211714Y-106640380D01*
X107354571Y-106688000D01*
X107449809Y-106783238D01*
X107497428Y-106878476D01*
X107545047Y-107068952D01*
X107545047Y-107211809D01*
X107497428Y-107402285D01*
X107449809Y-107497523D01*
X107354571Y-107592761D01*
X107211714Y-107640380D01*
X107116475Y-107640380D01*
X106973618Y-107592761D01*
X106925999Y-107545142D01*
X106925999Y-107211809D01*
X107116475Y-107211809D01*
X106497428Y-107640380D02*
X106497428Y-106640380D01*
X105925999Y-107640380D01*
X105925999Y-106640380D01*
X105449809Y-107640380D02*
X105449809Y-106640380D01*
X105211714Y-106640380D01*
X105068856Y-106688000D01*
X104973618Y-106783238D01*
X104925999Y-106878476D01*
X104878380Y-107068952D01*
X104878380Y-107211809D01*
X104925999Y-107402285D01*
X104973618Y-107497523D01*
X105068856Y-107592761D01*
X105211714Y-107640380D01*
X105449809Y-107640380D01*
X108303000Y-105218666D02*
X108303000Y-104518666D01*
X108303000Y-104852000D02*
X107903000Y-104852000D01*
X107903000Y-105218666D02*
X107903000Y-104518666D01*
X107303000Y-105185333D02*
X107369666Y-105218666D01*
X107503000Y-105218666D01*
X107569666Y-105185333D01*
X107603000Y-105118666D01*
X107603000Y-104852000D01*
X107569666Y-104785333D01*
X107503000Y-104752000D01*
X107369666Y-104752000D01*
X107303000Y-104785333D01*
X107269666Y-104852000D01*
X107269666Y-104918666D01*
X107603000Y-104985333D01*
X106669666Y-105218666D02*
X106669666Y-104852000D01*
X106703000Y-104785333D01*
X106769666Y-104752000D01*
X106903000Y-104752000D01*
X106969666Y-104785333D01*
X106669666Y-105185333D02*
X106736333Y-105218666D01*
X106903000Y-105218666D01*
X106969666Y-105185333D01*
X107003000Y-105118666D01*
X107003000Y-105052000D01*
X106969666Y-104985333D01*
X106903000Y-104952000D01*
X106736333Y-104952000D01*
X106669666Y-104918666D01*
X106436333Y-104752000D02*
X106169666Y-104752000D01*
X106336333Y-104518666D02*
X106336333Y-105118666D01*
X106303000Y-105185333D01*
X106236333Y-105218666D01*
X106169666Y-105218666D01*
X105936333Y-104952000D02*
X105403000Y-104952000D01*
X105669666Y-105218666D02*
X105669666Y-104685333D01*
X105169666Y-104518666D02*
X104936333Y-105218666D01*
X104703000Y-104518666D01*
X107969667Y-99884666D02*
X108303000Y-99884666D01*
X108303000Y-99184666D01*
X107736333Y-99518000D02*
X107503000Y-99518000D01*
X107403000Y-99884666D02*
X107736333Y-99884666D01*
X107736333Y-99184666D01*
X107403000Y-99184666D01*
X107103000Y-99884666D02*
X107103000Y-99184666D01*
X106936333Y-99184666D01*
X106836333Y-99218000D01*
X106769667Y-99284666D01*
X106736333Y-99351333D01*
X106703000Y-99484666D01*
X106703000Y-99584666D01*
X106736333Y-99718000D01*
X106769667Y-99784666D01*
X106836333Y-99851333D01*
X106936333Y-99884666D01*
X107103000Y-99884666D01*
X106569667Y-99951333D02*
X106036333Y-99951333D01*
X105869667Y-99884666D02*
X105869667Y-99184666D01*
X105703000Y-99184666D01*
X105603000Y-99218000D01*
X105536333Y-99284666D01*
X105503000Y-99351333D01*
X105469667Y-99484666D01*
X105469667Y-99584666D01*
X105503000Y-99718000D01*
X105536333Y-99784666D01*
X105603000Y-99851333D01*
X105703000Y-99884666D01*
X105869667Y-99884666D01*
X105169667Y-99884666D02*
X105169667Y-99184666D01*
X104836333Y-99884666D02*
X104836333Y-99184666D01*
X104436333Y-99884666D01*
X104436333Y-99184666D01*
D12*
G04 #@! TO.C,REF\002A\002A*
G36*
X115472224Y-129019122D02*
X115471645Y-128913388D01*
X115470078Y-128836868D01*
X115467028Y-128784628D01*
X115462004Y-128751737D01*
X115454511Y-128733263D01*
X115444056Y-128724273D01*
X115430147Y-128719837D01*
X115428346Y-128719406D01*
X115395855Y-128712667D01*
X115331748Y-128700192D01*
X115242849Y-128683281D01*
X115135981Y-128663229D01*
X115017967Y-128641336D01*
X115013822Y-128640571D01*
X114898169Y-128618641D01*
X114795986Y-128598123D01*
X114713402Y-128580341D01*
X114656544Y-128566619D01*
X114631542Y-128558282D01*
X114631099Y-128557884D01*
X114618890Y-128533323D01*
X114598544Y-128482685D01*
X114574455Y-128416905D01*
X114574326Y-128416539D01*
X114543182Y-128333683D01*
X114503509Y-128236000D01*
X114463619Y-128143923D01*
X114461647Y-128139566D01*
X114393580Y-127989593D01*
X114620361Y-127657502D01*
X114689496Y-127555626D01*
X114751303Y-127463343D01*
X114802267Y-127385997D01*
X114838873Y-127328936D01*
X114857606Y-127297505D01*
X114858996Y-127294521D01*
X114852810Y-127271679D01*
X114822965Y-127229018D01*
X114768053Y-127164872D01*
X114686666Y-127077579D01*
X114600078Y-126988465D01*
X114514753Y-126902559D01*
X114436892Y-126825673D01*
X114371303Y-126762436D01*
X114322795Y-126717477D01*
X114296175Y-126695424D01*
X114294805Y-126694604D01*
X114276537Y-126692166D01*
X114246705Y-126701350D01*
X114201279Y-126724426D01*
X114136230Y-126763663D01*
X114047530Y-126821330D01*
X113933343Y-126898205D01*
X113832838Y-126966430D01*
X113742697Y-127027418D01*
X113668151Y-127077644D01*
X113614435Y-127113584D01*
X113586782Y-127131713D01*
X113584905Y-127132854D01*
X113558410Y-127130641D01*
X113506914Y-127113862D01*
X113440149Y-127085858D01*
X113418828Y-127075878D01*
X113323841Y-127032328D01*
X113216063Y-126985866D01*
X113122808Y-126948123D01*
X113053594Y-126920927D01*
X113000994Y-126899325D01*
X112973503Y-126886842D01*
X112971384Y-126885291D01*
X112967876Y-126862332D01*
X112958262Y-126808214D01*
X112943911Y-126730132D01*
X112926193Y-126635281D01*
X112906475Y-126530857D01*
X112886126Y-126424056D01*
X112866514Y-126322074D01*
X112849009Y-126232106D01*
X112834978Y-126161347D01*
X112825791Y-126116994D01*
X112823193Y-126106115D01*
X112816782Y-126094878D01*
X112802303Y-126086395D01*
X112774867Y-126080286D01*
X112729589Y-126076168D01*
X112661580Y-126073659D01*
X112565953Y-126072379D01*
X112437820Y-126071946D01*
X112385299Y-126071923D01*
X111958155Y-126071923D01*
X111937909Y-126174500D01*
X111926930Y-126231569D01*
X111910905Y-126316731D01*
X111891767Y-126419628D01*
X111871449Y-126529904D01*
X111865868Y-126560385D01*
X111846083Y-126662145D01*
X111826627Y-126750795D01*
X111809303Y-126818892D01*
X111795912Y-126858996D01*
X111791921Y-126865677D01*
X111763658Y-126882081D01*
X111708891Y-126905601D01*
X111638412Y-126931684D01*
X111623231Y-126936858D01*
X111529104Y-126971044D01*
X111422899Y-127013477D01*
X111327527Y-127055003D01*
X111327084Y-127055208D01*
X111177475Y-127124360D01*
X110508383Y-126669488D01*
X110215884Y-126961500D01*
X110128830Y-127049820D01*
X110052091Y-127130375D01*
X109989763Y-127198640D01*
X109945944Y-127250092D01*
X109924730Y-127280206D01*
X109923384Y-127284526D01*
X109933984Y-127309889D01*
X109963453Y-127361642D01*
X110008295Y-127434132D01*
X110065016Y-127521706D01*
X110128538Y-127616388D01*
X110193332Y-127712484D01*
X110249713Y-127798163D01*
X110294212Y-127867984D01*
X110323361Y-127916506D01*
X110333692Y-127938218D01*
X110324950Y-127964707D01*
X110301913Y-128014938D01*
X110269369Y-128078549D01*
X110265751Y-128085292D01*
X110222790Y-128170954D01*
X110201721Y-128229694D01*
X110201497Y-128266228D01*
X110221072Y-128285269D01*
X110221346Y-128285380D01*
X110244528Y-128294898D01*
X110299559Y-128317597D01*
X110382178Y-128351718D01*
X110488128Y-128395500D01*
X110613148Y-128447184D01*
X110752980Y-128505008D01*
X110888363Y-128561009D01*
X111037766Y-128622553D01*
X111176168Y-128679061D01*
X111299327Y-128728839D01*
X111402998Y-128770194D01*
X111482941Y-128801432D01*
X111534912Y-128820859D01*
X111554308Y-128826846D01*
X111576557Y-128811832D01*
X111612018Y-128772561D01*
X111651113Y-128720193D01*
X111774755Y-128571059D01*
X111916478Y-128454489D01*
X112073296Y-128371882D01*
X112242225Y-128324634D01*
X112420278Y-128314143D01*
X112502461Y-128321769D01*
X112672969Y-128363318D01*
X112823541Y-128434877D01*
X112952691Y-128532005D01*
X113058936Y-128650266D01*
X113140790Y-128785220D01*
X113196768Y-128932429D01*
X113225385Y-129087456D01*
X113225156Y-129245861D01*
X113194595Y-129403206D01*
X113132218Y-129555054D01*
X113036540Y-129696965D01*
X112982428Y-129756197D01*
X112843480Y-129869797D01*
X112691639Y-129948894D01*
X112531333Y-129994014D01*
X112366988Y-130005684D01*
X112203029Y-129984431D01*
X112043882Y-129930780D01*
X111893975Y-129845260D01*
X111757733Y-129728395D01*
X111651113Y-129597807D01*
X111610358Y-129543412D01*
X111575282Y-129504986D01*
X111554274Y-129491154D01*
X111531365Y-129498397D01*
X111476635Y-129518995D01*
X111394328Y-129551254D01*
X111288685Y-129593479D01*
X111163950Y-129643977D01*
X111024364Y-129701052D01*
X110888330Y-129757146D01*
X110738799Y-129819033D01*
X110600233Y-129876356D01*
X110476893Y-129927356D01*
X110373036Y-129970273D01*
X110292920Y-130003347D01*
X110240805Y-130024819D01*
X110221346Y-130032775D01*
X110201577Y-130051571D01*
X110201635Y-130087926D01*
X110222559Y-130146521D01*
X110265387Y-130232032D01*
X110265751Y-130232708D01*
X110298988Y-130297093D01*
X110323198Y-130349139D01*
X110333596Y-130378488D01*
X110333692Y-130379783D01*
X110323145Y-130401876D01*
X110293816Y-130450652D01*
X110249173Y-130520669D01*
X110192686Y-130606486D01*
X110128538Y-130701612D01*
X110063589Y-130798460D01*
X110007104Y-130885747D01*
X109962579Y-130957819D01*
X109933510Y-131009023D01*
X109923384Y-131033474D01*
X109936693Y-131055990D01*
X109973888Y-131101258D01*
X110030872Y-131164756D01*
X110103551Y-131241961D01*
X110187829Y-131328349D01*
X110215984Y-131356601D01*
X110508584Y-131648713D01*
X110834896Y-131426369D01*
X110935103Y-131358798D01*
X111025037Y-131299493D01*
X111099490Y-131251783D01*
X111153249Y-131218993D01*
X111181106Y-131204452D01*
X111183088Y-131204026D01*
X111209345Y-131211692D01*
X111262163Y-131232311D01*
X111332690Y-131262315D01*
X111379907Y-131283375D01*
X111470306Y-131322752D01*
X111561634Y-131359835D01*
X111638800Y-131388585D01*
X111662308Y-131396395D01*
X111725084Y-131418583D01*
X111773589Y-131440273D01*
X111791921Y-131452187D01*
X111803141Y-131478477D01*
X111819046Y-131535858D01*
X111837833Y-131616882D01*
X111857701Y-131714105D01*
X111865868Y-131757615D01*
X111886171Y-131868104D01*
X111905830Y-131974084D01*
X111922912Y-132065199D01*
X111935482Y-132131092D01*
X111937909Y-132143500D01*
X111958155Y-132246077D01*
X112385299Y-132246077D01*
X112525754Y-132245847D01*
X112632021Y-132244901D01*
X112708987Y-132242859D01*
X112761540Y-132239338D01*
X112794567Y-132233957D01*
X112812955Y-132226334D01*
X112821592Y-132216088D01*
X112823193Y-132211885D01*
X112828873Y-132186530D01*
X112840205Y-132130516D01*
X112855821Y-132051036D01*
X112874353Y-131955288D01*
X112894431Y-131850467D01*
X112914688Y-131743768D01*
X112933754Y-131642387D01*
X112950261Y-131553521D01*
X112962841Y-131484363D01*
X112970125Y-131442111D01*
X112971384Y-131432710D01*
X112988237Y-131424193D01*
X113033130Y-131405340D01*
X113097570Y-131379676D01*
X113122808Y-131369877D01*
X113220314Y-131330352D01*
X113328041Y-131283808D01*
X113418828Y-131242123D01*
X113488247Y-131211450D01*
X113545290Y-131191044D01*
X113580223Y-131184232D01*
X113584905Y-131185318D01*
X113607009Y-131199715D01*
X113656169Y-131232588D01*
X113727152Y-131280410D01*
X113814722Y-131339652D01*
X113913643Y-131406785D01*
X113933170Y-131420059D01*
X114048860Y-131497954D01*
X114136956Y-131555213D01*
X114201514Y-131594119D01*
X114246589Y-131616956D01*
X114276237Y-131626006D01*
X114294515Y-131623552D01*
X114294631Y-131623489D01*
X114318639Y-131604173D01*
X114365053Y-131561449D01*
X114429063Y-131499949D01*
X114505855Y-131424302D01*
X114590618Y-131339139D01*
X114600078Y-131329535D01*
X114704011Y-131222210D01*
X114780325Y-131139385D01*
X114830429Y-131079395D01*
X114855730Y-131040577D01*
X114858996Y-131023480D01*
X114844750Y-130998527D01*
X114811844Y-130946745D01*
X114763792Y-130873480D01*
X114704110Y-130784080D01*
X114636312Y-130683889D01*
X114620361Y-130660499D01*
X114393580Y-130328407D01*
X114461647Y-130178435D01*
X114501315Y-130087230D01*
X114541209Y-129989331D01*
X114573017Y-129905169D01*
X114574326Y-129901462D01*
X114598424Y-129835631D01*
X114618800Y-129784884D01*
X114631064Y-129760158D01*
X114631099Y-129760116D01*
X114653266Y-129752271D01*
X114707783Y-129738934D01*
X114788520Y-129721430D01*
X114889350Y-129701083D01*
X115004144Y-129679218D01*
X115013822Y-129677429D01*
X115132096Y-129655496D01*
X115239458Y-129635360D01*
X115329083Y-129618320D01*
X115394149Y-129605672D01*
X115427832Y-129598716D01*
X115428346Y-129598594D01*
X115442675Y-129594361D01*
X115453493Y-129586129D01*
X115461294Y-129568967D01*
X115466571Y-129537942D01*
X115469818Y-129488122D01*
X115471528Y-129414576D01*
X115472193Y-129312371D01*
X115472307Y-129176575D01*
X115472308Y-129159000D01*
X115472224Y-129019122D01*
X115472224Y-129019122D01*
G37*
X115472224Y-129019122D02*
X115471645Y-128913388D01*
X115470078Y-128836868D01*
X115467028Y-128784628D01*
X115462004Y-128751737D01*
X115454511Y-128733263D01*
X115444056Y-128724273D01*
X115430147Y-128719837D01*
X115428346Y-128719406D01*
X115395855Y-128712667D01*
X115331748Y-128700192D01*
X115242849Y-128683281D01*
X115135981Y-128663229D01*
X115017967Y-128641336D01*
X115013822Y-128640571D01*
X114898169Y-128618641D01*
X114795986Y-128598123D01*
X114713402Y-128580341D01*
X114656544Y-128566619D01*
X114631542Y-128558282D01*
X114631099Y-128557884D01*
X114618890Y-128533323D01*
X114598544Y-128482685D01*
X114574455Y-128416905D01*
X114574326Y-128416539D01*
X114543182Y-128333683D01*
X114503509Y-128236000D01*
X114463619Y-128143923D01*
X114461647Y-128139566D01*
X114393580Y-127989593D01*
X114620361Y-127657502D01*
X114689496Y-127555626D01*
X114751303Y-127463343D01*
X114802267Y-127385997D01*
X114838873Y-127328936D01*
X114857606Y-127297505D01*
X114858996Y-127294521D01*
X114852810Y-127271679D01*
X114822965Y-127229018D01*
X114768053Y-127164872D01*
X114686666Y-127077579D01*
X114600078Y-126988465D01*
X114514753Y-126902559D01*
X114436892Y-126825673D01*
X114371303Y-126762436D01*
X114322795Y-126717477D01*
X114296175Y-126695424D01*
X114294805Y-126694604D01*
X114276537Y-126692166D01*
X114246705Y-126701350D01*
X114201279Y-126724426D01*
X114136230Y-126763663D01*
X114047530Y-126821330D01*
X113933343Y-126898205D01*
X113832838Y-126966430D01*
X113742697Y-127027418D01*
X113668151Y-127077644D01*
X113614435Y-127113584D01*
X113586782Y-127131713D01*
X113584905Y-127132854D01*
X113558410Y-127130641D01*
X113506914Y-127113862D01*
X113440149Y-127085858D01*
X113418828Y-127075878D01*
X113323841Y-127032328D01*
X113216063Y-126985866D01*
X113122808Y-126948123D01*
X113053594Y-126920927D01*
X113000994Y-126899325D01*
X112973503Y-126886842D01*
X112971384Y-126885291D01*
X112967876Y-126862332D01*
X112958262Y-126808214D01*
X112943911Y-126730132D01*
X112926193Y-126635281D01*
X112906475Y-126530857D01*
X112886126Y-126424056D01*
X112866514Y-126322074D01*
X112849009Y-126232106D01*
X112834978Y-126161347D01*
X112825791Y-126116994D01*
X112823193Y-126106115D01*
X112816782Y-126094878D01*
X112802303Y-126086395D01*
X112774867Y-126080286D01*
X112729589Y-126076168D01*
X112661580Y-126073659D01*
X112565953Y-126072379D01*
X112437820Y-126071946D01*
X112385299Y-126071923D01*
X111958155Y-126071923D01*
X111937909Y-126174500D01*
X111926930Y-126231569D01*
X111910905Y-126316731D01*
X111891767Y-126419628D01*
X111871449Y-126529904D01*
X111865868Y-126560385D01*
X111846083Y-126662145D01*
X111826627Y-126750795D01*
X111809303Y-126818892D01*
X111795912Y-126858996D01*
X111791921Y-126865677D01*
X111763658Y-126882081D01*
X111708891Y-126905601D01*
X111638412Y-126931684D01*
X111623231Y-126936858D01*
X111529104Y-126971044D01*
X111422899Y-127013477D01*
X111327527Y-127055003D01*
X111327084Y-127055208D01*
X111177475Y-127124360D01*
X110508383Y-126669488D01*
X110215884Y-126961500D01*
X110128830Y-127049820D01*
X110052091Y-127130375D01*
X109989763Y-127198640D01*
X109945944Y-127250092D01*
X109924730Y-127280206D01*
X109923384Y-127284526D01*
X109933984Y-127309889D01*
X109963453Y-127361642D01*
X110008295Y-127434132D01*
X110065016Y-127521706D01*
X110128538Y-127616388D01*
X110193332Y-127712484D01*
X110249713Y-127798163D01*
X110294212Y-127867984D01*
X110323361Y-127916506D01*
X110333692Y-127938218D01*
X110324950Y-127964707D01*
X110301913Y-128014938D01*
X110269369Y-128078549D01*
X110265751Y-128085292D01*
X110222790Y-128170954D01*
X110201721Y-128229694D01*
X110201497Y-128266228D01*
X110221072Y-128285269D01*
X110221346Y-128285380D01*
X110244528Y-128294898D01*
X110299559Y-128317597D01*
X110382178Y-128351718D01*
X110488128Y-128395500D01*
X110613148Y-128447184D01*
X110752980Y-128505008D01*
X110888363Y-128561009D01*
X111037766Y-128622553D01*
X111176168Y-128679061D01*
X111299327Y-128728839D01*
X111402998Y-128770194D01*
X111482941Y-128801432D01*
X111534912Y-128820859D01*
X111554308Y-128826846D01*
X111576557Y-128811832D01*
X111612018Y-128772561D01*
X111651113Y-128720193D01*
X111774755Y-128571059D01*
X111916478Y-128454489D01*
X112073296Y-128371882D01*
X112242225Y-128324634D01*
X112420278Y-128314143D01*
X112502461Y-128321769D01*
X112672969Y-128363318D01*
X112823541Y-128434877D01*
X112952691Y-128532005D01*
X113058936Y-128650266D01*
X113140790Y-128785220D01*
X113196768Y-128932429D01*
X113225385Y-129087456D01*
X113225156Y-129245861D01*
X113194595Y-129403206D01*
X113132218Y-129555054D01*
X113036540Y-129696965D01*
X112982428Y-129756197D01*
X112843480Y-129869797D01*
X112691639Y-129948894D01*
X112531333Y-129994014D01*
X112366988Y-130005684D01*
X112203029Y-129984431D01*
X112043882Y-129930780D01*
X111893975Y-129845260D01*
X111757733Y-129728395D01*
X111651113Y-129597807D01*
X111610358Y-129543412D01*
X111575282Y-129504986D01*
X111554274Y-129491154D01*
X111531365Y-129498397D01*
X111476635Y-129518995D01*
X111394328Y-129551254D01*
X111288685Y-129593479D01*
X111163950Y-129643977D01*
X111024364Y-129701052D01*
X110888330Y-129757146D01*
X110738799Y-129819033D01*
X110600233Y-129876356D01*
X110476893Y-129927356D01*
X110373036Y-129970273D01*
X110292920Y-130003347D01*
X110240805Y-130024819D01*
X110221346Y-130032775D01*
X110201577Y-130051571D01*
X110201635Y-130087926D01*
X110222559Y-130146521D01*
X110265387Y-130232032D01*
X110265751Y-130232708D01*
X110298988Y-130297093D01*
X110323198Y-130349139D01*
X110333596Y-130378488D01*
X110333692Y-130379783D01*
X110323145Y-130401876D01*
X110293816Y-130450652D01*
X110249173Y-130520669D01*
X110192686Y-130606486D01*
X110128538Y-130701612D01*
X110063589Y-130798460D01*
X110007104Y-130885747D01*
X109962579Y-130957819D01*
X109933510Y-131009023D01*
X109923384Y-131033474D01*
X109936693Y-131055990D01*
X109973888Y-131101258D01*
X110030872Y-131164756D01*
X110103551Y-131241961D01*
X110187829Y-131328349D01*
X110215984Y-131356601D01*
X110508584Y-131648713D01*
X110834896Y-131426369D01*
X110935103Y-131358798D01*
X111025037Y-131299493D01*
X111099490Y-131251783D01*
X111153249Y-131218993D01*
X111181106Y-131204452D01*
X111183088Y-131204026D01*
X111209345Y-131211692D01*
X111262163Y-131232311D01*
X111332690Y-131262315D01*
X111379907Y-131283375D01*
X111470306Y-131322752D01*
X111561634Y-131359835D01*
X111638800Y-131388585D01*
X111662308Y-131396395D01*
X111725084Y-131418583D01*
X111773589Y-131440273D01*
X111791921Y-131452187D01*
X111803141Y-131478477D01*
X111819046Y-131535858D01*
X111837833Y-131616882D01*
X111857701Y-131714105D01*
X111865868Y-131757615D01*
X111886171Y-131868104D01*
X111905830Y-131974084D01*
X111922912Y-132065199D01*
X111935482Y-132131092D01*
X111937909Y-132143500D01*
X111958155Y-132246077D01*
X112385299Y-132246077D01*
X112525754Y-132245847D01*
X112632021Y-132244901D01*
X112708987Y-132242859D01*
X112761540Y-132239338D01*
X112794567Y-132233957D01*
X112812955Y-132226334D01*
X112821592Y-132216088D01*
X112823193Y-132211885D01*
X112828873Y-132186530D01*
X112840205Y-132130516D01*
X112855821Y-132051036D01*
X112874353Y-131955288D01*
X112894431Y-131850467D01*
X112914688Y-131743768D01*
X112933754Y-131642387D01*
X112950261Y-131553521D01*
X112962841Y-131484363D01*
X112970125Y-131442111D01*
X112971384Y-131432710D01*
X112988237Y-131424193D01*
X113033130Y-131405340D01*
X113097570Y-131379676D01*
X113122808Y-131369877D01*
X113220314Y-131330352D01*
X113328041Y-131283808D01*
X113418828Y-131242123D01*
X113488247Y-131211450D01*
X113545290Y-131191044D01*
X113580223Y-131184232D01*
X113584905Y-131185318D01*
X113607009Y-131199715D01*
X113656169Y-131232588D01*
X113727152Y-131280410D01*
X113814722Y-131339652D01*
X113913643Y-131406785D01*
X113933170Y-131420059D01*
X114048860Y-131497954D01*
X114136956Y-131555213D01*
X114201514Y-131594119D01*
X114246589Y-131616956D01*
X114276237Y-131626006D01*
X114294515Y-131623552D01*
X114294631Y-131623489D01*
X114318639Y-131604173D01*
X114365053Y-131561449D01*
X114429063Y-131499949D01*
X114505855Y-131424302D01*
X114590618Y-131339139D01*
X114600078Y-131329535D01*
X114704011Y-131222210D01*
X114780325Y-131139385D01*
X114830429Y-131079395D01*
X114855730Y-131040577D01*
X114858996Y-131023480D01*
X114844750Y-130998527D01*
X114811844Y-130946745D01*
X114763792Y-130873480D01*
X114704110Y-130784080D01*
X114636312Y-130683889D01*
X114620361Y-130660499D01*
X114393580Y-130328407D01*
X114461647Y-130178435D01*
X114501315Y-130087230D01*
X114541209Y-129989331D01*
X114573017Y-129905169D01*
X114574326Y-129901462D01*
X114598424Y-129835631D01*
X114618800Y-129784884D01*
X114631064Y-129760158D01*
X114631099Y-129760116D01*
X114653266Y-129752271D01*
X114707783Y-129738934D01*
X114788520Y-129721430D01*
X114889350Y-129701083D01*
X115004144Y-129679218D01*
X115013822Y-129677429D01*
X115132096Y-129655496D01*
X115239458Y-129635360D01*
X115329083Y-129618320D01*
X115394149Y-129605672D01*
X115427832Y-129598716D01*
X115428346Y-129598594D01*
X115442675Y-129594361D01*
X115453493Y-129586129D01*
X115461294Y-129568967D01*
X115466571Y-129537942D01*
X115469818Y-129488122D01*
X115471528Y-129414576D01*
X115472193Y-129312371D01*
X115472307Y-129176575D01*
X115472308Y-129159000D01*
X115472224Y-129019122D01*
G36*
X109112162Y-124913776D02*
X109061639Y-124836472D01*
X109016410Y-124799186D01*
X108934337Y-124769647D01*
X108869393Y-124767301D01*
X108782555Y-124772615D01*
X108694897Y-124972885D01*
X108650113Y-125070261D01*
X108614087Y-125133887D01*
X108582883Y-125166971D01*
X108552564Y-125172720D01*
X108519195Y-125154342D01*
X108497077Y-125134077D01*
X108461607Y-125075111D01*
X108459121Y-125010976D01*
X108486765Y-124952074D01*
X108541680Y-124908803D01*
X108561072Y-124901064D01*
X108621636Y-124863994D01*
X108647448Y-124821346D01*
X108669529Y-124762846D01*
X108585816Y-124762846D01*
X108528850Y-124768018D01*
X108480811Y-124788277D01*
X108425654Y-124830738D01*
X108418486Y-124837049D01*
X108369415Y-124884280D01*
X108343080Y-124924879D01*
X108330965Y-124975672D01*
X108326997Y-125017780D01*
X108326009Y-125093098D01*
X108338534Y-125146714D01*
X108357131Y-125180162D01*
X108398025Y-125232732D01*
X108442252Y-125269121D01*
X108497874Y-125292150D01*
X108572953Y-125304641D01*
X108675551Y-125309413D01*
X108727624Y-125309794D01*
X108790052Y-125308499D01*
X108790052Y-125190529D01*
X108756562Y-125189161D01*
X108751077Y-125185751D01*
X108758528Y-125163247D01*
X108778247Y-125114818D01*
X108806282Y-125050092D01*
X108812308Y-125036557D01*
X108853904Y-124954756D01*
X108890462Y-124909688D01*
X108924704Y-124899783D01*
X108959352Y-124923474D01*
X108974661Y-124943040D01*
X109005279Y-125013640D01*
X109000220Y-125079720D01*
X108962849Y-125135041D01*
X108896527Y-125173364D01*
X108843884Y-125185651D01*
X108790052Y-125190529D01*
X108790052Y-125308499D01*
X108849280Y-125307270D01*
X108939290Y-125297968D01*
X109004833Y-125279540D01*
X109053088Y-125249640D01*
X109091233Y-125205920D01*
X109103560Y-125186859D01*
X109135664Y-125100274D01*
X109137684Y-125005478D01*
X109112162Y-124913776D01*
X109112162Y-124913776D01*
G37*
X109112162Y-124913776D02*
X109061639Y-124836472D01*
X109016410Y-124799186D01*
X108934337Y-124769647D01*
X108869393Y-124767301D01*
X108782555Y-124772615D01*
X108694897Y-124972885D01*
X108650113Y-125070261D01*
X108614087Y-125133887D01*
X108582883Y-125166971D01*
X108552564Y-125172720D01*
X108519195Y-125154342D01*
X108497077Y-125134077D01*
X108461607Y-125075111D01*
X108459121Y-125010976D01*
X108486765Y-124952074D01*
X108541680Y-124908803D01*
X108561072Y-124901064D01*
X108621636Y-124863994D01*
X108647448Y-124821346D01*
X108669529Y-124762846D01*
X108585816Y-124762846D01*
X108528850Y-124768018D01*
X108480811Y-124788277D01*
X108425654Y-124830738D01*
X108418486Y-124837049D01*
X108369415Y-124884280D01*
X108343080Y-124924879D01*
X108330965Y-124975672D01*
X108326997Y-125017780D01*
X108326009Y-125093098D01*
X108338534Y-125146714D01*
X108357131Y-125180162D01*
X108398025Y-125232732D01*
X108442252Y-125269121D01*
X108497874Y-125292150D01*
X108572953Y-125304641D01*
X108675551Y-125309413D01*
X108727624Y-125309794D01*
X108790052Y-125308499D01*
X108790052Y-125190529D01*
X108756562Y-125189161D01*
X108751077Y-125185751D01*
X108758528Y-125163247D01*
X108778247Y-125114818D01*
X108806282Y-125050092D01*
X108812308Y-125036557D01*
X108853904Y-124954756D01*
X108890462Y-124909688D01*
X108924704Y-124899783D01*
X108959352Y-124923474D01*
X108974661Y-124943040D01*
X109005279Y-125013640D01*
X109000220Y-125079720D01*
X108962849Y-125135041D01*
X108896527Y-125173364D01*
X108843884Y-125185651D01*
X108790052Y-125190529D01*
X108790052Y-125308499D01*
X108849280Y-125307270D01*
X108939290Y-125297968D01*
X109004833Y-125279540D01*
X109053088Y-125249640D01*
X109091233Y-125205920D01*
X109103560Y-125186859D01*
X109135664Y-125100274D01*
X109137684Y-125005478D01*
X109112162Y-124913776D01*
G36*
X109123218Y-125588193D02*
X109113012Y-125564839D01*
X109068866Y-125509098D01*
X109005033Y-125461431D01*
X108936913Y-125431952D01*
X108903330Y-125427154D01*
X108856444Y-125443240D01*
X108831635Y-125478525D01*
X108816613Y-125516356D01*
X108813845Y-125533679D01*
X108833934Y-125542114D01*
X108877649Y-125558770D01*
X108897402Y-125566077D01*
X108965729Y-125607052D01*
X108999809Y-125666378D01*
X108998761Y-125742448D01*
X108997419Y-125748082D01*
X108978164Y-125788695D01*
X108940625Y-125818552D01*
X108880191Y-125838945D01*
X108792249Y-125851164D01*
X108672187Y-125856500D01*
X108608302Y-125857000D01*
X108507597Y-125857248D01*
X108438946Y-125858874D01*
X108395327Y-125863199D01*
X108369718Y-125871546D01*
X108355097Y-125885235D01*
X108344442Y-125905589D01*
X108343905Y-125906766D01*
X108327333Y-125945962D01*
X108321231Y-125965381D01*
X108339681Y-125968365D01*
X108390677Y-125970919D01*
X108467692Y-125972860D01*
X108564195Y-125974003D01*
X108634816Y-125974231D01*
X108771475Y-125973068D01*
X108875149Y-125968521D01*
X108951892Y-125959001D01*
X109007754Y-125942919D01*
X109048788Y-125918687D01*
X109081046Y-125884714D01*
X109103560Y-125851167D01*
X109133524Y-125770501D01*
X109140282Y-125676619D01*
X109123218Y-125588193D01*
X109123218Y-125588193D01*
G37*
X109123218Y-125588193D02*
X109113012Y-125564839D01*
X109068866Y-125509098D01*
X109005033Y-125461431D01*
X108936913Y-125431952D01*
X108903330Y-125427154D01*
X108856444Y-125443240D01*
X108831635Y-125478525D01*
X108816613Y-125516356D01*
X108813845Y-125533679D01*
X108833934Y-125542114D01*
X108877649Y-125558770D01*
X108897402Y-125566077D01*
X108965729Y-125607052D01*
X108999809Y-125666378D01*
X108998761Y-125742448D01*
X108997419Y-125748082D01*
X108978164Y-125788695D01*
X108940625Y-125818552D01*
X108880191Y-125838945D01*
X108792249Y-125851164D01*
X108672187Y-125856500D01*
X108608302Y-125857000D01*
X108507597Y-125857248D01*
X108438946Y-125858874D01*
X108395327Y-125863199D01*
X108369718Y-125871546D01*
X108355097Y-125885235D01*
X108344442Y-125905589D01*
X108343905Y-125906766D01*
X108327333Y-125945962D01*
X108321231Y-125965381D01*
X108339681Y-125968365D01*
X108390677Y-125970919D01*
X108467692Y-125972860D01*
X108564195Y-125974003D01*
X108634816Y-125974231D01*
X108771475Y-125973068D01*
X108875149Y-125968521D01*
X108951892Y-125959001D01*
X109007754Y-125942919D01*
X109048788Y-125918687D01*
X109081046Y-125884714D01*
X109103560Y-125851167D01*
X109133524Y-125770501D01*
X109140282Y-125676619D01*
X109123218Y-125588193D01*
G36*
X109126472Y-126271667D02*
X109100883Y-126215410D01*
X109069876Y-126171253D01*
X109035205Y-126138899D01*
X108990480Y-126116562D01*
X108929308Y-126102454D01*
X108845299Y-126094789D01*
X108732060Y-126091780D01*
X108657491Y-126091462D01*
X108366580Y-126091462D01*
X108343905Y-126141227D01*
X108327333Y-126180424D01*
X108321231Y-126199843D01*
X108339390Y-126203558D01*
X108388352Y-126206505D01*
X108459847Y-126208309D01*
X108516615Y-126208692D01*
X108598629Y-126210339D01*
X108663691Y-126214778D01*
X108703533Y-126221260D01*
X108712000Y-126226410D01*
X108703354Y-126261023D01*
X108681177Y-126315360D01*
X108651114Y-126378278D01*
X108618808Y-126438632D01*
X108589902Y-126485279D01*
X108570039Y-126507074D01*
X108569825Y-126507161D01*
X108533065Y-126505286D01*
X108497974Y-126488475D01*
X108469472Y-126458961D01*
X108459939Y-126415884D01*
X108461050Y-126379068D01*
X108461867Y-126326926D01*
X108449651Y-126299556D01*
X108417376Y-126283118D01*
X108411290Y-126281045D01*
X108365261Y-126273919D01*
X108337313Y-126292976D01*
X108323993Y-126342647D01*
X108321530Y-126396303D01*
X108339790Y-126492858D01*
X108365869Y-126542841D01*
X108427132Y-126604571D01*
X108502330Y-126637310D01*
X108581789Y-126640247D01*
X108655833Y-126612576D01*
X108702231Y-126570953D01*
X108728207Y-126529396D01*
X108761093Y-126464078D01*
X108794443Y-126387962D01*
X108799539Y-126375274D01*
X108836435Y-126291667D01*
X108868954Y-126243470D01*
X108901282Y-126227970D01*
X108937606Y-126242450D01*
X108966000Y-126267308D01*
X109000961Y-126326061D01*
X109003583Y-126390707D01*
X108976642Y-126449992D01*
X108922912Y-126492661D01*
X108909050Y-126498261D01*
X108858064Y-126530867D01*
X108820213Y-126578470D01*
X108789150Y-126638539D01*
X108877232Y-126638539D01*
X108931049Y-126635003D01*
X108973466Y-126619844D01*
X109018721Y-126586232D01*
X109053580Y-126553965D01*
X109102938Y-126503791D01*
X109129453Y-126464807D01*
X109140089Y-126422936D01*
X109141846Y-126375540D01*
X109126472Y-126271667D01*
X109126472Y-126271667D01*
G37*
X109126472Y-126271667D02*
X109100883Y-126215410D01*
X109069876Y-126171253D01*
X109035205Y-126138899D01*
X108990480Y-126116562D01*
X108929308Y-126102454D01*
X108845299Y-126094789D01*
X108732060Y-126091780D01*
X108657491Y-126091462D01*
X108366580Y-126091462D01*
X108343905Y-126141227D01*
X108327333Y-126180424D01*
X108321231Y-126199843D01*
X108339390Y-126203558D01*
X108388352Y-126206505D01*
X108459847Y-126208309D01*
X108516615Y-126208692D01*
X108598629Y-126210339D01*
X108663691Y-126214778D01*
X108703533Y-126221260D01*
X108712000Y-126226410D01*
X108703354Y-126261023D01*
X108681177Y-126315360D01*
X108651114Y-126378278D01*
X108618808Y-126438632D01*
X108589902Y-126485279D01*
X108570039Y-126507074D01*
X108569825Y-126507161D01*
X108533065Y-126505286D01*
X108497974Y-126488475D01*
X108469472Y-126458961D01*
X108459939Y-126415884D01*
X108461050Y-126379068D01*
X108461867Y-126326926D01*
X108449651Y-126299556D01*
X108417376Y-126283118D01*
X108411290Y-126281045D01*
X108365261Y-126273919D01*
X108337313Y-126292976D01*
X108323993Y-126342647D01*
X108321530Y-126396303D01*
X108339790Y-126492858D01*
X108365869Y-126542841D01*
X108427132Y-126604571D01*
X108502330Y-126637310D01*
X108581789Y-126640247D01*
X108655833Y-126612576D01*
X108702231Y-126570953D01*
X108728207Y-126529396D01*
X108761093Y-126464078D01*
X108794443Y-126387962D01*
X108799539Y-126375274D01*
X108836435Y-126291667D01*
X108868954Y-126243470D01*
X108901282Y-126227970D01*
X108937606Y-126242450D01*
X108966000Y-126267308D01*
X109000961Y-126326061D01*
X109003583Y-126390707D01*
X108976642Y-126449992D01*
X108922912Y-126492661D01*
X108909050Y-126498261D01*
X108858064Y-126530867D01*
X108820213Y-126578470D01*
X108789150Y-126638539D01*
X108877232Y-126638539D01*
X108931049Y-126635003D01*
X108973466Y-126619844D01*
X109018721Y-126586232D01*
X109053580Y-126553965D01*
X109102938Y-126503791D01*
X109129453Y-126464807D01*
X109140089Y-126422936D01*
X109141846Y-126375540D01*
X109126472Y-126271667D01*
G36*
X109123338Y-126763071D02*
X109071932Y-126760089D01*
X108993808Y-126757753D01*
X108895143Y-126756251D01*
X108791657Y-126755769D01*
X108441467Y-126755769D01*
X108379637Y-126817599D01*
X108341538Y-126860207D01*
X108326105Y-126897610D01*
X108327082Y-126948730D01*
X108329567Y-126969022D01*
X108336800Y-127032446D01*
X108340945Y-127084905D01*
X108341328Y-127097692D01*
X108338824Y-127140801D01*
X108332538Y-127202456D01*
X108329567Y-127226362D01*
X108324972Y-127285078D01*
X108334954Y-127324536D01*
X108365772Y-127363662D01*
X108379637Y-127377785D01*
X108441467Y-127439615D01*
X109096497Y-127439615D01*
X109119171Y-127389850D01*
X109135966Y-127346998D01*
X109141846Y-127321927D01*
X109123264Y-127315499D01*
X109071345Y-127309491D01*
X108991828Y-127304303D01*
X108890454Y-127300336D01*
X108804808Y-127298423D01*
X108467769Y-127293077D01*
X108461175Y-127246440D01*
X108465786Y-127204024D01*
X108480713Y-127183240D01*
X108508623Y-127177430D01*
X108568075Y-127172470D01*
X108651534Y-127168754D01*
X108751468Y-127166676D01*
X108802896Y-127166376D01*
X109098946Y-127166077D01*
X109120396Y-127104546D01*
X109134980Y-127060996D01*
X109141781Y-127037306D01*
X109141846Y-127036623D01*
X109123358Y-127034246D01*
X109072094Y-127031634D01*
X108994351Y-127029005D01*
X108896426Y-127026579D01*
X108804808Y-127024885D01*
X108467769Y-127019539D01*
X108467769Y-126902308D01*
X108775254Y-126896928D01*
X109082739Y-126891549D01*
X109112293Y-126834399D01*
X109132587Y-126792203D01*
X109141796Y-126767230D01*
X109141846Y-126766509D01*
X109123338Y-126763071D01*
X109123338Y-126763071D01*
G37*
X109123338Y-126763071D02*
X109071932Y-126760089D01*
X108993808Y-126757753D01*
X108895143Y-126756251D01*
X108791657Y-126755769D01*
X108441467Y-126755769D01*
X108379637Y-126817599D01*
X108341538Y-126860207D01*
X108326105Y-126897610D01*
X108327082Y-126948730D01*
X108329567Y-126969022D01*
X108336800Y-127032446D01*
X108340945Y-127084905D01*
X108341328Y-127097692D01*
X108338824Y-127140801D01*
X108332538Y-127202456D01*
X108329567Y-127226362D01*
X108324972Y-127285078D01*
X108334954Y-127324536D01*
X108365772Y-127363662D01*
X108379637Y-127377785D01*
X108441467Y-127439615D01*
X109096497Y-127439615D01*
X109119171Y-127389850D01*
X109135966Y-127346998D01*
X109141846Y-127321927D01*
X109123264Y-127315499D01*
X109071345Y-127309491D01*
X108991828Y-127304303D01*
X108890454Y-127300336D01*
X108804808Y-127298423D01*
X108467769Y-127293077D01*
X108461175Y-127246440D01*
X108465786Y-127204024D01*
X108480713Y-127183240D01*
X108508623Y-127177430D01*
X108568075Y-127172470D01*
X108651534Y-127168754D01*
X108751468Y-127166676D01*
X108802896Y-127166376D01*
X109098946Y-127166077D01*
X109120396Y-127104546D01*
X109134980Y-127060996D01*
X109141781Y-127037306D01*
X109141846Y-127036623D01*
X109123358Y-127034246D01*
X109072094Y-127031634D01*
X108994351Y-127029005D01*
X108896426Y-127026579D01*
X108804808Y-127024885D01*
X108467769Y-127019539D01*
X108467769Y-126902308D01*
X108775254Y-126896928D01*
X109082739Y-126891549D01*
X109112293Y-126834399D01*
X109132587Y-126792203D01*
X109141796Y-126767230D01*
X109141846Y-126766509D01*
X109123338Y-126763071D01*
G36*
X108979711Y-127556919D02*
X108833680Y-127557167D01*
X108721345Y-127558128D01*
X108637322Y-127560206D01*
X108576231Y-127563807D01*
X108532691Y-127569335D01*
X108501321Y-127577196D01*
X108476738Y-127587793D01*
X108462706Y-127595818D01*
X108386612Y-127662272D01*
X108338916Y-127746530D01*
X108321801Y-127839751D01*
X108337454Y-127933100D01*
X108365582Y-127988688D01*
X108414240Y-128047043D01*
X108473667Y-128086814D01*
X108551493Y-128110810D01*
X108655348Y-128121839D01*
X108731538Y-128123401D01*
X108737014Y-128123191D01*
X108737014Y-127986692D01*
X108649645Y-127985859D01*
X108591808Y-127982039D01*
X108553971Y-127973254D01*
X108526602Y-127957526D01*
X108505958Y-127938734D01*
X108466110Y-127875625D01*
X108462705Y-127807863D01*
X108495975Y-127743821D01*
X108500483Y-127738836D01*
X108523933Y-127717561D01*
X108551834Y-127704221D01*
X108593359Y-127696999D01*
X108657684Y-127694077D01*
X108728800Y-127693615D01*
X108818142Y-127694617D01*
X108877742Y-127698762D01*
X108916911Y-127707764D01*
X108944960Y-127723333D01*
X108959856Y-127736098D01*
X108997425Y-127795400D01*
X109001943Y-127863699D01*
X108973247Y-127928890D01*
X108962594Y-127941472D01*
X108938937Y-127962889D01*
X108910749Y-127976256D01*
X108868755Y-127983434D01*
X108803681Y-127986281D01*
X108737014Y-127986692D01*
X108737014Y-128123191D01*
X108854235Y-128118678D01*
X108946423Y-128102638D01*
X109015731Y-128072472D01*
X109069789Y-128025371D01*
X109097495Y-127988688D01*
X109127428Y-127922010D01*
X109141322Y-127844728D01*
X109137603Y-127772890D01*
X109122600Y-127732692D01*
X109118330Y-127716918D01*
X109134250Y-127706450D01*
X109176911Y-127699144D01*
X109241894Y-127693615D01*
X109314268Y-127687563D01*
X109357813Y-127679156D01*
X109382713Y-127663859D01*
X109399155Y-127637136D01*
X109406436Y-127620346D01*
X109433037Y-127556846D01*
X108979711Y-127556919D01*
X108979711Y-127556919D01*
G37*
X108979711Y-127556919D02*
X108833680Y-127557167D01*
X108721345Y-127558128D01*
X108637322Y-127560206D01*
X108576231Y-127563807D01*
X108532691Y-127569335D01*
X108501321Y-127577196D01*
X108476738Y-127587793D01*
X108462706Y-127595818D01*
X108386612Y-127662272D01*
X108338916Y-127746530D01*
X108321801Y-127839751D01*
X108337454Y-127933100D01*
X108365582Y-127988688D01*
X108414240Y-128047043D01*
X108473667Y-128086814D01*
X108551493Y-128110810D01*
X108655348Y-128121839D01*
X108731538Y-128123401D01*
X108737014Y-128123191D01*
X108737014Y-127986692D01*
X108649645Y-127985859D01*
X108591808Y-127982039D01*
X108553971Y-127973254D01*
X108526602Y-127957526D01*
X108505958Y-127938734D01*
X108466110Y-127875625D01*
X108462705Y-127807863D01*
X108495975Y-127743821D01*
X108500483Y-127738836D01*
X108523933Y-127717561D01*
X108551834Y-127704221D01*
X108593359Y-127696999D01*
X108657684Y-127694077D01*
X108728800Y-127693615D01*
X108818142Y-127694617D01*
X108877742Y-127698762D01*
X108916911Y-127707764D01*
X108944960Y-127723333D01*
X108959856Y-127736098D01*
X108997425Y-127795400D01*
X109001943Y-127863699D01*
X108973247Y-127928890D01*
X108962594Y-127941472D01*
X108938937Y-127962889D01*
X108910749Y-127976256D01*
X108868755Y-127983434D01*
X108803681Y-127986281D01*
X108737014Y-127986692D01*
X108737014Y-128123191D01*
X108854235Y-128118678D01*
X108946423Y-128102638D01*
X109015731Y-128072472D01*
X109069789Y-128025371D01*
X109097495Y-127988688D01*
X109127428Y-127922010D01*
X109141322Y-127844728D01*
X109137603Y-127772890D01*
X109122600Y-127732692D01*
X109118330Y-127716918D01*
X109134250Y-127706450D01*
X109176911Y-127699144D01*
X109241894Y-127693615D01*
X109314268Y-127687563D01*
X109357813Y-127679156D01*
X109382713Y-127663859D01*
X109399155Y-127637136D01*
X109406436Y-127620346D01*
X109433037Y-127556846D01*
X108979711Y-127556919D01*
G36*
X109135330Y-128445638D02*
X109102579Y-128356883D01*
X109044650Y-128284978D01*
X109003872Y-128256856D01*
X108929046Y-128226198D01*
X108874942Y-128226835D01*
X108838554Y-128259013D01*
X108832367Y-128270919D01*
X108813075Y-128322325D01*
X108818018Y-128348578D01*
X108850413Y-128357470D01*
X108868308Y-128357923D01*
X108934141Y-128374203D01*
X108980193Y-128416635D01*
X109002436Y-128475612D01*
X108996839Y-128541525D01*
X108967771Y-128595105D01*
X108951190Y-128613202D01*
X108931075Y-128626029D01*
X108900668Y-128634694D01*
X108853212Y-128640304D01*
X108781950Y-128643965D01*
X108680125Y-128646785D01*
X108647885Y-128647516D01*
X108537590Y-128650180D01*
X108459964Y-128653208D01*
X108408604Y-128657750D01*
X108377110Y-128664954D01*
X108359080Y-128675967D01*
X108348112Y-128691940D01*
X108343267Y-128702166D01*
X108326699Y-128745594D01*
X108321231Y-128771158D01*
X108339493Y-128779605D01*
X108394704Y-128784761D01*
X108487501Y-128786654D01*
X108618522Y-128785311D01*
X108638731Y-128784893D01*
X108758267Y-128781942D01*
X108845551Y-128778452D01*
X108907409Y-128773486D01*
X108950664Y-128766107D01*
X108982140Y-128755376D01*
X109008661Y-128740355D01*
X109020025Y-128732498D01*
X109070308Y-128687447D01*
X109109419Y-128637060D01*
X109112833Y-128630892D01*
X109139788Y-128540542D01*
X109135330Y-128445638D01*
X109135330Y-128445638D01*
G37*
X109135330Y-128445638D02*
X109102579Y-128356883D01*
X109044650Y-128284978D01*
X109003872Y-128256856D01*
X108929046Y-128226198D01*
X108874942Y-128226835D01*
X108838554Y-128259013D01*
X108832367Y-128270919D01*
X108813075Y-128322325D01*
X108818018Y-128348578D01*
X108850413Y-128357470D01*
X108868308Y-128357923D01*
X108934141Y-128374203D01*
X108980193Y-128416635D01*
X109002436Y-128475612D01*
X108996839Y-128541525D01*
X108967771Y-128595105D01*
X108951190Y-128613202D01*
X108931075Y-128626029D01*
X108900668Y-128634694D01*
X108853212Y-128640304D01*
X108781950Y-128643965D01*
X108680125Y-128646785D01*
X108647885Y-128647516D01*
X108537590Y-128650180D01*
X108459964Y-128653208D01*
X108408604Y-128657750D01*
X108377110Y-128664954D01*
X108359080Y-128675967D01*
X108348112Y-128691940D01*
X108343267Y-128702166D01*
X108326699Y-128745594D01*
X108321231Y-128771158D01*
X108339493Y-128779605D01*
X108394704Y-128784761D01*
X108487501Y-128786654D01*
X108618522Y-128785311D01*
X108638731Y-128784893D01*
X108758267Y-128781942D01*
X108845551Y-128778452D01*
X108907409Y-128773486D01*
X108950664Y-128766107D01*
X108982140Y-128755376D01*
X109008661Y-128740355D01*
X109020025Y-128732498D01*
X109070308Y-128687447D01*
X109109419Y-128637060D01*
X109112833Y-128630892D01*
X109139788Y-128540542D01*
X109135330Y-128445638D01*
G36*
X109133697Y-129105499D02*
X109105267Y-129028940D01*
X109104721Y-129028064D01*
X109069873Y-128980715D01*
X109029148Y-128945759D01*
X108976075Y-128921175D01*
X108904186Y-128904938D01*
X108807008Y-128895025D01*
X108678072Y-128889414D01*
X108659702Y-128888923D01*
X108382713Y-128881859D01*
X108351972Y-128941305D01*
X108331198Y-128984319D01*
X108321354Y-129010290D01*
X108321231Y-129011491D01*
X108339394Y-129015986D01*
X108388388Y-129019556D01*
X108459969Y-129021752D01*
X108517932Y-129022231D01*
X108611830Y-129022242D01*
X108670797Y-129026534D01*
X108698921Y-129041497D01*
X108700294Y-129073518D01*
X108679002Y-129128986D01*
X108639864Y-129212731D01*
X108607357Y-129274311D01*
X108579155Y-129305983D01*
X108548418Y-129315294D01*
X108546896Y-129315308D01*
X108493946Y-129299943D01*
X108465340Y-129254453D01*
X108461197Y-129184834D01*
X108461916Y-129134687D01*
X108447473Y-129108246D01*
X108412782Y-129091757D01*
X108368584Y-129082267D01*
X108343507Y-129095943D01*
X108339918Y-129101093D01*
X108325504Y-129149575D01*
X108323463Y-129217469D01*
X108333017Y-129287388D01*
X108350478Y-129336932D01*
X108408636Y-129405430D01*
X108489592Y-129444366D01*
X108552840Y-129452077D01*
X108609889Y-129446193D01*
X108656458Y-129424899D01*
X108697819Y-129382735D01*
X108739245Y-129314241D01*
X108786007Y-129213956D01*
X108788650Y-129207846D01*
X108830383Y-129117510D01*
X108864609Y-129061765D01*
X108895365Y-129037871D01*
X108926689Y-129043087D01*
X108962617Y-129074672D01*
X108970884Y-129084117D01*
X109002942Y-129147383D01*
X109001593Y-129212936D01*
X108970162Y-129270028D01*
X108911976Y-129307907D01*
X108900554Y-129311426D01*
X108845163Y-129345700D01*
X108818482Y-129389191D01*
X108792040Y-129452077D01*
X108860452Y-129452077D01*
X108959890Y-129432948D01*
X109051098Y-129376169D01*
X109081611Y-129346622D01*
X109120772Y-129279458D01*
X109138500Y-129194044D01*
X109133697Y-129105499D01*
X109133697Y-129105499D01*
G37*
X109133697Y-129105499D02*
X109105267Y-129028940D01*
X109104721Y-129028064D01*
X109069873Y-128980715D01*
X109029148Y-128945759D01*
X108976075Y-128921175D01*
X108904186Y-128904938D01*
X108807008Y-128895025D01*
X108678072Y-128889414D01*
X108659702Y-128888923D01*
X108382713Y-128881859D01*
X108351972Y-128941305D01*
X108331198Y-128984319D01*
X108321354Y-129010290D01*
X108321231Y-129011491D01*
X108339394Y-129015986D01*
X108388388Y-129019556D01*
X108459969Y-129021752D01*
X108517932Y-129022231D01*
X108611830Y-129022242D01*
X108670797Y-129026534D01*
X108698921Y-129041497D01*
X108700294Y-129073518D01*
X108679002Y-129128986D01*
X108639864Y-129212731D01*
X108607357Y-129274311D01*
X108579155Y-129305983D01*
X108548418Y-129315294D01*
X108546896Y-129315308D01*
X108493946Y-129299943D01*
X108465340Y-129254453D01*
X108461197Y-129184834D01*
X108461916Y-129134687D01*
X108447473Y-129108246D01*
X108412782Y-129091757D01*
X108368584Y-129082267D01*
X108343507Y-129095943D01*
X108339918Y-129101093D01*
X108325504Y-129149575D01*
X108323463Y-129217469D01*
X108333017Y-129287388D01*
X108350478Y-129336932D01*
X108408636Y-129405430D01*
X108489592Y-129444366D01*
X108552840Y-129452077D01*
X108609889Y-129446193D01*
X108656458Y-129424899D01*
X108697819Y-129382735D01*
X108739245Y-129314241D01*
X108786007Y-129213956D01*
X108788650Y-129207846D01*
X108830383Y-129117510D01*
X108864609Y-129061765D01*
X108895365Y-129037871D01*
X108926689Y-129043087D01*
X108962617Y-129074672D01*
X108970884Y-129084117D01*
X109002942Y-129147383D01*
X109001593Y-129212936D01*
X108970162Y-129270028D01*
X108911976Y-129307907D01*
X108900554Y-129311426D01*
X108845163Y-129345700D01*
X108818482Y-129389191D01*
X108792040Y-129452077D01*
X108860452Y-129452077D01*
X108959890Y-129432948D01*
X109051098Y-129376169D01*
X109081611Y-129346622D01*
X109120772Y-129279458D01*
X109138500Y-129194044D01*
X109133697Y-129105499D01*
G36*
X109267880Y-129999154D02*
X109188020Y-129993428D01*
X109140961Y-129986851D01*
X109120434Y-129977738D01*
X109120171Y-129964402D01*
X109122622Y-129960077D01*
X109140364Y-129902556D01*
X109139328Y-129827732D01*
X109121090Y-129751661D01*
X109097495Y-129704082D01*
X109059802Y-129655298D01*
X109017145Y-129619636D01*
X108962943Y-129595155D01*
X108890616Y-129579913D01*
X108793581Y-129571970D01*
X108665258Y-129569384D01*
X108640642Y-129569338D01*
X108364130Y-129569308D01*
X108342680Y-129630839D01*
X108328088Y-129674541D01*
X108321294Y-129698518D01*
X108321231Y-129699223D01*
X108339655Y-129701585D01*
X108390474Y-129703594D01*
X108467007Y-129705099D01*
X108562570Y-129705947D01*
X108620671Y-129706077D01*
X108735229Y-129706349D01*
X108817333Y-129707748D01*
X108873607Y-129711151D01*
X108910674Y-129717433D01*
X108935156Y-129727471D01*
X108953675Y-129742139D01*
X108962594Y-129751298D01*
X108998534Y-129814211D01*
X109001225Y-129882864D01*
X108970830Y-129945152D01*
X108959856Y-129956671D01*
X108939221Y-129973567D01*
X108914744Y-129985286D01*
X108879353Y-129992767D01*
X108825974Y-129996946D01*
X108747534Y-129998763D01*
X108639383Y-129999154D01*
X108364130Y-129999154D01*
X108342680Y-130060685D01*
X108328088Y-130104387D01*
X108321294Y-130128364D01*
X108321231Y-130129070D01*
X108339931Y-130130874D01*
X108392678Y-130132500D01*
X108474443Y-130133883D01*
X108580195Y-130134958D01*
X108704906Y-130135660D01*
X108843545Y-130135923D01*
X109378194Y-130135923D01*
X109431764Y-130008923D01*
X109267880Y-129999154D01*
X109267880Y-129999154D01*
G37*
X109267880Y-129999154D02*
X109188020Y-129993428D01*
X109140961Y-129986851D01*
X109120434Y-129977738D01*
X109120171Y-129964402D01*
X109122622Y-129960077D01*
X109140364Y-129902556D01*
X109139328Y-129827732D01*
X109121090Y-129751661D01*
X109097495Y-129704082D01*
X109059802Y-129655298D01*
X109017145Y-129619636D01*
X108962943Y-129595155D01*
X108890616Y-129579913D01*
X108793581Y-129571970D01*
X108665258Y-129569384D01*
X108640642Y-129569338D01*
X108364130Y-129569308D01*
X108342680Y-129630839D01*
X108328088Y-129674541D01*
X108321294Y-129698518D01*
X108321231Y-129699223D01*
X108339655Y-129701585D01*
X108390474Y-129703594D01*
X108467007Y-129705099D01*
X108562570Y-129705947D01*
X108620671Y-129706077D01*
X108735229Y-129706349D01*
X108817333Y-129707748D01*
X108873607Y-129711151D01*
X108910674Y-129717433D01*
X108935156Y-129727471D01*
X108953675Y-129742139D01*
X108962594Y-129751298D01*
X108998534Y-129814211D01*
X109001225Y-129882864D01*
X108970830Y-129945152D01*
X108959856Y-129956671D01*
X108939221Y-129973567D01*
X108914744Y-129985286D01*
X108879353Y-129992767D01*
X108825974Y-129996946D01*
X108747534Y-129998763D01*
X108639383Y-129999154D01*
X108364130Y-129999154D01*
X108342680Y-130060685D01*
X108328088Y-130104387D01*
X108321294Y-130128364D01*
X108321231Y-130129070D01*
X108339931Y-130130874D01*
X108392678Y-130132500D01*
X108474443Y-130133883D01*
X108580195Y-130134958D01*
X108704906Y-130135660D01*
X108843545Y-130135923D01*
X109378194Y-130135923D01*
X109431764Y-130008923D01*
X109267880Y-129999154D01*
G36*
X109160255Y-131624746D02*
X109108433Y-131547714D01*
X109033588Y-131488184D01*
X108938346Y-131452622D01*
X108868244Y-131445429D01*
X108838991Y-131446246D01*
X108816593Y-131453086D01*
X108796526Y-131471888D01*
X108774267Y-131508592D01*
X108745291Y-131569138D01*
X108705073Y-131659466D01*
X108704871Y-131659923D01*
X108666790Y-131743067D01*
X108632975Y-131811247D01*
X108607067Y-131857495D01*
X108592705Y-131874842D01*
X108592589Y-131874846D01*
X108561315Y-131859557D01*
X108526843Y-131823804D01*
X108502010Y-131782758D01*
X108497077Y-131761963D01*
X108514138Y-131705230D01*
X108556867Y-131656373D01*
X108603845Y-131632535D01*
X108638478Y-131609603D01*
X108677919Y-131564682D01*
X108711991Y-131511877D01*
X108730520Y-131465290D01*
X108731538Y-131455548D01*
X108714785Y-131444582D01*
X108671961Y-131443921D01*
X108614219Y-131451980D01*
X108552711Y-131467173D01*
X108498591Y-131487914D01*
X108496490Y-131488962D01*
X108409340Y-131551379D01*
X108350061Y-131632274D01*
X108320966Y-131724144D01*
X108324366Y-131819487D01*
X108362572Y-131910802D01*
X108365259Y-131914862D01*
X108430358Y-131986694D01*
X108515295Y-132033927D01*
X108626979Y-132060066D01*
X108658357Y-132063574D01*
X108806464Y-132069787D01*
X108875532Y-132062339D01*
X108875532Y-131874846D01*
X108832448Y-131872410D01*
X108819874Y-131859086D01*
X108829281Y-131825868D01*
X108851517Y-131773506D01*
X108879390Y-131714976D01*
X108880128Y-131713521D01*
X108906223Y-131663911D01*
X108923637Y-131644000D01*
X108941893Y-131648910D01*
X108965880Y-131669584D01*
X109000594Y-131722181D01*
X109003144Y-131778823D01*
X108977881Y-131829631D01*
X108929153Y-131864724D01*
X108875532Y-131874846D01*
X108875532Y-132062339D01*
X108924964Y-132057008D01*
X109018945Y-132024222D01*
X109084785Y-131978579D01*
X109151319Y-131896198D01*
X109184324Y-131805454D01*
X109186427Y-131712815D01*
X109160255Y-131624746D01*
X109160255Y-131624746D01*
G37*
X109160255Y-131624746D02*
X109108433Y-131547714D01*
X109033588Y-131488184D01*
X108938346Y-131452622D01*
X108868244Y-131445429D01*
X108838991Y-131446246D01*
X108816593Y-131453086D01*
X108796526Y-131471888D01*
X108774267Y-131508592D01*
X108745291Y-131569138D01*
X108705073Y-131659466D01*
X108704871Y-131659923D01*
X108666790Y-131743067D01*
X108632975Y-131811247D01*
X108607067Y-131857495D01*
X108592705Y-131874842D01*
X108592589Y-131874846D01*
X108561315Y-131859557D01*
X108526843Y-131823804D01*
X108502010Y-131782758D01*
X108497077Y-131761963D01*
X108514138Y-131705230D01*
X108556867Y-131656373D01*
X108603845Y-131632535D01*
X108638478Y-131609603D01*
X108677919Y-131564682D01*
X108711991Y-131511877D01*
X108730520Y-131465290D01*
X108731538Y-131455548D01*
X108714785Y-131444582D01*
X108671961Y-131443921D01*
X108614219Y-131451980D01*
X108552711Y-131467173D01*
X108498591Y-131487914D01*
X108496490Y-131488962D01*
X108409340Y-131551379D01*
X108350061Y-131632274D01*
X108320966Y-131724144D01*
X108324366Y-131819487D01*
X108362572Y-131910802D01*
X108365259Y-131914862D01*
X108430358Y-131986694D01*
X108515295Y-132033927D01*
X108626979Y-132060066D01*
X108658357Y-132063574D01*
X108806464Y-132069787D01*
X108875532Y-132062339D01*
X108875532Y-131874846D01*
X108832448Y-131872410D01*
X108819874Y-131859086D01*
X108829281Y-131825868D01*
X108851517Y-131773506D01*
X108879390Y-131714976D01*
X108880128Y-131713521D01*
X108906223Y-131663911D01*
X108923637Y-131644000D01*
X108941893Y-131648910D01*
X108965880Y-131669584D01*
X109000594Y-131722181D01*
X109003144Y-131778823D01*
X108977881Y-131829631D01*
X108929153Y-131864724D01*
X108875532Y-131874846D01*
X108875532Y-132062339D01*
X108924964Y-132057008D01*
X109018945Y-132024222D01*
X109084785Y-131978579D01*
X109151319Y-131896198D01*
X109184324Y-131805454D01*
X109186427Y-131712815D01*
X109160255Y-131624746D01*
G36*
X109172744Y-133142114D02*
X109124591Y-133050536D01*
X109047095Y-132982951D01*
X108997273Y-132958943D01*
X108922467Y-132940262D01*
X108827948Y-132930699D01*
X108724790Y-132929792D01*
X108624065Y-132937079D01*
X108536847Y-132952097D01*
X108474209Y-132974385D01*
X108463421Y-132981235D01*
X108382895Y-133062368D01*
X108334664Y-133158734D01*
X108320550Y-133263299D01*
X108342371Y-133369032D01*
X108355453Y-133398457D01*
X108395769Y-133455759D01*
X108449225Y-133506050D01*
X108456005Y-133510803D01*
X108488679Y-133530122D01*
X108523606Y-133542892D01*
X108569586Y-133550436D01*
X108635416Y-133554076D01*
X108729895Y-133555135D01*
X108751077Y-133555154D01*
X108757818Y-133555106D01*
X108757818Y-133359769D01*
X108668651Y-133358632D01*
X108609480Y-133354159D01*
X108571259Y-133344754D01*
X108544947Y-133328824D01*
X108536154Y-133320692D01*
X108502739Y-133273942D01*
X108504263Y-133228553D01*
X108533248Y-133182660D01*
X108564191Y-133155288D01*
X108609357Y-133139077D01*
X108680580Y-133129974D01*
X108688886Y-133129349D01*
X108817963Y-133127796D01*
X108913828Y-133144035D01*
X108975893Y-133177848D01*
X109003568Y-133229016D01*
X109005077Y-133247280D01*
X108997487Y-133295240D01*
X108971192Y-133328047D01*
X108920905Y-133348105D01*
X108841336Y-133357822D01*
X108757818Y-133359769D01*
X108757818Y-133555106D01*
X108851751Y-133554426D01*
X108922094Y-133551371D01*
X108970837Y-133544678D01*
X109006712Y-133533040D01*
X109038452Y-133515147D01*
X109044352Y-133511192D01*
X109123896Y-133444733D01*
X109170071Y-133372315D01*
X109188401Y-133284151D01*
X109189297Y-133254213D01*
X109172744Y-133142114D01*
X109172744Y-133142114D01*
G37*
X109172744Y-133142114D02*
X109124591Y-133050536D01*
X109047095Y-132982951D01*
X108997273Y-132958943D01*
X108922467Y-132940262D01*
X108827948Y-132930699D01*
X108724790Y-132929792D01*
X108624065Y-132937079D01*
X108536847Y-132952097D01*
X108474209Y-132974385D01*
X108463421Y-132981235D01*
X108382895Y-133062368D01*
X108334664Y-133158734D01*
X108320550Y-133263299D01*
X108342371Y-133369032D01*
X108355453Y-133398457D01*
X108395769Y-133455759D01*
X108449225Y-133506050D01*
X108456005Y-133510803D01*
X108488679Y-133530122D01*
X108523606Y-133542892D01*
X108569586Y-133550436D01*
X108635416Y-133554076D01*
X108729895Y-133555135D01*
X108751077Y-133555154D01*
X108757818Y-133555106D01*
X108757818Y-133359769D01*
X108668651Y-133358632D01*
X108609480Y-133354159D01*
X108571259Y-133344754D01*
X108544947Y-133328824D01*
X108536154Y-133320692D01*
X108502739Y-133273942D01*
X108504263Y-133228553D01*
X108533248Y-133182660D01*
X108564191Y-133155288D01*
X108609357Y-133139077D01*
X108680580Y-133129974D01*
X108688886Y-133129349D01*
X108817963Y-133127796D01*
X108913828Y-133144035D01*
X108975893Y-133177848D01*
X109003568Y-133229016D01*
X109005077Y-133247280D01*
X108997487Y-133295240D01*
X108971192Y-133328047D01*
X108920905Y-133348105D01*
X108841336Y-133357822D01*
X108757818Y-133359769D01*
X108757818Y-133555106D01*
X108851751Y-133554426D01*
X108922094Y-133551371D01*
X108970837Y-133544678D01*
X109006712Y-133533040D01*
X109038452Y-133515147D01*
X109044352Y-133511192D01*
X109123896Y-133444733D01*
X109170071Y-133372315D01*
X109188401Y-133284151D01*
X109189297Y-133254213D01*
X109172744Y-133142114D01*
G36*
X109164911Y-130887336D02*
X109128642Y-130824633D01*
X109092642Y-130781039D01*
X109054925Y-130749155D01*
X109008801Y-130727190D01*
X108947579Y-130713351D01*
X108864569Y-130705847D01*
X108753081Y-130702883D01*
X108672938Y-130702539D01*
X108377935Y-130702539D01*
X108303485Y-130868615D01*
X108626598Y-130878385D01*
X108747271Y-130882421D01*
X108834859Y-130886656D01*
X108895350Y-130891903D01*
X108934732Y-130898975D01*
X108958993Y-130908689D01*
X108974120Y-130921856D01*
X108977394Y-130926081D01*
X109002966Y-130990091D01*
X108992847Y-131054792D01*
X108966000Y-131093308D01*
X108946976Y-131108975D01*
X108922012Y-131119820D01*
X108884166Y-131126712D01*
X108826498Y-131130521D01*
X108742065Y-131132117D01*
X108654072Y-131132385D01*
X108543677Y-131132437D01*
X108465537Y-131134328D01*
X108412835Y-131140655D01*
X108378758Y-131154017D01*
X108356489Y-131177015D01*
X108339213Y-131212246D01*
X108321262Y-131259303D01*
X108301722Y-131310697D01*
X108648515Y-131304579D01*
X108773532Y-131302116D01*
X108865918Y-131299233D01*
X108932119Y-131295102D01*
X108978580Y-131288893D01*
X109011744Y-131279774D01*
X109038056Y-131266917D01*
X109061271Y-131251416D01*
X109135431Y-131176629D01*
X109178316Y-131085372D01*
X109188588Y-130986117D01*
X109164911Y-130887336D01*
X109164911Y-130887336D01*
G37*
X109164911Y-130887336D02*
X109128642Y-130824633D01*
X109092642Y-130781039D01*
X109054925Y-130749155D01*
X109008801Y-130727190D01*
X108947579Y-130713351D01*
X108864569Y-130705847D01*
X108753081Y-130702883D01*
X108672938Y-130702539D01*
X108377935Y-130702539D01*
X108303485Y-130868615D01*
X108626598Y-130878385D01*
X108747271Y-130882421D01*
X108834859Y-130886656D01*
X108895350Y-130891903D01*
X108934732Y-130898975D01*
X108958993Y-130908689D01*
X108974120Y-130921856D01*
X108977394Y-130926081D01*
X109002966Y-130990091D01*
X108992847Y-131054792D01*
X108966000Y-131093308D01*
X108946976Y-131108975D01*
X108922012Y-131119820D01*
X108884166Y-131126712D01*
X108826498Y-131130521D01*
X108742065Y-131132117D01*
X108654072Y-131132385D01*
X108543677Y-131132437D01*
X108465537Y-131134328D01*
X108412835Y-131140655D01*
X108378758Y-131154017D01*
X108356489Y-131177015D01*
X108339213Y-131212246D01*
X108321262Y-131259303D01*
X108301722Y-131310697D01*
X108648515Y-131304579D01*
X108773532Y-131302116D01*
X108865918Y-131299233D01*
X108932119Y-131295102D01*
X108978580Y-131288893D01*
X109011744Y-131279774D01*
X109038056Y-131266917D01*
X109061271Y-131251416D01*
X109135431Y-131176629D01*
X109178316Y-131085372D01*
X109188588Y-130986117D01*
X109164911Y-130887336D01*
G36*
X109175495Y-132390114D02*
X109138273Y-132315461D01*
X109069739Y-132249569D01*
X109044352Y-132231423D01*
X109011134Y-132211655D01*
X108975055Y-132198828D01*
X108926902Y-132191490D01*
X108857464Y-132188187D01*
X108765794Y-132187462D01*
X108640170Y-132190737D01*
X108545846Y-132202123D01*
X108475477Y-132223959D01*
X108421714Y-132258581D01*
X108377212Y-132308330D01*
X108374577Y-132311986D01*
X108347623Y-132361015D01*
X108334288Y-132420055D01*
X108331000Y-132495141D01*
X108331000Y-132617205D01*
X108212503Y-132617256D01*
X108146508Y-132618392D01*
X108107798Y-132625314D01*
X108084581Y-132643402D01*
X108065067Y-132678038D01*
X108061080Y-132686355D01*
X108042397Y-132725280D01*
X108030597Y-132755417D01*
X108029578Y-132777826D01*
X108043239Y-132793567D01*
X108075478Y-132803698D01*
X108130196Y-132809277D01*
X108211289Y-132811365D01*
X108322656Y-132811019D01*
X108468198Y-132809300D01*
X108511731Y-132808763D01*
X108661795Y-132806828D01*
X108759958Y-132805096D01*
X108759958Y-132617308D01*
X108676636Y-132616252D01*
X108622120Y-132611562D01*
X108586163Y-132600949D01*
X108558518Y-132582128D01*
X108545035Y-132569350D01*
X108505583Y-132517110D01*
X108502372Y-132470858D01*
X108534951Y-132423133D01*
X108536154Y-132421923D01*
X108561332Y-132402506D01*
X108595553Y-132390693D01*
X108648252Y-132384735D01*
X108728869Y-132382880D01*
X108746729Y-132382846D01*
X108857825Y-132387330D01*
X108934839Y-132401926D01*
X108981853Y-132428350D01*
X109002950Y-132468317D01*
X109005077Y-132491416D01*
X108995100Y-132546238D01*
X108962248Y-132583842D01*
X108902143Y-132606477D01*
X108810402Y-132616394D01*
X108759958Y-132617308D01*
X108759958Y-132805096D01*
X108777940Y-132804778D01*
X108865321Y-132802127D01*
X108929095Y-132798394D01*
X108974418Y-132793093D01*
X109006445Y-132785742D01*
X109030332Y-132775857D01*
X109051236Y-132762954D01*
X109059102Y-132757421D01*
X109133405Y-132684031D01*
X109175533Y-132591240D01*
X109187278Y-132483904D01*
X109175495Y-132390114D01*
X109175495Y-132390114D01*
G37*
X109175495Y-132390114D02*
X109138273Y-132315461D01*
X109069739Y-132249569D01*
X109044352Y-132231423D01*
X109011134Y-132211655D01*
X108975055Y-132198828D01*
X108926902Y-132191490D01*
X108857464Y-132188187D01*
X108765794Y-132187462D01*
X108640170Y-132190737D01*
X108545846Y-132202123D01*
X108475477Y-132223959D01*
X108421714Y-132258581D01*
X108377212Y-132308330D01*
X108374577Y-132311986D01*
X108347623Y-132361015D01*
X108334288Y-132420055D01*
X108331000Y-132495141D01*
X108331000Y-132617205D01*
X108212503Y-132617256D01*
X108146508Y-132618392D01*
X108107798Y-132625314D01*
X108084581Y-132643402D01*
X108065067Y-132678038D01*
X108061080Y-132686355D01*
X108042397Y-132725280D01*
X108030597Y-132755417D01*
X108029578Y-132777826D01*
X108043239Y-132793567D01*
X108075478Y-132803698D01*
X108130196Y-132809277D01*
X108211289Y-132811365D01*
X108322656Y-132811019D01*
X108468198Y-132809300D01*
X108511731Y-132808763D01*
X108661795Y-132806828D01*
X108759958Y-132805096D01*
X108759958Y-132617308D01*
X108676636Y-132616252D01*
X108622120Y-132611562D01*
X108586163Y-132600949D01*
X108558518Y-132582128D01*
X108545035Y-132569350D01*
X108505583Y-132517110D01*
X108502372Y-132470858D01*
X108534951Y-132423133D01*
X108536154Y-132421923D01*
X108561332Y-132402506D01*
X108595553Y-132390693D01*
X108648252Y-132384735D01*
X108728869Y-132382880D01*
X108746729Y-132382846D01*
X108857825Y-132387330D01*
X108934839Y-132401926D01*
X108981853Y-132428350D01*
X109002950Y-132468317D01*
X109005077Y-132491416D01*
X108995100Y-132546238D01*
X108962248Y-132583842D01*
X108902143Y-132606477D01*
X108810402Y-132616394D01*
X108759958Y-132617308D01*
X108759958Y-132805096D01*
X108777940Y-132804778D01*
X108865321Y-132802127D01*
X108929095Y-132798394D01*
X108974418Y-132793093D01*
X109006445Y-132785742D01*
X109030332Y-132775857D01*
X109051236Y-132762954D01*
X109059102Y-132757421D01*
X109133405Y-132684031D01*
X109175533Y-132591240D01*
X109187278Y-132483904D01*
X109175495Y-132390114D01*
G04 #@! TD*
M02*
